<svg xmlns="http://www.w3.org/2000/svg" viewBox="0 0 296210 333333" shape-rendering="geometricPrecision" text-rendering="geometricPrecision" image-rendering="optimizeQuality" fill-rule="evenodd" clip-rule="evenodd"><path d="M292442 250000c2324-4026 3768-8562 3768-12635V95969c0-4074-1442-8608-3768-12634l-144337 83333 144337 83333z" fill="#3949ab"/><path d="M160931 330278l122453-70698c3528-2037 6733-5554 9058-9581l-144337-83333L3768 250000c2324 4026 5531 7544 9057 9580l122453 70698c7054 4073 18598 4073 25652 0z" fill="#283593"/><path d="M292443 83333c-2325-4027-5532-7544-9059-9580L160931 3056c-7054-4074-18598-4074-25652 0L12826 73754C5771 77826 0 87824 0 95970v141396c0 4074 1443 8609 3769 12635l144337-83333 144338-83334z" fill="#5c6bc0"/><path d="M148105 265404c-54444 0-98737-44293-98737-98737s44293-98737 98737-98737c35131 0 67895 18905 85505 49338l-42731 24727c-8813-15233-25205-24696-42774-24696-27222 0-49368 22146-49368 49369 0 27221 22146 49369 49368 49369 17571 0 33963-9463 42778-24698l42731 24726c-17610 30435-50375 49341-85508 49341z" fill="#fff"/></svg>