<svg xmlns="http://www.w3.org/2000/svg" role="img" viewBox="-3.56 -3.56 185.38 48.13"><style>svg {enable-background:new 0 0 178.4 41}</style><style>.st0{fill:#1649dc}</style><switch><g><g id="图层_2_1_"><g id="图层_2-2"><path d="M23 8.5c-2.3-.8-4.7-1.1-7.1-1H1.1C.5 7.5 0 8 0 8.6v31.3c0 .6.4 1.1 1 1.1h12.2c3 .1 6.1-.2 9-.9 2-.6 3.8-1.8 5.1-3.4 2.5-2.9 3.7-7.3 3.7-13 .1-3.2-.5-6.4-1.9-9.3-1.2-2.7-3.4-4.8-6.1-5.9zm-.6 23.3c-.7 1.1-1.7 2-2.9 2.5-1.6.6-3.3.8-5.1.8H6.2V13.4h8.6c3.3 0 5.7.4 7.2 2.1 1.5 1.8 2.2 4.6 2.2 8.7-.1 3.6-.7 5.7-1.8 7.6zM44.2 8.5c-1.9.7-3.7 1.9-5.1 3.4-2.9 3.2-4.4 7.5-4.4 12.9 0 2.8.5 5.6 1.6 8.2 1.6 3.7 4 6 7.2 7 2.7.7 5.4 1 8.1.9h9.5c.6 0 1.1-.5 1.1-1.1v-3.7c0-.6-.5-1.1-1.1-1.1h-9.5c-3.5 0-5.9-.7-7.3-2-1.9-1.9-3.3-4.4-3.3-8.8-.1-2.8.8-5.5 2.4-7.7.7-1.1 1.8-1.9 3-2.4 1.6-.5 3.3-.8 5-.7h9.5c.6 0 1.1-.5 1.1-1.1V8.6c0-.6-.5-1.1-1.1-1.1h-9.5c-2.2-.1-4.8.3-7.2 1zm94.1 10.1c-1-1-2.1-1.7-3.4-2.2-1.6-.5-3.4-.8-5.1-.7h-5.7V8.6c0-.6-.5-1.1-1.1-1.1h-4.6c-.6 0-1.1.5-1.1 1.1v31.3c0 .6.5 1.1 1.1 1.1h4.6c.6 0 1.1-.5 1.1-1.1V21.7h4.1c2.5 0 4.2.4 5 1.3s1.3 1.8 1.3 4.4v12.5c0 .6.5 1.1 1.1 1.1h4.4c.6 0 1.1-.5 1.1-1.1V27c.1-1.8-.2-3.6-.7-5.3-.5-1.2-1.2-2.2-2.1-3.1zm-38.2-2.1c-1.4.5-2.7 1.4-3.8 2.5-2.2 2.4-3.2 5.6-3.2 9.6 0 2.3.4 4.5 1.2 6.6.9 2.4 2.8 4.4 5.3 5.2 2 .5 4 .7 6 .7h6.8c.6 0 1.1-.5 1.1-1.1v-3.5c0-.6-.5-1.1-1.1-1.1h-6.8c-2.6 0-3.6-.7-4.3-1.4-.9-.8-1.7-2.7-1.7-5.9-.1-1.9.6-3.8 1.9-5.1 1.1-1 2.6-1.6 4.1-1.5h6.8c.6 0 1.1-.5 1.1-1.1v-3.6c0-.6-.5-1.1-1.1-1.1h-6.8c-1.8 0-3.7.2-5.5.8zM87.7 18c-.7-.9-1.8-1.5-2.9-1.7-1.6-.4-3.2-.6-4.8-.6H67.2c-.6 0-1.1.5-1.1 1.1l.1 3.5c0 .6.5 1.1 1.1 1.1h10.6c2.4 0 3.5 0 4.3.4s1.1 1.4 1.2 3.4h-8.8c-2.2-.1-4.5.5-6.4 1.7-1 .7-1.8 1.7-2.2 2.8-.4 1.3-.6 2.6-.5 3.9 0 2 .2 3.5 1.2 4.8 1.1 1.3 2.6 2.2 4.3 2.4 1.6.2 3.2.3 4.8.2h12.6c.6 0 1.1-.5 1.1-1.1V25.4c0-1.6-.1-3.2-.3-4.8-.4-1-.8-1.9-1.5-2.6zm-4.3 18h-8.2c-1.8 0-2.3-.2-2.9-.7-.6-.5-1-1.4-.8-2.2-.1-.9.3-1.7 1-2.3.8-.5 1.8-.6 2.7-.5h8.2V36zm72.7-.5c-1.9 0-4.4 0-5.3-1-1.2-1.5-1-2.4-1-5v-3.2c0-2.1.1-3 .9-3.9 1.3-1.4 2.3-1.2 5.6-1.2s6.3 0 6.1 4.5l-8.3.1c-.6 0-1.1.5-1.1 1.1v2.9c0 .6.5 1.1 1.1 1.1h12.8c.6 0 1.1-.4 1.1-1v-.1c0-4.1 0-9.5-2.1-11.6-2.5-2.5-5.9-2.4-10-2.4-3.6 0-6.5 0-9 2.4s-2.6 6.2-2.6 9.9c0 4 0 8.4 2.3 10.8 2.1 2.2 5.9 2.1 9.5 2.1h10.8c.6 0 1.1-.4 1.1-1V36.7c0-.6-.5-1.1-1.1-1.1-3 0-9.3-.1-10.8-.1zm22-28.7l-.2-.1c-.2-.1-.4-.1-.6 0l-5.7 3.5c-.2.1-.4.1-.6 0l-5.7-3.5c-.2-.1-.4-.1-.6 0l-.2.1c-.3.2-.3.6-.1.9 0 .1.1.1.1.1l6.5 4c.2.1.4.1.6 0l6.5-4c.3-.2.3-.6.2-.8-.1-.1-.2-.1-.2-.2z" class="st0"/><path d="M178.1 9.5l-.2-.1c-.2-.1-.4-.1-.6 0l-5.7 3.5c-.2.1-.4.1-.6 0l-5.7-3.5c-.2-.1-.4-.1-.6 0l-.2.1c-.3.2-.3.6-.1.9 0 .1.1.1.1.1l6.5 4c.2.1.4.1.6 0l6.5-4c.3-.2.3-.6.2-.8-.1-.1-.2-.1-.2-.2zm0-4.4l-6.5 4c-.2.1-.4.1-.6 0l-6.5-4c-.3-.2-.3-.6-.1-.9 0-.1.1-.1.1-.1l6.5-4c.2-.1.4-.1.6 0l6.5 4c.3.2.3.6.2.8-.1.1-.2.1-.2.2z" class="st0"/></g></g></g></switch></svg>