<svg xmlns="http://www.w3.org/2000/svg" viewBox="0 0 611.3 117.7"><defs><style>.a{fill:#0048dc;}</style></defs><title>DCache-Color</title><path class="a" d="M817.4,520.6v-6.2c0-16.9-14.8-30.6-32.9-30.6H765.6c-18.1,0-32.9,13.7-32.9,30.6v25.1c0,16.8,14.8,30.5,32.9,30.5h43.5a2.9,2.9,0,0,0,3.1-2.7V552.8a2.9,2.9,0,0,0-3.1-2.7H765.6c-5.4,0-10-4.9-10-10.6v-3.3h58.7a2.9,2.9,0,0,0,3.1-2.7V520.6Zm-22.9-.7H755.6v-5.5c0-5.8,4.6-10.7,10-10.7h18.9c5.4,0,10,4.9,10,10.7Z" transform="translate(-206.2 -453.3)"/><path class="a" d="M418.6,453.3H392.2c-30.7,0-55.7,27.6-55.7,58.3a61.7,61.7,0,0,0,16.3,41.2c10.1,11,24.1,18.1,39.4,18.1h26.4a2.2,2.2,0,0,0,2.2-2.2V551.1a2.2,2.2,0,0,0-2.2-2.2H392.2c-18.6,0-33.7-18.7-33.7-37.3s15-36.2,34-36.2h26.2a2.3,2.3,0,0,0,2.1-2.2V455.5A2.2,2.2,0,0,0,418.6,453.3Z" transform="translate(-206.2 -453.3)"/><path class="a" d="M421.1,567.8h0Z" transform="translate(-206.2 -453.3)"/><path class="a" d="M491.2,483.1H452.6a3,3,0,0,0-3.2,2.8v14.8a3,3,0,0,0,3.2,2.7h38.6c5.5,0,10.2,5,10.2,10.9v6H471.9c-17.3,0-31.5,9.1-31.5,25.3,0,17.8,14,25.3,31.5,25.3h52.9V514.3C524.8,497.1,509.7,483.1,491.2,483.1Zm10.2,56.8v14.6H471.9a8.9,8.9,0,1,1,0-17.8h29.5Z" transform="translate(-206.2 -453.3)"/><path class="a" d="M610.4,483.2H587.3c-21,0-43.2,15.6-43.2,44.5s25.8,43.2,43.2,43.2h23.1a2.1,2.1,0,0,0,2.2-2V552.4a2.1,2.1,0,0,0-2.2-2H587.3c-6.6,0-21.2-5.7-21.2-22.7,0-9.6,5.7-24,21.2-24h23.1a2.1,2.1,0,0,0,2.2-2V485.2A2.1,2.1,0,0,0,610.4,483.2Z" transform="translate(-206.2 -453.3)"/><path class="a" d="M678.8,482.2H656.5V455.5a2.2,2.2,0,0,0-2.2-2.2H634.4a2.2,2.2,0,0,0-2.2,2.2V568.7a2.2,2.2,0,0,0,2.2,2.2h19.9a2.2,2.2,0,0,0,2.2-2.2V503.9h22.3c5.5,0,10.2,5.4,10.2,11.7v53.2a2.1,2.1,0,0,0,2.2,2.1h19.1a2.1,2.1,0,0,0,2.2-2.1V520C712.5,490.9,697.3,482.2,678.8,482.2Z" transform="translate(-206.2 -453.3)"/><path class="a" d="M256.4,453.3h-2.1a2.2,2.2,0,0,0-2.2,2.2v17.7a2.2,2.2,0,0,0,2.2,2.2h2.2c21.7,0,39.1,17.7,37.6,39.3a36.7,36.7,0,0,1-36.6,34.2H216.9a2.2,2.2,0,0,0-2.2,2.2v17.6a2.2,2.2,0,0,0,2.2,2.2h40.6a58.8,58.8,0,0,0,58.7-60.8C315.1,478.3,288.3,453.3,256.4,453.3Z" transform="translate(-206.2 -453.3)"/><rect class="a" x="30.8" y="35.9" width="20.6" height="20.58" rx="3" ry="3"/><rect class="a" y="0.1" width="29.4" height="29.4" rx="3" ry="3"/><rect class="a" x="8.8" y="62.4" width="20.6" height="20.58" rx="3" ry="3"/></svg>