<svg xmlns="http://www.w3.org/2000/svg" viewBox="0 0 766.48 174.9"><defs><style>.cls-1{fill:#2057ca;}.cls-2{fill:#1d54c9;}.cls-3{fill:#1a52c9;}.cls-4{fill:#134dc7;}.cls-5{fill:#124dc7;}.cls-6{fill:#104cc6;}.cls-7{fill:#124ec7;}.cls-8{fill:#1650c8;}.cls-9{fill:#134ec7;}.cls-10{fill:#0f4bc7;}.cls-11{fill:#fefefe;}.cls-12{fill:#fdfdfe;}.cls-13{fill:#1c55c8;}.cls-14{fill:#1b54c8;}.cls-15{fill:#104ac6;}.cls-16{fill:#0344c3;}.cls-17{fill:#114bc8;}.cls-18{fill:#1852c9;}.cls-19{fill:#023fc3;}.cls-20{fill:#0d49c6;}.cls-21{fill:#1651c8;}.cls-22{fill:#1c54ca;}.cls-23{fill:#1b55c9;}.cls-24{fill:#104cc5;}.cls-25{fill:#154fc8;}.cls-26{fill:#124cc7;}.cls-27{fill:#144dc6;}.cls-28{fill:#1852c8;}.cls-29{fill:#104cc7;}.cls-30{fill:#0946c5;}.cls-31{fill:#0847c4;}.cls-32{fill:#0a47c4;}.cls-33{fill:#1e58ca;}.cls-34{fill:#1d55ca;}.cls-35{fill:#0643c4;}.cls-36{fill:#1d56ca;}.cls-37{fill:#fdfdfd;}</style></defs><g id="图层_2" data-name="图层 2"><g id="图层_1-2" data-name="图层 1"><path class="cls-1" d="M51.76,173.87c-7.56-1.43-13-6-16.72-12.37C24.44,143,14.1,124.4,3.72,105.8c-5.24-9.39-4.84-18.72.53-28,10.1-17.43,20.07-34.93,30.2-52.34,4.27-7.35,10.09-12.75,19.08-13.61,1.63,1.29,3.53.63,5.28.63q32.16.09,64.31,0c-22.75,0-45.49,0-68.24-.06a2.4,2.4,0,0,1-1.32-.6c1.61-1.29,3.52-.78,5.3-.78,20.48,0,41,0,61.45,0,11,0,19.15,4.75,24.62,14.2,10.4,18,20.83,36,31.14,54.05,4.73,8.28,5,16.94.43,25.28Q160.58,133.42,144.12,162a23.39,23.39,0,0,1-16.41,11.94C102.39,174,77.07,174,51.76,173.87Z"/><path d="M277,100c-12.33,0-24.66.12-37-.08-3.53-.06-3.77,1.1-2.93,4,4,13.84,18.77,21.82,34.82,18.64a30.86,30.86,0,0,0,14.76-6.87c2.18-1.93,3.85-2.31,6.51-.9,4.83,2.58,9.85,4.85,14.91,7,2.77,1.17,2.95,2.16,1.07,4.53-9.86,12.43-22.93,18.44-38.47,19.35-22.93,1.36-41.67-6.07-53.22-27-13.32-24.18-4.91-57,18.07-71.55,23.16-14.7,56.68-8.53,72.55,13.42,8,11,10.31,23.55,10,36.86-.08,3-1.74,2.6-3.59,2.6Q295.69,99.93,277,100Z"/><path class="cls-1" d="M691.64,3c2.24,1.19,1.05,3.27,1.06,4.87.09,23.12.06,46.25.06,69.37v6c5.89-6.52,11-12.12,16-17.74,6.23-6.93,12.47-13.85,18.65-20.82,1.48-1.66,2.89-2.91,5.42-2.87,9.3.16,18.6.07,27.94.07.25,2-1.35,2.72-2.27,3.75-12.42,13.88-24.81,27.8-37.42,41.51-2.39,2.61-2,4,.2,6.31,15,16,29.78,32.24,44.65,48.39-6.23,1.41-12.55.24-18.81.6-3.82.22-7.65-.34-11.46.3-9.62-9.19-18.15-19.4-27.27-29.06-5-5.27-9.88-10.64-15.65-16.87,0,14.57,0,28-.07,41.33,0,1.61,1.17,3.68-1,4.91-8-1.16-16-.63-24-.28-1.17-2-.44-4.17-.44-6.23q-.09-63.25,0-126.51c0-2,.17-4,.25-5.95,6.08-1.2,12.23-.2,18.33-.56C687.74,3.41,689.78,4.09,691.64,3Z"/><path d="M440,92.14A53.23,53.23,0,0,1,333.57,94.3c-1-32.82,26.69-55.07,51.55-55C415.83,39.33,439.76,62.17,440,92.14Z"/><path class="cls-1" d="M553.64,42.09c6.64-.07,13.28,0,19.9-.28,3.48-.17,4.86.89,4.39,4.4a48.47,48.47,0,0,0,0,5.64c7.93-5.76,15.2-11.33,24.73-11.9a78.08,78.08,0,0,0,11,0,30.79,30.79,0,0,1,28,29c-.13,23.59.06,47.18-.1,70.77-.11,2.55-1.86,2.71-3.83,2.7-5.31,0-10.62-.13-15.92,0-2.83.09-3.73-.93-3.71-3.73.1-16.49,0-33,.06-49.48-.28.62,0,1.49-.67,2-.54-4.76-.74-9.58-1.67-14.27-2.8-14.2-17.74-19.06-28.63-9.38-5.35,4.76-8,11-8.61,18-1.33,14.28-.45,28.59-.7,42.89q-.12,6.72-.23,13.45c-7.26,1.07-14.58.2-21.86.5-1.91.07-2.77-.74-2.64-2.65.05-.66,0-1.33,0-2q0-45.91,0-91.83C553.18,44.68,552.87,43.31,553.64,42.09Z"/><path class="cls-1" d="M458.7,142.86c-1.37-1-.7-2.45-.71-3.68q0-66.17,0-132.34c0-1.23-.66-2.68.72-3.68,8,.51,16,.86,24-.17,1.92.9,1,2.64,1,3.94q.09,66.07,0,132.15c0,1.32.91,3-1,4C474.71,141.93,466.7,142.31,458.7,142.86Z"/><path class="cls-1" d="M504.66,143c-1.71-1-.83-2.71-.84-4-.05-30.76,0-61.51-.11-92.27,0-3.51.55-5.09,4.54-4.85,6,.37,12,.14,18,.07,2,0,3.42.12,3.41,2.85q-.11,48.38,0,96.76a1.41,1.41,0,0,1-.91,1.55A111.4,111.4,0,0,0,504.66,143Z"/><path class="cls-1" d="M511.62,32.1c-7.87-2.86-12-9.52-11-17.88A16.42,16.42,0,0,1,515.2.06a16.65,16.65,0,0,1,17,11.25c2.54,7.83-.33,15.25-7.58,19.61C520.39,32.45,516,31.83,511.62,32.1Z"/><path class="cls-2" d="M51.76,173.87c1.18-1.32,2.75-.9,4.2-.9q33.78,0,67.56,0c1.44,0,3-.42,4.19.92a16.46,16.46,0,0,1-6.85,1q-31.38,0-62.77,0A15.33,15.33,0,0,1,51.76,173.87Z"/><path class="cls-3" d="M640.64,140q0-32.67,0-65.33c0-1.9-.77-4,1-5.65a14.05,14.05,0,0,1,.79,5.89q0,32.46,0,64.93c0,1.06.61,2.38-.81,3.1C640.61,142.17,641.63,140.73,640.64,140Z"/><path class="cls-4" d="M553.64,42.09c0,31.47.1,63-.09,94.43,0,4.49,1.25,5.79,5.63,5.53,6.14-.36,12.32-.09,18.48-.09-.26,1.76-1.67,1.31-2.72,1.32-6.5,0-13-.08-19.48.06-2.41.06-3.08-.74-3.08-3.11q.11-47.92.06-95.85C552.44,43.45,552.19,42.29,553.64,42.09Z"/><path class="cls-5" d="M640.64,140c1.15.71.94,1.87,1,2.94-7.28.87-14.6.11-21.89.41-2.58.11-2.48-1.44-2.47-3.19q.13-24.43.23-48.87l.42-6.26.72,0v49.69c0,7.23,0,7.23,7.18,7.23,3.65,0,7.31,0,11,0C638.35,141.93,640.28,142.43,640.64,140Z"/><path class="cls-6" d="M735.68,142.74c5.53-1.65,11.19-.48,16.79-.74,4.48-.21,9-.12,13.48-.16,1,1,.39,1.44-.56,1.41C755.49,143,745.56,144,735.68,142.74Z"/><path class="cls-7" d="M691.64,3c-3.47,2.19-7.3.74-10.95,1-4.39.28-8.82.1-13.23.12-.13-1.62,1.11-1.32,2-1.31C676.84,2.82,684.24,2.91,691.64,3Z"/><path class="cls-6" d="M667.69,142.77c8-1.13,16-1.69,24,.28C683.67,143.3,675.67,143.79,667.69,142.77Z"/><path class="cls-6" d="M504.66,143a57.82,57.82,0,0,1,24,.06A186.76,186.76,0,0,1,504.66,143Z"/><path class="cls-8" d="M511.62,32.1c4.19-2,8.65-1,13-1.18C520.51,33.69,516.15,33.81,511.62,32.1Z"/><path class="cls-6" d="M458.7,142.86c8-1.32,16-1.74,24,.19C474.69,143.33,466.69,143.7,458.7,142.86Z"/><path class="cls-9" d="M482.67,3c-8,1.84-16,1.45-24,.17C466.7,2.37,474.69,2.72,482.67,3Z"/><path class="cls-10" d="M613.65,40a12.7,12.7,0,0,1-11,0A22.5,22.5,0,0,1,613.65,40Z"/><path class="cls-11" d="M52.64,150.2c-8.89-14-16.16-29-24.51-43.31-9-15.54-7.67-13,.58-28.9.58-2.16.86-4.49,3.17-5.68A15,15,0,0,0,34.83,67a1.68,1.68,0,0,1,1-1.82,26.19,26.19,0,0,0,4-7.17,1.62,1.62,0,0,1,1-1.81C45.07,50.5,47.4,43.62,52,38.12c.34-1.55,1.39-2,2.86-1.91l3.1-1.1c6.4-1.28,12.87-.47,19.3-.51,4.77,0,9.59-.8,14.32.5,1.2.55,2.44,1,3.6,1.64a12.39,12.39,0,0,1,6.48,13.83c-1.09,5-6.45,9.38-11.92,9.5-5.81.13-11.62,0-17.43.08-1.56,0-3.33-.75-4.69.72h0A115.13,115.13,0,0,0,57.44,78.77l.23.39-.32-.32c-1.85,2.8.69,2.06,1.81,2.08,6.46.07,12.92,0,19.37,0,9.61,0,19.22.23,28.81-.08,7.25-.23,12.4,2.29,15.12,9.18,1.31,1.9,1,3.85.2,5.83-.37,1-.73,2-1.1,3-1.42,5-5.31,6.87-10,7.5-7.25,1-14.55.51-21.83.54-9.1,0-18.2.17-27.3-.46-1.71-.11-3.74-.61-4.83,1.52a24.15,24.15,0,0,0,4,7.19,1.6,1.6,0,0,1,1,1.82c1.37,2.65,2.83,5.25,4.07,8,1,2.27,2.52,3.11,5,3,5-.21,10,.16,15-.12,6.51-.37,11.55,1.87,14.18,7.87s.23,11-4.35,15.12c-2.38,2.43-5.37,3.09-8.63,3.09-8.46,0-16.92,0-25.38,0C58.78,153.94,55.3,153.13,52.64,150.2Z"/><path class="cls-12" d="M133.41,38.18c5.12,6.57,5.52,12.5,1.19,17.56-4.07,4.76-10.21,5.69-16.26,2.47-5.21-2.77-7.28-10.36-4.28-16.07a36,36,0,0,1,2.84-4A11,11,0,0,1,133.41,38.18Z"/><path class="cls-12" d="M157.59,96c-.58,1.35-1.17,2.7-1.75,4.06a4.38,4.38,0,0,1-4.09,4.08c-9.66,3.56-18-.46-19-9.12a12.42,12.42,0,0,1,23.71-6.6c.42.9.81,1.8,1.21,2.7A4.75,4.75,0,0,1,157.59,96Z"/><path class="cls-12" d="M118.69,129.85c5.5-2.68,10.81-2.89,15.61,1.45,4.55,4.12,5,9.81,1.56,16.69.07,2.26-2,2.72-3.24,3.91-3.09,1.45-6.14,3.31-9.59.91-9.55-4.56-11.72-10.34-7.48-19.89A3,3,0,0,1,118.69,129.85Z"/><path class="cls-13" d="M57.63,108c-2.19-2.68.29-2.14,1.58-2.16,4.82-.06,9.65,0,14.47,0,11.15,0,22.3-.19,33.44.07,6.2.15,11-1.75,14.44-7,.41,3.24-3.54,7.59-7.68,8a244.4,244.4,0,0,1-48,.17C63.13,106.8,60.23,106.47,57.63,108Z"/><path class="cls-14" d="M52.64,150.2c4,2.3,8.31,2.84,12.88,2.71,7-.18,14-.15,20.92,0a21.29,21.29,0,0,0,10.11-2c-.24,3.51-3.5,3.58-5.43,3.65-11.49.43-23,1.46-34.46-.6C54.72,153.57,52.44,153.09,52.64,150.2Z"/><path class="cls-15" d="M53.56,11.87h71.29c-1.31,1.71-2.61,1.12-3.71,1.12q-31.23.06-62.47,0c-1.76,0-3.72.56-5.14-1.13Z"/><path class="cls-16" d="M57.44,78.77h54.22V80H89.46c-9,0-18,0-26.93,0-1.78,0-3.71.46-5.18-1.1Z"/><path class="cls-17" d="M91.55,35.1H57.93c-.34-.29-2.07-.93-.37-1C69,33.89,80.45,34,91.9,34c.24,0,.48.24.72.37Z"/><path class="cls-18" d="M133.41,38.18c-5.49-3.41-11-4.11-16.51-.09-.14-.41-.52-1-.37-1.19,3.31-4.1,13.73-4.26,17.21-.3C134.29,37.22,134.09,37.78,133.41,38.18Z"/><path class="cls-19" d="M67.59,60.87H91.44c-8,.41-16,2.53-23.86,0Z"/><ellipse class="cls-20" cx="80.26" cy="126.5" rx="14.67" ry="0.32"/><path class="cls-21" d="M123,152.81a15.78,15.78,0,0,0,9.68-1.9,1.4,1.4,0,0,1,0,2.05c-3.38,1.53-6.88,3.09-10.44.94C120.68,152.92,122.78,153.21,123,152.81Z"/><path class="cls-22" d="M31.88,72.31,28.71,78C28,75.11,28.59,73,31.88,72.31Z"/><path class="cls-23" d="M132.73,153c0-.68,0-1.37,0-2.05l3.15-2.92C137.1,151.09,134.17,151.56,132.73,153Z"/><path class="cls-5" d="M151.75,104.1l4.09-4.08C156.23,103.14,154.88,104.51,151.75,104.1Z"/><path class="cls-24" d="M118.69,129.85l-3.14,3.07C115.25,130.05,115.89,129.43,118.69,129.85Z"/><path class="cls-25" d="M112.37,144.08c-.82-2.77-.76-4.33,0-5.92Z"/><path class="cls-26" d="M131.27,97.13c-.66-2.95-.74-4.5-.08-6.59C131.92,92.64,131.79,94.25,131.27,97.13Z"/><path class="cls-27" d="M122.66,95.88l-.2-5.83c2.13,1.67,1.2,3.86,1,5.92,0,.06-.26.14-.38.13A2.05,2.05,0,0,1,122.66,95.88Z"/><path class="cls-28" d="M54.83,36.21,52,38.12c-1.38-1.08-.11-1.66.49-2.24C53.32,35,54.19,35.05,54.83,36.21Z"/><path class="cls-29" d="M123.87,126.68a3.9,3.9,0,0,1,3.7-.46C126.48,127.81,125.1,126.37,123.87,126.68Z"/><path class="cls-30" d="M157.59,96c0-1.63,0-3.25.07-4.88C159.6,92.74,159,94.35,157.59,96Z"/><path class="cls-31" d="M103.21,142.76c-.5-2.28-.68-3.53,0-4.92C104.08,139.26,103.81,140.58,103.21,142.76Z"/><path class="cls-32" d="M147.58,79.29a6.69,6.69,0,0,1-4.83.4C144,78.4,145.31,79.13,147.58,79.29Z"/><path class="cls-33" d="M62.61,117l-1-1.82c.43-.76,1-.82,1.5-.15S63.5,116.56,62.61,117Z"/><path class="cls-34" d="M35.84,65.21c-.33.61-.67,1.21-1,1.82-.88-.48-1.1-1.16-.48-2C34.86,64.42,35.41,64.45,35.84,65.21Z"/><path class="cls-35" d="M123.57,61.46a3.46,3.46,0,0,1,3.4,0A2.89,2.89,0,0,1,123.57,61.46Z"/><path class="cls-36" d="M40.85,56.23l-1,1.81c-.89-.47-1.13-1.15-.5-2C39.86,55.42,40.42,55.46,40.85,56.23Z"/><path class="cls-37" d="M292,79.82H237.92c3.67-11.74,14.09-18.69,27.66-18.6C278.17,61.3,288.67,68.55,292,79.82Z"/><path class="cls-11" d="M414,92.45c0,17.09-11.69,29.48-27.79,29.42-15.92-.05-27.17-12.22-27.16-29.38,0-16.88,11.58-29.13,27.49-29.11C402.65,63.39,414,75.43,414,92.45Z"/></g></g></svg>