<svg width="482" height="394" viewBox="0 0 482 394" fill="none" xmlns="http://www.w3.org/2000/svg">
<path fill-rule="evenodd" clip-rule="evenodd" d="M69.8485 208.7C69.8485 208.7 59.5546 214.699 77.1827 216.723C98.5419 219.165 109.456 218.813 132.987 214.36C132.987 214.36 139.186 218.243 147.828 221.605C95.0617 244.241 28.4066 220.294 69.8485 208.7Z" fill="#0074BD"/>
<path fill-rule="evenodd" clip-rule="evenodd" d="M63.3973 179.156C63.3973 179.156 51.8502 187.717 69.4914 189.542C92.3095 191.901 110.323 192.094 141.511 186.084C141.511 186.084 145.814 190.462 152.592 192.854C88.8037 211.536 17.7568 194.323 63.3973 179.156Z" fill="#0074BD"/>
<path fill-rule="evenodd" clip-rule="evenodd" d="M117.751 129.035C130.76 144.028 114.34 157.509 114.34 157.509C114.34 157.509 147.351 140.449 132.194 119.075C118.033 99.152 107.175 89.2553 165.954 55.1241C165.955 55.1241 73.6858 78.192 117.751 129.035Z" fill="#EA2D2E"/>
<path fill-rule="evenodd" clip-rule="evenodd" d="M187.538 230.555C187.538 230.555 195.159 236.845 179.145 241.709C148.695 250.944 52.3851 253.73 25.6348 242.079C16.0254 237.888 34.0541 232.08 39.7266 230.853C45.6412 229.572 49.0182 229.806 49.0182 229.806C38.3237 222.265 -20.1053 244.615 19.3428 251.025C126.919 268.484 215.439 243.161 187.538 230.555Z" fill="#0074BD"/>
<path fill-rule="evenodd" clip-rule="evenodd" d="M74.8026 148.542C74.8026 148.542 25.8197 160.195 57.4572 164.43C70.8198 166.22 97.4419 165.808 122.258 163.723C142.533 162.02 162.881 158.376 162.881 158.376C162.881 158.376 155.737 161.444 150.564 164.978C100.813 178.08 4.72042 171.978 32.3883 158.583C55.7765 147.254 74.8026 148.542 74.8026 148.542Z" fill="#0074BD"/>
<path fill-rule="evenodd" clip-rule="evenodd" d="M162.678 197.719C213.249 171.414 189.864 146.133 173.543 149.538C169.552 150.372 167.761 151.094 167.761 151.094C167.761 151.094 169.248 148.762 172.08 147.758C204.369 136.398 229.195 181.276 161.667 199.05C161.667 199.05 162.444 198.346 162.678 197.719Z" fill="#0074BD"/>
<path fill-rule="evenodd" clip-rule="evenodd" d="M132.195 0C132.195 0 160.195 28.0522 105.629 71.1763C61.8699 105.783 95.6514 125.507 105.613 148.054C80.0679 124.979 61.3309 104.663 73.8987 85.7582C92.3543 58.0111 143.49 44.5539 132.195 0Z" fill="#EA2D2E"/>
<path fill-rule="evenodd" clip-rule="evenodd" d="M79.7745 269.022C128.306 272.128 202.851 267.293 204.615 244.298C204.615 244.298 201.224 253.015 164.504 259.932C123.077 267.741 71.9711 266.831 41.6715 261.822C41.6715 261.822 47.8788 266.966 79.7745 269.022Z" fill="#0074BD"/>
<path fill-rule="evenodd" clip-rule="evenodd" d="M471.151 127.353H469.349V126.51H474.203V127.353H472.408V131.57H471.151V127.353H471.151ZM480.843 127.566H480.82L479.031 131.569H478.208L476.429 127.566H476.411V131.569H475.22V126.509H476.967L478.613 130.091L480.264 126.509H482V131.569H480.844V127.566H480.843Z" fill="#EA2D2E"/>
<path fill-rule="evenodd" clip-rule="evenodd" d="M317.913 181.529C312.55 186.229 306.878 188.871 301.787 188.871C294.535 188.871 290.602 184.467 290.602 177.419C290.602 169.79 294.813 164.206 311.678 164.206H317.913V181.529ZM332.719 198.411V146.152C332.719 132.794 325.182 123.979 307.017 123.979C296.419 123.979 287.126 126.627 279.572 130L281.746 139.256C287.695 137.047 295.389 134.996 302.944 134.996C313.41 134.996 317.913 139.256 317.913 148.065V154.673H312.683C287.26 154.673 275.79 164.638 275.79 179.628C275.79 192.542 283.35 199.885 297.581 199.885C306.726 199.885 313.561 196.067 319.942 190.481L321.104 198.411H332.719Z" fill="#EA2D2E"/>
<path fill-rule="evenodd" clip-rule="evenodd" d="M382.4 198.619H363.875L341.575 125.244H357.754L371.596 170.332L374.674 183.879C381.661 164.285 386.616 144.391 389.093 125.244H404.829C400.621 149.404 393.029 175.927 382.4 198.619Z" fill="#EA2D2E"/>
<path fill-rule="evenodd" clip-rule="evenodd" d="M453.275 181.529C447.895 186.229 442.222 188.871 437.146 188.871C429.892 188.871 425.96 184.467 425.96 177.419C425.96 169.79 430.179 164.206 447.027 164.206H453.274V181.529H453.275ZM468.084 198.411V146.152C468.084 132.794 460.526 123.979 442.381 123.979C431.77 123.979 422.48 126.627 414.927 130L417.104 139.256C423.056 137.047 430.759 134.996 438.312 134.996C448.764 134.996 453.274 139.256 453.274 148.065V154.673H448.045C422.62 154.673 411.155 164.638 411.155 179.628C411.155 192.542 418.703 199.885 432.931 199.885C442.083 199.885 448.904 196.067 455.301 190.481L456.471 198.411H468.084Z" fill="#EA2D2E"/>
<path fill-rule="evenodd" clip-rule="evenodd" d="M258.842 211.264C254.582 217.482 247.694 222.409 240.159 225.186L232.777 216.498C238.517 213.553 243.433 208.806 245.721 204.385C247.694 200.445 248.515 195.381 248.515 183.256V99.9423H264.404V182.108C264.404 198.323 263.109 204.879 258.842 211.264Z" fill="#EA2D2E"/>
</svg>
