<svg xmlns="http://www.w3.org/2000/svg" viewBox="0 0 261.9 84.8"><defs><style>.cls-1{fill:#3db464;}.cls-2{fill:#0eb298;}.cls-3{fill:#17bbc9;}.cls-4{fill:#159cc9;}.cls-5{fill:#062f4d;}</style></defs><title>资源 3</title><g id="图层_2" data-name="图层 2"><g id="图层_1-2" data-name="图层 1"><polygon class="cls-1" points="44.8 16.2 54.5 16.2 70.6 36.2 80.3 28.4 80.3 22.8 77 18.2 79.4 15.8 59.9 0 48.2 9.5 44.8 16.2"/><polygon class="cls-2" points="94.5 69.7 91.3 84.8 73.5 84.8 74.7 80.4 36.7 36 35.4 34.5 43 19.7 52.2 19.7 53.1 20.8 94.5 69.7"/><polygon class="cls-3" points="32.8 37 50.9 58.5 45.8 66.3 29 66.3 15 84.8 0 84.8 0 66.3 14.1 48.8 19.2 48.8 32.8 37"/><polygon class="cls-4" points="30.9 69.9 48.2 69.9 57.2 81.1 55.4 84.8 33.3 84.8 34.4 81.4 28.8 72.9 30.9 69.9"/><polygon class="cls-5" points="154 62.8 143.3 62.8 131.1 45.5 127.7 45.5 127.7 62.8 117.8 62.8 117.8 21 127.7 21 127.7 37.2 130.7 37.2 143.3 21 153.7 21 138.3 40.8 154 62.8"/><path class="cls-5" d="M178.2,30.2h-11c-4.6,0-9.4,2.2-9.4,10.3V52.6c0,8.1,4.8,10.3,9.4,10.3h11c4.6,0,9.4-2.2,9.4-10.3V40.5C187.6,32.3,182.8,30.2,178.2,30.2Zm.5,25.9H166.6V36.9h12.1Z"/><path class="cls-5" d="M224.5,36.2V62.8h-9.2V36.9H203.9V62.8h-9.1V30.2h9.1v4.6l4.7-4.6h9.8A6,6,0,0,1,224.5,36.2Z"/><path class="cls-5" d="M240.2,30.2h0Z"/><path class="cls-5" d="M261.9,68V30.1H253V34l-4.6-3.9h-8.6a8.11,8.11,0,0,0-7.6,6.8v.2a66.65,66.65,0,0,0-.6,9.1,82.34,82.34,0,0,0,.6,9.7v.2a7.11,7.11,0,0,0,7.1,6.6h13.8v5.2H236.9V70l4.2,4.4h14.6C262.3,74.5,261.9,68,261.9,68ZM253,55.6H240.5V36.9H253Z"/></g></g></svg>