<?xml version="1.0" encoding="utf-8"?>
<!-- Generator: Adobe Illustrator 22.1.0, SVG Export Plug-In . SVG Version: 6.00 Build 0)  -->
<svg version="1.1" id="图层_1" xmlns="http://www.w3.org/2000/svg" xmlns:xlink="http://www.w3.org/1999/xlink" x="0px" y="0px"
	 viewBox="0 0 1200 800" style="enable-background:new 0 0 1200 800;" xml:space="preserve">
<style type="text/css">
	.st0{fill:url(#SVGID_1_);}
	.st1{fill:url(#SVGID_2_);}
	.st2{fill:url(#SVGID_3_);}
</style>
<linearGradient id="SVGID_1_" gradientUnits="userSpaceOnUse" x1="-21.0598" y1="814.9796" x2="-8.3122" y2="802.2319" gradientTransform="matrix(8.8889 0 0 8.8889 292.7778 -6657.2427)">
	<stop  offset="9.680000e-02" style="stop-color:#0095D5"/>
	<stop  offset="0.3007" style="stop-color:#238AD9"/>
	<stop  offset="0.6211" style="stop-color:#557BDE"/>
	<stop  offset="0.8643" style="stop-color:#7472E2"/>
	<stop  offset="1" style="stop-color:#806EE3"/>
</linearGradient>
<path class="st0" d="M281.6,530.9H41.7l120.3-120.3L281.6,530.9z"/>
<linearGradient id="SVGID_2_" gradientUnits="userSpaceOnUse" x1="-26.3538" y1="787.1087" x2="-18.95" y2="779.705" gradientTransform="matrix(8.8889 0 0 8.8889 292.7778 -6657.2427)">
	<stop  offset="0.1183" style="stop-color:#0095D5"/>
	<stop  offset="0.4178" style="stop-color:#3C83DC"/>
	<stop  offset="0.6962" style="stop-color:#6D74E1"/>
	<stop  offset="0.8333" style="stop-color:#806EE3"/>
</linearGradient>
<path class="st1" d="M41.7,421V291.1h120.3L41.7,421z"/>
<linearGradient id="SVGID_3_" gradientUnits="userSpaceOnUse" x1="-32.788" y1="806.494" x2="-7.6801" y2="781.3862" gradientTransform="matrix(8.8889 0 0 8.8889 292.7778 -6657.2427)">
	<stop  offset="0.1075" style="stop-color:#C757BC"/>
	<stop  offset="0.2138" style="stop-color:#D0609A"/>
	<stop  offset="0.4254" style="stop-color:#E1725C"/>
	<stop  offset="0.6048" style="stop-color:#EE7E2F"/>
	<stop  offset="0.743" style="stop-color:#F58613"/>
	<stop  offset="0.8232" style="stop-color:#F88909"/>
</linearGradient>
<path class="st2" d="M41.7,530.9l120.3-120.3l119.5-119.5H162.1L41.7,417.8V530.9z"/>
<g>
	<path d="M623,534.9c-4.3-0.6-8.6-1.1-12.8-1.8c-38.6-6.7-70.7-35.6-77.7-76.1c-4-22.7-0.9-44.4,10.7-64.4
		c13.3-23,33-38.1,58.6-44.8c34.9-9.1,67.2-3.5,95.2,20c18.5,15.5,28.8,35.9,31.6,59.9c2.9,24.7-2.8,47.4-17.6,67.5
		c-14.3,19.4-33.6,31.5-57,36.9c-5.5,1.3-11.3,1.7-16.9,2.5c-0.7,0.1-1.5,0.3-2.2,0.4C630.9,534.9,627,534.9,623,534.9z
		 M582.3,438.4c0,0.8,0,1.7,0,2.5c0.5,25,18.2,47,44.1,48.9c16.4,1.2,30.5-3.9,41-17.1c12.9-16.4,14.2-41.9,3.4-60.5
		c-16.3-27.8-50.9-29.1-70-14.2C587.7,408.2,582.5,422.3,582.3,438.4z"/>
	<path d="M1166,530.3c-0.6,0.1-1.2,0.4-1.7,0.4c-16.5,0-32.9,0-49.4,0c-0.2,0-0.4-0.1-1.1-0.2c0-0.9,0-1.8,0-2.8
		c0-32.5,0.1-65-0.1-97.6c0-6-0.7-12.1-2.2-17.8c-3.2-12.6-11.9-19.8-24.9-21c-12.9-1.2-24.1,1.9-31.4,13.6
		c-3.8,6.2-5.4,13.1-5.4,20.3c-0.1,34-0.1,67.9-0.1,101.9c0,1.1,0,2.1,0,3.4c-17.3,0-34.5,0-51.9,0c0-60.9,0-122,0-183.1
		c17.2,0,34.4,0,51.8,0c0,8.4,0,16.8,0,25.7c1.7-2,3.1-3.6,4.4-5.2c8.2-9.6,17.8-17.2,30-21.1c10.3-3.3,20.8-3.6,31.4-2
		c14.1,2.1,26.1,8,35.3,19.1c7.2,8.8,11.4,19,13.2,30.2c0.8,4.6,1,9.4,1.5,14.1c0.1,0.8,0.3,1.6,0.4,2.5
		C1166,450.5,1166,490.4,1166,530.3z"/>
	<path d="M554.4,291.2c-32.7,34.1-65,67.7-97.5,101.5c33.9,45.9,67.8,91.7,102,138c-1.3,0-2.1,0-2.9,0c-19.3,0-38.7,0-58,0
		c-1.8,0-2.9-0.6-3.9-2c-23.8-32.7-47.6-65.4-71.4-98c-0.4-0.6-0.9-1.2-1.5-1.9c-7.6,7.8-14.8,15.8-22.6,23.2
		c-4,3.8-5.3,7.7-5.3,13.1c0.3,20.9,0.1,41.7,0.1,62.6c0,0.9,0,1.8,0,2.9c-17.6,0-35,0-52.5,0c0-79.7,0-159.3,0-239.2
		c17.4,0,34.8,0,52.4,0c0,34.5,0,69.1,0,104.3c0.9-0.9,1.5-1.3,1.9-1.8c30.9-33.3,61.9-66.6,92.8-100c1.7-1.9,3.4-2.7,6-2.7
		c19,0.1,38.1,0.1,57.1,0.1C552.2,291.2,553,291.2,554.4,291.2z"/>
	<path d="M743.7,391.8c-7.4,0-14.4,0-21.7,0c0-14.8,0-29.4,0-44.4c7.1,0,14.3,0,21.6,0c0-15.7,0-31.2,0-46.8c17.4,0,34.7,0,52.1,0
		c0,15.5,0,30.9,0,46.6c14.4,0,28.6,0,42.9,0c0,14.9,0,29.6,0,44.5c-14.2,0-28.4,0-42.9,0c0,1.1,0,1.9,0,2.7c0,25,0,50,0,74.9
		c0,1.9,0.1,3.8,0.4,5.7c1.3,8.3,5.9,12.4,14.3,12.8c8.9,0.4,17.4-1.3,25.4-5.2c0.5-0.3,1.1-0.5,1.7-0.8c0.1-0.1,0.3,0,0.7,0
		c0,0.7,0,1.5,0,2.2c0,12.2,0,24.4,0,36.6c0,1.8-0.5,2.8-2.1,3.7c-13.4,7.5-27.9,9.7-42.9,9.4c-7.2-0.2-14.3-1.1-21.1-3.6
		c-14.5-5.1-22.6-15.8-26.1-30.4c-1.7-7.2-2.3-14.6-2.3-22c0-27.6,0-55.3,0-82.9C743.7,393.9,743.7,393,743.7,391.8z"/>
	<path d="M905.7,530.6c-17.3,0-34.5,0-51.8,0c0-83.2,0-166.4,0-249.6c17.3,0,34.5,0,51.8,0C905.7,364.2,905.7,447.2,905.7,530.6z"/>
	<path d="M978,530.6c-17.4,0-34.5,0-51.8,0c0-61.1,0-122,0-183.1c17.3,0,34.5,0,51.8,0C978,408.5,978,469.4,978,530.6z"/>
	<path d="M924.8,281c18.2,0,36.3,0,54.5,0c0,15.3,0,30.5,0,45.9c-18.2,0-36.3,0-54.5,0C924.8,311.6,924.8,296.3,924.8,281z"/>
</g>
</svg>
