<svg xmlns="http://www.w3.org/2000/svg" role="img" viewBox="18.52 258.52 1168.96 297.96"><style>svg {enable-background:new 0 0 1200 800}</style><switch><g><linearGradient id="a" x1="2.93" x2="10.334" y1="160.965" y2="168.369" gradientTransform="matrix(8.8889 0 0 -8.8889 32.444 1770.064)" gradientUnits="userSpaceOnUse"><stop offset=".118" stop-color="#0095d5"/><stop offset=".418" stop-color="#3c83dc"/><stop offset=".696" stop-color="#6d74e1"/><stop offset=".833" stop-color="#806ee3"/></linearGradient><path fill="url(#a)" d="M41.7 421V291.1H162L41.7 421z"/><linearGradient id="b" x1="8.224" x2="20.972" y1="133.095" y2="145.842" gradientTransform="matrix(8.8889 0 0 -8.8889 32.444 1770.064)" gradientUnits="userSpaceOnUse"><stop offset=".097" stop-color="#0095d5"/><stop offset=".301" stop-color="#238ad9"/><stop offset=".621" stop-color="#557bde"/><stop offset=".864" stop-color="#7472e2"/><stop offset="1" stop-color="#806ee3"/></linearGradient><path fill="url(#b)" d="M281.6 530.9H41.7L162 410.6l119.6 120.3z"/><linearGradient id="c" x1="-3.502" x2="21.606" y1="141.578" y2="166.686" gradientTransform="matrix(8.8889 0 0 -8.8889 32.444 1770.064)" gradientUnits="userSpaceOnUse"><stop offset=".107" stop-color="#c757bc"/><stop offset=".214" stop-color="#d0609a"/><stop offset=".425" stop-color="#e1725c"/><stop offset=".605" stop-color="#ee7e2f"/><stop offset=".743" stop-color="#f58613"/><stop offset=".823" stop-color="#f88909"/></linearGradient><path fill="url(#c)" d="M41.7 530.9L162 410.6l119.5-119.5H162.1L41.7 417.8v113.1z"/><path d="M623 534.9c-4.3-.6-8.6-1.1-12.8-1.8-38.6-6.7-70.7-35.6-77.7-76.1-4-22.7-.9-44.4 10.7-64.4 13.3-23 33-38.1 58.6-44.8 34.9-9.1 67.2-3.5 95.2 20 18.5 15.5 28.8 35.9 31.6 59.9 2.9 24.7-2.8 47.4-17.6 67.5-14.3 19.4-33.6 31.5-57 36.9-5.5 1.3-11.3 1.7-16.9 2.5-.7.1-1.5.3-2.2.4-4-.1-7.9-.1-11.9-.1zm-40.7-96.5v2.5c.5 25 18.2 47 44.1 48.9 16.4 1.2 30.5-3.9 41-17.1 12.9-16.4 14.2-41.9 3.4-60.5-16.3-27.8-50.9-29.1-70-14.2-13.1 10.2-18.3 24.3-18.5 40.4zm583.7 91.9c-.6.1-1.2.4-1.7.4h-49.4c-.2 0-.4-.1-1.1-.2v-2.8c0-32.5.1-65-.1-97.6 0-6-.7-12.1-2.2-17.8-3.2-12.6-11.9-19.8-24.9-21-12.9-1.2-24.1 1.9-31.4 13.6-3.8 6.2-5.4 13.1-5.4 20.3-.1 34-.1 67.9-.1 101.9v3.4h-51.9V347.4h51.8v25.7c1.7-2 3.1-3.6 4.4-5.2 8.2-9.6 17.8-17.2 30-21.1 10.3-3.3 20.8-3.6 31.4-2 14.1 2.1 26.1 8 35.3 19.1 7.2 8.8 11.4 19 13.2 30.2.8 4.6 1 9.4 1.5 14.1.1.8.3 1.6.4 2.5.2 39.8.2 79.7.2 119.6z"/><path d="M554.4 291.2c-32.7 34.1-65 67.7-97.5 101.5 33.9 45.9 67.8 91.7 102 138H498c-1.8 0-2.9-.6-3.9-2-23.8-32.7-47.6-65.4-71.4-98-.4-.6-.9-1.2-1.5-1.9-7.6 7.8-14.8 15.8-22.6 23.2-4 3.8-5.3 7.7-5.3 13.1.3 20.9.1 41.7.1 62.6v2.9h-52.5V291.4h52.4v104.3c.9-.9 1.5-1.3 1.9-1.8 30.9-33.3 61.9-66.6 92.8-100 1.7-1.9 3.4-2.7 6-2.7 19 .1 38.1.1 57.1.1 1.1-.1 1.9-.1 3.3-.1zm189.3 100.6H722v-44.4h21.6v-46.8h52.1v46.6h42.9v44.5h-42.9V469.3c0 1.9.1 3.8.4 5.7 1.3 8.3 5.9 12.4 14.3 12.8 8.9.4 17.4-1.3 25.4-5.2.5-.3 1.1-.5 1.7-.8.1-.1.3 0 .7 0V520.6c0 1.8-.5 2.8-2.1 3.7-13.4 7.5-27.9 9.7-42.9 9.4-7.2-.2-14.3-1.1-21.1-3.6-14.5-5.1-22.6-15.8-26.1-30.4-1.7-7.2-2.3-14.6-2.3-22v-82.9-3zm162 138.8h-51.8V281h51.8v249.6zm72.3 0h-51.8V347.5H978v183.1zM924.8 281h54.5v45.9h-54.5V281z"/></g></switch></svg>