<svg xmlns="http://www.w3.org/2000/svg" role="img" viewBox="-49.85 -49.85 2592.20 2592.20"><style>svg {enable-background:new 0 0 2500 2500}</style><switch><g><linearGradient id="a" x1="683.226" x2="683.226" y1="1815.132" y2="1816.132" gradientTransform="matrix(2493.7009 0 0 -2493.7009 -1702514.625 4528889)" gradientUnits="userSpaceOnUse"><stop offset="0" stop-color="#574c4a"/><stop offset="1" stop-color="#80716d"/></linearGradient><path fill="url(#a)" d="M0 1684.9V808.8C0 101.1 101 0 807.9 0h877.8c706.9 0 807.9 101.1 807.9 808.8V1685c0 707.7-101 808.8-807.9 808.8H807.9C101 2493.7 0 2392.6 0 1684.9z"/><linearGradient id="b" x1="683.343" x2="682.757" y1="1815.269" y2="1816.339" gradientTransform="matrix(1567.7467 0 0 -1504.1832 -1069625 2732535.5)" gradientUnits="userSpaceOnUse"><stop offset="0" stop-color="#268d83"/><stop offset="1" stop-color="#2ea19e"/></linearGradient><path fill="url(#b)" d="M538.2 470c-122.6 776.9-58.4 1504.2-58.4 1504.2h383.1c-36.5-193.9-167.2-1080-58.4-1082.9 58.3 9.3 324.7 751.7 324.7 751.7s58.7-7.3 117.7-7.3 117.7 7.3 117.7 7.3 266.4-742.4 324.7-751.7c108.8 2.9-22 888.9-58.4 1082.9H2014s64.1-727.3-58.4-1504.2h-354.7c-67.5.8-324.4 451.3-353.9 451.3S960.5 470.8 892.9 470H538.2z"/><radialGradient id="c" cx="679.648" cy="1819.191" r=".5" gradientTransform="matrix(181.3681 0 0 -181.3681 -122201.5 331813.656)" gradientUnits="userSpaceOnUse"><stop offset="0" stop-color="#db7c7c"/><stop offset="1" stop-color="#c83737"/></radialGradient><path fill="url(#c)" d="M1171.3 1883.5c0 50.1-40.6 90.7-90.7 90.7s-90.7-40.6-90.7-90.7 40.6-90.7 90.7-90.7 90.7 40.6 90.7 90.7z"/><radialGradient id="d" cx="679.677" cy="1819.192" r=".5" gradientTransform="matrix(181.3583 0 0 -181.3582 -121862.281 331795.656)" gradientUnits="userSpaceOnUse"><stop offset="0" stop-color="#db7c7c"/><stop offset="1" stop-color="#c83737"/></radialGradient><path fill="url(#d)" d="M1503.8 1883.5c0 50.1-40.6 90.7-90.7 90.7s-90.7-40.6-90.7-90.7 40.6-90.7 90.7-90.7 90.7 40.6 90.7 90.7z"/><path d="M1937.5 495.7c55.3 374.3 68.3 733.5 67.3 1001-1 273.7-16.7 451.5-16.7 451.5h-322.5l-34.7 26H2014s64.1-727.3-58.4-1504.2l-18.1 25.7zm-1015.3-9.5c100.6 112 274.7 409.1 298.7 409.1-63.8-81.5-220.6-341.9-298.7-409.1zM778.5 865.3c-108.8 2.9 22 888.9 58.4 1082.9H502.5l-22.7 26h383.1c-36.3-193-165.9-1071.1-60.1-1082.9-9.8-14.8-18.3-25-24.3-26zm884.8 0c-58.3 9.3-324.7 751.7-324.7 751.7s-58.7-7.3-117.7-7.3c-34.9 0-65 2.1-85.3 4l-6.4 29.2s58.7-7.3 117.7-7.3 117.7 7.3 117.7 7.3 264.4-737.6 323.9-751.7c-6.5-16.1-14.4-25.6-25.2-25.9z" opacity=".1"/><path fill="#fff" d="M538.2 470c-122.6 776.9-58.4 1504.2-58.4 1504.2l22.6-25.4C490.9 1777.2 460 1156.7 564.3 496H919c7.5.1 17.6 6.2 29.2 16.2-23.2-25.8-42.5-42.1-55.2-42.2H538.2zm1062.6 0c-67.5.8-324.4 451.3-353.9 451.3 12 15.4 21.8 26 26 26 29.5 0 286.4-450.5 353.9-451.3h313.1l15.7-26h-354.8zm-772 447.3c86.2 129.4 300.3 725.7 300.3 725.7l6.3-29.1c-52.9-145-254.4-688.6-305-696.6-.5 0-1-.1-1.6 0zm886.4 0c57.8 147.4-51.6 882.4-84.4 1056.9l34.7-27.1c44.4-260.3 151.3-1027.1 49.7-1029.8z" opacity=".3"/></g></switch></svg>