<svg xmlns="http://www.w3.org/2000/svg" viewBox="0 0 330.53 73"><defs><style>.cls-1{fill:#009ade;}.cls-2{fill:#231f20;}</style></defs><g id="图层_2" data-name="图层 2"><g id="图层_1-2" data-name="图层 1"><path class="cls-1" d="M41.53,38.3a61.13,61.13,0,0,1-1.6,8.1c1.2.1,2.2.2,3.3.2,4,0,6.9-1.1,8-3,1.4-2.4.3-6.4-3.1-10.9a74.57,74.57,0,0,1-6.6,5.6"/><path d="M17.93,43.1l-2.4-1.5c.3,1.3.6,2.6.9,3.8,1.2-.3,2.5-.6,3.8-1-.8-.4-1.6-.9-2.3-1.3"/><path class="cls-1" d="M3.83,32.3c-.1.1-.1.2-.2.2C.33,36.9-.77,40.8.53,43.2s5.2,3.5,10.7,3.1c.3,0,.5-.1.8-.1a62.89,62.89,0,0,1-1.6-8,55.09,55.09,0,0,1-6.6-5.9"/><path class="cls-1" d="M34.13,8.6C31.83,3.2,28.83,0,26,0s-5.8,3.1-8.1,8.4a56.82,56.82,0,0,1,8.2,2.8,53.11,53.11,0,0,1,8-2.6"/><path d="M20.43,13.8a35.71,35.71,0,0,0-4-1.2c-.4,1.2-.7,2.6-1,3.9.9-.5,1.8-1.1,2.7-1.6.8-.3,1.6-.8,2.3-1.1"/><path d="M34,15.1l2.4,1.5c-.3-1.3-.6-2.6-.9-3.8-1.2.3-2.5.6-3.8,1,.8.5,1.6.9,2.3,1.3"/><path d="M.83,14.6c-1.4,2.4-.3,6.4,3,10.9a53.8,53.8,0,0,1,6.6-5.6A61.13,61.13,0,0,1,12,11.8c-1.2-.1-2.2-.2-3.3-.2-3.9,0-6.8,1-7.9,3"/><path d="M31.53,44.5a35.71,35.71,0,0,0,4,1.2c.4-1.2.7-2.6,1-3.9-.9.5-1.8,1.1-2.7,1.6a16.27,16.27,0,0,0-2.3,1.1"/><path d="M45.23,29.3c-.9-1-2-2-3.1-3,0,.9.1,1.9.1,2.9s0,2.1-.1,3.1c1.1-1,2.1-2,3.1-3"/><path d="M51.43,15.1c-1.1-2-4.1-3.2-8.4-3.2-1,0-2,.1-3.1.2a62.89,62.89,0,0,1,1.6,8,63.54,63.54,0,0,1,6.6,5.8c3.4-4.4,4.6-8.4,3.3-10.8"/><path d="M6.73,28.9c.9,1,2,2,3.1,3,0-.9-.1-1.9-.1-2.9s0-2.1.1-3.1c-1.1,1.1-2.1,2-3.1,3"/><path class="cls-1" d="M31.83,19c-1.9-1.1-3.9-2.1-5.7-3a62.68,62.68,0,0,0-5.8,2.9c-2,1.1-3.9,2.3-5.7,3.5-.2,2.1-.3,4.4-.3,6.7s.1,4.5.3,6.6c1.7,1.2,3.6,2.4,5.6,3.6s3.9,2.1,5.7,3a52.27,52.27,0,0,0,5.8-2.9,50.64,50.64,0,0,0,5.7-3.5c.2-2.1.3-4.4.3-6.7s-.1-4.5-.3-6.6a53.5,53.5,0,0,0-5.6-3.6"/><path d="M22.33,48.3c-1.5.5-3.1.9-4.5,1.3,2.3,5.4,5.3,8.6,8.1,8.6s5.8-3.1,8.1-8.4a56.82,56.82,0,0,1-8.2-2.8c-1.2.5-2.3.9-3.5,1.3"/><polygon points="109.43 52.6 99.43 52.6 81.33 22.6 81.33 52.6 71.23 52.6 71.23 6 81.33 6 99.43 36 99.43 6 109.43 6 109.43 52.6"/><path d="M129.23,53.3a18.7,18.7,0,0,1-9.4-2.3,15.3,15.3,0,0,1-6-6.1,17.17,17.17,0,0,1-2.1-8.4V35.3a20.75,20.75,0,0,1,2-9.2,15.82,15.82,0,0,1,5.6-6.4,17.92,17.92,0,0,1,17.2-.2,13.57,13.57,0,0,1,5.2,5.9,21.26,21.26,0,0,1,1.8,9v4.1h-27.6V32H134v-.8a8.29,8.29,0,0,0-.6-3.2,4.84,4.84,0,0,0-1.9-2.1,6.83,6.83,0,0,0-3.4-.8,4.84,4.84,0,0,0-3.8,1.4,7.2,7.2,0,0,0-2.1,3.6,19.82,19.82,0,0,0-.7,5.2v1.2a10.15,10.15,0,0,0,1,4.7,7.24,7.24,0,0,0,2.9,3.1,7.92,7.92,0,0,0,4.5,1.1,11.79,11.79,0,0,0,4.6-.9,9.09,9.09,0,0,0,3.6-2.9l4.7,5.4a15.44,15.44,0,0,1-5,4.3,17.63,17.63,0,0,1-8.6,2"/><polygon points="159.43 28 164.93 18 175.23 18 165.53 34.9 175.63 52.6 165.33 52.6 159.43 42 153.53 52.6 143.13 52.6 153.23 34.9 143.63 18 153.93 18 159.43 28"/><path d="M196.83,25h-20.5V18h20.5Zm-5.9-15.6V41.8a4.56,4.56,0,0,0,.4,2.2,1.89,1.89,0,0,0,1.2,1.1,6,6,0,0,0,2,.3,6.62,6.62,0,0,0,1.5-.1c.4-.1.8-.1,1.1-.2v7.3a9.92,9.92,0,0,1-2.6.6,30.28,30.28,0,0,1-3.1.2,14.45,14.45,0,0,1-5.4-1,7.46,7.46,0,0,1-3.5-3.3,12.79,12.79,0,0,1-1.2-6V9.4Z"/><path class="cls-1" d="M209.23,52.6h-10.7L215.83,6h6.8l-1,8.8Zm22.3-9.3h-24.7V35.2h24.7Zm-12.2-28.5-1-8.8h6.8l17.4,46.6h-10.7Z"/><path class="cls-1" d="M254.53,52.6h-9.7V18h9.1l.6,8V52.6Zm10.1-25.5c-.5-.1-1-.1-1.7-.2a10.28,10.28,0,0,0-1.7-.1,10.14,10.14,0,0,0-4.2.8,4.89,4.89,0,0,0-2.4,2.3,10.11,10.11,0,0,0-.9,3.8l-1.9-.8a27.62,27.62,0,0,1,1.1-8,12,12,0,0,1,3.4-5.5,8,8,0,0,1,5.4-2,7.57,7.57,0,0,1,1.5.1,13,13,0,0,1,1.3.3Z"/><path class="cls-1" d="M282,45.5a6.84,6.84,0,0,0,2.9-.6,4.51,4.51,0,0,0,1.9-1.7,5.38,5.38,0,0,0,.7-2.7h9.1a11.44,11.44,0,0,1-2,6.6,13.42,13.42,0,0,1-5.2,4.5,16,16,0,0,1-7.3,1.6,16.7,16.7,0,0,1-9-2.3,14.41,14.41,0,0,1-5.4-6.3,21.12,21.12,0,0,1-1.8-8.9v-.9a21.12,21.12,0,0,1,1.8-8.9,14.41,14.41,0,0,1,5.4-6.3,16.58,16.58,0,0,1,8.9-2.3,17.28,17.28,0,0,1,7.5,1.6,12.22,12.22,0,0,1,5.1,4.7,14.14,14.14,0,0,1,1.9,7.3h-9.1a6,6,0,0,0-.7-3,4.3,4.3,0,0,0-1.9-2.1,6.21,6.21,0,0,0-3.1-.8,5.3,5.3,0,0,0-3.9,1.4A6.84,6.84,0,0,0,276,30a24.37,24.37,0,0,0-.5,4.8v.9a18.61,18.61,0,0,0,.5,4.8,6.84,6.84,0,0,0,1.8,3.6,6.25,6.25,0,0,0,4.2,1.4"/><path class="cls-1" d="M309.93,52.6h-9.7V3.4h9.7Zm-4-18.3a21.44,21.44,0,0,1,1.6-8.7,14.64,14.64,0,0,1,4.6-6,11.15,11.15,0,0,1,6.9-2.2,12.64,12.64,0,0,1,6,1.3,8.85,8.85,0,0,1,4,4.3,17.65,17.65,0,0,1,1.5,7.9V52.7h-9.7V30.8a8,8,0,0,0-.6-3.4,3.32,3.32,0,0,0-1.8-1.7,8.36,8.36,0,0,0-2.9-.5,6.08,6.08,0,0,0-3.2.7,4.84,4.84,0,0,0-2.1,1.9,11,11,0,0,0-1.2,2.9,19.82,19.82,0,0,0-.4,3.6Z"/><path class="cls-2" d="M157,72.9h-1.1V60.2H157Zm6.8-11.8h-7.2v-.9h7.2Zm-.9,5.8h-6.3V66h6.3Z"/><path class="cls-2" d="M180.73,67.2a7.45,7.45,0,0,1-.6,3.1,4.25,4.25,0,0,1-1.7,2,5.28,5.28,0,0,1-2.6.7,4.41,4.41,0,0,1-2.6-.7,7,7,0,0,1-1.8-2,7.45,7.45,0,0,1-.6-3.1V65.8a7.45,7.45,0,0,1,.6-3.1,4.25,4.25,0,0,1,1.7-2,5.18,5.18,0,0,1,5.2,0,5.51,5.51,0,0,1,1.7,2,7.45,7.45,0,0,1,.6,3.1v1.4Zm-1-1.4a5.26,5.26,0,0,0-.5-2.6,4.53,4.53,0,0,0-1.3-1.7,3.48,3.48,0,0,0-2.1-.6,3.44,3.44,0,0,0-3.4,2.3,6.69,6.69,0,0,0-.5,2.6v1.4a6.69,6.69,0,0,0,.5,2.6,3.91,3.91,0,0,0,1.4,1.7,3.62,3.62,0,0,0,5.5-1.7,6.69,6.69,0,0,0,.5-2.6l-.1-1.4Z"/><path class="cls-2" d="M197.63,60.1v8.6a4.27,4.27,0,0,1-.6,2.4,3.64,3.64,0,0,1-1.6,1.4,5.45,5.45,0,0,1-2.2.5,5.93,5.93,0,0,1-2.3-.5,3.64,3.64,0,0,1-1.6-1.4,4.27,4.27,0,0,1-.6-2.4V60.1h1.1v8.6a3.81,3.81,0,0,0,.4,1.9,2.54,2.54,0,0,0,1.2,1.1,4.78,4.78,0,0,0,1.8.4,3.66,3.66,0,0,0,1.8-.4,2.58,2.58,0,0,0,1.2-1.1,3.58,3.58,0,0,0,.4-1.9V60.1Z"/><polygon class="cls-2" points="215.53 72.9 214.43 72.9 207.13 62 207.13 72.9 206.03 72.9 206.03 60.1 207.13 60.1 214.43 71 214.43 60.1 215.53 60.1 215.53 72.9"/><path class="cls-2" d="M225.23,72.9h-1.1V60.2h1.1Zm-.5,0V72h2.9a4.75,4.75,0,0,0,2.4-.6,3.53,3.53,0,0,0,1.5-1.7,5.1,5.1,0,0,0,.5-2.5V66a7.08,7.08,0,0,0-.5-2.6,5,5,0,0,0-1.5-1.7,4.14,4.14,0,0,0-2.3-.6h-3v-.9h3a5.07,5.07,0,0,1,2.8.7,4.59,4.59,0,0,1,1.9,2,6.17,6.17,0,0,1,.7,3.1v1.2a6.17,6.17,0,0,1-.7,3.1,5.24,5.24,0,0,1-1.9,2,5.43,5.43,0,0,1-2.9.7l-2.9-.1Z"/><path class="cls-2" d="M241,72.9h-1.1l4.8-12.7h.8l-.1.8Zm7.6-3.6h-6.8v-.9h6.8ZM245,60.9v-.8h.8l4.8,12.7h-1.1Z"/><path class="cls-2" d="M265.33,61.1h-9.8v-.9h9.8Zm-4.4,11.8h-1.1V60.2h1.1Z"/><rect class="cls-2" x="273.03" y="60.1" width="1.1" height="12.7"/><path class="cls-2" d="M292.33,67.2a7.45,7.45,0,0,1-.6,3.1,4.25,4.25,0,0,1-1.7,2,5.28,5.28,0,0,1-2.6.7,4.41,4.41,0,0,1-2.6-.7,5.51,5.51,0,0,1-1.7-2,7.45,7.45,0,0,1-.6-3.1V65.8a7.45,7.45,0,0,1,.6-3.1,4.25,4.25,0,0,1,1.7-2,5.18,5.18,0,0,1,5.2,0,5.51,5.51,0,0,1,1.7,2,7.45,7.45,0,0,1,.6,3.1Zm-1.1-1.4a5.26,5.26,0,0,0-.5-2.6,4.53,4.53,0,0,0-1.3-1.7,3.48,3.48,0,0,0-2.1-.6,3.44,3.44,0,0,0-3.4,2.3,6.69,6.69,0,0,0-.5,2.6v1.4a6.69,6.69,0,0,0,.5,2.6,3.91,3.91,0,0,0,1.4,1.7,3.62,3.62,0,0,0,5.5-1.7,6.69,6.69,0,0,0,.5-2.6l-.1-1.4Z"/><polygon class="cls-2" points="309.93 72.9 308.83 72.9 301.53 62 301.53 72.9 300.43 72.9 300.43 60.1 301.53 60.1 308.83 71 308.83 60.1 309.93 60.1 309.93 72.9"/></g></g></svg>