<svg xmlns="http://www.w3.org/2000/svg" role="img" viewBox="-2.23 -1.48 148.20 45.70"><style>svg {enable-background:new 0 0 144 42}</style><switch><g><linearGradient id="a" x1="-475.329" x2="-475.594" y1="567.008" y2="567.476" gradientTransform="matrix(27.73 0 0 -27.711 13212.22 15751.665)" gradientUnits="userSpaceOnUse"><stop offset="0" stop-color="#fb7655"/><stop offset="0" stop-color="#fb7655"/><stop offset=".41" stop-color="#e42b1e"/><stop offset=".99" stop-color="#900"/><stop offset="1" stop-color="#900"/></linearGradient><path fill="url(#a)" d="M35.6,8.4l-7.8,15.9L7.8,36.1l25.8-1.7L35.6,8.4z"/><linearGradient id="b" x1="-432.851" x2="-434" y1="551.449" y2="551.865" gradientTransform="matrix(8.24 0 0 -15.277 3601.708 8452.902)" gradientUnits="userSpaceOnUse"><stop offset="0" stop-color="#871101"/><stop offset="0" stop-color="#871101"/><stop offset=".99" stop-color="#911209"/><stop offset="1" stop-color="#911209"/></linearGradient><path fill="url(#b)" d="M25.4,27.1l8.2,7.3l-2.2-15.3L25.4,27.1z"/><linearGradient id="c" x1="-474.038" x2="-474.406" y1="403.665" y2="405.78" gradientTransform="matrix(25.737 0 0 -3.005 12227.764 1252.71)" gradientUnits="userSpaceOnUse"><stop offset="0" stop-color="#871101"/><stop offset="0" stop-color="#871101"/><stop offset=".99" stop-color="#911209"/><stop offset="1" stop-color="#911209"/></linearGradient><path fill="url(#c)" d="M7.9,36.1l25.7-1.7l-16.2-1.3L7.9,36.1z"/><linearGradient id="d" x1="-438.047" x2="-437.882" y1="546.572" y2="545.853" gradientTransform="matrix(8.913 0 0 -13.27 3911.867 7276.811)" gradientUnits="userSpaceOnUse"><stop offset="0" stop-color="#fff"/><stop offset="0" stop-color="#fff"/><stop offset=".23" stop-color="#e57252"/><stop offset=".46" stop-color="#de3b20"/><stop offset=".99" stop-color="#a60003"/><stop offset="1" stop-color="#a60003"/></linearGradient><path fill="url(#d)" d="M3.1,24.8L8,36.1L12,22.8L3.1,24.8z"/><linearGradient id="e" x1="-459.199" x2="-459.161" y1="550.225" y2="549.558" gradientTransform="matrix(14.393 0 0 -14.596 6626.896 8045.98)" gradientUnits="userSpaceOnUse"><stop offset="0" stop-color="#fff"/><stop offset="0" stop-color="#fff"/><stop offset=".23" stop-color="#e4714e"/><stop offset=".56" stop-color="#be1a0d"/><stop offset=".99" stop-color="#a80d00"/><stop offset="1" stop-color="#a80d00"/></linearGradient><path fill="url(#e)" d="M11,22.5l14.4,4.6l-3.7-14.6L11,22.5z"/><linearGradient id="f" x1="-455.316" x2="-455.191" y1="527.45" y2="526.681" gradientTransform="matrix(12.9 0 0 -9.077 5900.197 4793.56)" gradientUnits="userSpaceOnUse"><stop offset="0" stop-color="#fff"/><stop offset="0" stop-color="#fff"/><stop offset=".18" stop-color="#e46342"/><stop offset=".4" stop-color="#c82410"/><stop offset=".99" stop-color="#a80d00"/><stop offset="1" stop-color="#a80d00"/></linearGradient><path fill="url(#f)" d="M21.8,13.6l12.9-0.8L24.7,4.5L21.8,13.6z"/><linearGradient id="g" x1="-442.752" x2="-442.031" y1="422.592" y2="423.642" gradientTransform="matrix(9.67 0 0 -3.321 4303.08 1406.867)" gradientUnits="userSpaceOnUse"><stop offset="0" stop-color="#fff"/><stop offset="0" stop-color="#fff"/><stop offset=".54" stop-color="#c81f11"/><stop offset=".99" stop-color="#bf0905"/><stop offset="1" stop-color="#bf0905"/></linearGradient><path fill="url(#g)" d="M20.4,1.5l9.7,0l-5.9,3.3L20.4,1.5z"/><linearGradient id="h" x1="-294.75" x2="-294.519" y1="532.565" y2="531.986" gradientTransform="matrix(2.484 0 0 -9.929 733.596 5309.21)" gradientUnits="userSpaceOnUse"><stop offset="0" stop-color="#fff"/><stop offset="0" stop-color="#fff"/><stop offset=".31" stop-color="#de4024"/><stop offset=".99" stop-color="#bf190b"/><stop offset="1" stop-color="#bf190b"/></linearGradient><path fill="url(#h)" d="M1.2,19.3l-0.5,9.9l2.5-4.5L1.2,19.3z"/><path fill="#fff" d="M1.1,19.1l2,5.7l8.8-2l10-9.3l2.8-9l-4.5-3.1l-7.6,2.8l-7.2,6.7C5.4,11,2.5,16.5,1.1,19.1L1.1,19.1z"/><linearGradient id="i" x1="-471.34" x2="-470.091" y1="561.296" y2="562.582" gradientTransform="matrix(21.6146 0 0 -21.5832 10185.32 12143.22)" gradientUnits="userSpaceOnUse"><stop offset="0" stop-color="#bd0012"/><stop offset="0" stop-color="#bd0012"/><stop offset=".07" stop-color="#fff"/><stop offset=".17" stop-color="#fff"/><stop offset=".27" stop-color="#c82f1c"/><stop offset=".33" stop-color="#820c01"/><stop offset=".46" stop-color="#a31601"/><stop offset=".72" stop-color="#b31301"/><stop offset=".99" stop-color="#e82609"/><stop offset="1" stop-color="#e82609"/></linearGradient><path fill="url(#i)" d="M8.2,8.8C13.4,3.7,20,0.6,22.6,3.2s-0.2,8.9-5.3,14S5.5,25.5,2.9,23S3,13.9,8.2,8.8z"/><linearGradient id="j" x1="-464.953" x2="-465.421" y1="546.153" y2="546.304" gradientTransform="matrix(17.367 0 0 -13.322 8093.006 7307.337)" gradientUnits="userSpaceOnUse"><stop offset="0" stop-color="#8c0c01"/><stop offset="0" stop-color="#8c0c01"/><stop offset=".54" stop-color="#990c00"/><stop offset=".99" stop-color="#a80d0e"/><stop offset="1" stop-color="#a80d0e"/></linearGradient><path fill="url(#j)" d="M8,36.1l4-13.3l13.3,4.3C20.5,31.6,15.1,35.5,8,36.1L8,36.1z"/><linearGradient id="k" x1="-454.738" x2="-455.3" y1="549.338" y2="549.786" gradientTransform="matrix(12.848 0 0 -14.433 5874.606 7950.31)" gradientUnits="userSpaceOnUse"><stop offset="0" stop-color="#7e110b"/><stop offset="0" stop-color="#7e110b"/><stop offset=".99" stop-color="#9e0c00"/><stop offset="1" stop-color="#9e0c00"/></linearGradient><path fill="url(#k)" d="M21.9,13.5l3.4,13.6c4-4.2,7.6-8.8,9.4-14.4L21.9,13.5L21.9,13.5z"/><linearGradient id="l" x1="-447.688" x2="-448.018" y1="538.185" y2="538.529" gradientTransform="matrix(10.8905 0 0 -11.177 4910.353 6025.136)" gradientUnits="userSpaceOnUse"><stop offset="0" stop-color="#79130d"/><stop offset="0" stop-color="#79130d"/><stop offset=".99" stop-color="#9e120b"/><stop offset="1" stop-color="#9e120b"/></linearGradient><path fill="url(#l)" d="M34.8,12.7C36.1,8.6,36.4,2.7,30,1.6l-5.3,2.9L34.8,12.7L34.8,12.7z"/><path fill="#9e1209" d="M0.7,29.1c0.2,6.8,5.1,6.9,7.2,7L3.1,24.8L0.7,29.1z"/><radialGradient id="m" cx="-454.839" cy="505.179" r=".91" gradientTransform="matrix(12.725 0 0 -6.6471 5813.863 3373.315)" gradientUnits="userSpaceOnUse"><stop offset="0" stop-color="#a80d00"/><stop offset="0" stop-color="#a80d00"/><stop offset=".99" stop-color="#7e0e08"/><stop offset="1" stop-color="#7e0e08"/></radialGradient><path fill="url(#m)" d="M22,13.5l9.5,5.8c0.2,0.1,2.7-4.2,3.3-6.6L22,13.5L22,13.5z"/><radialGradient id="n" cx="-456.737" cy="534.683" r=".99" gradientTransform="matrix(13.314 0 0 -10.365 6094.836 5569.039)" gradientUnits="userSpaceOnUse"><stop offset="0" stop-color="#a30c00"/><stop offset="0" stop-color="#a30c00"/><stop offset=".99" stop-color="#800e08"/><stop offset="1" stop-color="#800e08"/></radialGradient><path fill="url(#n)" d="M12,22.8l5.4,10.4c3.2-1.7,5.7-3.8,7.9-6.1L12,22.8z"/><linearGradient id="o" x1="-403.325" x2="-403.86" y1="537.519" y2="538.417" gradientTransform="matrix(5.485 0 0 -11.0886 2217.677 5996.459)" gradientUnits="userSpaceOnUse"><stop offset="0" stop-color="#8b2114"/><stop offset="0" stop-color="#8b2114"/><stop offset=".43" stop-color="#9e100a"/><stop offset=".99" stop-color="#b3100c"/><stop offset="1" stop-color="#b3100c"/></linearGradient><path fill="url(#o)" d="M3.1,24.8l-0.8,9.1c1.4,2,3.4,2.1,5.5,2C6.3,32.1,3.3,24.7,3.1,24.8L3.1,24.8z"/><linearGradient id="p" x1="-447.37" x2="-446.753" y1="464.821" y2="464.17" gradientTransform="matrix(10.67 0 0 -4.458 4801.37 2075.306)" gradientUnits="userSpaceOnUse"><stop offset="0" stop-color="#b31000"/><stop offset="0" stop-color="#b31000"/><stop offset=".44" stop-color="#910f08"/><stop offset=".99" stop-color="#791c12"/><stop offset="1" stop-color="#791c12"/></linearGradient><path fill="url(#p)" d="M24.6,4.5L35.3,6C34.7,3.6,33,2,30,1.5C30,1.5,24.6,4.5,24.6,4.5z"/><path d="M76.5,32.5h-7.7l-4.6-6.9l-4.5-6h-2.9v9c0,0.5,0.1,0.9,0.2,1.2c0.1,0.3,0.5,0.6,0.9,0.8c0.2,0.1,0.7,0.2,1.3,0.3l1.5,0.1 v1.4h-12v-1.4l1.4-0.1c0.6-0.1,1-0.2,1.3-0.3c0.4-0.2,0.7-0.4,0.9-0.8c0.2-0.3,0.3-0.8,0.3-1.3V8c0-0.5-0.1-0.9-0.2-1.2 S51.9,6.2,51.4,6c-0.4-0.1-0.9-0.3-1.3-0.3c-0.5-0.1-0.9-0.2-1.4-0.2V4h13.1c1.2,0,2.3,0.1,3.4,0.4c1.1,0.2,2,0.6,2.9,1.2 c0.8,0.5,1.5,1.3,2,2.1c0.5,0.9,0.7,1.9,0.7,3.1c0,1.1-0.2,2.1-0.5,2.9c-0.3,0.8-0.8,1.6-1.5,2.2c-0.6,0.6-1.3,1.1-2.2,1.5 c-0.8,0.4-1.8,0.8-2.8,1.1l3.5,4.7l3.4,4.6c0.6,0.8,1.1,1.4,1.6,1.8c0.4,0.4,0.9,0.7,1.4,0.9c0.3,0.2,0.8,0.3,1.3,0.4 s1,0.1,1.3,0.2L76.5,32.5 M65.9,11.3c0-1.7-0.5-3.1-1.5-4.1c-1-1-2.4-1.5-4.2-1.5h-3.4v12.2h2.6c1.8,0,3.4-0.6,4.6-1.8 C65.3,14.9,65.9,13.3,65.9,11.3 M98.3,32.1l-6.4,0.4l-0.3-0.3v-2.5h-0.1l-1.1,1.1c-0.4,0.4-0.9,0.7-1.4,1 c-0.6,0.4-1.2,0.6-1.7,0.8S85.8,33,84.8,33c-1.8,0-3.1-0.6-4-1.7c-0.9-1.1-1.4-2.8-1.4-5v-9.5c0-0.5-0.1-0.9-0.3-1.2 c-0.2-0.3-0.4-0.6-0.8-0.9c-0.2-0.2-0.5-0.3-0.9-0.3c-0.4-0.1-0.7-0.1-1.1-0.2V13l6.6-0.5l0.3,0.3v13.7c0,1.4,0.3,2.5,1,3.2 s1.4,1.1,2.3,1.1c0.7,0,1.4-0.1,2-0.3s1.1-0.5,1.4-0.8c0.4-0.3,0.7-0.6,0.9-0.9c0.2-0.3,0.5-0.6,0.6-0.9V16.7 c0-0.4-0.1-0.8-0.3-1.2c-0.2-0.4-0.5-0.7-0.8-0.9c-0.2-0.2-0.6-0.3-1.1-0.3l-1.6-0.1V13l7.2-0.5l0.3,0.3v15.7 c0,0.5,0.1,0.8,0.3,1.2c0.2,0.3,0.5,0.6,0.8,0.8c0.2,0.1,0.5,0.2,0.9,0.3l1.1,0.1L98.3,32.1 M120.8,22.6c0,3-0.9,5.5-2.8,7.5 s-4,3-6.5,3c-1.1,0-2.2-0.2-3.2-0.5c-1-0.3-2-0.8-2.9-1.3l-1.5,2.3l-1.2-0.3l0.1-3.6l0-4V6.1c0-0.5-0.1-0.9-0.3-1.4 c-0.2-0.5-0.5-0.8-0.8-1c-0.3-0.2-0.7-0.3-1.3-0.4L99,3.2V1.9l7.3-0.5l0.3,0.3v13l0.1,0c0.8-0.9,1.7-1.5,2.7-2 c1-0.4,2-0.7,2.9-0.7c2.4,0,4.5,1,6.1,2.9S120.8,19.5,120.8,22.6 M116.6,22.7c0-1-0.1-2-0.3-3c-0.2-1-0.6-1.9-1-2.7 c-0.5-0.8-1.1-1.4-1.8-1.9s-1.6-0.7-2.7-0.7c-0.9,0-1.8,0.2-2.5,0.6c-0.7,0.4-1.4,0.9-1.9,1.5V28c0.1,0.3,0.2,0.7,0.5,1.1 c0.3,0.5,0.6,0.9,1,1.2c0.4,0.4,0.9,0.7,1.4,0.9c0.5,0.2,1.1,0.3,1.9,0.3c1.6,0,2.9-0.8,4-2.4S116.6,25.5,116.6,22.7 M122.3,39 c0-0.7,0.2-1.2,0.5-1.6c0.3-0.4,0.9-0.6,1.4-0.6c0.4,0,0.8,0.1,1.1,0.2s0.6,0.4,0.8,0.6c0.2,0.2,0.4,0.5,0.6,0.8l0.5,0.9 c0.7-0.4,1.5-1.3,2.4-2.8c0.9-1.5,1.6-2.9,2-4l-3.5-8.5l-3.2-7.8c-0.2-0.6-0.7-1.1-1.3-1.4c-0.6-0.3-1.2-0.6-1.8-0.7v-1.3h9v1.4 c-0.4,0-0.9,0.1-1.4,0.3c-0.6,0.1-0.8,0.4-0.8,0.6l0.1,0.3l0.2,0.6l4.8,11.7l1.9-4.4l2.2-5.4l0.4-1c0.2-0.5,0.3-0.8,0.3-1.2 c0-0.3-0.3-0.7-0.9-1c-0.6-0.3-1.2-0.5-1.7-0.6v-1.3h7.3V14c-0.4,0.1-0.9,0.3-1.6,0.7c-0.7,0.4-1.1,0.9-1.5,1.7l-4.3,10.1 l-2.8,6.7c-0.8,1.9-1.6,3.3-2.3,4.4c-0.7,1.1-1.3,1.9-1.9,2.5c-0.6,0.6-1.2,0.9-1.7,1.1c-0.5,0.2-1,0.3-1.5,0.3 c-1,0-1.9-0.2-2.5-0.7S122.3,39.6,122.3,39"/></g></switch></svg>