<svg xmlns="http://www.w3.org/2000/svg" xmlns:xlink="http://www.w3.org/1999/xlink" viewBox="0 0 144 42" fill="#fff" fill-rule="evenodd" stroke="#000" stroke-linecap="round" stroke-linejoin="round"><use xlink:href="#Q" x=".5" y=".5"/><defs><linearGradient id="A" x1="84.75%" y1="111.40%" x2="58.25%" y2="64.58%"><stop offset="0%" stop-color="#fb7655"/><stop offset="0%" stop-color="#fb7655"/><stop offset="41%" stop-color="#e42b1e"/><stop offset="99%" stop-color="#900"/><stop offset="100%" stop-color="#900"/></linearGradient><linearGradient id="B" x1="116.67%" y1="60.91%" x2="1.77%" y2="19.31%"><stop offset="0%" stop-color="#871101"/><stop offset="0%" stop-color="#871101"/><stop offset="99%" stop-color="#911209"/><stop offset="100%" stop-color="#911209"/></linearGradient><linearGradient id="C" x1="75.77%" y1="219.28%" x2="38.98%" y2="7.77%"><stop offset="0%" stop-color="#871101"/><stop offset="0%" stop-color="#871101"/><stop offset="99%" stop-color="#911209"/><stop offset="100%" stop-color="#911209"/></linearGradient><linearGradient id="D" x1="50.01%" y1="7.25%" x2="66.48%" y2="79.15%"><stop offset="0%" stop-color="#fff"/><stop offset="0%" stop-color="#fff"/><stop offset="23%" stop-color="#e57252"/><stop offset="46%" stop-color="#de3b20"/><stop offset="99%" stop-color="#a60003"/><stop offset="100%" stop-color="#a60003"/></linearGradient><linearGradient id="E" x1="46.17%" y1="16.35%" x2="49.93%" y2="83.06%"><stop offset="0%" stop-color="#fff"/><stop offset="0%" stop-color="#fff"/><stop offset="23%" stop-color="#e4714e"/><stop offset="56%" stop-color="#be1a0d"/><stop offset="99%" stop-color="#a80d00"/><stop offset="100%" stop-color="#a80d00"/></linearGradient><linearGradient id="F" x1="36.97%" y1="15.61%" x2="49.53%" y2="92.48%"><stop offset="0%" stop-color="#fff"/><stop offset="0%" stop-color="#fff"/><stop offset="18%" stop-color="#e46342"/><stop offset="40%" stop-color="#c82410"/><stop offset="99%" stop-color="#a80d00"/><stop offset="100%" stop-color="#a80d00"/></linearGradient><linearGradient id="G" x1="13.59%" y1="58.35%" x2="85.76%" y2="-46.72%"><stop offset="0%" stop-color="#fff"/><stop offset="0%" stop-color="#fff"/><stop offset="54%" stop-color="#c81f11"/><stop offset="99%" stop-color="#bf0905"/><stop offset="100%" stop-color="#bf0905"/></linearGradient><linearGradient id="H" x1="27.62%" y1="21.13%" x2="50.74%" y2="79.04%"><stop offset="0%" stop-color="#fff"/><stop offset="0%" stop-color="#fff"/><stop offset="31%" stop-color="#de4024"/><stop offset="99%" stop-color="#bf190b"/><stop offset="100%" stop-color="#bf190b"/></linearGradient><linearGradient id="I" x1="-20.68%" y1="122.28%" x2="104.24%" y2="-6.34%"><stop offset="0%" stop-color="#bd0012"/><stop offset="0%" stop-color="#bd0012"/><stop offset="7%" stop-color="#fff"/><stop offset="17%" stop-color="#fff"/><stop offset="27%" stop-color="#c82f1c"/><stop offset="33%" stop-color="#820c01"/><stop offset="46%" stop-color="#a31601"/><stop offset="72%" stop-color="#b31301"/><stop offset="99%" stop-color="#e82609"/><stop offset="100%" stop-color="#e82609"/></linearGradient><linearGradient id="J" x1="58.79%" y1="65.20%" x2="11.96%" y2="50.13%"><stop offset="0%" stop-color="#8c0c01"/><stop offset="0%" stop-color="#8c0c01"/><stop offset="54%" stop-color="#990c00"/><stop offset="99%" stop-color="#a80d0e"/><stop offset="100%" stop-color="#a80d0e"/></linearGradient><linearGradient id="K" x1="79.31%" y1="62.75%" x2="23.09%" y2="17.89%"><stop offset="0%" stop-color="#7e110b"/><stop offset="0%" stop-color="#7e110b"/><stop offset="99%" stop-color="#9e0c00"/><stop offset="100%" stop-color="#9e0c00"/></linearGradient><linearGradient id="L" x1="92.88%" y1="74.11%" x2="59.84%" y2="39.69%"><stop offset="0%" stop-color="#79130d"/><stop offset="0%" stop-color="#79130d"/><stop offset="99%" stop-color="#9e120b"/><stop offset="100%" stop-color="#9e120b"/></linearGradient><radialGradient id="M" cx="32%" cy="40%" r="91%" fx="32%" fy="40%"><stop offset="0%" stop-color="#a80d00"/><stop offset="0%" stop-color="#a80d00"/><stop offset="99%" stop-color="#7e0e08"/><stop offset="100%" stop-color="#7e0e08"/></radialGradient><radialGradient id="N" cx="14%" cy="41%" r="99%" fx="14%" fy="41%"><stop offset="0%" stop-color="#a30c00"/><stop offset="0%" stop-color="#a30c00"/><stop offset="99%" stop-color="#800e08"/><stop offset="100%" stop-color="#800e08"/></radialGradient><linearGradient id="O" x1="56.57%" y1="101.70%" x2="3.11%" y2="11.98%"><stop offset="0%" stop-color="#8b2114"/><stop offset="0%" stop-color="#8b2114"/><stop offset="43%" stop-color="#9e100a"/><stop offset="99%" stop-color="#b3100c"/><stop offset="100%" stop-color="#b3100c"/></linearGradient><linearGradient id="P" x1="30.87%" y1="35.64%" x2="92.49%" y2="100.73%"><stop offset="0%" stop-color="#b31000"/><stop offset="0%" stop-color="#b31000"/><stop offset="44%" stop-color="#910f08"/><stop offset="99%" stop-color="#791c12"/><stop offset="100%" stop-color="#791c12"/></linearGradient></defs><symbol id="Q" overflow="visible"><g stroke="none"><path d="M34.83 7.023l-7.846 15.9L7.1 34.734l25.75-1.748z" fill="url(#A)"/><path d="M24.647 25.655l8.24 7.313-2.215-15.277z" fill="url(#B)"/><path d="M7.185 34.702l25.737-1.732-16.214-1.273z" fill="url(#C)"/><path d="M2.345 23.34l4.863 11.362 4.05-13.27z" fill="url(#D)"/><path d="M10.254 21.096l14.393 4.6L20.92 11.1z" fill="url(#E)"/><path d="M21.096 12.147l12.9-.844L23.904 3.07z" fill="url(#F)"/><path d="M19.6.09l9.67.044-5.93 3.277z" fill="url(#G)"/><path d="M.475 17.865L0 27.794l2.484-4.53z" fill="url(#H)"/><path d="M.342 17.694l2.022 5.735 8.785-1.97 10.03-9.32 2.83-9L19.55 0l-7.577 2.836-7.187 6.698c-.165.084-3.06 5.555-4.448 8.162z"/><path d="M7.44 7.392c5.174-5.13 11.843-8.16 14.403-5.578s-.155 8.86-5.327 13.987-11.76 8.326-14.32 5.743.07-9.024 5.244-14.152z" fill="url(#I)"/><path d="M7.208 34.7l4.02-13.31 13.347 4.3c-4.826 4.525-10.193 8.35-17.365 9.022z" fill="url(#J)"/><path d="M21.194 12.112l3.428 13.572c4.033-4.237 7.647-8.795 9.42-14.433l-12.847.86z" fill="url(#K)"/><path d="M34.007 11.32C35.378 7.183 35.694 1.248 29.23.144l-5.306 2.932 10.084 8.245z" fill="url(#L)"/><path d="M0 27.732c.2 6.83 5.116 6.932 7.217 6.99L2.368 23.4 0 27.732z" fill="#9e1209"/><path d="M21.214 12.13l9.467 5.8c.197.11 2.7-4.207 3.258-6.645l-12.724.844z" fill="url(#M)"/><path d="M11.22 21.388l5.372 10.365c3.177-1.723 5.664-3.822 7.942-6.07L11.22 21.388z" fill="url(#N)"/><path d="M2.347 23.416l-.76 9.064c1.436 1.962 3.41 2.132 5.485 1.98-1.5-3.732-4.495-11.195-4.724-11.044z" fill="url(#O)"/><path d="M23.89 3.094l10.67 1.498c-.57-2.412-2.32-3.973-5.3-4.458l-5.37 2.96z" fill="url(#P)"/><path d="M75.737 31.1H68.07l-4.616-6.904-4.456-6h-2.9v9.032c0 .468.074.883.22 1.244.147.348.462.615.943.803.24.094.662.18 1.264.26l1.525.14V31.1H48v-1.425l1.385-.14c.615-.067 1.044-.154 1.284-.26.4-.174.7-.428.863-.763.187-.334.28-.763.28-1.284V6.623c0-.468-.067-.883-.2-1.244s-.448-.636-.943-.823a8.07 8.07 0 0 0-1.305-.321A11.23 11.23 0 0 0 48 4.034V2.6h13.146c1.204 0 2.335.127 3.392.38 1.057.24 2.014.636 2.87 1.184a6 6 0 0 1 1.987 2.107c.495.856.743 1.893.743 3.1 0 1.097-.167 2.067-.502 2.9a6.1 6.1 0 0 1-1.485 2.188c-.602.575-1.325 1.077-2.168 1.505-.843.415-1.773.77-2.8 1.064l3.492 4.696 3.432 4.636c.6.803 1.117 1.398 1.586 1.786.445.35.922.66 1.425.923.348.174.783.308 1.305.4s.957.147 1.305.16v1.425M65.18 9.854c0-1.726-.495-3.1-1.485-4.094-1-1.017-2.388-1.525-4.195-1.525h-3.412V16.46h2.63c1.846 0 3.385-.6 4.616-1.766 1.23-1.2 1.846-2.803 1.846-4.837M97.513 30.73l-6.443.442-.3-.28v-2.5h-.12l-1.084 1.084c-.4.375-.863.716-1.385 1.024-.602.36-1.184.636-1.746.823s-1.358.28-2.388.28c-1.753 0-3.1-.57-4.014-1.706-.9-1.15-1.365-2.817-1.365-4.997v-9.473c0-.482-.094-.883-.28-1.204-.174-.334-.435-.622-.783-.863-.24-.16-.542-.274-.903-.34-.36-.08-.743-.134-1.144-.16v-1.32l6.603-.482.3.28v13.748c0 1.432.32 2.5.963 3.23s1.412 1.084 2.308 1.084c.736 0 1.392-.114 1.967-.34s1.057-.495 1.445-.803c.36-.28.676-.575.943-.883.245-.27.46-.567.642-.883V15.27c0-.442-.094-.83-.28-1.164a2.59 2.59 0 0 0-.783-.883c-.24-.16-.602-.254-1.084-.28l-1.586-.1V11.54l7.185-.482.3.28v15.715c0 .455.094.843.28 1.164a2.53 2.53 0 0 0 .783.823c.24.147.528.248.863.3l1.104.08v1.305m22.56-9.55c0 2.97-.937 5.466-2.8 7.486s-4.047 3.03-6.523 3.03c-1.084 0-2.154-.167-3.2-.502a13.65 13.65 0 0 1-2.95-1.345l-1.485 2.308-1.244-.28.14-3.572.04-4.034V4.677a3.18 3.18 0 0 0-.321-1.365c-.2-.455-.462-.783-.783-.983-.254-.174-.682-.3-1.284-.38l-1.425-.18V.485L105.5.023l.28.3V13.37l.14.04c.83-.883 1.733-1.545 2.7-1.987 1-.442 1.96-.662 2.9-.662 2.435 0 4.47.963 6.1 2.9s2.45 4.436 2.45 7.526m-4.195.14c-.003-1.02-.11-2.034-.32-3.03-.214-1.03-.55-1.927-1.004-2.7s-1.05-1.405-1.786-1.887-1.62-.723-2.65-.723c-.937 0-1.76.187-2.47.562a6.61 6.61 0 0 0-1.887 1.485v11.52c.08.32.234.696.462 1.124a5.38 5.38 0 0 0 .963 1.224 5.33 5.33 0 0 0 1.365.923c.508.227 1.13.34 1.867.34 1.632 0 2.95-.8 3.954-2.368s1.505-3.74 1.505-6.483m5.642 16.228c0-.67.18-1.218.542-1.646a1.79 1.79 0 0 1 1.385-.622c.428 0 .796.08 1.104.24s.582.368.823.622c.2.2.415.475.642.823l.542.863c.67-.36 1.465-1.305 2.388-2.83.937-1.525 1.612-2.863 2.027-4.014l-3.452-8.5-3.23-7.767a2.83 2.83 0 0 0-1.284-1.425c-.602-.348-1.204-.57-1.806-.662V11.3h9.032v1.405c-.4.013-.883.1-1.445.26-.562.147-.843.355-.843.622l.1.3.2.582L133 26.2l1.867-4.436 2.188-5.44.4-1.044c.174-.455.26-.843.26-1.164 0-.348-.308-.67-.923-.963-.602-.308-1.177-.495-1.726-.562V11.3h7.346v1.244c-.4.067-.93.3-1.586.702-.656.388-1.144.943-1.465 1.666l-4.255 10.095-2.8 6.703c-.843 1.873-1.6 3.332-2.268 4.375-.656 1.057-1.298 1.887-1.927 2.5-.615.562-1.177.937-1.686 1.124a4.05 4.05 0 0 1-1.545.3c-1.044 0-1.867-.248-2.47-.743s-.883-1.064-.883-1.706" fill="#000" fill-rule="nonzero"/></g></symbol></svg>