<svg xmlns="http://www.w3.org/2000/svg" viewBox="0 0 372.38 128.1"><defs><style>.cls-1{fill:#1649dc;}</style></defs><title>资源 164</title><g id="图层_2" data-name="图层 2"><g id="图层_1-2" data-name="图层 1"><path class="cls-1" d="M0,100.76q39.24-9.2,79.91-14.51c4.91-.62,9.81-1.23,14.82-1.74V32.8l20.64-.1a1.46,1.46,0,0,0,1.43-1.43v-12a1.4,1.4,0,0,0-1.43-1.43L59.27,18a1.46,1.46,0,0,0-1.43,1.43V31.27a1.39,1.39,0,0,0,1.43,1.43H79.91V77.05A526.4,526.4,0,0,0,0,100.76Z"/><path class="cls-1" d="M310.86,81.44a21.47,21.47,0,0,0,3.47-11.85,22.15,22.15,0,0,0-22.17-22.17H277.54a7.36,7.36,0,0,1,0-14.72h26.27a3,3,0,0,0,3-3V20.85a3,3,0,0,0-3-3H277.65A22.22,22.22,0,0,0,256,44.76c2.15,10.42,12,17.47,22.59,17.47h13.79a7.36,7.36,0,1,1,0,14.72H256.9a1.4,1.4,0,0,0-1.43,1.43v4c16.56,1.33,33,3.27,49.26,5.62,22.89,3.38,45.37,7.67,67.65,12.78A516.11,516.11,0,0,0,310.86,81.44Z"/><path class="cls-1" d="M245.46,81.65,239.63,69l-4.19-9.1a22.11,22.11,0,0,0-9.7-42h-33a1.57,1.57,0,0,0-1.53,1.54v46.8h-5c-2.56,0-5.11,0-7.67.1L159.82,18.9a1.58,1.58,0,0,0-1.43-.91h-15a1.24,1.24,0,0,0-1.33.91L121.71,70.1,116.9,82.36c5.52-.4,10.94-.92,16.35-1.22l5.11-12.88,11-28.1,1.43-3.68.82,2.15.61,1.43h0l10.42,26.36L167.9,79.5c5.21-.1,10.52-.2,15.73-.2h7.46c4.91,0,9.81,0,14.82.2V32.6h19.83A7.33,7.33,0,0,1,233.09,40a7.48,7.48,0,0,1-6.54,7.35h-11a1.46,1.46,0,0,0-1.43,1.43,1.35,1.35,0,0,0,.1.62l8.38,18,6.13,13.18C234.32,80.83,239.94,81.14,245.46,81.65Z"/><path class="cls-1" d="M312.6,14.72h8.89a3,3,0,0,0,3-3V3a3,3,0,0,0-3-3H312.6a3,3,0,0,0-3,3v8.89A3,3,0,0,0,312.6,14.72Z"/><path class="cls-1" d="M175.84,118v1a.58.58,0,0,1-.16.4.54.54,0,0,1-.39.15H163.65l0-3.09,7.9-.06v-.31a3.91,3.91,0,0,0-.82-2.94c-1-1-2.62-1-4.38-1h-1c-2,0-3.14,0-4.14,1.1-.74.81-.8,1.65-.78,3.37l0,2.55c0,.32,0,.6,0,.85,0,1.52,0,2.29.86,3.39.81.95,3,.95,4.73.95h2.06c2.36,0,5.88,0,7.4,0v3.72H165.37c-2.7,0-6.07,0-7.49-1.48-1.61-1.68-1.61-5-1.59-8V118c0-3.19.14-6.2,1.75-8,1.45-1.55,4.66-1.6,7.35-1.6h1.46c2.91,0,5.44,0,7.41,1.82C175.89,111.81,175.87,114.94,175.84,118Z"/><path class="cls-1" d="M239.47,118v1a.58.58,0,0,1-.16.4.54.54,0,0,1-.39.15H227.28l0-3.09,7.9-.06v-.31a3.87,3.87,0,0,0-.82-2.94c-1-1-2.62-1-4.38-1h-1c-2,0-3.13,0-4.13,1.1-.75.81-.81,1.65-.79,3.37l0,2.55c0,.32,0,.6,0,.85,0,1.52,0,2.29.86,3.39.81.95,3,.95,4.73.95h2.06c2.36,0,5.89,0,7.4,0v3.72H229c-2.69,0-6.07,0-7.49-1.48-1.61-1.68-1.61-5-1.59-8V118c0-3.19.14-6.2,1.76-8,1.44-1.55,4.65-1.6,7.34-1.6h1.46c2.91,0,5.44,0,7.41,1.82C239.52,111.81,239.5,114.94,239.47,118Z"/><path class="cls-1" d="M279.38,118v1a.58.58,0,0,1-.16.4.55.55,0,0,1-.4.15H267.19l0-3.09,7.9-.06v-.31a3.91,3.91,0,0,0-.82-2.94c-1-1-2.62-1-4.38-1h-1c-2,0-3.14,0-4.14,1.1-.74.81-.81,1.65-.78,3.37l0,2.55c0,.32,0,.6,0,.85,0,1.52,0,2.29.86,3.39.81.95,3.05.95,4.73.95h2.06c2.35,0,5.88,0,7.4,0v3.72H268.91c-2.7,0-6.07,0-7.49-1.48-1.61-1.68-1.61-5-1.59-8V118c0-3.19.13-6.2,1.75-8,1.45-1.55,4.66-1.6,7.35-1.6h1.46c2.91,0,5.44,0,7.41,1.82C279.43,111.81,279.41,114.94,279.38,118Z"/><path class="cls-1" d="M192.75,106.73v3.67c-1.18,0-4,.31-5.6,1.79a5.9,5.9,0,0,0-1.73,4.67v11.22h-3.71V116.86a9.54,9.54,0,0,1,2.95-7.44,11.75,11.75,0,0,1,7.79-2.69Z"/><path class="cls-1" d="M84.92,98.84v29.24H80.25V98.84Zm0,14.35L99.08,98.84h5.7L90,112.94l15.68,15.14H99.36Z"/><path class="cls-1" d="M122.38,124.72v-18h4.24v21.35H117.3a25.85,25.85,0,0,1-3.24-.14,8.05,8.05,0,0,1-2-.54,5.35,5.35,0,0,1-2.94-2.7,12.69,12.69,0,0,1-.89-5.36V106.73h4.24v12.46a8.07,8.07,0,0,0,.62,3.86q1,1.67,4.63,1.67Z"/><path class="cls-1" d="M136.62,106.73h5.91a12.56,12.56,0,0,1,4.52.62,7.59,7.59,0,0,1,3.92,3.74,13.42,13.42,0,0,1,1.2,6c0,3.66-.78,6.41-2.34,8.27a6.76,6.76,0,0,1-3.26,2.15,21.38,21.38,0,0,1-5.78.59h-8.41V98.84h4.24Zm0,3.36v14.63h4.94a8.9,8.9,0,0,0,3.24-.49,3.8,3.8,0,0,0,1.86-1.61,10.09,10.09,0,0,0,1.12-5.23c0-2.6-.47-4.46-1.41-5.6s-2.46-1.7-4.59-1.7Z"/><path class="cls-1" d="M198.4,107.7h9.42a12.86,12.86,0,0,1,4.29.58,5.37,5.37,0,0,1,2.58,1.93q1.34,1.73,1.37,5.73v12.14h-4V116.37c0-2.05-.36-3.47-1.06-4.26s-2-1.2-3.77-1.2h-4.74v17.17h-4Z"/><path class="cls-1" d="M245.35,106.73V98.84h4.25v7.89h6.23v3.36H249.6v11.22a10.81,10.81,0,0,0,.12,2,1.47,1.47,0,0,0,.52.88c.44.39,1.47.58,3.08.58h2.51v3.36h-4.11a13.32,13.32,0,0,1-3.12-.26,3.85,3.85,0,0,1-1.79-1,4.12,4.12,0,0,1-1.13-1.91,12.18,12.18,0,0,1-.33-3.23V110.09h-4.07v-3.36Z"/><path class="cls-1" d="M301.13,108v3.17h-9.05a24.13,24.13,0,0,0-2.69.09,1.65,1.65,0,0,0-1,.47,3.13,3.13,0,0,0-.71,2.28c0,1,.25,1.67.76,2a7.21,7.21,0,0,0,3.24.46h2.72c2.22,0,3.58.07,4.09.12a3.5,3.5,0,0,1,1.45.51c1.35.83,2,2.51,2,5q0,4.14-2.58,5.43a4.76,4.76,0,0,1-1.65.47c-.64.07-1.75.11-3.33.11H283.79v-3.17h9.66a12.25,12.25,0,0,0,3.41-.26c.66-.28,1-1,1-2.26s-.41-2-1.23-2.24a16.88,16.88,0,0,0-2.91-.14h-1.63a32,32,0,0,1-4.38-.19,4.16,4.16,0,0,1-2-.9,6,6,0,0,1-2.13-5,6.77,6.77,0,0,1,.7-3.13,4.55,4.55,0,0,1,1.94-2A10.81,10.81,0,0,1,291,108Z"/></g></g></svg>