<svg xmlns="http://www.w3.org/2000/svg" viewBox="0 0 364.4 136.69"><defs><style>.cls-1{fill:#1649dc;}</style></defs><title>资源 14</title><g id="图层_2" data-name="图层 2"><g id="图层_1-2" data-name="图层 1"><path class="cls-1" d="M0,98.6q38.4-9,78.2-14.2c4.8-.6,9.6-1.2,14.5-1.7V32.1l20.2-.1a1.43,1.43,0,0,0,1.4-1.4V18.9a1.37,1.37,0,0,0-1.4-1.4L58,17.6A1.43,1.43,0,0,0,56.6,19V30.6A1.37,1.37,0,0,0,58,32H78.2V75.4A514.39,514.39,0,0,0,0,98.6Z"/><path class="cls-1" d="M304.2,79.7a21,21,0,0,0,3.4-11.6,21.68,21.68,0,0,0-21.7-21.7H271.6a7.2,7.2,0,0,1,0-14.4h25.7a2.9,2.9,0,0,0,2.9-2.9V20.4a2.9,2.9,0,0,0-2.9-2.9H271.7a21.74,21.74,0,0,0-21.2,26.3c2.1,10.2,11.7,17.1,22.1,17.1h13.5a7.2,7.2,0,0,1,0,14.4H251.4a1.37,1.37,0,0,0-1.4,1.4v3.9c16.2,1.3,32.3,3.2,48.2,5.5,22.4,3.3,44.4,7.5,66.2,12.5A506.08,506.08,0,0,0,304.2,79.7Z"/><path class="cls-1" d="M240.2,79.9l-5.7-12.4-4.1-8.9a21.63,21.63,0,0,0-9.5-41.1H188.6a1.54,1.54,0,0,0-1.5,1.5V64.8h-4.9c-2.5,0-5,0-7.5.1L156.4,18.5a1.57,1.57,0,0,0-1.4-.9H140.3a1.22,1.22,0,0,0-1.3.9L119.1,68.6l-4.7,12c5.4-.4,10.7-.9,16-1.2l5-12.6,10.8-27.5,1.4-3.6.8,2.1.6,1.4h0L159.2,65l5.1,12.8c5.1-.1,10.3-.2,15.4-.2H187c4.8,0,9.6,0,14.5.2V31.9h19.4a7.17,7.17,0,0,1,7.2,7.2,7.33,7.33,0,0,1-6.4,7.2H210.9a1.43,1.43,0,0,0-1.4,1.4,1.27,1.27,0,0,0,.1.6l8.2,17.6,6,12.9C229.3,79.1,234.8,79.4,240.2,79.9Z"/><path class="cls-1" d="M305.9,14.4h8.7a2.9,2.9,0,0,0,2.9-2.9V2.9A2.9,2.9,0,0,0,314.6,0h-8.7A2.9,2.9,0,0,0,303,2.9v8.7A2.88,2.88,0,0,0,305.9,14.4Z"/><path class="cls-1" d="M120.64,108.59a8.88,8.88,0,0,0-2.94,1.11q-4.24,2.61-4.25,10.21c0,3.53.71,6.21,2.12,8a7.92,7.92,0,0,0,4,2.82,18.43,18.43,0,0,0,5.29.58h8.53V118.1h-3.69v10.29h-4.39a12.18,12.18,0,0,1-4.22-.54,5,5,0,0,1-2.32-2,7.76,7.76,0,0,1-1.06-2.57,18,18,0,0,1-.3-3.65q0-5.73,2.94-7.54a5.35,5.35,0,0,1,1.81-.72,21.89,21.89,0,0,1,3.15-.16h8.08v-2.94H125A22.74,22.74,0,0,0,120.64,108.59Z"/><path class="cls-1" d="M186.79,122.64v.88a.47.47,0,0,1-.14.34.43.43,0,0,1-.33.13h-10l0-2.65,6.77,0,0-.26a3.37,3.37,0,0,0-.71-2.53c-.84-.86-2.25-.86-3.76-.85h-.85c-1.73,0-2.7,0-3.55.94-.64.7-.7,1.42-.68,2.89l0,2.19c0,.28,0,.52,0,.73a3.67,3.67,0,0,0,.74,2.91c.69.82,2.61.82,4.06.82h1.77c2,0,5,0,6.35,0v3.19h-8.66c-2.32,0-5.22,0-6.43-1.27-1.38-1.44-1.38-4.31-1.37-6.84v-.54c0-2.74.12-5.32,1.51-6.83,1.24-1.34,4-1.38,6.31-1.38h1.25c2.49,0,4.66,0,6.36,1.56C186.84,117.37,186.82,120.05,186.79,122.64Z"/><path class="cls-1" d="M149.21,121.05c0-1.71-.22-2.79-.65-3.24s-1.49-.68-3.16-.68h-7.92v-2.65h8.65a13.24,13.24,0,0,1,3.45.34,3.8,3.8,0,0,1,1.91,1.21,4.1,4.1,0,0,1,.83,1.73,13.45,13.45,0,0,1,.23,2.92v10.65H144a19.78,19.78,0,0,1-3.22-.17,4.82,4.82,0,0,1-2.95-1.64,5,5,0,0,1-1-3.26,6.16,6.16,0,0,1,.56-2.65,4.17,4.17,0,0,1,1.56-1.8,8.65,8.65,0,0,1,4.26-.76Zm0,2.66h-5.6a5.84,5.84,0,0,0-2.16.3,2.14,2.14,0,0,0-1.15,2.2,2.23,2.23,0,0,0,.75,1.91,4.46,4.46,0,0,0,2.56.55h5.6Z"/><path class="cls-1" d="M158.73,114.48v-6.22h3.34v6.22H167v2.65h-4.92V126a7.73,7.73,0,0,0,.11,1.54,1.14,1.14,0,0,0,.4.69,4.23,4.23,0,0,0,2.44.45h2v2.66h-3.24a11.19,11.19,0,0,1-2.46-.2,3,3,0,0,1-1.41-.8,3.29,3.29,0,0,1-.9-1.5,9.92,9.92,0,0,1-.25-2.56v-9.14h-3.21v-2.65Z"/><path class="cls-1" d="M199.55,128.67V114.48h3.35v14.19h6.22V114.48h3.35v16.85H196.78a12.08,12.08,0,0,1-3.77-.41,4.56,4.56,0,0,1-2.46-2,7.4,7.4,0,0,1-.78-3.68l0-1.48v-9.28h3.34v9.66a23.32,23.32,0,0,0,.08,2.35,2.42,2.42,0,0,0,.36,1.05,2,2,0,0,0,1.11.88,6.73,6.73,0,0,0,2.1.25Z"/><path class="cls-1" d="M228.61,121.05c0-1.71-.21-2.79-.65-3.24s-1.48-.68-3.15-.68h-7.93v-2.65h8.66a13.24,13.24,0,0,1,3.45.34A3.8,3.8,0,0,1,230.9,116a4.1,4.1,0,0,1,.83,1.73,14.12,14.12,0,0,1,.23,2.92v10.65h-8.52a20,20,0,0,1-3.23-.17,4.87,4.87,0,0,1-3-1.64,5,5,0,0,1-1-3.26,6.16,6.16,0,0,1,.56-2.65,4.17,4.17,0,0,1,1.56-1.8,8.63,8.63,0,0,1,4.25-.76Zm0,2.66H223a5.84,5.84,0,0,0-2.16.3,2.14,2.14,0,0,0-1.15,2.2,2.23,2.23,0,0,0,.75,1.91,4.44,4.44,0,0,0,2.56.55h5.59Z"/><path class="cls-1" d="M247.6,128.67V114.48H251v14.08a37.56,37.56,0,0,1-.15,4,5,5,0,0,1-.55,1.93,3.54,3.54,0,0,1-2,1.73,15.48,15.48,0,0,1-4.4.44h-7.42V134h7.23A22,22,0,0,0,246,134a1.7,1.7,0,0,0,.92-.45,2.82,2.82,0,0,0,.69-2.18H243a13.21,13.21,0,0,1-2.44-.17,5.63,5.63,0,0,1-1.72-.69,4.13,4.13,0,0,1-1.94-2.16,15.3,15.3,0,0,1-.46-4.57v-9.26h3.35v10.19a9.73,9.73,0,0,0,.11,1.71,2.93,2.93,0,0,0,.38,1.08,2.18,2.18,0,0,0,1.11.94,6.06,6.06,0,0,0,2,.27Z"/></g></g></svg>