<svg xmlns="http://www.w3.org/2000/svg" viewBox="0 0 364.4 126.4"><defs><style>.cls-1{fill:#1649dc;}</style></defs><title>资源 165</title><g id="图层_2" data-name="图层 2"><g id="图层_1-2" data-name="图层 1"><path class="cls-1" d="M0,98.6q38.4-9,78.2-14.2c4.8-.6,9.6-1.2,14.5-1.7V32.1l20.2-.1a1.43,1.43,0,0,0,1.4-1.4V18.9a1.37,1.37,0,0,0-1.4-1.4L58,17.6A1.43,1.43,0,0,0,56.6,19V30.6A1.37,1.37,0,0,0,58,32H78.2V75.4A514.39,514.39,0,0,0,0,98.6Z"/><path class="cls-1" d="M304.2,79.7a21,21,0,0,0,3.4-11.6,21.68,21.68,0,0,0-21.7-21.7H271.6a7.2,7.2,0,0,1,0-14.4h25.7a2.9,2.9,0,0,0,2.9-2.9V20.4a2.9,2.9,0,0,0-2.9-2.9H271.7a21.74,21.74,0,0,0-21.2,26.3c2.1,10.2,11.7,17.1,22.1,17.1h13.5a7.2,7.2,0,0,1,0,14.4H251.4a1.37,1.37,0,0,0-1.4,1.4v3.9c16.2,1.3,32.3,3.2,48.2,5.5,22.4,3.3,44.4,7.5,66.2,12.5A506.08,506.08,0,0,0,304.2,79.7Z"/><path class="cls-1" d="M240.2,79.9l-5.7-12.4-4.1-8.9a21.63,21.63,0,0,0-9.5-41.1H188.6a1.54,1.54,0,0,0-1.5,1.5V64.8h-4.9c-2.5,0-5,0-7.5.1L156.4,18.5a1.57,1.57,0,0,0-1.4-.9H140.3a1.22,1.22,0,0,0-1.3.9L119.1,68.6l-4.7,12c5.4-.4,10.7-.9,16-1.2l5-12.6,10.8-27.5,1.4-3.6.8,2.1.6,1.4h0L159.2,65l5.1,12.8c5.1-.1,10.3-.2,15.4-.2H187c4.8,0,9.6,0,14.5.2V31.9h19.4a7.17,7.17,0,0,1,7.2,7.2,7.33,7.33,0,0,1-6.4,7.2H210.9a1.43,1.43,0,0,0-1.4,1.4,1.27,1.27,0,0,0,.1.6l8.2,17.6,6,12.9C229.3,79.1,234.8,79.4,240.2,79.9Z"/><path class="cls-1" d="M305.9,14.4h8.7a2.9,2.9,0,0,0,2.9-2.9V2.9A2.9,2.9,0,0,0,314.6,0h-8.7A2.9,2.9,0,0,0,303,2.9v8.7A2.88,2.88,0,0,0,305.9,14.4Z"/><path class="cls-1" d="M148.43,106h-8v-2.9h19.7V106h-8v20.1h-3.7Z"/><path class="cls-1" d="M167.93,109.1a8.54,8.54,0,0,1,6.3,2.3,10.5,10.5,0,0,1,0,12.6,8.53,8.53,0,0,1-6.5,2.4A9,9,0,0,1,161,124c-1.3-1.4-1.9-3.3-1.9-5.9a9.32,9.32,0,0,1,2.2-6.5C162.73,110,164.93,109.2,167.93,109.1Zm-.2,2.8a4.9,4.9,0,0,0-3.8,1.5,6.43,6.43,0,0,0-1.3,4.4,6.68,6.68,0,0,0,1.1,4.1,4.85,4.85,0,0,0,4,1.7c3.5,0,5.2-1.9,5.2-5.7a6.43,6.43,0,0,0-1.3-4.4A5,5,0,0,0,167.73,111.9Z"/><path class="cls-1" d="M188.23,109.1a8.54,8.54,0,0,1,6.3,2.3,10.5,10.5,0,0,1,0,12.6,8.53,8.53,0,0,1-6.5,2.4,9,9,0,0,1-6.7-2.4c-1.3-1.4-1.9-3.3-1.9-5.9a9.32,9.32,0,0,1,2.2-6.5C183,110,185.33,109.2,188.23,109.1Zm-.2,2.8a4.9,4.9,0,0,0-3.8,1.5,6.43,6.43,0,0,0-1.3,4.4,6.68,6.68,0,0,0,1.1,4.1,4.85,4.85,0,0,0,4,1.7c3.5,0,5.2-1.9,5.2-5.7a6.43,6.43,0,0,0-1.3-4.4A4.72,4.72,0,0,0,188,111.9Z"/><path class="cls-1" d="M204.33,126.2h-3.4V103.1h3.3v23.1Z"/><path class="cls-1" d="M223.25,109.1v2.69h-7.71a20.69,20.69,0,0,0-2.29.08,1.45,1.45,0,0,0-.83.4,2.67,2.67,0,0,0-.6,1.94,1.82,1.82,0,0,0,.65,1.68,6,6,0,0,0,2.75.4h2.31c1.89,0,3.05,0,3.49.1a3,3,0,0,1,1.23.43c1.14.71,1.72,2.13,1.72,4.27,0,2.34-.74,3.88-2.2,4.61a4.16,4.16,0,0,1-1.41.41c-.53.06-1.48.09-2.83.09h-9v-2.69h8.21a10.42,10.42,0,0,0,2.9-.23q.84-.36.84-1.92c0-1.09-.35-1.73-1-1.9a13.8,13.8,0,0,0-2.47-.12h-1.39a27.2,27.2,0,0,1-3.72-.16,3.53,3.53,0,0,1-1.7-.77,5.13,5.13,0,0,1-1.81-4.25,5.73,5.73,0,0,1,.6-2.66,3.83,3.83,0,0,1,1.64-1.71,9.2,9.2,0,0,1,4.1-.69Z"/></g></g></svg>