<svg xmlns="http://www.w3.org/2000/svg" viewBox="0 0 364.4 132.59"><defs><style>.cls-1{fill:#1649dc;}</style></defs><title>资源 10</title><g id="图层_2" data-name="图层 2"><g id="图层_1-2" data-name="图层 1"><path class="cls-1" d="M0,98.6q38.4-9,78.2-14.2c4.8-.6,9.6-1.2,14.5-1.7V32.1l20.2-.1a1.43,1.43,0,0,0,1.4-1.4V18.9a1.37,1.37,0,0,0-1.4-1.4L58,17.6A1.43,1.43,0,0,0,56.6,19V30.6A1.37,1.37,0,0,0,58,32H78.2V75.4A514.39,514.39,0,0,0,0,98.6Z"/><path class="cls-1" d="M304.2,79.7a21,21,0,0,0,3.4-11.6,21.68,21.68,0,0,0-21.7-21.7H271.6a7.2,7.2,0,0,1,0-14.4h25.7a2.9,2.9,0,0,0,2.9-2.9V20.4a2.9,2.9,0,0,0-2.9-2.9H271.7a21.74,21.74,0,0,0-21.2,26.3c2.1,10.2,11.7,17.1,22.1,17.1h13.5a7.2,7.2,0,0,1,0,14.4H251.4a1.37,1.37,0,0,0-1.4,1.4v3.9c16.2,1.3,32.3,3.2,48.2,5.5,22.4,3.3,44.4,7.5,66.2,12.5A506.08,506.08,0,0,0,304.2,79.7Z"/><path class="cls-1" d="M240.2,79.9l-5.7-12.4-4.1-8.9a21.63,21.63,0,0,0-9.5-41.1H188.6a1.54,1.54,0,0,0-1.5,1.5V64.8h-4.9c-2.5,0-5,0-7.5.1L156.4,18.5a1.57,1.57,0,0,0-1.4-.9H140.3a1.22,1.22,0,0,0-1.3.9L119.1,68.6l-4.7,12c5.4-.4,10.7-.9,16-1.2l5-12.6,10.8-27.5,1.4-3.6.8,2.1.6,1.4h0L159.2,65l5.1,12.8c5.1-.1,10.3-.2,15.4-.2H187c4.8,0,9.6,0,14.5.2V31.9h19.4a7.17,7.17,0,0,1,7.2,7.2,7.33,7.33,0,0,1-6.4,7.2H210.9a1.43,1.43,0,0,0-1.4,1.4,1.27,1.27,0,0,0,.1.6l8.2,17.6,6,12.9C229.3,79.1,234.8,79.4,240.2,79.9Z"/><path class="cls-1" d="M305.9,14.4h8.7a2.9,2.9,0,0,0,2.9-2.9V2.9A2.9,2.9,0,0,0,314.6,0h-8.7A2.9,2.9,0,0,0,303,2.9v8.7A2.88,2.88,0,0,0,305.9,14.4Z"/><path class="cls-1" d="M191.37,123.72v.88a.46.46,0,0,1-.48.46h-10l0-2.64,6.78-.06v-.26a3.38,3.38,0,0,0-.71-2.53c-.83-.86-2.24-.86-3.75-.85h-.86c-1.73,0-2.69,0-3.55,1-.64.69-.7,1.41-.67,2.89l0,2.19c0,.27,0,.51,0,.73a3.68,3.68,0,0,0,.74,2.91c.7.81,2.62.81,4.06.81h1.77c2,0,5.05,0,6.35,0v3.19h-8.66c-2.31,0-5.21,0-6.43-1.27-1.38-1.44-1.38-4.31-1.37-6.84v-.54c0-2.73.12-5.32,1.51-6.83,1.24-1.33,4-1.38,6.31-1.38h1.25c2.5,0,4.67,0,6.36,1.57C191.41,118.44,191.39,121.12,191.37,123.72Z"/><path class="cls-1" d="M125.81,115.55v2.91c-.93,0-3.16.24-4.42,1.4a4.68,4.68,0,0,0-1.37,3.69v8.85H117.1v-8.85a7.55,7.55,0,0,1,2.32-5.87,9.27,9.27,0,0,1,6.15-2.13Z"/><path class="cls-1" d="M250,115.55v2.91c-.93,0-3.16.24-4.42,1.4a4.68,4.68,0,0,0-1.36,3.69v8.85h-2.93v-8.85a7.56,7.56,0,0,1,2.33-5.87,9.27,9.27,0,0,1,6.15-2.13Z"/><path class="cls-1" d="M113.68,119.31v2.94h-13.5V132.4H96.49V118.48a20.07,20.07,0,0,1,.19-3.1,7.25,7.25,0,0,1,.69-2.06,6.44,6.44,0,0,1,3.28-3.09,16.76,16.76,0,0,1,6.22-.9h6.81v2.94h-7.13a9.74,9.74,0,0,0-3.73.55,4,4,0,0,0-2,1.85,7.44,7.44,0,0,0-.62,3.32v1.32Z"/><path class="cls-1" d="M141.17,122.13c0-1.71-.21-2.8-.65-3.25s-1.48-.67-3.15-.67h-7.93v-2.66h8.66a13.16,13.16,0,0,1,3.45.35,3.73,3.73,0,0,1,1.91,1.21,4.06,4.06,0,0,1,.83,1.72,14.23,14.23,0,0,1,.23,2.93V132.4H136a20.4,20.4,0,0,1-3.23-.16,4.87,4.87,0,0,1-3-1.64,5.07,5.07,0,0,1-1-3.27,6.09,6.09,0,0,1,.56-2.64,4.22,4.22,0,0,1,1.55-1.8,8.59,8.59,0,0,1,4.26-.76Zm0,2.65h-5.59a5.6,5.6,0,0,0-2.16.31,2.12,2.12,0,0,0-1.15,2.19,2.23,2.23,0,0,0,.75,1.91,4.42,4.42,0,0,0,2.56.56h5.59Z"/><path class="cls-1" d="M149.08,115.55H164a26.17,26.17,0,0,1,4.15.21,4.62,4.62,0,0,1,2,1,4.16,4.16,0,0,1,1.29,1.94,11.57,11.57,0,0,1,.36,3.3V132.4h-3.34V122a4.06,4.06,0,0,0-.86-2.95,4.25,4.25,0,0,0-3-.83H162V132.4h-3.35V118.21h-6.22V132.4h-3.35Z"/><path class="cls-1" d="M204.22,129.75v-14.2h3.35v14.2h6.22v-14.2h3.34V132.4H201.45a12.11,12.11,0,0,1-3.77-.4,4.63,4.63,0,0,1-2.47-2,7.42,7.42,0,0,1-.78-3.68l0-1.49v-9.28h3.35v9.67c0,1.15,0,1.93.07,2.34a2.35,2.35,0,0,0,.37,1.06,2,2,0,0,0,1.1.88,6.8,6.8,0,0,0,2.11.25Z"/><path class="cls-1" d="M229.49,115.37a8.32,8.32,0,0,1,6.3,2.33q2.11,2.17,2.12,6.35a7.85,7.85,0,0,1-8.61,8.54q-4.4,0-6.66-2.43a8.3,8.3,0,0,1-1.94-5.89,9.31,9.31,0,0,1,2.18-6.45C224.32,116.21,226.53,115.39,229.49,115.37Zm-.2,2.77a4.74,4.74,0,0,0-3.8,1.54,6.5,6.5,0,0,0-1.33,4.37,6.41,6.41,0,0,0,1.09,4.06,4.77,4.77,0,0,0,4,1.71q5.22,0,5.22-5.68a6.62,6.62,0,0,0-1.32-4.43A4.9,4.9,0,0,0,229.29,118.14Z"/><path class="cls-1" d="M268.13,123.62a1.07,1.07,0,0,0-.14-.16c-.83-.84-2.3-1.26-4.38-1.26H261.9l6.18-5a.14.14,0,0,0,.05-.1v-3.2a0,0,0,0,0-.05,0l-10.17,8.29V109.33h-3.34v23.08h3.34v-7.8h3.18a16.36,16.36,0,0,1,2.52.14,3,3,0,0,1,1.32.54,2.13,2.13,0,0,1,.77,1.1,7.91,7.91,0,0,1,.21,2.13v3.89h3.34v-4.57A6.4,6.4,0,0,0,268.13,123.62Z"/><path class="cls-1" d="M269.25,127.84v4.57h-1.12v-8.79A6.4,6.4,0,0,1,269.25,127.84Z"/></g></g></svg>