<svg xmlns="http://www.w3.org/2000/svg" viewBox="0 0 364.4 129.35"><defs><style>.cls-1{fill:#1649dc;}</style></defs><title>资源 9</title><g id="图层_2" data-name="图层 2"><g id="图层_1-2" data-name="图层 1"><path class="cls-1" d="M0,98.6q38.4-9,78.2-14.2c4.8-.6,9.6-1.2,14.5-1.7V32.1l20.2-.1a1.43,1.43,0,0,0,1.4-1.4V18.9a1.37,1.37,0,0,0-1.4-1.4L58,17.6A1.43,1.43,0,0,0,56.6,19V30.6A1.37,1.37,0,0,0,58,32H78.2V75.4A514.39,514.39,0,0,0,0,98.6Z"/><path class="cls-1" d="M304.2,79.7a21,21,0,0,0,3.4-11.6,21.68,21.68,0,0,0-21.7-21.7H271.6a7.2,7.2,0,0,1,0-14.4h25.7a2.9,2.9,0,0,0,2.9-2.9V20.4a2.9,2.9,0,0,0-2.9-2.9H271.7a21.74,21.74,0,0,0-21.2,26.3c2.1,10.2,11.7,17.1,22.1,17.1h13.5a7.2,7.2,0,0,1,0,14.4H251.4a1.37,1.37,0,0,0-1.4,1.4v3.9c16.2,1.3,32.3,3.2,48.2,5.5,22.4,3.3,44.4,7.5,66.2,12.5A506.08,506.08,0,0,0,304.2,79.7Z"/><path class="cls-1" d="M240.2,79.9l-5.7-12.4-4.1-8.9a21.63,21.63,0,0,0-9.5-41.1H188.6a1.54,1.54,0,0,0-1.5,1.5V64.8h-4.9c-2.5,0-5,0-7.5.1L156.4,18.5a1.57,1.57,0,0,0-1.4-.9H140.3a1.22,1.22,0,0,0-1.3.9L119.1,68.6l-4.7,12c5.4-.4,10.7-.9,16-1.2l5-12.6,10.8-27.5,1.4-3.6.8,2.1.6,1.4h0L159.2,65l5.1,12.8c5.1-.1,10.3-.2,15.4-.2H187c4.8,0,9.6,0,14.5.2V31.9h19.4a7.17,7.17,0,0,1,7.2,7.2,7.33,7.33,0,0,1-6.4,7.2H210.9a1.43,1.43,0,0,0-1.4,1.4,1.27,1.27,0,0,0,.1.6l8.2,17.6,6,12.9C229.3,79.1,234.8,79.4,240.2,79.9Z"/><path class="cls-1" d="M305.9,14.4h8.7a2.9,2.9,0,0,0,2.9-2.9V2.9A2.9,2.9,0,0,0,314.6,0h-8.7A2.9,2.9,0,0,0,303,2.9v8.7A2.88,2.88,0,0,0,305.9,14.4Z"/><path class="cls-1" d="M149.09,111.52v3c-1,0-3.3.26-4.62,1.47a4.88,4.88,0,0,0-1.43,3.86v9.27H140v-9.27a7.9,7.9,0,0,1,2.43-6.14,9.7,9.7,0,0,1,6.44-2.23Z"/><path class="cls-1" d="M121.53,120.78v8.38h-3.69V106.09H128a12.58,12.58,0,0,1,4,.47,6.07,6.07,0,0,1,3.34,2.79,8.12,8.12,0,0,1,.92,4,7.35,7.35,0,0,1-2.42,6,5.74,5.74,0,0,1-2.45,1.13,19.67,19.67,0,0,1-4.06.34Zm0-2.94h6.07a5.06,5.06,0,0,0,3.58-1,4.8,4.8,0,0,0,1.15-3.55,4.53,4.53,0,0,0-1.17-3.31c-.61-.63-1.85-1-3.72-1h-5.91Z"/><path class="cls-1" d="M160.19,112.12a8.34,8.34,0,0,1,6.31,2.34c1.4,1.45,2.11,3.57,2.11,6.35a7.86,7.86,0,0,1-8.6,8.54q-4.39,0-6.66-2.44A8.21,8.21,0,0,1,151.4,121a9.35,9.35,0,0,1,2.18-6.46C155,113,157.23,112.15,160.19,112.12Zm-.2,2.77a4.77,4.77,0,0,0-3.8,1.54,6.55,6.55,0,0,0-1.32,4.38,6.43,6.43,0,0,0,1.08,4.06,4.78,4.78,0,0,0,4,1.7q5.22,0,5.22-5.67a6.6,6.6,0,0,0-1.32-4.43A4.9,4.9,0,0,0,160,114.89Z"/><path class="cls-1" d="M173.86,112.31v-6.22h3.35v6.22h4.92V115h-4.92v8.86a7.93,7.93,0,0,0,.1,1.54,1.2,1.2,0,0,0,.41.69,4.19,4.19,0,0,0,2.43.46h2v2.65h-3.25a11.32,11.32,0,0,1-2.46-.2,3.12,3.12,0,0,1-1.41-.8,3.17,3.17,0,0,1-.89-1.5,9.81,9.81,0,0,1-.26-2.55V115h-3.21v-2.65Z"/><path class="cls-1" d="M193.18,112.12a8.34,8.34,0,0,1,6.31,2.34q2.12,2.17,2.11,6.35a7.86,7.86,0,0,1-8.6,8.54q-4.4,0-6.66-2.44a8.21,8.21,0,0,1-2-5.88,9.35,9.35,0,0,1,2.18-6.46C188,113,190.22,112.15,193.18,112.12Zm-.2,2.77a4.73,4.73,0,0,0-3.79,1.54,6.5,6.5,0,0,0-1.33,4.38,6.43,6.43,0,0,0,1.08,4.06,4.78,4.78,0,0,0,4,1.7q5.22,0,5.22-5.67a6.6,6.6,0,0,0-1.32-4.43A4.9,4.9,0,0,0,193,114.89Z"/><path class="cls-1" d="M218.62,112.31V115h-5.36a7.32,7.32,0,0,0-2.55.37,3.41,3.41,0,0,0-1.54,1.22,7.51,7.51,0,0,0-1,4.21q0,3.31,1.4,4.72a5.18,5.18,0,0,0,3.67,1h5.36v2.65h-5.36a14.26,14.26,0,0,1-4.11-.46,5.77,5.77,0,0,1-3.61-3.53,10.44,10.44,0,0,1-.81-4.12,9.24,9.24,0,0,1,2.21-6.51,6.31,6.31,0,0,1,2.56-1.72,11.44,11.44,0,0,1,3.76-.51Z"/><path class="cls-1" d="M230.48,112.12a8.34,8.34,0,0,1,6.31,2.34q2.11,2.17,2.11,6.35a7.86,7.86,0,0,1-8.6,8.54q-4.4,0-6.66-2.44a8.21,8.21,0,0,1-1.95-5.88,9.35,9.35,0,0,1,2.18-6.46C225.32,113,227.52,112.15,230.48,112.12Zm-.2,2.77a4.75,4.75,0,0,0-3.79,1.54,6.5,6.5,0,0,0-1.33,4.38,6.43,6.43,0,0,0,1.08,4.06,4.78,4.78,0,0,0,4,1.7c3.48,0,5.23-1.89,5.23-5.67a6.6,6.6,0,0,0-1.33-4.43A4.9,4.9,0,0,0,230.28,114.89Z"/><path class="cls-1" d="M246.56,129.16h-3.35V106.09h3.35Z"/></g></g></svg>