<svg xmlns="http://www.w3.org/2000/svg" viewBox="0 0 364.4 125.28"><defs><style>.cls-1{fill:#1649dc;}</style></defs><title>资源 17</title><g id="图层_2" data-name="图层 2"><g id="图层_1-2" data-name="图层 1"><path class="cls-1" d="M0,98.6q38.4-9,78.2-14.2c4.8-.6,9.6-1.2,14.5-1.7V32.1l20.2-.1a1.43,1.43,0,0,0,1.4-1.4V18.9a1.37,1.37,0,0,0-1.4-1.4L58,17.6A1.43,1.43,0,0,0,56.6,19V30.6A1.37,1.37,0,0,0,58,32H78.2V75.4A514.39,514.39,0,0,0,0,98.6Z"/><path class="cls-1" d="M304.2,79.7a21,21,0,0,0,3.4-11.6,21.68,21.68,0,0,0-21.7-21.7H271.6a7.2,7.2,0,0,1,0-14.4h25.7a2.9,2.9,0,0,0,2.9-2.9V20.4a2.9,2.9,0,0,0-2.9-2.9H271.7a21.74,21.74,0,0,0-21.2,26.3c2.1,10.2,11.7,17.1,22.1,17.1h13.5a7.2,7.2,0,0,1,0,14.4H251.4a1.37,1.37,0,0,0-1.4,1.4v3.9c16.2,1.3,32.3,3.2,48.2,5.5,22.4,3.3,44.4,7.5,66.2,12.5A506.08,506.08,0,0,0,304.2,79.7Z"/><path class="cls-1" d="M240.2,79.9l-5.7-12.4-4.1-8.9a21.63,21.63,0,0,0-9.5-41.1H188.6a1.54,1.54,0,0,0-1.5,1.5V64.8h-4.9c-2.5,0-5,0-7.5.1L156.4,18.5a1.57,1.57,0,0,0-1.4-.9H140.3a1.22,1.22,0,0,0-1.3.9L119.1,68.6l-4.7,12c5.4-.4,10.7-.9,16-1.2l5-12.6,10.8-27.5,1.4-3.6.8,2.1.6,1.4h0L159.2,65l5.1,12.8c5.1-.1,10.3-.2,15.4-.2H187c4.8,0,9.6,0,14.5.2V31.9h19.4a7.17,7.17,0,0,1,7.2,7.2,7.33,7.33,0,0,1-6.4,7.2H210.9a1.43,1.43,0,0,0-1.4,1.4,1.27,1.27,0,0,0,.1.6l8.2,17.6,6,12.9C229.3,79.1,234.8,79.4,240.2,79.9Z"/><path class="cls-1" d="M305.9,14.4h8.7a2.9,2.9,0,0,0,2.9-2.9V2.9A2.9,2.9,0,0,0,314.6,0h-8.7A2.9,2.9,0,0,0,303,2.9v8.7A2.88,2.88,0,0,0,305.9,14.4Z"/><path class="cls-1" d="M163.26,100.48H155.5V97.62h19.12v2.86h-7.78v19.58h-3.58Z"/><path class="cls-1" d="M185.47,117.48V103.67h3.26v16.39h-7.15a21.87,21.87,0,0,1-2.5-.1,6.18,6.18,0,0,1-1.57-.42,4.15,4.15,0,0,1-2.26-2.07,10,10,0,0,1-.68-4.11v-9.69h3.26v9.57a6.15,6.15,0,0,0,.47,3c.52.86,1.7,1.28,3.55,1.28Z"/><path class="cls-1" d="M194.05,103.67h6.76a13.77,13.77,0,0,1,3.82.4,5.6,5.6,0,0,1,2.33,1.57,9,9,0,0,1,1.94,6.22,11.31,11.31,0,0,1-.66,3.89,7.16,7.16,0,0,1-1.82,2.87,4.84,4.84,0,0,1-2.14,1.16,18.22,18.22,0,0,1-3.83.28h-3.14v5.22h-3.26Zm3.26,2.58v11.23h3.14q2.78,0,3.81-1.08,1.28-1.32,1.27-4.75a6,6,0,0,0-1.18-4.15,5.17,5.17,0,0,0-3.9-1.25Z"/></g></g></svg>