<svg xmlns="http://www.w3.org/2000/svg" viewBox="0 0 364.4 128.4"><defs><style>.cls-1{fill:#1649dc;}</style></defs><title>资源 166</title><g id="图层_2" data-name="图层 2"><g id="图层_1-2" data-name="图层 1"><path class="cls-1" d="M0,98.6q38.4-9,78.2-14.2c4.8-.6,9.6-1.2,14.5-1.7V32.1l20.2-.1a1.43,1.43,0,0,0,1.4-1.4V18.9a1.37,1.37,0,0,0-1.4-1.4L58,17.6A1.43,1.43,0,0,0,56.6,19V30.6A1.37,1.37,0,0,0,58,32H78.2V75.4A514.39,514.39,0,0,0,0,98.6Z"/><path class="cls-1" d="M304.2,79.7a21,21,0,0,0,3.4-11.6,21.68,21.68,0,0,0-21.7-21.7H271.6a7.2,7.2,0,0,1,0-14.4h25.7a2.9,2.9,0,0,0,2.9-2.9V20.4a2.9,2.9,0,0,0-2.9-2.9H271.7a21.74,21.74,0,0,0-21.2,26.3c2.1,10.2,11.7,17.1,22.1,17.1h13.5a7.2,7.2,0,0,1,0,14.4H251.4a1.37,1.37,0,0,0-1.4,1.4v3.9c16.2,1.3,32.3,3.2,48.2,5.5,22.4,3.3,44.4,7.5,66.2,12.5A506.08,506.08,0,0,0,304.2,79.7Z"/><path class="cls-1" d="M240.2,79.9l-5.7-12.4-4.1-8.9a21.63,21.63,0,0,0-9.5-41.1H188.6a1.54,1.54,0,0,0-1.5,1.5V64.8h-4.9c-2.5,0-5,0-7.5.1L156.4,18.5a1.57,1.57,0,0,0-1.4-.9H140.3a1.22,1.22,0,0,0-1.3.9L119.1,68.6l-4.7,12c5.4-.4,10.7-.9,16-1.2l5-12.6,10.8-27.5,1.4-3.6.8,2.1.6,1.4h0L159.2,65l5.1,12.8c5.1-.1,10.3-.2,15.4-.2H187c4.8,0,9.6,0,14.5.2V31.9h19.4a7.17,7.17,0,0,1,7.2,7.2,7.33,7.33,0,0,1-6.4,7.2H210.9a1.43,1.43,0,0,0-1.4,1.4,1.27,1.27,0,0,0,.1.6l8.2,17.6,6,12.9C229.3,79.1,234.8,79.4,240.2,79.9Z"/><path class="cls-1" d="M305.9,14.4h8.7a2.9,2.9,0,0,0,2.9-2.9V2.9A2.9,2.9,0,0,0,314.6,0h-8.7A2.9,2.9,0,0,0,303,2.9v8.7A2.88,2.88,0,0,0,305.9,14.4Z"/><path class="cls-1" d="M243.5,110.6v3a7.57,7.57,0,0,0-4.6,1.5,4.79,4.79,0,0,0-1.4,3.9v9.3h-3.1V119a7.76,7.76,0,0,1,2.4-6.1,9.84,9.84,0,0,1,6.4-2.2h.3Z"/><path class="cls-1" d="M100.7,128.2v-2.9h4.5a28.69,28.69,0,0,0,3.5-.2,3.8,3.8,0,0,0,1.8-.9,3,3,0,0,0,.8-1.8,18.46,18.46,0,0,0,.2-3.8V105.1h3.7v13.5a20.15,20.15,0,0,1-.4,5,5.85,5.85,0,0,1-2.4,3.2,6.44,6.44,0,0,1-2.7,1.1,24.85,24.85,0,0,1-4.5.3Z"/><path class="cls-1" d="M131.8,118c0-1.7-.2-2.8-.7-3.2s-1.5-.7-3.2-.7H120v-2.7h8.7a14.61,14.61,0,0,1,3.4.3,3.47,3.47,0,0,1,1.9,1.2,3.81,3.81,0,0,1,.8,1.7,11.48,11.48,0,0,1,.2,2.9v10.6h-8.5a19.06,19.06,0,0,1-3.2-.2,4.38,4.38,0,0,1-2.9-1.6,5.4,5.4,0,0,1-1-3.3,5.26,5.26,0,0,1,.6-2.6,4,4,0,0,1,1.6-1.8,8.53,8.53,0,0,1,4.3-.8h5.9Zm0,2.6h-5.6a6.08,6.08,0,0,0-2.2.3c-.8.3-1.1,1.1-1.1,2.2a2.27,2.27,0,0,0,.8,1.9,4.33,4.33,0,0,0,2.6.6h5.6v-5Z"/><path class="cls-1" d="M146.4,123.9l5.5-12.5h3.5l-7.8,16.9h-2.7l-7.4-16.9h3.7Z"/><path class="cls-1" d="M170.1,118c0-1.7-.2-2.8-.7-3.2s-1.5-.7-3.2-.7h-7.9v-2.7H167a14.61,14.61,0,0,1,3.4.3,3.47,3.47,0,0,1,1.9,1.2,3.81,3.81,0,0,1,.8,1.7,11.48,11.48,0,0,1,.2,2.9v10.6h-8.5a19.06,19.06,0,0,1-3.2-.2,4.38,4.38,0,0,1-2.9-1.6,5.4,5.4,0,0,1-1-3.3,5.26,5.26,0,0,1,.6-2.6,4,4,0,0,1,1.6-1.8,8.53,8.53,0,0,1,4.3-.8h5.9Zm0,2.6h-5.6a6.08,6.08,0,0,0-2.2.3c-.8.3-1.1,1.1-1.1,2.2a2.27,2.27,0,0,0,.8,1.9,4.33,4.33,0,0,0,2.6.6h5.6v-5Z"/><path class="cls-1" d="M178.4,128.2v-2.9h10a6.91,6.91,0,0,0,3.3-.6,3.22,3.22,0,0,0,1.5-3c0-1.8-.7-2.9-2-3.3a13.35,13.35,0,0,0-3.5-.3h-1.9c-2.7,0-4.6-.4-5.7-1.1a5.48,5.48,0,0,1-2.5-4.9,7.13,7.13,0,0,1,1.1-3.9,5.65,5.65,0,0,1,2.8-2.3,15.69,15.69,0,0,1,5-.7H196v2.9h-9.5a14.17,14.17,0,0,0-2.3.1,5.78,5.78,0,0,0-1.4.5,3.06,3.06,0,0,0-1.3,2.8,2.79,2.79,0,0,0,1.2,2.5,7.73,7.73,0,0,0,3.9.7H188a23.61,23.61,0,0,1,4.4.3,5.28,5.28,0,0,1,2.4,1,6.83,6.83,0,0,1,1.8,2.3,8.66,8.66,0,0,1,.6,3.2,5.93,5.93,0,0,1-3.2,5.7,7.75,7.75,0,0,1-2.3.7,31.81,31.81,0,0,1-3.8.2h-9.5Z"/><path class="cls-1" d="M201.9,111.4v-6.2h3.3v6.2h4.9v2.7h-4.9V123a5.76,5.76,0,0,0,.1,1.5,1.61,1.61,0,0,0,.4.7,4,4,0,0,0,2.4.5h2v2.7h-3.2a14.73,14.73,0,0,1-2.5-.2,2.85,2.85,0,0,1-1.4-.8,3.77,3.77,0,0,1-.9-1.5,8.36,8.36,0,0,1-.3-2.6v-9.1h-3.2v-2.7h3.3Z"/><path class="cls-1" d="M225.4,118c0-1.7-.2-2.8-.7-3.2s-1.5-.7-3.2-.7h-7.9v-2.7h8.7a14.61,14.61,0,0,1,3.4.3,3.47,3.47,0,0,1,1.9,1.2,3.81,3.81,0,0,1,.8,1.7,11.48,11.48,0,0,1,.2,2.9v10.6h-8.4a19.06,19.06,0,0,1-3.2-.2,4.38,4.38,0,0,1-2.9-1.6,5.4,5.4,0,0,1-1-3.3,5.26,5.26,0,0,1,.6-2.6,4,4,0,0,1,1.6-1.8,8.53,8.53,0,0,1,4.3-.8h5.8Zm0,2.6h-5.6a6.08,6.08,0,0,0-2.2.3c-.8.3-1.1,1.1-1.1,2.2a2.27,2.27,0,0,0,.8,1.9,4.33,4.33,0,0,0,2.6.6h5.6v-5Z"/><path class="cls-1" d="M249,111.4v-6.2h3.3v6.2h4.9v2.7h-4.9V123a5.76,5.76,0,0,0,.1,1.5,1.61,1.61,0,0,0,.4.7,4,4,0,0,0,2.4.5h2v2.7H254a14.73,14.73,0,0,1-2.5-.2,2.85,2.85,0,0,1-1.4-.8,3.77,3.77,0,0,1-.9-1.5,8.36,8.36,0,0,1-.3-2.6v-9.1h-3.2v-2.7H249Z"/></g></g></svg>