<svg xmlns="http://www.w3.org/2000/svg" viewBox="0 0 364.4 124.63"><defs><style>.cls-1{fill:#1649dc;}</style></defs><title>资源 18</title><g id="图层_2" data-name="图层 2"><g id="图层_1-2" data-name="图层 1"><path class="cls-1" d="M0,98.6q38.4-9,78.2-14.2c4.8-.6,9.6-1.2,14.5-1.7V32.1l20.2-.1a1.43,1.43,0,0,0,1.4-1.4V18.9a1.37,1.37,0,0,0-1.4-1.4L58,17.6A1.43,1.43,0,0,0,56.6,19V30.6A1.37,1.37,0,0,0,58,32H78.2V75.4A514.39,514.39,0,0,0,0,98.6Z"/><path class="cls-1" d="M304.2,79.7a21,21,0,0,0,3.4-11.6,21.68,21.68,0,0,0-21.7-21.7H271.6a7.2,7.2,0,0,1,0-14.4h25.7a2.9,2.9,0,0,0,2.9-2.9V20.4a2.9,2.9,0,0,0-2.9-2.9H271.7a21.74,21.74,0,0,0-21.2,26.3c2.1,10.2,11.7,17.1,22.1,17.1h13.5a7.2,7.2,0,0,1,0,14.4H251.4a1.37,1.37,0,0,0-1.4,1.4v3.9c16.2,1.3,32.3,3.2,48.2,5.5,22.4,3.3,44.4,7.5,66.2,12.5A506.08,506.08,0,0,0,304.2,79.7Z"/><path class="cls-1" d="M240.2,79.9l-5.7-12.4-4.1-8.9a21.63,21.63,0,0,0-9.5-41.1H188.6a1.54,1.54,0,0,0-1.5,1.5V64.8h-4.9c-2.5,0-5,0-7.5.1L156.4,18.5a1.57,1.57,0,0,0-1.4-.9H140.3a1.22,1.22,0,0,0-1.3.9L119.1,68.6l-4.7,12c5.4-.4,10.7-.9,16-1.2l5-12.6,10.8-27.5,1.4-3.6.8,2.1.6,1.4h0L159.2,65l5.1,12.8c5.1-.1,10.3-.2,15.4-.2H187c4.8,0,9.6,0,14.5.2V31.9h19.4a7.17,7.17,0,0,1,7.2,7.2,7.33,7.33,0,0,1-6.4,7.2H210.9a1.43,1.43,0,0,0-1.4,1.4,1.27,1.27,0,0,0,.1.6l8.2,17.6,6,12.9C229.3,79.1,234.8,79.4,240.2,79.9Z"/><path class="cls-1" d="M305.9,14.4h8.7a2.9,2.9,0,0,0,2.9-2.9V2.9A2.9,2.9,0,0,0,314.6,0h-8.7A2.9,2.9,0,0,0,303,2.9v8.7A2.88,2.88,0,0,0,305.9,14.4Z"/><path class="cls-1" d="M131.23,116.23v.85a.45.45,0,0,1-.14.33.44.44,0,0,1-.32.12h-9.64l0-2.55,6.54-.06v-.25a3.26,3.26,0,0,0-.68-2.44c-.81-.83-2.17-.83-3.63-.82h-.82c-1.67,0-2.6,0-3.43.92-.62.67-.67,1.36-.65,2.78l0,2.12c0,.26,0,.49,0,.7a3.55,3.55,0,0,0,.71,2.81c.67.78,2.53.78,3.92.78h.17l1.54,0c1.95,0,4.87,0,6.13,0v3.08h-8.36c-2.24,0-5,0-6.21-1.23s-1.33-4.16-1.32-6.6v-.52c0-2.64.12-5.14,1.46-6.59,1.19-1.29,3.85-1.34,6.09-1.34h1.2c2.41,0,4.51,0,6.14,1.51C131.27,111.14,131.25,113.73,131.23,116.23Z"/><path class="cls-1" d="M252.34,105.49v3.29c-1.06,0-3.58.28-5,1.6a5.32,5.32,0,0,0-1.54,4.19v10h-3.32v-10a8.58,8.58,0,0,1,2.64-6.67,10.5,10.5,0,0,1,7-2.41Z"/><path class="cls-1" d="M270.32,115.82a1.07,1.07,0,0,0-.14-.16c-.83-.84-2.3-1.26-4.38-1.26h-1.71l6.18-5a.12.12,0,0,0,.05-.09v-3.21a0,0,0,0,0-.06,0L260.1,114.4V101.53h-3.34v23.08h3.34v-7.8h3.18a16.36,16.36,0,0,1,2.52.14,3,3,0,0,1,1.32.54,2.13,2.13,0,0,1,.77,1.1,7.91,7.91,0,0,1,.21,2.13v3.89h3.34V120A6.4,6.4,0,0,0,270.32,115.82Z"/><path class="cls-1" d="M93,124.61V101.54h11a16.24,16.24,0,0,1,4,.37,4.77,4.77,0,0,1,2.3,1.34,5.82,5.82,0,0,1,1.62,4.21,5.54,5.54,0,0,1-3.54,5.31,6.31,6.31,0,0,1,2.48,1.45,5.26,5.26,0,0,1,1.42,3.87,6,6,0,0,1-2.5,5.21c-1.25.88-3.49,1.31-6.71,1.31Zm3.69-13.31H104a4.79,4.79,0,0,0,2.92-.7,3.16,3.16,0,0,0,1.22-2.72,3.42,3.42,0,0,0-1-2.57,2.75,2.75,0,0,0-1.14-.66,9.05,9.05,0,0,0-2-.16H96.65Zm0,10.37h7c3.13,0,4.7-1.27,4.7-3.83a3.4,3.4,0,0,0-1-2.76,5.32,5.32,0,0,0-3.36-.84H96.65Z"/><path class="cls-1" d="M135,107.76h7.79a10.35,10.35,0,0,1,3.54.49,4.44,4.44,0,0,1,2.14,1.59,8,8,0,0,1,1.13,4.73v10h-3.35v-9.68a5.4,5.4,0,0,0-.87-3.52,4,4,0,0,0-3.11-1h-3.92v14.19H135Z"/><path class="cls-1" d="M167.57,107.76v2.66h-5.36a7.09,7.09,0,0,0-2.55.37,3.29,3.29,0,0,0-1.54,1.22,7.47,7.47,0,0,0-1,4.2q0,3.32,1.4,4.72c.69.69,1.91,1,3.67,1h5.36v2.65h-5.36a14.68,14.68,0,0,1-4.11-.45,5.8,5.8,0,0,1-3.61-3.53,10.32,10.32,0,0,1-.82-4.13,9.28,9.28,0,0,1,2.22-6.51,6.41,6.41,0,0,1,2.56-1.72,11.4,11.4,0,0,1,3.76-.51Z"/><path class="cls-1" d="M174.58,101.54v6.22h3.91a15.51,15.51,0,0,1,3.67.35,5.36,5.36,0,0,1,2.29,1.17,4.48,4.48,0,0,1,1.31,2.14,13.61,13.61,0,0,1,.38,3.68v9.51H182.8v-9.78c0-1.75-.3-2.92-.88-3.52s-1.73-.89-3.43-.89h-3.91v14.19h-3.34V101.54Z"/><path class="cls-1" d="M196.92,101.54l7.58,18.82,7-18.82h5.45v23.07h-3.59V105l-7.18,19.6H202.5L195.07,105v19.6h-3.59V101.54Z"/><path class="cls-1" d="M233.86,114.34c0-1.71-.22-2.8-.66-3.25s-1.48-.67-3.15-.67h-7.92v-2.66h8.65a13.16,13.16,0,0,1,3.45.35,3.73,3.73,0,0,1,1.91,1.21A4.06,4.06,0,0,1,237,111a13.55,13.55,0,0,1,.23,2.93v10.64h-8.52a20.4,20.4,0,0,1-3.23-.16,4.82,4.82,0,0,1-2.94-1.64,5,5,0,0,1-1-3.27,6.09,6.09,0,0,1,.56-2.64,4.17,4.17,0,0,1,1.56-1.8,8.53,8.53,0,0,1,4.26-.76Zm0,2.65h-5.6a5.6,5.6,0,0,0-2.16.31,2.12,2.12,0,0,0-1.15,2.19,2.22,2.22,0,0,0,.75,1.91,4.37,4.37,0,0,0,2.56.56h5.6Z"/></g></g></svg>