<?xml version="1.0" encoding="utf-8"?>
<!-- Generator: Adobe Illustrator 22.1.0, SVG Export Plug-In . SVG Version: 6.00 Build 0)  -->
<svg version="1.1" id="图层_1" xmlns="http://www.w3.org/2000/svg" xmlns:xlink="http://www.w3.org/1999/xlink" x="0px" y="0px"
	 viewBox="0 0 245 60" style="enable-background:new 0 0 245 60;" xml:space="preserve">
<style type="text/css">
	.st0{fill:#1649DC;}
</style>
<g>
	<g>
		<path class="st0" d="M48.1,4.5H2.9C2,4.5,1.3,5.2,1.3,6.1l0,7c0,0.9,0.7,1.6,1.6,1.6h17.9l0.1,43.6c0,0.9,0.7,1.6,1.6,1.6h7.4
			c0.9,0,1.6-0.7,1.6-1.6l-0.1-43.6h16.7c0.9,0,1.6-0.7,1.6-1.6l0-7C49.7,5.2,49,4.5,48.1,4.5z"/>
	</g>
	<path class="st0" d="M64.6,21.2L64.6,21.2c0-3.5,2.9-6.3,6.3-6.3h20.6c0.9,0,1.6-0.7,1.6-1.6V6.1c0-0.9-0.7-1.6-1.6-1.6H70.2
		c-9.2,0-16.6,7.4-16.6,16.6v0c0,8.8,7.1,15.8,15.8,15.8h11.9c3.5,0,6.3,2.9,6.3,6.3v0c0,3.5-2.9,6.3-6.3,6.3H59.1
		c-0.9,0-1.6,0.7-1.6,1.6v7.1c0,0.9,0.7,1.6,1.6,1.6h23.8c8.7,0,15.8-7.1,15.8-15.8v0c0-9.2-7.4-16.6-16.6-16.6H70.9
		C67.4,27.5,64.6,24.6,64.6,21.2z"/>
	<path class="st0" d="M125.5,51c-3.2,0-8.1,0.1-9.6-1.7c-2-2.4-1.6-3.9-1.6-8.3l0.1-5.3c-0.1-3.5,0.1-5,1.4-6.5
		c2.2-2.4,4.6-2,10.1-2c5.5,0,10.4-0.1,10,7.4l-14.5,0.1c-1,0-1.8,0.8-1.8,1.8l0,4.1c0,1,0.8,1.8,1.8,1.8l22.8,0
		c1,0,1.8-0.8,1.8-1.8c0-6.8,0.5-14.6-3.5-18.4c-4.6-4.4-10.7-3.9-17.4-3.9c-6,0-13.5-0.1-16.9,3.5c-3.6,3.9-3.8,10.8-3.8,16.8
		c0,6.6-0.3,14.2,3.5,18.1c3.4,3.7,11.7,3.2,17.7,3.2h17.8c1,0,1.8-0.8,1.8-1.8v-5.3c0-1-0.8-1.8-1.8-1.8
		C138.4,51.1,128,51,125.5,51z"/>
	<g>
		<path class="st0" d="M205.7,23.5c-3.8,3.5-5.7,8.4-5.7,14.6v19.8c0,1.1,0.9,2,2,2h6c1.1,0,2-0.9,2-2V38.1c0-3.4,2.5-6.4,4.3-7.6
			c1.8-1.2,4.4-1.8,6.3-2c1-0.1,1.8-1,1.8-2v-6.2c0-1.1-0.9-2-2-2C217.1,18.3,210.6,19,205.7,23.5z"/>
	</g>
	<path class="st0" d="M174,51c-3.2,0-8.1,0.1-9.6-1.7c-2-2.4-1.6-3.9-1.6-8.3l0.1-5.3c-0.1-3.5,0.1-5,1.4-6.5c2.2-2.4,4.6-2,10.1-2
		c5.5,0,10.4-0.1,10,7.4l-14.5,0.1c-1,0-1.8,0.8-1.8,1.8l0,4.1c0,1,0.8,1.8,1.8,1.8l22.8,0c1,0,1.8-0.8,1.8-1.8
		c0-6.8,0.5-14.6-3.5-18.4c-4.6-4.4-10.7-3.9-17.4-3.9c-6,0-13.5-0.1-16.9,3.5c-3.6,3.9-3.8,10.8-3.8,16.8c0,6.6-0.3,14.2,3.5,18.1
		c3.4,3.7,11.7,3.2,17.7,3.2h17.8c1,0,1.8-0.8,1.8-1.8v-5.3c0-1-0.8-1.8-1.8-1.8C186.9,51.1,176.5,51,174,51z"/>
	<g>
		<path class="st0" d="M233.5,0c-6.6,0-11.2,6.4-11.2,6.4s4.6,6.4,11.2,6.4c6.6,0,11.2-6.4,11.2-6.4S240.1,0,233.5,0z M233.5,11.6
			c-2.9,0-5.2-2.3-5.2-5.2s2.3-5.2,5.2-5.2c2.9,0,5.2,2.3,5.2,5.2S236.4,11.6,233.5,11.6z"/>
		<circle class="st0" cx="233.5" cy="6.4" r="2.4"/>
	</g>
</g>
</svg>
