<svg xmlns="http://www.w3.org/2000/svg" viewBox="0 0 465.3 116.7"><defs><style>.a{fill:#0048dc;}</style></defs><title>TSeer-Color</title><rect class="a" width="90.3" height="22.22" rx="2.2" ry="2.2"/><rect class="a" x="30.5" y="31.7" width="29.4" height="21.82" rx="2.1" ry="2.1"/><rect class="a" x="30.5" y="62.9" width="29.4" height="21.82" rx="2.1" ry="2.1"/><rect class="a" x="30.5" y="94.1" width="29.4" height="21.82" rx="2.1" ry="2.1"/><path class="a" d="M434.3,501.4H422.5c-7.8,0-14.5-5.9-14.2-13.2s5.3-12.3,14.2-12.3h40.4a2.9,2.9,0,0,0,3-2.9V457.9a2.9,2.9,0,0,0-3-2.9H422.5c-20.1,0-34.6,13-36.5,30.1-2.3,20.1,14.8,37.2,36.5,37.2h11.8c7.8,0,13.5,5.9,13.2,13.2s-4.2,12.3-13.2,12.3H393.2a2.9,2.9,0,0,0-3,2.8v15.2a2.9,2.9,0,0,0,3,2.9h41.1c20.1,0,33.6-13,35.5-30.1C472.1,518.5,456,501.4,434.3,501.4Z" transform="translate(-279 -454)"/><path class="a" d="M741.2,483.7H730.5c-23.7,0-42.9,12.6-42.9,37.2V567a2.9,2.9,0,0,0,3.1,2.7h16.7a2.9,2.9,0,0,0,3.1-2.7V520.9c0-9.6,9-17.3,20-17.3h10.7a3,3,0,0,0,3.2-2.8V486.4A3,3,0,0,0,741.2,483.7Z" transform="translate(-279 -454)"/><path class="a" d="M671.9,514.1c0-16.8-14.7-30.5-32.9-30.5H620.2c-18.2,0-33,13.7-33,30.5v25.1c0,16.9,14.8,30.5,33,30.5h43.5a2.9,2.9,0,0,0,3.1-2.7V552.6a2.9,2.9,0,0,0-3.1-2.7H620.2c-5.5,0-10-4.9-10-10.7v-3.3h58.6a3,3,0,0,0,3.2-2.7V520.6c0-.1,0-.1-.1-.2ZM649,519.7H610.2v-5.6c0-5.7,4.5-10.6,10-10.6H639c5.4,0,10,4.9,10,10.6Z" transform="translate(-279 -454)"/><path class="a" d="M573.1,513.8c0-17.2-15.1-31.2-33.7-31.2H520.1c-18.5,0-33.6,14-33.6,31.2v25.7c0,17.2,15.1,31.2,33.6,31.2h44.5a3,3,0,0,0,3.2-2.8V553.1a3,3,0,0,0-3.2-2.7H520.1c-5.5,0-10.2-5-10.2-10.9v-3.4h60a3,3,0,0,0,3.2-2.7v-13h0Zm-23.5,5.7H509.9v-5.7c0-5.9,4.7-10.8,10.2-10.8h19.3c5.5,0,10.2,4.9,10.2,10.8Z" transform="translate(-279 -454)"/></svg>