<svg xmlns="http://www.w3.org/2000/svg" viewBox="0 0 195.1 172.2"><defs><style>.cls-1{fill:#ffa300;}.cls-2{fill:#fda200;}.cls-3{fill:#fdfdfd;}.cls-4{fill:#fd9b00;}.cls-5{fill:#fdf6e9;}</style></defs><title>资源 7</title><g id="图层_2" data-name="图层 2"><g id="图层_1-2" data-name="图层 1"><path d="M18.9,139.8h5.6v24.1H18.9v-2.5a10.94,10.94,0,0,1-7.4,3.2A10.83,10.83,0,0,1,3.2,161a14.54,14.54,0,0,1,0-18.2,10.56,10.56,0,0,1,8.1-3.6,10.19,10.19,0,0,1,7.5,3.5v-2.9Zm-13.2,12a7.93,7.93,0,0,0,1.9,5.6,6.06,6.06,0,0,0,4.8,2.2,6.42,6.42,0,0,0,5-2.1,9.2,9.2,0,0,0,0-11.2,6.44,6.44,0,0,0-4.9-2.2,6.06,6.06,0,0,0-4.8,2.2A7.63,7.63,0,0,0,5.7,151.8Z"/><path d="M54.1,145v18.9H48.6V145H46.2v-5.2h2.4V131h5.6v8.8h4.3V145Z"/><path d="M84.6,153.2H67.3a7,7,0,0,0,1.9,4.7,5.66,5.66,0,0,0,4.4,1.7,5.29,5.29,0,0,0,3.4-1,13.84,13.84,0,0,0,3-3.7l4.7,2.6a20.22,20.22,0,0,1-2.3,3.2,13.22,13.22,0,0,1-2.6,2.2,7.89,7.89,0,0,1-3,1.2,12.94,12.94,0,0,1-3.5.4,11.52,11.52,0,0,1-8.7-3.5,12.81,12.81,0,0,1-3.3-9.2,13.2,13.2,0,0,1,3.2-9.2,10.93,10.93,0,0,1,8.5-3.5,10.79,10.79,0,0,1,8.4,3.4c2,2.2,3.1,5.3,3.1,9.3Zm-5.7-4.6c-.8-3-2.6-4.5-5.6-4.5a5.82,5.82,0,0,0-1.9.3,5.07,5.07,0,0,0-1.6.9,5.26,5.26,0,0,0-1.2,1.4,8.35,8.35,0,0,0-.8,1.9Z"/><path d="M90.7,139.8h5.6V142a9.63,9.63,0,0,1,2.7-2.2,6.53,6.53,0,0,1,2.9-.6,9.39,9.39,0,0,1,4.6,1.4l-2.5,5.1a5.11,5.11,0,0,0-3.1-1.1q-4.5,0-4.5,6.9V164H90.8V139.8Z"/><path d="M148.8,141.8a8.23,8.23,0,0,0-6.5-2.6,9.66,9.66,0,0,0-6.6,2.7V131.4h-5.6V164h5.6V152.4q0-4.5,1.2-6.3a4.6,4.6,0,0,1,4.1-1.8,3.9,3.9,0,0,1,3.3,1.3,6.85,6.85,0,0,1,1,4.2V164h5.6V149.2C150.9,145.8,150.2,143.3,148.8,141.8Z"/><path d="M157.1,129.8a3.41,3.41,0,0,1,1.1-2.5,3.58,3.58,0,0,1,2.5-1.1,3.63,3.63,0,0,1,2.6,1.1,3.41,3.41,0,0,1,1.1,2.5,3.63,3.63,0,0,1-1.1,2.6,3.41,3.41,0,0,1-2.5,1.1,3.76,3.76,0,0,1-3.7-3.7Zm6.4,10v24.1h-5.6V139.8Z"/><path d="M191.8,142.8a10.56,10.56,0,0,0-8.2-3.7,10.34,10.34,0,0,0-7.5,3.3v-2.6h-5.5v32.4h5.6v-11a10.13,10.13,0,0,0,7.6,3.4,10.27,10.27,0,0,0,8.1-3.6,12.74,12.74,0,0,0,3.2-9A13.62,13.62,0,0,0,191.8,142.8Zm-4.4,14.6a5.92,5.92,0,0,1-4.8,2.2,6,6,0,0,1-4.9-2.2,8.1,8.1,0,0,1-1.9-5.6,7.93,7.93,0,0,1,1.9-5.6,6.42,6.42,0,0,1,5-2.1,6.06,6.06,0,0,1,4.8,2.2,8.1,8.1,0,0,1,1.9,5.6A7.73,7.73,0,0,1,187.4,157.4Z"/><path d="M127.5,156.2a6.89,6.89,0,0,1-1.2,3.9,7.93,7.93,0,0,1-3.4,2.8,13.5,13.5,0,0,1-5,1,12,12,0,0,1-7.1-1.9,8.28,8.28,0,0,1-3.1-5.8l-.1-.4,4.6-.7.1.4a4.8,4.8,0,0,0,1.7,3.3,5.87,5.87,0,0,0,3.9,1.2,5.76,5.76,0,0,0,3.8-1,2.94,2.94,0,0,0,1.2-2.3,2,2,0,0,0-1-1.8,18.28,18.28,0,0,0-3.9-1.3,35.83,35.83,0,0,1-6-1.9,6.17,6.17,0,0,1-2.7-2.3,6.29,6.29,0,0,1-.9-3.3,6.11,6.11,0,0,1,.8-3,7.4,7.4,0,0,1,2-2.3,7,7,0,0,1,2.6-1.2,13.45,13.45,0,0,1,3.5-.5,14.8,14.8,0,0,1,4.9.8,7,7,0,0,1,3.2,2.2,7.76,7.76,0,0,1,1.4,3.7l.1.4-4.5.6-.1-.4a4.18,4.18,0,0,0-1.4-2.6,5.39,5.39,0,0,0-3.3-.9,6.37,6.37,0,0,0-3.6.8,2.12,2.12,0,0,0-1,1.8,1.5,1.5,0,0,0,.4,1.1,2.45,2.45,0,0,0,1.4.9c.4.1,1.5.5,3.4,1a54.07,54.07,0,0,1,5.8,1.8,5.41,5.41,0,0,1,2.7,2.2A8.74,8.74,0,0,1,127.5,156.2Z"/><path d="M37.3,139.5h6.1v5.3H37.3v19.1H31.6V144.8h-2v-5.3h2v-6c.2-4.5,4.9-9.8,13.3-6.9l-2,4.3c-2.4-.6-5.6.3-5.6,3.9Z"/><path class="cls-1" d="M114.5,105.6a10.73,10.73,0,0,0-5.8,4.2c-3.6,4.9-7.3,9.6-11.1,14.7-3.9-5.1-7.5-9.8-11.1-14.7a10.73,10.73,0,0,0-5.8-4.2c-23.6-7.8-38-29.7-36.8-55.5,1-19.9,14.4-37.9,33.2-45.8h.1A51.37,51.37,0,0,1,95.1.1h0A6.6,6.6,0,0,0,96.5,0h2.6a14.77,14.77,0,0,1,2.1.1,41.17,41.17,0,0,1,5.9.7c.4.1.8.1,1.2.2a48.36,48.36,0,0,1,17.1,7.1h0c.7.5,1.4.9,2,1.3a53.58,53.58,0,0,1,11.3,10.1C163.2,48.5,150.6,93.6,114.5,105.6Z"/><path class="cls-2" d="M127.4,9.3c-.6-.4-1.3-.8-2-1.3A22.63,22.63,0,0,0,127.4,9.3Z"/><path class="cls-3" d="M99.8,72.2V61.9a8.47,8.47,0,0,1,5.2-8.2c7.1-3.5,14.2-7.1,21.3-10.6,3.8-1.9,5.4-1,5.5,3.1.1,7,.1,14,0,20.9a9,9,0,0,1-5.3,8.2c-7.1,3.5-14.2,7.1-21.3,10.6-4,2-5.3,1.1-5.4-3.5C99.7,79.1,99.8,75.6,99.8,72.2Z"/><path class="cls-3" d="M95.2,72.3c0,3.8.1,7.6,0,11.4-.1,3.1-1.7,4.1-4.5,2.7Q79.15,80.85,67.9,75a7.76,7.76,0,0,1-4.4-7.2c-.1-7.3-.1-14.7,0-22,0-3.5,1.6-4.4,4.8-2.9,7.5,3.7,15.1,7.4,22.5,11.2a7.86,7.86,0,0,1,4.4,7.5c.1,3.6.1,7.2,0,10.7Z"/><path class="cls-3" d="M97.4,51.5c-9-3.3-17.2-8.3-25.8-12.5-2.6-1.3-2.6-3,0-4.4,7.7-3.9,15.4-7.8,23.2-11.5a8.82,8.82,0,0,1,8.2.4c7.1,3.5,14.2,7,21.2,10.6,1.2.6,2.8,1.2,2.7,2.9-.1,1.5-1.5,2-2.7,2.5-8.5,3.9-16.3,9.1-25.2,12A.94.94,0,0,1,97.4,51.5Z"/><path class="cls-4" d="M97.4,51.5h1.7c.5.1,1.1.1,1.6.2v.6c-1.3,0-2.7.4-3.8-.1S97.2,51.7,97.4,51.5Z"/><path class="cls-5" d="M127.4,9.3c-.6-.4-1.3-.8-2-1.3A22.63,22.63,0,0,0,127.4,9.3Z"/></g></g></svg>