<svg xmlns="http://www.w3.org/2000/svg" role="img" viewBox="-4.38 -5.88 357.50 102.25"><title>Akraino logo</title><defs><linearGradient id="b" x1="-130.119" x2="-129.119" y1="-283.98" y2="-283.98" gradientTransform="matrix(.2193 0 0 -.2193 139.642 -21.152)" gradientUnits="userSpaceOnUse"><stop offset="0" stop-color="#49bcec"/><stop offset=".256" stop-color="#42b7e9"/><stop offset=".636" stop-color="#2eabe1"/><stop offset="1" stop-color="#149bd6"/></linearGradient><clipPath id="a"><path fill="none" d="M111.2189 41.14106c.034.059.073.115.107.174-.073-.127-.147-.254-.219-.38195.039.069.072.139.112.20794"/></clipPath></defs><path fill="#9164cc" d="M130.8803 46.64289v-15.778h-11.413v15.778h-8.045V11.0959a3.069 3.069 0 0 1 .749-2.244 6.59331 6.59331 0 0 1 1.684-1.435l11.163-5.925a4.27437 4.27437 0 0 1 1.808-.436 3.4749 3.4749 0 0 1 1.871.436l8.481 5.551a3.53966 3.53966 0 0 1 1.279 1.372 4.02741 4.02741 0 0 1 .468 1.933v36.295zm0-34.736l-4.179-2.744-7.234 3.742v10.539h11.413zm37.85302 34.73631l-.499-16.96295-7.733-5.55005-2.682 3.30505v19.208h-8.044V2.17921h8.044v15.028l10.103-13.594a3.78355 3.78355 0 0 1 3.056-1.434h5.363l-.063 7.42h-3.99l-6.673 8.794 8.544 5.363a4.934 4.934 0 0 1 1.683 1.995 6.37222 6.37222 0 0 1 .436 2.433l.499 18.459zm36.54486 0l-.312-9.417-7.483-8.98 2.431.998-6.111 1.372 1.497-2.495v18.522h-8.045V2.49018l21.702-.311a3.67691 3.67691 0 0 1 1.871.436 4.457 4.457 0 0 1 1.247 1.06 4.08993 4.08993 0 0 1 .718 1.31 4.16 4.16 0 0 1 .217 1.247v16.651a4.13369 4.13369 0 0 1-.966 2.37 5.12388 5.12388 0 0 1-3.087 1.808l-3.18.748.312-.935 4.615 4.86395a6.20885 6.20885 0 0 1 1.683 3.991l.312 10.914zm-.312-37.293h-9.666v14.157l9.666-2.308zm38.22802 37.29269v-15.778h-11.413v15.778h-8.045V11.0959a3.069 3.069 0 0 1 .749-2.244 6.594 6.594 0 0 1 1.684-1.435l11.162-5.925a4.282 4.282 0 0 1 1.809-.436 3.47491 3.47491 0 0 1 1.871.436l8.481 5.551a3.54723 3.54723 0 0 1 1.279 1.372 4.02741 4.02741 0 0 1 .468 1.933v36.295zm0-34.736l-4.179-2.744-7.234 3.742v10.539h11.413zM262.089 2.179h8.045v44.464h-8.045zm27.00272 4.6141h.25l4.739-3.18a7.69177 7.69177 0 0 1 4.49-1.434h5.301a3.67672 3.67672 0 0 1 1.871.436 4.471 4.471 0 0 1 1.247 1.06 4.08663 4.08663 0 0 1 .717 1.31 4.16378 4.16378 0 0 1 .218 1.247v40.411h-8.044V9.35011h-2.619l-8.108 4.989v32.304h-8.044V2.17915h7.982zm57.18607 30.86963a3.08389 3.08389 0 0 1-.749 2.245 6.60542 6.60542 0 0 1-1.684 1.435l-11.162 5.924a4.27175 4.27175 0 0 1-1.809.437 3.46035 3.46035 0 0 1-1.871-.437l-8.481-5.55a3.54058 3.54058 0 0 1-1.279-1.372 4.02489 4.02489 0 0 1-.468-1.933v-32.18a4.1409 4.1409 0 0 1 .219-1.247 4.0684 4.0684 0 0 1 .717-1.31 4.48417 4.48417 0 0 1 1.247-1.059 3.66886 3.66886 0 0 1 1.871-.437h19.395a3.66379 3.66379 0 0 1 1.871.437 4.4702 4.4702 0 0 1 1.247 1.059 4.2393 4.2393 0 0 1 .936 2.557zm-8.045-1.434V9.35072h-11.413v27.876l4.179 2.74395z"/><g clip-path="url(#a)"><path fill="url(#b)" d="M111.107 40.933h.219v.382h-.219z"/></g><path fill="#fff" d="M111.10681 40.9333c.039.069.073.139.112.208.034.059.073.11505.107.174-.073-.127-.146-.255-.219-.382"/><path fill="#201747" d="M112.19231 85.88588v-29.42h17.117v5.493h-11.26v6.99195h10.352v5.494h-10.352v8.899h11.26v5.493h-14.166a2.6581 2.6581 0 0 1-1.362-.318 3.19984 3.19984 0 0 1-.908-.772 2.92329 2.92329 0 0 1-.522-.952 2.99168 2.99168 0 0 1-.159-.909m24.28988 2.95088V56.69276l17.343-.227a2.5424 2.5424 0 0 1 2.066.84 2.6975 2.6975 0 0 1 .704 1.748v25.33401a2.9283 2.9283 0 0 1-.341 1.407 2.55857 2.55857 0 0 1-.931 1l-3.95 2.406a3.68137 3.68137 0 0 1-1.952.409 4.24544 4.24544 0 0 1-.817-.091l-6.856-2.089-.454 1.407zm12.485-4.358l1.771-1.09v-21.702h-8.399v21.158zm15.25493-1.58942v-23.473a3.23532 3.23532 0 0 1 .159-.93 2.90787 2.90787 0 0 1 .523-.977 3.24047 3.24047 0 0 1 .907-.771 2.40032 2.40032 0 0 1 1.363-.273h16.435l-.454 9.217h-5.266v-3.996h-7.81v20.295l3.042 1.998 4.768-2.678v-7.22h-4.541v-5.13h10.397v13.348a2.88686 2.88686 0 0 1-1.452 2.497l-7.946 4.54a3.10488 3.10488 0 0 1-1.316.318 2.51987 2.51987 0 0 1-1.363-.318l-6.175-4.04a2.57522 2.57522 0 0 1-.93-.999 2.935 2.935 0 0 1-.341-1.408m27.2417 2.99659v-29.42h17.116v5.493h-11.26v6.99195h10.352v5.494h-10.352v8.899h11.26v5.493h-14.165a2.662 2.662 0 0 1-1.363-.318 3.209 3.209 0 0 1-.907-.772 2.90419 2.90419 0 0 1-.522-.952 2.9911 2.9911 0 0 1-.159-.909m45.60688-19.74995v-4.449h-6.472v3.405a2.38094 2.38094 0 0 0 1.045 1.907l9.489 4.949a3.8972 3.8972 0 0 1 1.634 1.611 4.85183 4.85183 0 0 1 .591 2.384v6.401a2.24748 2.24748 0 0 1-.545 1.635 4.81944 4.81944 0 0 1-1.226 1.045l-7.628 4.313a3.10461 3.10461 0 0 1-1.316.318 2.51993 2.51993 0 0 1-1.363-.318l-6.174-4.041a2.57035 2.57035 0 0 1-.931-.999 2.92911 2.92911 0 0 1-.341-1.408v-7.218h5.858v6.311l3.042 1.997 4.767-2.724v-3.178a2.54965 2.54965 0 0 0-.386-1.385 3.81453 3.81453 0 0 0-1.022-1.067l-9.08-4.585a3.46748 3.46748 0 0 1-1.794-1.771 5.72949 5.72949 0 0 1-.476-2.224v-7.628a3.01657 3.01657 0 0 1 .159-.908 2.97509 2.97509 0 0 1 .523-.954 3.24749 3.24749 0 0 1 .911-.772 2.68466 2.68466 0 0 1 1.365-.317h12.29a2.69228 2.69228 0 0 1 1.365.317 3.25675 3.25675 0 0 1 .91.772 3.07 3.07 0 0 1 .683 1.862v6.719zM255.57 88.837V61.868h-6.628v-5.403h19.114v5.403h-6.629v26.969h-5.857zm32.2351 0V77.351h-8.309v11.486h-5.856V62.958a2.231 2.231 0 0 1 .545-1.634 4.77 4.77 0 0 1 1.225-1.045l8.128-4.313a3.11672 3.11672 0 0 1 1.316-.318 2.52769 2.52769 0 0 1 1.362.318l6.175 4.04a2.595 2.595 0 0 1 .931 1 2.93322 2.93322 0 0 1 .34 1.40705V88.837zm0-25.289l-3.042-1.99694-5.267 2.724v7.672h8.309zm25.83301 2.58788v-4.449h-6.311v20.295l3.042 1.997 6.493-3.677 2.815 4.313-8.082 4.677a3.1198 3.1198 0 0 1-1.316.318 2.52281 2.52281 0 0 1-1.362-.318l-6.175-4.041a2.57045 2.57045 0 0 1-.931-.999 2.93429 2.93429 0 0 1-.34-1.408v-23.427a2.98652 2.98652 0 0 1 .159-.908 2.93414 2.93414 0 0 1 .522-.954 3.24311 3.24311 0 0 1 .907-.772 2.68192 2.68192 0 0 1 1.363-.317h14.937l-.454 9.67zm26.78711 22.7012l-.363-12.349-5.63-4.041-1.952 2.407v13.983h-5.857V56.4651h5.857v10.942l7.355-9.898a2.756 2.756 0 0 1 2.225-1.044h3.904l-.045 5.403h-2.906l-4.858 6.402 6.22 3.904a3.59613 3.59613 0 0 1 1.226 1.454 4.637 4.637 0 0 1 .318 1.77l.363 13.439z"/><path fill="#10cfc9" fill-rule="evenodd" d="M53.22 20.671L19.538 79.008h25.839L71.802 33.24l32.087 55.576H62.362l5.661-9.808h18.879L71.801 52.853 51.037 88.816H2.55L53.22 1.057l12.919 22.376-5.662 9.807-7.257-12.569z"/></svg>