<svg xmlns="http://www.w3.org/2000/svg" role="img" viewBox="-4.81 -4.81 250.38 129.63"><title>Ampere logo</title><g data-name="图层 2"><g data-name="图层 1"><path fill="#ee4029" d="M147.66 49.4l-1.8-3.3c-3.3-6.1-6.5-12.2-9.8-18.3-2.8-5.2-5.6-10.4-8.3-15.6-.1-.2-.1-.4-.3-.4s-.3.3-.4.4c-2 3.7-4 7.5-6 11.3-4.5 8.3-8.9 16.6-13.4 25-3.2 5.9-6.3 11.9-9.5 17.8-.4.7-.8 1.4-1.2 2.2a.89.89 0 0 1-.8.5h-5.3c-.5 0-.6-.2-.4-.6 3.4-6.3 6.8-12.7 10.2-19 .8-1.4 1.5-2.8 2.3-4.3a6.47 6.47 0 0 0-2 .4 51.89 51.89 0 0 0-23.4 12.3 55.46 55.46 0 0 0-9.1 10.8.87.87 0 0 1-.9.5h-5.4c-.6 0-.7-.1-.3-.6a55.7 55.7 0 0 1 7.5-10.5 58.73 58.73 0 0 1 15.1-12.1 59.33 59.33 0 0 1 19.2-6.7l2.3-.3a.67.67 0 0 0 .7-.5c2.7-5.1 5.5-10.2 8.2-15.3 4-7.5 8-15 12.1-22.5.1-.2.2-.6.4-.6s.4.4.5.6c4.4 8.3 8.9 16.6 13.3 24.8 3.2 6 6.4 11.9 9.6 17.9L164 67.9c.7 1.3.7 1.2-.7 1.2h-4.5a.87.87 0 0 1-.9-.5 50.16 50.16 0 0 0-6.7-8.5 50.92 50.92 0 0 0-12.6-9.5 52.18 52.18 0 0 0-16.2-5.7l-4.2-.6c-.7-.1-.7-.1-.4-.8.7-1.3 1.5-2.7 2.1-4a1 1 0 0 1 1.3-.6 66.43 66.43 0 0 1 9.6 2.2 58.64 58.64 0 0 1 16.4 8.2c.06 0 .16.2.46.1z"/><path d="M72.36 98.5c-.9 1.6-1.8 3.3-2.6 4.9-2.4 4.5-4.9 9.1-7.3 13.6a1 1 0 0 1-.9.6h-3a1.17 1.17 0 0 1-1.1-.7c-3.3-6.1-6.5-12.2-9.8-18.3 0-.1-.1-.2-.2-.4v20.9c0 .9 0 .9-.9.9H43c-.5 0-.7-.2-.7-.7V91.4c0-.8 0-.8.8-.8h5.2a.78.78 0 0 1 .9.6c1.9 3.6 3.8 7.1 5.7 10.7 1.6 3 3.2 6 4.7 8.9.1.2.1.4.4.4s.2-.3.3-.4c2.6-4.9 5.2-9.8 7.7-14.6.9-1.6 1.8-3.3 2.6-5a.89.89 0 0 1 1-.6h5.3c.5 0 .7.1.7.7v28.1c0 .6-.2.7-.7.7h-3.7c-.8 0-.8 0-.8-.8V98.6c.06-.1.06-.1-.04-.1zm91.5 6.8V91.4c0-.9 0-.9.9-.9h15.7a11.07 11.07 0 0 1 6.6 1.9 7.55 7.55 0 0 1 3 5.7 9.9 9.9 0 0 1-1.3 6.3 7.2 7.2 0 0 1-3.1 2.9c-.4.2-.5.4-.3.9 2 3.7 3.9 7.4 5.9 11.1.3.6.3.6-.4.6h-4.6a.87.87 0 0 1-.9-.6L180 109.1a1 1 0 0 0-1.1-.7h-9.2c-.8 0-.8 0-.8.8v9.7c0 .9 0 .9-.9.9h-3.6c-.6 0-.7-.2-.7-.7.16-4.5.16-9.2.16-13.8zm11.5-10.1h-5.7c-.5 0-.6.2-.6.6v7.6c0 .3.1.6.5.6 3.7-.1 7.4.1 11.1-.1 2.6-.2 3.9-1.3 4.2-3.9.4-2.8-1.1-4.8-4.1-4.8zm-48.3 10.1V91.4c0-.9 0-.9.9-.9h22.6c.8 0 .8 0 .8.8v3c0 .6-.2.8-.8.8H134c-1.7 0-1.7 0-1.7 1.7v4.9c0 .6.2.7.8.7h16.4c1 0 1 0 1 1v2.8c0 .9 0 .9-.9.9h-16.4c-.8 0-.8 0-.8.9v6.7c0 .6.2.8.8.7h17.4c.9 0 .9 0 .9.9v2.8c0 .8 0 .8-.8.8H128c-.6 0-.8-.2-.8-.8-.14-4.5-.14-9.2-.14-13.8zm74.6 0V91.4c0-.8 0-.8.8-.8h22.7c.8 0 .8 0 .8.8v2.9c0 .9 0 .9-.9.9h-17.7c-.3 0-.5.1-.5.5v6.3c0 .4.2.5.6.5h16.7c.9 0 .9 0 .9.9v3c0 .6-.2.8-.8.8h-16.6c-.9 0-.9 0-.9.8v6.8c0 .6.2.7.7.7H225c.9 0 .9 0 .9.9v3c0 .4-.1.6-.6.6h-23.1c-.6 0-.6-.3-.6-.7.06-4.7.06-9.4.06-14zM29.26 120h-2.2a.87.87 0 0 1-.9-.6c-1-2.4-2.1-4.8-3.1-7.2a.87.87 0 0 0-.9-.6h-12.1a.87.87 0 0 0-.9.6c-1 2.4-2.1 4.7-3.1 7.1a.87.87 0 0 1-.9.6H.66c-.7 0-.8 0-.5-.7 2-4.3 3.9-8.7 5.9-13 2.2-4.9 4.4-9.7 6.6-14.6a1.49 1.49 0 0 1 1.8-1.1c1.2.1 2.5 0 3.7 0a1.17 1.17 0 0 1 1.1.7c2.5 5.6 5 11.2 7.6 16.8 1.6 3.6 3.3 7.3 4.9 10.9 0 .1.1.2.1.3.4.8.4.8-.5.8zm-13.2-23.9c-1.5 3.6-3 7-4.4 10.4-.2.5.1.6.5.6h8.1c.6 0 .6-.2.4-.6-.9-2-1.7-4-2.6-6a44.81 44.81 0 0 1-2-4.4zm76.3 9.2V91.4c0-.8 0-.8.8-.8h14.6a13.33 13.33 0 0 1 4.9.9 7.14 7.14 0 0 1 4.5 5.3 10.23 10.23 0 0 1-.6 6.9 8.45 8.45 0 0 1-6.7 4.8 14.15 14.15 0 0 1-2.9.2h-8.7c-.9 0-.9 0-.9.9v9.5c0 1 0 1-1 1H93c-.8 0-.8 0-.8-.8.16-4.7.16-9.4.16-14zm11.1-10.1h-5.2c-.5 0-.7.2-.7.7v6.4c0 1.7 0 1.7 1.7 1.7 3 0 6.1.2 9.1-.1a3.88 3.88 0 0 0 3.6-2.6 5.78 5.78 0 0 0 .2-3.2 3.62 3.62 0 0 0-3.8-2.9zM241 115.3a4.61 4.61 0 0 1-4.6 4.7 4.6 4.6 0 1 1 0-9.2 4.5 4.5 0 0 1 4.6 4.5zm-4.6-3.4a3.31 3.31 0 0 0-3.4 3.4 3.42 3.42 0 0 0 3.4 3.6 3.29 3.29 0 0 0 3.3-3.4 3.24 3.24 0 0 0-3.34-3.6z"/><path d="M234.56 115.5v-1.8c0-.4.2-.6.5-.6a13.33 13.33 0 0 1 2 0 1.29 1.29 0 0 1 1.2.9 1.05 1.05 0 0 1-.4 1.3.21.21 0 0 0 0 .4 2.72 2.72 0 0 1 .6 1.7c.1.2-.1.3-.3.4-.4 0-.8.1-1-.3l-.3-.9a.8.8 0 0 0-.9-.6c-.5.1-.3.4-.4.7v.5c0 .4-.2.5-.6.5s-.6-.1-.6-.5a4.68 4.68 0 0 0 .2-1.7zm1.8-1.6c-.5-.1-.5.3-.5.7s0 .5.4.5.9-.1.9-.6-.5-.5-.8-.6z"/></g></g></svg>