<svg xmlns="http://www.w3.org/2000/svg" role="img" viewBox="-4.29 -1.54 223.08 55.33"><title>Apache CarbonData logo</title><defs><style>.cls-1{fill:#4e4e4e}.cls-2{isolation:isolate}.cls-3{fill:#d42029;fill-opacity:.93725}</style></defs><g id="layer1"><g id="text3338"><path id="path11146" d="M46.1111 22.48013a9.30356 9.30356 0 0 0-9.31119 9.174 9.28469 9.28469 0 0 0 9.27722 9.09268c2.27681 0 4.80853-.92715 5.99789-2.86278l.18689 1.30125a1.51358 1.51358 0 0 0 1.51221 1.62662 1.66894 1.66894 0 0 0 1.69912-1.62662l.034-15.0623v-.03246a1.66894 1.66894 0 0 0-1.69912-1.62662 1.51358 1.51358 0 0 0-1.51221 1.62662l-.18691 1.56154a7.74245 7.74245 0 0 0-5.9979-3.17189zm5.862 9.14152a5.90451 5.90451 0 1 1-5.896-5.88833 5.86309 5.86309 0 0 1 5.89598 5.88833z" class="cls-1"/><path id="path11148" d="M70.17068 24.611c0-1.74046-1.66514-2.06577-3.976-2.06577a5.381 5.381 0 0 0-4.14582 2.55377l-.16986-1.17118a1.78681 1.78681 0 0 0-1.6312-1.39882 1.47884 1.47884 0 0 0-1.42727 1.67537v14.981a1.70448 1.70448 0 0 0 3.39824.0163v-8.39333c0-3.00921.98548-5.40029 3.959-5.40029.98548 0 2.03894.71571 2.68462.65062a1.33608 1.33608 0 0 0 1.30829-1.44767z" class="cls-1"/><path id="path11150" d="M90.32232 31.60535A8.944 8.944 0 0 0 81.3 22.52893a7.25758 7.25758 0 0 0-5.6071 2.65135v-6.848a1.70074 1.70074 0 0 0-3.39824 0V39.104a1.669 1.669 0 0 0 1.69912 1.62662c.93451 0 1.3593-.74822 1.49523-1.62662l.20391-1.31755a7.369 7.369 0 0 0 5.726 2.86279 8.9717 8.9717 0 0 0 8.90343-9.04389zm-8.86943 5.7907A5.75292 5.75292 0 0 1 77.409 35.6556a6.10386 6.10386 0 0 1-1.59718-4.13154 5.61087 5.61087 0 0 1 5.55614-5.7907 5.77892 5.77892 0 0 1 5.57314 5.872 5.671 5.671 0 0 1-5.48817 5.7907z" class="cls-1"/><path id="path11152" d="M101.34963 22.56147a9.2966 9.2966 0 0 0-9.31122 9.10893 9.325 9.325 0 0 0 18.63941 0 9.24547 9.24547 0 0 0-9.32819-9.10893zm-5.879 9.14147a5.89027 5.89027 0 1 1 5.89597 5.69306 5.832 5.832 0 0 1-5.89595-5.69306z" class="cls-1"/><path id="path11154" d="M116.52278 25.13153l-.28885-.976c-.25494-.87835-.71363-1.62661-1.64812-1.62661a1.47479 1.47479 0 0 0-1.46127 1.62661l.03391 14.94843a1.70041 1.70041 0 0 0 3.39824.01625l-.01738-6.49012c-.01737-4.16409 1.852-6.79919 5.19932-6.79919a2.9691 2.9691 0 0 1 2.73558 1.83809 7.78224 7.78224 0 0 1 .47578 3.20439v8.21433a1.70073 1.70073 0 0 0 3.39823 0v-8.21428a10.39949 10.39949 0 0 0-.76462-4.53819 6.32778 6.32778 0 0 0-5.879-3.75743c-2.27682 0-3.959 1.41514-5.18235 2.55376z" class="cls-1"/><path id="path11156" d="M139.461 16.9985l-5.98094.09763a1.6828 1.6828 0 0 0-1.66515 1.62661l-.11878 19.95836a1.71817 1.71817 0 0 0 1.68212 1.67541l3.874.03246h.7986c8.97137 0 13.76288-4.86355 13.76288-11.5814 0-5.872-4.12887-11.80907-12.09776-11.80907zm9.32817 11.7115c0 6.295-4.67261 8.39326-11.50308 8.39326l-2.19188-.03246.102-16.73772c.91754-.03246 1.83506-.06517 2.76957-.06517 6.54162 0 10.82345 2.40738 10.82345 8.442z" class="cls-1"/><path id="path11158" d="M164.09826 22.48013a9.30356 9.30356 0 0 0-9.31119 9.174 9.28468 9.28468 0 0 0 9.2772 9.09268c2.27684 0 4.80851-.92715 5.99792-2.86278l.18688 1.30125a1.5136 1.5136 0 0 0 1.51224 1.62662 1.669 1.669 0 0 0 1.69914-1.62662l.0339-15.0623v-.03246a1.669 1.669 0 0 0-1.69914-1.62662 1.5136 1.5136 0 0 0-1.51223 1.62662l-.18686 1.56152a7.74249 7.74249 0 0 0-5.99792-3.17189zm5.862 9.14152a5.90451 5.90451 0 1 1-5.896-5.88833 5.86309 5.86309 0 0 1 5.89595 5.88833z" class="cls-1"/><path id="path11160" d="M179.44135 19.64989v3.25319h-2.20885a1.54673 1.54673 0 1 0 0 3.09051h2.19187l-.01737 10.1988v.14642a4.15322 4.15322 0 0 0 4.45169 4.40806 5.56436 5.56436 0 0 0 3.2623-1.08982 1.5934 1.5934 0 0 0-1.0195-2.89533 2.06242 2.06242 0 0 0-1.05345.34156 2.26719 2.26719 0 0 1-1.29134.37411c-.78158 0-.95151-.34156-.95151-1.39889v-.0325l.01738-10.06862h2.29381a1.54675 1.54675 0 1 0 0-3.09055h-2.27679V19.65a1.70076 1.70076 0 0 0-3.39829 0z" class="cls-1"/><path id="path11162" d="M198.82838 22.48013a9.30358 9.30358 0 0 0-9.31119 9.174 9.28469 9.28469 0 0 0 9.2772 9.09268c2.27683 0 4.80853-.92715 5.99792-2.86278l.18686 1.30125a1.5136 1.5136 0 0 0 1.51223 1.62662 1.669 1.669 0 0 0 1.69914-1.62662l.03391-15.0623v-.03246a1.669 1.669 0 0 0-1.69914-1.62662 1.5136 1.5136 0 0 0-1.51223 1.62662l-.18687 1.56152a7.7424 7.7424 0 0 0-5.99792-3.17189zm5.862 9.14152a5.9045 5.9045 0 1 1-5.89593-5.88833 5.86312 5.86312 0 0 1 5.896 5.88833z" class="cls-1"/></g><g id="text3342" class="cls-2"><g class="cls-2"><path d="M205.05316 49.643v-4.77446h-1.78125v-.97266h4.77148v.97266h-1.77734V49.643zm3.75584 0v-5.74712h1.81446l1.08984 3.91992 1.07617-3.91992h1.81836V49.643h-1.126v-4.52446l-1.19235 4.52446h-1.166l-1.1875-4.52441V49.643z" class="cls-1"/></g></g><g id="text3346"><path id="path11165" d="M137.3372 10.65369l-1.0462 2.19791h-1.8831l4.60313-9.66245h1.88311l4.60311 9.66245h-1.8831l-1.04615-2.19791zm4.51346-1.50669l-1.898-3.98109-1.898 3.98109z" class="cls-3"/><path id="path11167" d="M152.25244 3.18915a5.69265 5.69265 0 0 1 3.46728.84323 3.078 3.078 0 0 1 1.091 2.59879 2.96526 2.96526 0 0 1-1.12087 2.57109 5.75729 5.75729 0 0 1-3.40751.81557h-1.85322v2.83377h-1.76352V3.18915zm.22431 5.34962a2.878 2.878 0 0 0 1.98769-.51149 2.02986 2.02986 0 0 0 .538-1.52053A1.53813 1.53813 0 0 0 154.33 5.083a4.1347 4.1347 0 0 0-2.10728-.41469h-1.79343v3.87046z" class="cls-3"/><path id="path11169" d="M161.52282 10.65369l-1.04617 2.19791h-1.8831l4.60313-9.66245h1.8831l4.60314 9.66245h-1.88313l-1.04617-2.19791zM166.0363 9.147l-1.89806-3.98109-1.898 3.98109z" class="cls-3"/><path id="path11171" d="M177.61871 11.3725a4.0362 4.0362 0 0 0 1.56929-.2765 5.59613 5.59613 0 0 0 1.375-.91232l1.13583 1.07822a5.42573 5.42573 0 0 1-4.0352 1.70023 5.66164 5.66164 0 0 1-3.93063-1.41 4.60679 4.60679 0 0 1-1.55432-3.5664 4.65132 4.65132 0 0 1 1.58423-3.594 5.78805 5.78805 0 0 1 4.02026-1.43763 5.46536 5.46536 0 0 1 4.06511 1.6588l-1.1209 1.13351a4.87446 4.87446 0 0 0-1.4198-.92618 4.18225 4.18225 0 0 0-1.55432-.26253 3.86538 3.86538 0 0 0-2.66023.9538 3.06516 3.06516 0 0 0-1.07606 2.419 3.23875 3.23875 0 0 0 1.0611 2.46052 3.64605 3.64605 0 0 0 2.54068.98146z" class="cls-3"/><path id="path11173" d="M185.57158 12.8516V3.18915h1.76354V7.3776h5.186V3.18915h1.76353v9.66245h-1.76353V8.89813h-5.186v3.95347z" class="cls-3"/><path id="path11175" d="M206.2431 3.18915v1.53438h-5.57458v2.55728h5.00664v1.45143h-5.00664v2.58494h5.75389v1.53438h-7.51748V3.18911z" class="cls-3"/></g><g id="g3413"><path id="path3427" fill="#cdcdcd" d="M13.2241 46.76491v-.37882h.75763v.75764h-.75763zm17.90763 0v-.37882h.82651v.75764h-.82651zm-17.15-3.51265v-.79207h7.85181v.8265H21.007v.75764h-7.0253zm-5.44117-3.0994v-1.5497h.75763v3.0994h-.75763zM23.3488 38.982v-1.13647H21.007v1.51526h-2.34174V37.019h17.15v.82651h-6.1988v1.51526H24.1753v.75763h-.8265zM5.44117 34.29844v-.37882h2.34176v.75764H5.44117zm8.54056 0v-.37882h2.34177v.75764h-2.34177zM.75763 29.61491v-.37882H3.0994v.75763H.75763zm4.68354-4.27029v-.79207h2.34176v.75764H6.1988v.8265h-.75763zM.75763 20.66109V19.869H0v-.75763h3.857v.75763h-.7576v1.58414H.75763zm17.15-1.17088v-.37882h.75763v.75761h-.75763zm-3.9259-2.755v-1.54972h1.58414v.75762H17.15v.82651h-.8265v.75763h-.75763v.75763h-1.58414zm-8.54056-.37881v-.41326h2.34176v.82651H5.44117zm3.09939-2.72059v-1.5497h.75763v3.0994h-.75763zm23.41768-1.17091v-1.13644h3.0994v.75763H34.3v.75763h-.8265v.75763h-1.51526zm-17.97651-.37881v-.75763H21.007v.75763h-5.44113v.75763h-1.58414zm-3.857-.37882v-.37881H11.64v.75763h-1.5153zm3.857-3.51265v-1.5497h-.75763v-.82651h2.34177v.82651H17.15v1.51526h-.8265v.82651h-1.51526v.75763h-.82651zm1.58414-1.17088v-.37882h-.75763v.75763h.75763zm12.46646.75763v-.37882h-.75763V5.81841h.75763v.82651h2.34177v.75763H28.79v.75763h-.75763zm3.0994-1.5497v-.41326h.82651v.82651h-.82651z"/><path id="path3425" fill="#acacac" d="M13.98173 46.76491v-.37882h17.15v.75764h-17.15zm0-1.92852v-.79206h-.75763v-1.58414h.75763v1.58414H21.007v-.75764h.82651v.75764H21.007v.75767h-6.19876v.8265h-.82651zm9.36707-1.96295v-.41325h6.26767v.8265H23.3488zm-4.68354-2.72058v-.79207H21.007v-1.51526h.82651v1.51526H21.007v.75764h-1.51523v.8265h-.82651zm4.68354.37882v-.41325h.82651v-.75764h5.44116v-1.51526h.75763v1.51526h-.75763v.75764H24.1753v.8265h-.8265zm-13.2241-1.92852v-.75763h.75763v1.51526h-.75763zm21.83354 0v-.75763h.75763v1.51526h-.75763zm-9.36707-.37882v-.37881h.75763v.75763h-.75763zm-4.68354-2.72058V33.162h.75763v4.68354h-.75763zm-12.46646-.03444v-.79207h2.34176v-.75763H5.44117V33.162h2.34176v.75763h.75763v.75763h-.75763v.82651H6.1988v.75763h-.75763zm8.54056 0v-.79207h2.34177v-.75763h-2.34177V33.162h2.34177v.75763h.8265v.75763h-.8265v.82651h-.75763v.75763h-1.58414zM.75763 30.78579v-.79207H0v-1.51526h3.0994v.75763h.7576v.75763h-.7576v1.58414H.75763zM3.0994 29.6149v-.37881H.75763v.75763H3.0994zm2.34177-.75763v-2.72058h.75763v-.8265h1.58414v-.75764h.75763v.75764h-.75763v6.26767H5.44117zm4.68353.75763v-.37881h-.82651v-.75764h1.58414v.75764H11.64v.75763h-1.5153zM0 24.93137v-.37882h3.0994v.75764H0zm4.68353 0v-.37882h.75764v.75764h-.75764zm8.54057-.75763v-.37882h.75763v.75763h-.75763zM.75763 22.21079v-.75763H3.0994V19.869h.7576v-.75763h.8265v.75763H3.857v1.58414h-.7576v.75763H1.51526v.75763H.75763zm4.68354-1.5497V19.869H11.64v.75763H6.1988v.8265h-.75763zM0 20.24783V19.869h.75763v.75763H0zm13.98173-1.54969v-.41326h.82651v.82651h-.82651zm3.9259-1.5497v-1.963h.75763v3.9259h-.75763zm-12.46646.37881v-.75763h2.34176v-.82651h-3.0994v-.75763h3.0994v.75763h.75763v.82651h-.75763v.75763H6.1988v.75763h-.75763zm4.68353-2.34176v-3.0994h-.82651V10.502H11.64v.82651h.82651v.75763H11.64v5.44116h-.75763v.75763h-.75767zm1.5153-3.47822v-.37881h-1.5153v.75763H11.64zm3.92591 6.1988v-.37882h.75763v-.75763H17.15v1.51527h-1.58413zm0-2.34177v-.37881H17.15v.75762h-1.58413zm16.39237-1.5497v-.41325h.75763v.8265h-.75763zm-17.97651-.79207v-.37881h1.58414v-.75763H21.007v-.75763h-2.34174V10.502H21.007v.82651h.82651v.75763H21.007v1.51526h-7.0253zm19.49177 0v-.37881H34.3v.75763h-.8265zM23.3488 11.70727v-.37881h6.26767v.75763H23.3488zm-9.36707-.79207v-.4132h.82651v.82651h-.82651zm17.97651 0v-.4132h-.82651V6.645h.82651v3.857h3.0994v.82651h-3.0994zm-17.15-1.5497v-.37881h.75763v.75763h-.75763zm12.46646-.79207V7.40255h.75763v.75763H28.79v-.75763h1.5841v.75763h-.75763v.82651h-1.58414v.75763h-.75763zM13.2241 7.8158V6.64492h.75763v2.34177h-.75763zm3.0994.75763v-.41325h.8265v.82651h-.8265zm.8265-1.54969v-.37882h-1.58413v-.82651H17.15v.82651h.75763v.75763H17.15zm1.51526-.41326v-.79207h7.0253v.82651h-.75763v.75763h-6.26767zm9.36706-.37881v-.41326h2.34178v.82651h-2.34177z"/><path id="path3423" fill="#8e8e8e" d="M13.2241 45.21521v-1.17088h.75763v2.34176h-.75763zm17.90763-.79207v-1.96295h.82651v3.9259h-.82651zm-16.32349.79207V44.802h.75763v.8265h-.75763zm8.54056-1.5497v-.37882h6.26767v-.8265h.75763v.8265h-.75763v.75764H23.3488zm11.70884-1.58414v-.37881h.75763v.75763h-.75763zm-15.56587-1.5497v-.41325H21.007v.82651h-1.51523zm4.68354 0v-.41325h5.44116v-.75763h.75763v.75763h-.75763v.82651H24.1753zm-13.293-1.92851v-.75763H17.15v.75763h-.8265v.75763h-5.44117zm11.70884.37881v-.37881h.75763v.75763h-.75763zm10.1247-.37881v-.75763H34.3v1.51526h-1.58413zM9.2982 38.22434v-.37881h.8265v.75763h-.8265zm8.60944 0v-.37881h.75763v.75763h-.75763zm12.46646 0v-.37881h.75763v.75763h-.75763zm-16.39237-1.58413v-.37882h.82651v.75761h-.82651zm-7.78293-.75763v-.37882h1.58414v.75763H6.1988zm9.36707 0v-.37882h.75763v-.8265h.8265v.8265h-.8265v.75763h-.75763zm-10.88233-1.963V33.162h.75763v1.51526h-.75763zm3.09939-.37881V33.162h.75763v.75763h-.75763zm8.54057 0V33.162h.8265v.75763h-.8265zM.75763 31.95667v-.37882H0v-1.58413h.75763v1.58413h.75763v.75764H.75763zm4.68354 0v-.37882h.75763v.75764h-.75763zM3.0994 30.78579v-.79207h.7576v1.58413h-.7576zm7.0253-.37882v-.41325h.75763v.8265h-.75763zm1.5153-.79207v-.37881h-.75763v-.75764h1.58414v1.51526H11.64zm-8.5406-.75763v-.37881h.7576v.75763h-.7576zm10.1247 0v-.37881h.75763v.75763h-.75763zM0 25.72344v-.41325h3.0994v-.75764h.7576v.75764h-.7576v.8265H0zm7.78293 0v-.41325h.75763v.8265h-.75763zM0 24.17374v-.37882h.75763v.75763H0zm5.44117 0v-.37882h.75763v.75763h-.75763zm3.857 0v-.37882h3.92593v.75763H9.29819zM0 21.79754v-1.17089h.75763v2.34177H0zm1.51526.79206v-.37881H3.0994v.75763H1.51526zm4.68354-1.54969v-.41326H11.64V19.869h.82651v.75763H11.64v.82651H6.1988zm8.60944-2.34177v-.41325H17.15v-2.34177h.75763v3.16827h-3.09939zm-8.60944-.79207v-.37882h1.58413v.75763H6.1988zm4.68353 0v-.37882H11.64v-5.44116h.82651v-.75763H11.64V10.502h.82651v.82651h.75763v.75763h-.75763v5.44116H11.64v.75763h-.75763zm-6.1988-1.5497v-.41326h.75764v.82651h-.75764zm3.0994-.79207v-.37882h.75763v.75763h-.75763zm6.1988-1.5497v-.41326h.82651v.82651h-.82651zm18.73414 0v-.41326H34.3v-1.51526h.75763v2.34177h-2.34176zm-9.36707-1.5497v-.37881h.82651v.75763h-.82651zm-8.54056-1.5497v-.4132h3.857v.82651h-3.857zm6.19879 0v-.4132h.82651v.82651H21.007zm1.58414 0v-.4132h1.58414v.82651h-1.58414zm8.54056 0v-.4132h.82651v.82651h-.82651zM13.2241 9.74432v-.75763h.75763V10.502h-.75763zm2.34177-.37882v-.37881H17.15V7.40255h.75763v2.34177h-2.34176zm14.0506-.79207v-.41325h.75763v.82651h-.75763zm-10.95121-.79206v-.37882h5.51005v.75763h-5.51zm6.26767-.75763v-.37882h.75764v-.82651h1.58413v.82651h-1.58413v.75763h-.75764zm5.44117-.41326v-.79207h.75763v1.58414h-.75763zM17.15 6.23167v-.41326h1.51526v.82651H17.15z"/><path id="path3421" fill="#7f7f7f" d="M15.56587 45.21521V44.802H21.007v-.75763h.82651v1.58413h-6.26764zm7.78293-.79207v-.37881h.82651v.75767h-.82651zm-.75763-1.5497v-.41325h.75763v.8265h-.75763zm-13.293-.79207v-.37881h8.60945v.75763H9.29819zm22.66 0v-.37881h3.0994v.75763h-3.0994zm-13.293-.75763v-.37881H21.007v-1.58414h.82651v2.34177h-3.16825zm4.68353 0v-.37881h6.26767v-.8265h.75763v1.58413h-7.0252zm-13.224-1.58413v-.37882h.75763v.75764h-.75763zm12.46647 0v-.37882h.75763v.75764h-.75763zm9.36707 0v-.37882h.75763v.75764h-.75763zM17.90763 38.982v-.37881h.75763v.75763h-.75763zM5.44117 36.64021v-.37882h2.34176v-1.58414h.75763V37.019H5.44117zm9.36707 0v-.37882h1.51526v-.75763h.8265V37.019h-2.34176zm-10.12471-1.5497v-.41325h.75764v.8265h-.75764zM10.1247 33.162v-2.34177h.75763v-.82651H11.64v.82651h-.75763v4.68353h-.75767zm7.0253 1.13644v-.37882h.75763v.75764H17.15zM0 31.95667v-.37882h.75763v.75764H0zm1.51526 0v-.37882H3.857v.75764H1.51526zm6.26767-2.72058v-2.34177h.75763v4.68354h-.75763zm1.51526.37882v-.37882h.82651v.75763h-.82651zm3.16828-.75763v-.37882h.75763v.75763h-.75763zM0 26.89432v-.75763h2.34177v.75763H.75763v.75768H0zm4.68353-1.17088v-.41325h.75764v.8265h-.75764zm0-1.5497v-.37882h.75764v.75763h-.75764zm1.51527 0v-.37882h1.58413v.75763H6.1988zM0 23.38167v-.41325h3.0994v-1.51526h.7576v2.34176H0zM5.44117 21.832v-.37882h.75763v.75764h-.75763zm6.19883-.7921v-.41325h.82651v.8265H11.64zm-6.95642-.79207V19.869h.75763v.75763h-.75767zm9.29819-.75763v-.37881h3.92591v.75761h-3.92595zm-8.54056-.79206v-.41326h2.34172v-1.51526h.75763v2.34177H5.44117zm3.857-3.51266v-3.09939h.82651v6.19879h-.82653zM11.64 17.90607v-.37882h.82651v.75763H11.64zm-6.95643-.75764v-.37881h.75764v.75763h-.75768zM17.15 15.5643v-.37882h.75763v.75763H17.15zm-2.34176-1.5497v-.41326H21.007v-1.51526h.82651v2.34177h-7.0253zm8.54056-.79207v-.37882h.82651v.75763h-.82651zm-.75763-1.51526v-.37881h.75763v.75763h-.75763zm7.0253 0v-.37881H24.1753V10.502h5.44117v.82651h.75763v.75763h-.75763zm1.51526 0v-.37881h.82651v.75763h-.82651zm-18.66526-.79207v-.4132h1.51526v.82651h-1.51526zm15.56586-1.5497v-.37881h2.34177v.75763h-2.34177zm-9.36707-.79207v-.41325h.82651v.82651h-.82651zm5.51-.79206v-.37882h.75763v.75763h-.75759z"/><path id="path3419" fill="#707070" d="M13.98173 46.00728v-.37882h7.85181v.75763h-7.85181zm10.19357-1.58414v-.37881h5.44117v-.75764h.75763v-.8265h-7.78293v-.75763h7.78293v-3.0994h.75763v3.0994h-.75763v.75763h.75763v.8265h-.75763v.75764h-.75763v.75767H24.1753zm-6.26767-3.51265v-1.5497h.75763v2.34177h3.16828v.75763h-3.92591zm-7.78293-.37882v-.41325h.75763v-.75763h5.44117v-.75764h.8265v.75764h-.8265v.75763h-5.44117v.82651h-.75763zm12.46647 0v-.41325h.75763v.82651h-.75763zm9.36707 0v-.41325h.75763v-.75763H34.3v.75763h-1.58413v.82651h-.75763zm-22.66-1.5497v-.37881h.82651v.75763h-.82656zM34.3 38.22434v-.37881h.75763v.75763H34.3zM4.68353 36.67465v-1.17089h.75764V37.019h3.857v.8265H4.68354zm9.2982.75763V37.019h2.34177v.82651h-2.34177zM17.15 35.84814v-1.17089h.75763V37.019H17.15zm-7.0253.03444v-.37882h.75763v-4.68354H11.64v-.8265h.82651v1.58414H11.64v3.9259h-.75763v.75764h-.75767zm3.0994-4.30472v-2.34177h.75763v4.68354h-.75763zm3.9259 1.96295V33.162h.75763v.75763H17.15zM0 32.74874v-.41325h.75763v.8265H0zm6.1988-.79207v-.37882h2.34176v.75764H6.1988zm-1.51527-1.17088v-.79207H3.857v-.75763h.8265v-3.0994h.75764v5.44116h-.75761zm4.61466-.37879v-.41325h.82651v.8265h-.82651zM0 28.0652v-.4132h.75763v-.75763h.75763v.75763H.75763v.82651H0zm2.34177-1.54969v-.37882h.75763v-.8265h.7576v.8265h-.7576v.75763h-.75763zm5.44116 0v-.37882h.75763v.75763h-.75763zm-7.0253-2.34177v-.37882H3.857v.75763H.75763zm7.0253 0v-.37882h.75763v.75763h-.75763zm5.44117-1.96295v-1.58414h-.75763V19.869H10.1247v-.75763h-.82651v-.82651h3.16828v-6.19877h.75763v-.75763h.75763v.75763h-.75763v3.0994h.75763v.75762h-.75763v3.16828h-.75763v.75761h1.51526v3.9259h-.75763zm-7.78294.37881v-.37881h.75764v-.75764H11.64v.75764H6.1988v.75763h-.75763zm-.75763-1.54969v-.41326H3.857V19.869h.8265v-2.34174h.75763v1.58414h3.0994v.7576h-3.857v.75763h.75763v.82651h-.75763zm26.4482-7.78291v-1.17091h.82651v2.34176h-.82651zm-6.95643-.41325v-.75763h5.44117v1.51526H24.1753zm5.44117-1.92852V10.502h.75763v.82651h-.75763zm-15.63474-.79207v-.37884h3.9259v.75768h-3.9259zM30.3741 8.57343V7.40255h.75763v2.34177h-.75763zm-10.88233 0v-.41325h5.44116v-.75763h.75764v-.75763h1.58413v.75763h-1.58413v.75763h-.75764v.82651h-5.44116z"/><path id="path3417" fill="#505050" d="M21.83354 42.11581v-4.27028h.75763v3.0994h.75763v.75763h-.75763v1.58414h.75763v1.5153h6.26767v-.75763h.75763v-.75764h.75763v2.34177H23.3488v-.8265h-.75763v1.58413h-.75763zm8.54056-.03444v-.37881h1.58414v-.75763h.75764v-.82651H34.3v-1.51526h.75763v-.75763h.75764v3.857h-3.857v.75763h-1.58416zm-20.2494-.75763v-.37881h-.82651v-1.58414h.82651v1.58414h.75763v-.8265h5.44117v-.75764h.8265v-1.51526h-.8265V37.019h1.58414v4.68353H10.1247zm21.007-2.72058v-.75763h.82651v1.51526h-.82651zM9.29819 37.43228V37.019h-.75763v-3.857H5.44117v-.82651H3.857v.82651H.75763v-.82651H3.857v-2.34177h.8265v1.58414h.75764v.75763h3.09942v-8.54057H5.44117v-.8265h-.75764v1.58413H3.857v-3.9259h.8265v.8265h.75764v1.51526h.75766v-.75763H11.64v-.75763h.82651v-.8265h.75763v3.16827H9.29819v7.0253h.82651v5.44116h.75763v-.75763H11.64v-3.92591h.82651v-2.34177h.75763v4.68354h.75763v3.92591H9.29819zm.82651-.79207v-.37882h-.82651v.75761h.82651zm-.82651-3.89147v-.41325h-.75763v.8265h.75763zM3.857 28.85727v-.37881h.8265v.75763H3.857zm-2.34174-1.58413v-.37882H3.0994v-.75763h.7576V27.652H1.51526zm7.0253-9.74589v-2.34176h.75763v3.9259h.82651v.75761H8.54056zm3.92591 1.963v-.37881h.75763v-3.16833h.75763V19.869h-1.51526zm.75763-5.85442v-1.54974h.75763v2.34176h7.85181V10.502h.75763v1.58414h.75763v1.51526h6.26767v-1.51531h.75763V10.502h-3.0994v-.75768h-8.60944v-.75763h6.26767v-.82651h.75764v-.75763h1.58413v2.34177h3.857v4.68353h3.92591V10.502h.75763v3.9259h-.75763v.75763h-3.92588v-.75763h-8.54056v.75763H13.2241zm4.68353-6.23323v-.75768h.75763v1.51526h-.75763z"/><path id="path3415" fill="#363636" d="M22.59117 45.594v-.792h.75763v.82651h7.78293v.75763h-8.54056zm-13.293-4.27028v-.37881h.82651v.75763h-.82649zm21.83354-.79206v-1.17087h.82651v2.34177h-.82651zM9.29819 36.64021v-.37882h.82651v.75761h-.82651zM3.857 32.74874v-.41325h1.58417v.8265H3.857zm4.68353 0v-.41325h.75763v.8265h-.7576zM.75763 28.0652v-.4132H3.857v-3.0994h.8265v3.92591H.75763zm3.9259-4.68353v-.41325h.75764v.8265h-.75764zm17.90764-8.575v-.37882h8.54056v.75763h-8.54056zm12.46647 0v-.37882h.75763v.75763h-.75763zm-17.15-5.47561V8.16018h.75763v1.58414h8.60943v.75768h-9.36707z"/></g></g></svg>