<svg xmlns="http://www.w3.org/2000/svg" role="img" xmlns:xlink="http://www.w3.org/1999/xlink" viewBox="36.15 51.15 2410.20 660.20"><title>Apache Hadoop logo</title><defs><linearGradient id="a" x1="-9035.5" x2="-6797.2" y1="638.44" y2="638.44" gradientTransform="matrix(-.21591 .04414 -.04414 -.21591 -974.83 437.49)" gradientUnits="userSpaceOnUse"><stop offset="0" stop-color="#282662"/><stop offset=".095" stop-color="#68308f"/><stop offset=".788" stop-color="#a22367"/><stop offset=".949" stop-color="#cd2032"/></linearGradient><linearGradient id="b" x1="-5167.1" x2="-4570.1" y1="697.55" y2="1395.6" gradientTransform="matrix(-.21591 .04414 -.04414 -.21591 -974.83 437.49)" gradientUnits="userSpaceOnUse"><stop offset="0" stop-color="#f69923"/><stop offset=".312" stop-color="#f79a23"/><stop offset=".838" stop-color="#e97826"/></linearGradient><linearGradient id="c" x1="-9585.3" x2="-5326.2" y1="620.5" y2="620.5" gradientTransform="matrix(-.21591 .04414 -.04414 -.21591 -974.83 437.49)" gradientUnits="userSpaceOnUse"><stop offset=".323" stop-color="#9e2064"/><stop offset=".63" stop-color="#c92037"/><stop offset=".751" stop-color="#d12c3e"/><stop offset="1" stop-color="#e97826"/></linearGradient><linearGradient id="d" x1="-9346.1" x2="-5087" y1="580.82" y2="580.82" gradientTransform="matrix(-.21591 .04414 -.04414 -.21591 -974.83 437.49)" gradientUnits="userSpaceOnUse"><stop offset=".323" stop-color="#9e2064"/><stop offset=".63" stop-color="#c92037"/><stop offset=".751" stop-color="#d12339"/><stop offset="1" stop-color="#e97826"/></linearGradient><linearGradient id="e" x1="-9346.1" x2="-5087" y1="1021.6" y2="1021.6" gradientTransform="matrix(-.21591 .04414 -.04414 -.21591 -974.83 437.49)" gradientUnits="userSpaceOnUse"><stop offset=".323" stop-color="#9e2064"/><stop offset=".63" stop-color="#cb2239"/><stop offset=".751" stop-color="#ce2436"/><stop offset="1" stop-color="#e97826"/></linearGradient><linearGradient id="f" x1="-9610.3" x2="-5351.2" y1="999.73" y2="999.73" gradientTransform="matrix(-.21591 .04414 -.04414 -.21591 -974.83 437.49)" gradientUnits="userSpaceOnUse"><stop offset=".323" stop-color="#9e2064"/><stop offset=".63" stop-color="#c92037"/><stop offset=".751" stop-color="#cf2739"/><stop offset="1" stop-color="#e97826"/></linearGradient><linearGradient id="g" x1="-9071.2" x2="-6533.2" y1="1047.7" y2="1047.7" gradientTransform="matrix(-.21591 .04414 -.04414 -.21591 -974.83 437.49)" gradientUnits="userSpaceOnUse"><stop offset="0" stop-color="#282662"/><stop offset=".095" stop-color="#662e8d"/><stop offset=".788" stop-color="#a22367"/><stop offset=".949" stop-color="#cd2032"/></linearGradient></defs><path fill="url(#a)" d="M656.71-7.0909c20.267-9.5939 39.714-20.144 58.137-31.855.64586-.42398 1.3003-.79943 1.9461-1.2234-7.5146 19.097-3.8382 52.585-3.7537 52.44 11.85-34.711 26.515-65.255 48.744-84.672 8.4826 7.5928 14.923 21.83 20.214 39.882 2.6186-24.849-1.858-38.732-4.0514-43.799 10.917 12.948 30.734 20.176 52.045 26.46-23.946-14.536-39.792-28.878-46.004-42.955 68.312-21.018 142.29-46.157 219.96-74.026-6.0925-4.5911-12.639-5.1694-19.442-3.1706-14.023 5.1017-106.22 38.312-231.64 76.244-3.5629 1.0778-7.1567 2.1511-10.768 3.2375-1.0067.30738-2.0264.59708-3.0153.89135-13.174 3.9515-26.666 7.9189-40.462 11.92-3.1433.90384-6.2865 1.8077-9.4475 2.7247-.0663.02188-.13246.04334-.18106.052l-36.612 69.915c.7115-.33546 3.5919-1.7036 4.3388-2.0653z" transform="matrix(-1.6853 .69564 .69564 1.6853 2377.288 151.408)"/><path fill="url(#b)" d="M23.148 66.817c19.071 7.1961 39.608 9.0845 59.733 11.274 11.854 1.1234 24.231 1.9144 36.123 2.4928 8.4164-17.287 16.412-33.791 24.481-51.337-31.491.85648-63.553.20167-94.859-3.5146 30.943 3.103 62.657 1.796 93.649.11667-21.689-26.163-46.387-51.85-71.896-75.809-23.519 11.839-46.846 28.625-59.189 52.519-6.3001 14.546-9.9508 31.534-4.821 46.981 2.7562 7.894 9.065 14.16 16.773 17.277z" transform="matrix(-1.6853 .69564 .69564 1.6853 2377.288 151.408)"/><path fill="url(#c)" d="M294.05 14.992c-16.961 2.5069-33.723 4.7285-50.218 6.643-17.122 1.9948-33.955 3.6385-50.416 4.8964-.9569.07847-1.9446.15235-2.9192.24395-16.218 1.2152-32.064 2.0446-47.489 2.4796l-24.508 51.311c3.1595.15406 6.3543.2819 9.6108.41887 12.251.46429 25.27.74328 38.902.81409 15.365.07595 31.56-.1344 48.36-.60148 15.522-.45209 31.601-1.1524 48.051-2.1282 14.003-.83512 28.316-1.8448 42.838-3.0914.5424-.0455 1.068-.07818 1.6104-.12365 13.32-22.17 22.89-45.722 34.335-68.583-16.183 2.7801-32.241 5.3583-48.157 7.7211z" transform="matrix(-1.6853 .69564 .69564 1.6853 2377.288 151.408)"/><path fill="url(#d)" d="M639.56-61.012c-16.179 4.4506-32.604 8.8647-49.245 13.247-15.935 4.1875-32.046 8.2859-48.306 12.331-16.26 4.0447-32.63 7.9786-49.096 11.819-16.744 3.9098-33.563 7.6825-50.376 11.314-16.632 3.5798-33.29 7.0141-49.89 10.268-5.9877 1.1747-11.971 2.3185-17.936 3.4492-10.325 1.9485-20.605 3.8091-30.84 5.5819-.55156.10715-1.0985.18346-1.6632.2729l-34.33 68.583c1.0848-.091 2.1565-.19968 3.2413-.29065 15.39-1.3696 31.015-2.9407 46.779-4.8063 15.922-1.8736 31.965-4.0286 48.062-6.4433 13.582-2.0319 27.162-4.2534 40.724-6.6821 2.7532-.50491 5.4578-1.0013 8.1802-1.5108 16.983-3.1812 33.094-6.6493 48.365-10.29 17.296-4.1271 33.51-8.4938 48.609-12.995 9.938-2.9512 19.414-5.9711 28.431-8.9803 7.6399-2.6465 15.232-5.3947 22.71-8.2228 17.654-6.6419 34.84-13.842 51.5-21.64 11.64-22.613 23.669-45.588 34.514-68.935-12.622 3.624-25.468 7.2775-38.5 10.904-3.6155 1.007-7.2794 2.0226-10.926 3.0251z" transform="matrix(-1.6853 .69564 .69564 1.6853 2377.288 151.408)"/><path fill="url(#e)" d="M343.66-.50096c2.2193-.41089 4.4564-.83491 6.7242-1.2543 6.7596-1.2806 13.634-2.5914 20.659-3.9587 7.5938-1.4876 15.325-3.0493 23.223-4.6806 3.9802-.81109 7.965-1.653 12.029-2.4989 12.131-2.5468 24.602-5.2637 37.426-8.1328 15.759-3.5362 32.058-7.3074 48.887-11.362 16.043-3.8564 32.564-7.9569 49.579-12.315 16.146-4.1247 32.739-8.4981 49.773-13.089 15.198-4.1078 30.724-8.4034 46.643-12.908.77254-.21613 1.5451-.43223 2.3045-.66606 15.804-4.4748 31.971-9.1635 48.483-14.053.3797-.1169.7594-.23382 1.1214-.33761l-19.143-20.676c.2395.5082.5278 1.0079.7674 1.5161-23.296-24.428-69.92-45.278-111.88-49.997-19.338-2.1783-39.994-1.8427-62.413.92504-16.69 2.0589-34.353 5.4699-53.191 10.219-16.464 4.1405-33.814 9.2679-52.184 15.425 7.8381 3.7633 15.478 9.0727 22.931 15.646 1.2939 1.1531 2.614 2.3417 3.9119 3.5742s2.5912 2.4958 3.8622 3.8031c-.012-.0177-.0441-.0222-.0569-.04-28.247-17.932-58.622-19.938-89.973-14.526 9.3924 3.2694 23.242 9.6268 35.603 20.379 1.6889 1.4639 3.3155 3.0287 4.9198 4.6376.41208.40779.81102.79786 1.1923 1.2011-.012-.01769-.0309-.0045-.0441-.02217 0 0-.012-.01769-.0309-.0045-10.105-6.0061-19.623-10.334-29.164-13.137-2.0374-.60186-4.084-1.1421-6.1444-1.5898-3.1256-.70044-6.2609-1.229-9.4323-1.6212-2.0262-.25361-4.0614-.44555-6.1236-.56271-4.8248-.29107-9.7616-.2522-14.877.1383-1.5609.1148-3.1265.26044-4.7274.43231-2.2279.36236-4.3941.73388-6.5295 1.11-9.6447 1.7187-18.003 3.5811-25.18 5.4456-3.5886.93227-6.8597 1.8486-9.8489 2.7754-1.1876.35928-2.3445.72314-3.4528 1.0785-3.3117 1.0836-6.2044 2.1035-8.6957 3.0727-3.7281 1.4472-6.5694 2.7582-8.5675 3.8006 1.3027.35098 2.6974.8259 4.1661 1.4378 10.15 4.2169 23.989 14.314 33.689 23.363 0 0 2.1742 2.2552 3.0778 3.2454.17948.19669 58.18 65.146 58.18 65.146.33972-.05982 2.1387-.88332 2.5093-.93859z" transform="matrix(-1.6853 .69564 .69564 1.6853 2377.288 151.408)"/><path fill="url(#f)" d="M141.76 25.871c14.308-.86871 30.359-2.1245 48.242-3.9432.92606-.08306 1.8876-.19234 2.8313-.2885 15.471-1.594 32.288-3.5552 50.488-6.02 15.721-2.1083 32.439-4.5725 50.245-7.4582 15.511-2.5017 31.888-5.3162 49.043-8.4876l-59.49-64.569c-24.736-13.567-40.821-16.794-59.841-16.547-5.1755.16099-10.523.42238-15.982.79335-16.711 1.142-34.469 3.2787-51.604 6.1064-16.54 2.7429-32.435 6.1328-46.23 9.9134-8.7714 2.4155-16.684 4.99-23.332 7.642-5.8619 2.3434-11.266 4.7863-16.287 7.3018 25.101 24.05 54.589 54.423 71.931 75.557z" transform="matrix(-1.6853 .69564 .69564 1.6853 2377.288 151.408)"/><path fill="url(#g)" d="M697.74-87.882c12.856-3.8255 25.903-7.7645 39.192-11.856.1987-.06501.3797-.1169.5784-.18193 1.8809-.57144 3.7485-1.1606 5.6293-1.732 8.9497-2.7671 16.955-5.3279 35.178-11.129-2.3417-10.966 2.6186-24.849 9.1692-39.363-11.075 9.2259-18.387 22.082-20.063 37.399-28.142-41.768-64.174-69.017-107.07-65.115-3.8322.34468-7.6833.92288-11.624 1.7871 16.438.48738 28.367 7.3631 41.449 27.265.0441.0223.101.0623.1451.0846-.0441-.0223-.101-.0623-.1451-.0846-33.43-18.78-55.964-23.938-85.227-21.557-6.9364.56118-14.25 1.539-22.182 2.866 43.476 5.8729 71.791 29.037 88.586 63.086l.7758 1.4939 18.367 19.182c2.4192-.69629 4.8254-1.4103 7.2492-2.1374z" transform="matrix(-1.6853 .69564 .69564 1.6853 2377.288 151.408)"/><g transform="translate(662.418 84.274) scale(.4999)"><g fill="#d32128"><path d="M812.83 48.79c30.73-21.6 71.06-27.71 107.26-18.64 30.7 7.38 57.69 28.89 71.21 57.49-7.41 4.48-14.81 9-22.23 13.47-6.62-13.85-16.77-26.12-29.63-34.58-17.37-11.63-38.77-16.31-59.48-15.25-21.37.92-42.39 9.09-58.51 23.19-23.82 20.65-37.15 51.58-39.79 82.64-3.11 35.1 8.84 71.46 32.99 97.24 11.63 12.43 26.18 22.28 42.39 27.66 34.95 11.81 76.24 1.41 101.54-25.41 6.16-6.55 11.26-14.06 15.26-22.1 7.68 3.97 15.39 7.9 23.05 11.93-7 15.92-18.7 29.52-32.72 39.7-32.89 23.82-77.33 32.71-116.22 19.75-28.75-9.56-52.99-30.22-69.32-55.49-20.39-31.43-29.6-70.42-23.28-107.53 6.07-37.14 26.38-72.41 57.48-94.07zm-502.4 260.72c-.02-93.94-.04-187.88.01-281.82 39.18.03 78.37-.02 117.55.03 15.94.1 31.7 5.46 44.59 14.78 21.8 15.69 35.98 41.42 37.84 68.19 1.19 19.69-3.79 39.74-14.19 56.52-8.98 14.56-22.36 26.61-38.35 32.93-9.46 3.81-19.69 5.53-29.87 5.37-30.06-.01-60.12-.01-90.18 0-.01 34.66-.01 69.32 0 103.98-9.14.03-18.27 0-27.4.02m27.4-257.21c-.02 42.87-.01 85.73 0 128.59 30.04.02 60.08 0 90.12.01 11.22.08 22.44-3.73 31.2-10.78 11.22-8.96 18.48-22.21 21.65-36.09 4.05-17.34 2.09-36.31-6.91-51.83-9.53-17.13-27.91-29.83-47.87-29.88-29.39-.05-58.79-.01-88.19-.02z"/><path id="h" fill="#d32128" d="M613.17 27.71c7.54-.02 15.09-.01 22.64 0 39.33 93.92 78.65 187.85 117.96 281.79-9.93 0-19.85.01-29.77 0-12.19-29.36-24.36-58.73-36.54-88.09-42.25-.01-84.49-.02-126.74 0-12.01 29.36-24.1 58.69-36.08 88.06-9.81.07-19.62.02-29.42.03 39.3-93.94 78.64-187.86 117.95-281.79M566.73 199.6c38.12.01 76.24 0 114.35 0-18.75-46.47-37.6-92.89-56.38-139.35-19.34 46.44-38.71 92.87-57.97 139.35z"/><path d="M1035.6 27.71c9.13-.02 18.27-.01 27.4 0 .02 41.79 0 83.59.01 125.39 55.74 0 111.47.01 167.2-.01.01-41.79 0-83.59.01-125.38 9.27-.02 18.54-.01 27.81 0 .01 93.93.01 187.85 0 281.78-9.28.01-18.55.03-27.83-.01.03-43.92.02-87.85.01-131.77-55.73-.02-111.46-.01-167.2-.01-.04 43.94.06 87.87-.05 131.81-9.12-.03-18.25.02-27.36-.03.01-93.92-.01-187.85 0-281.77zm286.2 0c61.95-.03 123.9 0 185.85-.02.04 8.21.04 16.41 0 24.62-52.82-.02-105.64 0-158.46-.01-.03 33.86 0 67.73-.02 101.59 46.08.02 92.16 0 138.24.01v23.39c-46.08.02-92.15.01-138.23.01-.02 35.86 0 71.73-.01 107.59 54.03.02 108.06 0 162.09.02.01 8.19-.01 16.38.01 24.57-63.16.04-126.32.03-189.48 0 .01-93.92-.01-187.85.01-281.77z"/></g><use width="100%" height="100%" transform="translate(-473.85)" xlink:href="#h"/></g><g fill="#66c2e3"><path d="M2084.3496 578.88117c4.42384-.00124 8.84644-.00124 13.27028 0 .00124.94503 0 1.8913 0 2.83634-1.64851.00249-3.29578-.00125-4.9443.00249.00125 4.62306 0 9.24487.00125 13.86792a1526.27393 1526.27393 0 0 1-3.37671 0c.00124-4.62305 0-9.24486 0-13.86792-1.64976-.00374-3.29952 0-4.95052-.0025a1076.86338 1076.86338 0 0 1 0-2.83633zm15.39442 16.70675c.00124-5.56933-.00125-11.13866.00249-16.708 1.68337.00125 3.36675-.00124 5.05012.00125 1.00978 3.79631 2.0208 7.59387 3.03058 11.39142 1.00355-3.79506 1.99838-7.59386 2.99695-11.39017 1.68462-.00498 3.37049-.00125 5.0551-.0025 0 5.57058 0 11.13992-.00124 16.70925-1.04214-.00125-2.08305 0-3.1252 0-.00498-4.38026.00498-8.76053-.00498-13.13954-1.1044 4.38026-2.21254 8.75928-3.31694 13.13954-1.08075.00124-2.1615-.00125-3.24224.00124-1.10316-4.37777-2.19885-8.75554-3.302-13.13207-.0025 4.37653.00124 8.7543-.00125 13.13083-1.04713-.00125-2.09426.00124-3.1414-.00125z"/></g><g><path fill-rule="evenodd" d="M1787.64165 635.91995h119.97263c4.95189-22.53512 9.90456-45.06627 14.85724-67.5994 34.24019 0 69.58715.22104 103.82814.22104 16.72015 0 31.52213-5.1928 44.67269-14.07844 15.87139-10.7251 27.72196-27.15863 32.17332-47.43567 7.52761-34.29664 15.10174-68.58532 22.67228-102.87401 4.31819-19.57536 9.93597-41.67914-4.10073-59.3582-12.91004-16.26813-30.04484-17.53274-48.85492-17.53274-135.45323.14868-270.91442-.00318-406.3756-.00318-13.67374 0-25.12795 4.42195-37.0799 10.58477-11.2117-7.92755-21.33014-10.58477-35.07742-10.58477H1408.4032c5.0767-22.84402 10.15223-45.68645 15.22775-68.52967h-120.15949c-4.95148 22.28586-9.90416 44.5733-14.85724 66.85598h-105.67674c-14.59604 0-28.61604 4.57978-40.85621 12.44332-11.86647-7.38131-21.01688-10.58636-35.07385-10.58636h-348.8064c5.3244-23.15093 10.64918-46.30662 15.97158-69.45994-39.98956-.06082-79.98309-.12284-119.97264-.18486-23.05552 103.1205-46.11183 206.241-69.16575 309.36149 39.95378.01152 79.90755.02266 119.85735.03379 12.01953-52.77476 24.03707-105.54953 36.0546-158.32429h40.55806c4.82665 0 3.8769 2.74946 3.0675 6.38267-11.36716 50.64787-22.7355 101.29574-34.10145 151.9436 264.87166 0 529.73537.0012 794.62294.0012 13.48211 0 24.0323-2.78802 36.1695-8.97708 11.95989 7.99115 22.52915 10.646 37.1419 10.51997l184.0418-1.54408c-4.93678 22.90921-9.87276 45.81763-14.80954 68.72844zm-519.00153-226.83408h-35.37042c-6.20456 0-7.87706 2.82976-9.11105 8.39228-4.4287 19.862-8.85543 39.72717-13.28414 59.5848-1.26222 5.70882 1.62638 6.64186 6.622 6.64186h34.42464c5.57405-24.8731 11.14651-49.74543 16.71897-74.62013zm202.8976 1.44033h37.78116c7.27079 0 6.87284 3.8125 5.5645 9.7018a1023689.3177 1023689.3177 0 0 0-12.9808 58.3683c-1.5091 6.79413-5.74181 6.67804-11.57904 6.67804h-38.44706c-5.648 0-5.69769-3.33902-4.69347-7.90528 4.31063-19.45172 8.62524-38.90544 12.92792-58.35636 1.59338-7.20798 4.4311-8.4869 11.42678-8.4869zm248.7033 0h37.78076c7.2708 0 6.87325 3.8125 5.56372 9.7018-4.32614 19.45491-8.65467 38.9134-12.98001 58.3683-1.5087 6.79413-5.74142 6.67804-11.58023 6.67804h-38.44547c-5.6484 0-5.6977-3.33902-4.69467-7.90528 4.31023-19.45172 8.62643-38.90544 12.92872-58.35636 1.59378-7.20798 4.4311-8.4869 11.42718-8.4869zm221.78917 75.3079h35.37042c6.20496 0 7.87825-2.82977 9.11105-8.39229 4.4287-19.8616 8.85543-39.72717 13.28413-59.5848 1.26222-5.70881-1.62598-6.64186-6.62159-6.64186h-34.42505c-5.57365 24.87311-11.1461 49.74543-16.71896 74.62014"/><g fill="#66c2e3" fill-rule="evenodd" transform="matrix(3.9755 0 0 -3.9755 -68.082 828.521)"><path id="i" d="M380.32 121.71h37.906c5.9156 0 9.6826-4.8405 8.3724-10.755l-6.7535-30.486c-1.3102-5.9147-7.2224-10.755-13.137-10.755h-37.905c-5.9147 0-9.6828 4.8393-8.3724 10.755l6.7533 30.486c1.3107 5.9156 7.2218 10.755 13.137 10.755zm6.8709-12.239h18.741c3.1314 0 5.1245-2.5614 4.4314-5.6905l-3.5745-16.136c-.6933-3.1289-3.8222-5.6902-6.9525-5.6902h-18.742c-3.1303 0-5.1244 2.5608-4.4311 5.6902l3.5745 16.136c.6934 3.1303 3.8211 5.6905 6.9525 5.6905"/><path id="j" d="M444.66 91.844l-4.8438 21.781-38.625-.0312c-7.391-.004-14.769 6.0455-16.406 13.438l-8.4688 38.125c-1.6378 7.3916 3.0742 13.438 10.469 13.438h56.875l14.406-64.969 4.8125-21.781h-18.219zm-34.875 37.062h26.656l-7.6562 34.375h-26.625c-3.9136 0-6.3976-3.1844-5.5312-7.0938l4.4688-20.188c.86625-3.9096 4.7758-7.0938 8.6875-7.0938z" transform="matrix(.8 0 0 -.8 0 213)"/><path d="M192.328 139.5248l-5.9-26.6h.07496l-.25-1.05c-.09354-.30422-.18118-.61429-.25-.92496l-4.9-22.0752h.05l-4.17504-18.7504h14.5752l4.17504 18.7504h.02496l3.3 14.9c.0056.02376-.0048.05128 0 .07496l1.27504 5.62496h21.2752c3.12952 0 5.1428-2.56968 4.45-5.7l-3.35-15.1-4.1-18.5504h14.6l4.12496 18.5504h.02496l4.92496 22.2752c1.30992 5.91512-2.4596 10.7752-8.3752 10.7752h-30.9248l3.95 17.8h-14.6z"/><path d="M295.58 70.129h-48.626c-5.9148 0-9.6829 4.841-8.3727 10.755l1.9593 8.8456h.009l.3767 1.701c1.3093 5.9137 7.2238 10.757 13.137 10.755l34.024-.0153.502 2.2586c.5341 2.948-1.3243 5.3371-4.2465 5.4567h-39.386l2.7113 12.234 48.878-.0139c5.7932-.1142 9.4564-4.9068 8.1621-10.751l-.9199-4.152h.008l-1.1166-5.038h.0108l-5.7356-25.88h-.0108l-1.364-6.1546zm-37.798 12.24h25.905l1.6844 7.5784h-25.461c-.1224.0125-.2486.0196-.3773.0196-2.0857 0-4.168-1.7059-4.6278-3.7914-.455-2.0613.8382-3.7511 2.8811-3.7913-.001-.0051-.002-.0105-.004-.0153"/><use width="100%" height="100%" transform="translate(62.48)" xlink:href="#i"/><use width="100%" height="100%" transform="rotate(180 424.74 95.927)" xlink:href="#j"/></g><path d="M149.89864 423.85485c-.95452 2.60078-1.9134 5.20632-2.86912 7.80828l-5.49493-2.01478c.9557-2.60196 1.915-5.2075 2.86911-7.80828zm-2.86912 7.80828c-1.42203 3.86896-2.84646 7.74309-4.2677 11.61284l-5.49454-2.01479c1.42085-3.86975 2.84527-7.74427 4.2673-11.61283zm-4.2677 11.61284l-.68736 1.06384-2.0597-2.07123zm-.68736 1.06384c-3.11918 3.08777-6.24193 6.1811-9.3623 9.27126l-4.11981-4.14247c3.12037-3.09015 6.24272-6.18349 9.3623-9.27126zm-9.3623 9.27126c-2.76655 2.74071-5.53668 5.4846-8.30443 8.22412l-4.1198-4.14247c2.76774-2.73952 5.53747-5.4834 8.30442-8.22412zm-8.30443 8.22412c-1.2654 1.25189-1.69475 1.66574-2.0756 2.03307l-4.05223-4.2351c.84519-.81338 1.77824-1.71264 2.00802-1.94044zm-2.0756 2.03307c-3.7481 3.60817-4.48954 4.32376-3.41019 10.77082l-5.76964.96247c-1.591-9.49866-.48104-10.56926 5.1276-15.96839zm-3.41019 10.77082c.87024 5.19081 2.5964 10.48737 5.3057 15.6428l-5.19717 2.72481c-2.98997-5.68854-4.90338-11.5846-5.87817-17.40514zm5.3057 15.6428c2.5153 4.7885 5.86347 9.42551 10.13673 13.7111l-4.14286 4.12021c-4.74198-4.75589-8.43602-9.86282-11.19104-15.1065zm10.13673 13.7111c5.4675 5.48142 14.3929 12.27317 23.68206 15.80262l-2.0601 5.47267c-10.15145-3.85743-19.8461-11.22323-25.76482-17.15508zm23.68206 15.80262c6.46178 2.45566 13.0472 3.30085 18.55008.86546l2.35747 5.35739c-7.09865 3.14183-15.19436 2.20441-22.96766-.75018zm18.55008.86546l5.65356-2.50257-1.64745 5.96007-2.82738-.7788zm4.00611 3.4575c-.73467 2.65841-1.59457 5.38441-2.58288 8.11836l-5.5172-1.99252c.93742-2.5952 1.752-5.17371 2.44533-7.68305zm-2.58288 8.11836c-.92311 2.55029-1.96748 5.13516-3.14184 7.71049l-5.33472-2.42744c1.08968-2.39047 2.0756-4.83342 2.95936-7.27557zm-3.14184 7.71049c-4.9507 10.8543.23773 16.56988 8.27938 20.23807l-2.42744 5.33473c-11.003-5.01788-18.07223-12.9009-11.18666-28.00024zm8.27938 20.23807c5.13873 2.34277 11.3572 3.96238 17.136 5.4679l-1.46498 5.65476c-6.07178-1.58106-12.60472-3.28377-18.09846-5.78793zm17.136 5.4679c1.52698.39557 3.00666.78199 4.06931 1.06942l-1.48763 5.65475c-1.56515-.4238-2.8071-.7482-4.04666-1.06941zm4.06931 1.06942c6.96866 1.88399 19.01641 5.3391 29.84607 6.02566l-.36734 5.85989c-11.34806-.71917-23.7723-4.2856-30.96636-6.2308zm29.84607 6.02566c9.78728.61978 18.5131-1.02886 20.53226-8.52307l5.65515 1.48763c-2.99673 11.12146-14.16749 13.68089-26.55475 12.89533zm20.53226-8.52307c1.06862-3.96994 1.6884-7.03624 1.9464-10.0767l5.8599.47984c-.27948 3.30324-.96565 6.67924-2.15115 11.08449zm1.9464-10.0767c.25921-3.05517.15307-6.0213-.22302-9.78291l5.81457-.54981c.42379 4.2351.54663 7.52323.26835 10.81256zm-.22302-9.78291l.2286-1.46498 2.67869 1.19027zm.2286-1.46498c3.9421-8.80016 5.56689-11.17672 8.436-15.37882l4.82984 3.29728c-2.65245 3.88446-4.1548 6.0841-7.90846 14.46168zm8.436-15.37882c.293-.42935.54346-.7947 1.2813-1.88995l4.8525 3.27263c-.18605.2771-.79669 1.17078-1.30396 1.9146zm1.2813-1.88995c2.23702-3.31875 3.26588-5.53549 3.59505-7.82736l5.7923.80225c-.47109 3.28138-1.7683 6.19224-4.53485 10.29774zm3.59505-7.82736c.34349-2.40717-.00238-5.28066-.52397-9.6724l5.81457-.6651c.57247 4.82228.95452 7.97525.5017 11.13975zm-.52397-9.6724c-.14312-1.2002-.26158-2.14915-.34388-2.76893l5.7923-.73229c.17572 1.31708.29658 2.24695.36615 2.83612zm-.34388-2.76893c-.0652-.49694-.2107-1.49638-.41345-2.8882l5.7923-.84758c.09025.62336.2266 1.59577.41346 3.0035zm-.41345-2.8882l-.57128-3.90832 3.90235.58838-.43492 2.89615zm3.33107-3.31994c8.28852 1.24632 16.4224 1.86292 24.51373 1.9158l-.02266 5.85988c-8.36485-.05407-16.78059-.69293-25.3609-1.98338zm24.51373 1.9158c8.11598.05167 16.18824-.46077 24.32887-1.47055l.68736 5.81497c-8.3887 1.03999-16.6975 1.56833-25.0389 1.51546zm24.32887-1.47055l1.80885 5.44843-1.46497-2.54114zm1.80885 5.44843c-4.72965 2.75542-9.45056 5.18286-15.47384 8.27739l-2.6775-5.21984c5.94457-3.05398 10.60306-5.45 15.2214-8.13983zm-15.47384 8.27739c-.4393.2254-.89011.45758-1.34412.69054l-2.6779-5.21983c.4544-.23297.90523-.46514 1.34452-.69055zm-1.34412.69054c-6.19025 3.18239-6.2467 9.86401-4.06057 16.86208l-5.58478 1.74008c-2.99554-9.58771-2.5964-18.9051 6.96746-23.822zm-4.06057 16.86208c2.48031 7.94265 7.74745 16.30075 11.05388 21.39575l-4.8998 3.18238c-3.48334-5.36772-9.0387-14.19253-11.73886-22.83805zm11.05388 21.39575c6.92055 10.66626 13.44752 19.64652 20.94253 24.23981l-3.04483 4.99005c-8.47537-5.194-15.46907-14.75268-22.7975-26.04748zm20.94253 24.23981c7.08156 4.34085 15.36213 4.74317 26.32934-1.19106l2.77013 5.17451c-13.10603 7.0931-23.25628 6.45502-32.1443 1.0066zm26.32934-1.19106c5.18286-2.80511 6.92254-5.85114 9.2653-9.95624l5.10494 2.88462c-2.83055 4.95864-4.9324 8.63678-11.60011 12.24613zm9.2653-9.95624c.93226-1.63313 1.95555-3.4225 3.45312-5.65952l4.8525 3.24997c-1.19901 1.79057-2.24616 3.62327-3.20068 5.29417zm3.45312-5.65952l1.01852-.94975 1.40773 2.57493zm1.01852-.94975c1.71066-.93901 9.01882-6.9758 16.12622-12.84921l3.7322 4.5098c-7.3495 6.07417-14.91011 12.31928-17.04336 13.48927zm16.12622-12.84921c3.65905-3.02257 7.2688-6.0054 9.14166-7.51767l3.6849 4.57739c-3.42808 2.77013-6.2487 5.09937-9.09436 7.45009zm9.14166-7.51767l2.24457-1.81323 1.85298 2.2247-2.2553 1.87722zm4.09755.41146c1.1684 1.40176 3.01661 2.26842 5.52833 2.86992l-1.35008 5.70007c-3.74571-.89568-6.6204-2.33481-8.68845-4.81513zm5.52833 2.86992c2.88383.68974 6.67248 1.02806 11.2626 1.35803l-.41266 5.85988c-4.81075-.34706-8.8268-.71082-12.20002-1.51784zm11.2626 1.35803c3.59941.2604 15.09815.25483 22.52359.25244v5.85989c-7.58645.00358-19.33326.00914-22.93625-.25245zm22.52359.25244c2.35508-.0012 4.31143-.0012 5.48221.00557l-.02385 5.85988c-1.1688-.00676-3.116-.00556-5.45995-.00556v-5.85989zm5.48221.00557c6.91936.04293 12.40515-.26477 16.02723-2.31693l2.88462 5.10494c-4.78014 2.70811-11.10238 3.12037-18.93411 3.07187l.02385-5.85988zm16.02723-2.31693c3.3096-1.87524 5.29855-5.56927 5.7935-12.4771l5.85988.41265c-.65715 9.1683-3.67495 14.28358-8.76876 17.1694zm5.7935-12.4771c.25324-3.54853.31327-5.66509-.08587-7.47911l5.72273-1.26023c.56452 2.56737.51363 5.0779.22302 9.152zm-.08587-7.47911c-.39875-1.8168-1.33856-3.7-3.07982-6.79453l5.1276-2.86236c2.00802 3.56801 3.11122 5.83206 3.67495 8.39666zm-3.07982-6.79453l-.36615-1.3624 2.92995-.06878zm-.36615-1.3624c-.1129-4.20449-.2278-8.41216-.33831-12.61665l5.86028-.13755c.11012 4.20449.22541 8.41256.33792 12.61704zm-.33831-12.61665c-.11132-4.20449-.2262-8.41255-.33673-12.61585l5.85989-.13755c.11052 4.2033.22541 8.41136.33712 12.61585zm-.33673-12.61585c-.12165-4.51458-.60984-8.13745-1.50234-11.66014l5.67741-1.42005c1.00421 3.96119 1.55084 7.98519 1.68482 12.94264zm-1.50234-11.66014c-.90045-3.54893-2.24139-7.09865-4.05223-11.41128l5.40231-2.26722c1.90466 4.53564 3.32908 8.32112 4.32733 12.25845zm-4.05223-11.41128c-1.2825-3.0492-2.38132-6.01214-3.45749-8.91625l5.49494-2.01478c1.02568 2.76774 2.07243 5.59194 3.36486 8.6638zm2.03745-10.94216v.01113l-2.74747 1.0074zm-5.49494 2.03744c-1.67448-4.51656-3.29966-8.89836-5.68417-13.60654l5.2425-2.63218c2.50297 4.94115 4.19454 9.50065 5.9366 14.20128zm-5.68417-13.60654l-.26357-1.81999 2.88502.5037zm-.26357-1.81999c.28862-1.63393.53072-3.15058.7144-4.52452l5.7923.73269c-.23893 1.78818-.48581 3.37957-.73706 4.79922zm.7144-4.52452c.16577-1.2475.33473-2.80948.50369-4.71613l5.85989.48024c-.12285 1.38586-.31645 3.05398-.57128 4.96858zm.50369-4.71613l.54544-6.12704 4.41081 4.2498-2.0263 2.11736zm4.95625-1.87723c2.86912 2.76297 5.74063 5.53071 8.60975 8.29528l-4.05263 4.2347c-2.86912-2.76417-5.74022-5.5319-8.60934-8.29528zm8.60975 8.29528l6.43673 6.20217-4.05223 4.2351-6.43713-6.20257zm6.43673 6.20217c4.64616 4.47642 8.8904 8.54335 13.60098 11.32223l-2.97527 5.06001c-5.2739-3.11162-9.76462-7.41311-14.67794-12.14714zm13.60098 11.32223c4.53008 2.67312 9.6394 4.22277 16.27689 3.9091l.2751 5.8603c-7.94026.37528-14.07406-1.49201-19.52726-4.70939zm16.27689 3.9091c7.16266-.33672 14.89898-3.41097 21.33015-8.15533l3.48015 4.71494c-7.32486 5.4035-16.21964 8.9083-24.5352 9.30068zm21.33015-8.15533c6.13737-4.5269 11.03042-10.5331 13.01817-17.06921l5.60983 1.69476c-2.37457 7.8051-8.06192 14.8616-15.14785 20.08939zm13.01817-17.06921c.68537-2.2561 1.37154-4.51458 2.05573-6.76948l5.60943 1.69475c-.68379 2.2549-1.37036 4.51339-2.05533 6.76949zm2.05573-6.76948c.7955-2.62582 1.59537-5.25482 2.39245-7.87944l5.60943 1.69515c-.79669 2.62423-1.59656 5.25362-2.39245 7.87904zm2.39245-7.87944l.7637-2.51292 2.5785.4878-.53748 2.8727zm3.3422-2.02512c11.86528 2.24258 24.78645 3.02575 37.20393 1.72417l.57247 5.81497c-12.98319 1.3612-26.47444.54424-38.85137-1.79415zm37.20393 1.72417c10.90957-1.14375 21.43152-3.91348 30.47618-8.73894l2.74747 5.1745c-9.71731 5.18525-20.98547 8.15575-32.65118 9.3794zm30.47618-8.73894c13.24796-7.07043 23.19744-17.51367 30.3613-29.9232l5.08227 2.90769c-7.69776 13.33343-18.40895 24.5654-32.6961 32.19002zm30.3613-29.9232v-.01192l2.54113 1.46497-2.54114-1.45384zm0-.01192c8.18594-14.17902 12.77129-30.90911 14.51693-48.1433l5.81496.5498c-1.83032 18.06667-6.64664 35.62208-15.24962 50.52464zm14.51693-48.1433c1.42204-14.04465.63449-33.199-2.3058-51.72524l5.77005-.91516c3.01542 18.99852 3.81807 38.69832 2.35071 53.18822zm-2.3058-51.72524c-2.59281-16.3405-6.85813-32.1431-12.74425-43.40848l5.19757-2.70215c6.17673 11.82234 10.63009 28.26183 13.31673 45.19746zm-12.74425-43.40848c-.46076-.88336-1.22684-1.84702-2.21078-2.81823l4.09755-4.19018c1.4129 1.3966 2.55784 2.86236 3.3108 4.30626zm-2.21078-2.81823c-2.51212-2.47833-6.24432-4.82546-10.1097-6.15527l1.8999-5.53986c4.69506 1.61485 9.23866 4.47721 12.30735 7.50495zm-10.1097-6.15527c-3.5859-1.234-7.19962-1.5743-9.78052-.2254l-2.70215-5.19718c4.16394-2.17619 9.40842-1.82794 14.38257-.11728zm-9.78052-.2254c-.54067.28185-1.04556.64919-1.494 1.10438l-4.19017-4.09754c.89727-.9092 1.90109-1.6407 2.98202-2.20402zm-1.494 1.10438c-2.39603 2.42864-4.49867 5.49931-6.60608 8.57794l-4.82983-3.29728c2.27637-3.3267 4.54916-6.64425 7.24574-9.3782zm-6.60608 8.57794c-2.77212 4.04905-5.55695 8.11598-9.16194 11.1958l-3.79978-4.46448c3.04841-2.60435 5.59631-6.32542 8.13189-10.0286zm-9.16194 11.1958c-4.4128 3.77077-9.52887 5.82292-14.28 7.72838l-2.17499-5.44723c4.32057-1.73213 8.9723-3.59942 12.65521-6.74563zm-14.28 7.72838c-.82849.33155-1.64108.65834-2.1571.87023l-2.21992-5.42496c.9104-.3741 1.5584-.6345 2.20203-.8925zm-2.1571.87023l-2.79796 1.1529-1.05947-2.85799 2.74747-1.0074zm-3.85743-1.70509c-1.89432-5.11607-4.2192-9.6859-6.91021-13.98183l4.96739-3.11242c2.87945 4.59568 5.37885 9.51894 7.43776 15.07947zm-6.91021-13.98183c-2.71924-4.34165-5.80224-8.38632-9.18778-12.42066l4.48754-3.75486c3.57239 4.25737 6.81759 8.51393 9.66763 13.0631zm-9.18778-12.42066c-2.61548-3.1148-5.15344-5.44762-7.89375-7.53436l3.54734-4.64736c3.07425 2.34157 5.91514 4.95148 8.83396 8.42686zm-7.89375-7.53436c-2.73515-2.08396-5.8432-4.03673-9.46964-6.30634l3.11242-4.96739c3.67177 2.29864 6.82354 4.27883 9.90456 6.62637zm-9.46964-6.30634c-10.21664-6.39738-18.77987-13.90948-27.51603-21.57385l3.8451-4.41717c8.5521 7.50296 16.93524 14.85604 26.78335 21.02363zm-27.51603-21.57385c-3.67813-3.22492-7.38886-6.48086-11.5373-9.90098l3.7326-4.53247c3.83914 3.1657 7.76336 6.60728 11.6498 10.01628zm-11.5373-9.90098c-19.35114-15.95567-37.2727-23.68643-56.30898-24.88544l.36734-5.85988c20.316 1.27891 39.31133 9.42312 59.67623 26.21285zm-56.30898-24.88544c-19.17781-1.20696-39.67072 4.16394-64.00157 14.40523l-2.26763-5.4023c25.15299-10.58756 46.46167-16.1318 66.63733-14.86281zm-64.00157 14.40523c-11.46654 4.82546-19.95224 10.50287-27.31527 17.31171l-3.96-4.30467c7.85122-7.26085 16.86766-13.30004 29.00764-18.40935zm-27.31527 17.31171c-7.41868 6.86052-13.79697 14.96537-20.9493 24.534l-4.69267-3.50241c7.32605-9.8008 13.88721-18.12749 21.68198-25.33626zm-20.9493 24.534l-.8273 1.10758-1.37035.07116-.14868-2.92994zm-2.19765 1.17874c-4.07489.2119-7.48706.70446-10.88015 2.0613l-2.175-5.44763c4.10869-1.64308 8.081-2.23145 12.75778-2.47356zm-10.88015 2.0613c-3.44516 1.37671-6.99608 3.6813-11.34607 7.52085l-3.86976-4.39492c4.89663-4.32176 8.98265-6.95076 13.04084-8.57356zm-11.34607 7.52085c-3.35016 2.95578-6.61484 5.98392-9.81989 9.08401l-4.07488-4.21244c3.21618-3.11122 6.54764-6.199 10.02501-9.26649zm-9.81989 9.08401l-.01113.01193-2.02631-2.11735 2.03744 2.10622zm-.01113.01193c-3.17443 3.06988-6.27453 6.1982-9.32414 9.38178l-4.2347-4.05262c3.1001-3.23646 6.25982-6.42441 9.50662-9.56386zm-9.32414 9.38178l-1.65977.85871-.45758-2.88502zm-1.65977.85871c-22.90444 3.6499-41.46446 7.65602-58.0423 14.07725l-2.10542-5.47228c16.94915-6.56434 35.88326-10.65394 59.23495-14.37501zm-58.0423 14.07725c-16.43511 6.36596-30.93972 15.14148-45.85739 28.36678l-3.86975-4.39492c15.47265-13.71786 30.53502-22.82573 47.62251-29.44414zm-45.85739 28.36678c-6.04475 5.35858-11.25782 10.99862-15.805 16.95312l-4.64736-3.54734c4.79048-6.27453 10.26077-12.19683 16.5826-17.8007zm-15.805 16.95312c-4.54916 5.9569-8.45827 12.26442-11.89111 18.9516l-5.21984-2.65523c3.57795-6.96985 7.6743-13.57116 12.4636-19.8437zm-11.89111 18.9516l-.43492.62973-2.175-1.95754zm-.43492.62973c-3.33227 3.6817-6.65777 7.4139-10.2246 10.62452l-3.91467-4.37225c3.44358-3.1013 6.61285-6.65698 9.78927-10.16695zm-10.2246 10.62452c-3.73895 3.36606-7.79237 6.22842-12.4771 8.0329l-2.10503-5.47268c3.90911-1.50552 7.39483-3.98663 10.66746-6.93247zm-12.4771 8.0329h-.01113l-1.04118-2.73634zm-.01113 0c-3.75963 1.4447-5.5975 2.16903-7.67987 1.28687l2.26723-5.4027c.09461.03975 1.0392-.47667 3.32987-1.35685zm-7.67987 1.28687l-.01153-.01193 1.14494-2.68982-1.13341 2.70135zm-.01153-.01193c-2.19607-.93186-2.80909-2.73594-4.16831-6.36358l5.49493-2.03745c.77165 2.0621.75614 2.93352.96327 3.02138zm-4.16831-6.36358l-.7641-2.04063 1.76036-1.32424 1.7512 2.34634zm.99626-3.36487c5.38441-4.04586 5.89487-12.10301 6.38505-19.86319l5.85989.36734c-.57248 9.07408-1.17079 18.4984-8.74253 24.18814zm6.38505-19.86319c.0632-1.01534.1284-2.02472.18367-2.79477l5.85988.41265c-.07672 1.06027-.1308 1.90785-.18366 2.74946zm.18367-2.79477l.20831-2.85878 2.85918.13516-.13755 2.92995zm3.0675-2.72362c4.8334.22979 7.03543 3.63997 9.4108 7.3181l-4.92247 3.16013c-1.51784-2.35071-2.92636-4.53128-4.76344-4.61834zm9.4108 7.3181c.66271 1.02687 1.3457 2.08396 2.06805 2.99554l-4.57779 3.63997c-.91039-1.14971-1.6721-2.32845-2.41273-3.47538zm2.64052 5.44525l-1.34014 5.99624-3.81012-4.80598 2.2887-1.81998zm-5.72273-1.25984c.9895-4.42513 1.74803-10.22777.67623-14.9777l5.70007-1.2825c1.30953 5.80145.4699 12.4942-.65357 17.52004zm.67623-14.9777c-.6806-3.02018-2.13882-5.61658-4.8501-7.02073l2.6775-5.21983c4.48277 2.32249 6.83348 6.34808 7.87267 10.95807zm-4.8501-7.02073l-2.31693-1.2002.908-2.42824 2.74747 1.01852zm-1.40892-3.62844c.43293-1.15766 1.06304-2.76456 1.71065-4.41559l5.44763 2.13008c-.50688 1.29243-1.01534 2.59202-1.66335 4.32296zm1.71065-4.41559c.86348-2.20401 1.75042-4.46448 2.68347-7.11972l5.53986 1.92255c-.83406 2.37218-1.8188 4.8831-2.7757 7.32725zm4.96103-9.04346l4.9153-.85275-1.653 4.69904-2.77013-.96127zm.98473 5.77004c-5.67383.98473-18.16923 7.99632-27.23973 17.4107l-4.2351-4.05223c9.89542-10.2707 23.9504-17.9935 30.4901-19.12851zm-27.23973 17.4107c-3.28734 3.41217-6.07416 7.09746-7.83412 10.85311l-5.31007-2.4497c2.07441-4.42672 5.23454-8.64115 8.9091-12.45564zm-7.83412 10.85311c-1.67925 3.58153-2.44573 7.24734-1.82793 10.8062l-5.77004.98474c-.83724-4.82308.1296-9.6374 2.2879-14.24064zm-1.82793 10.8062c.56015 3.23289 2.29664 6.48325 5.56689 9.63384l-4.05262 4.2351c-4.23908-4.08523-6.51466-8.44277-7.28431-12.8842zm5.56689 9.63384l.8126 1.41885-2.83891.6989zm.8126 1.41885c.7438 3.02695 1.4109 5.58598 2.13643 7.89853l-5.58479 1.74007c-.75614-2.40955-1.45264-5.08148-2.22906-8.2412zm2.13643 7.89853c.69412 2.21236 1.45145 4.2013 2.4016 6.17792l-5.28742 2.5173c-1.06066-2.20641-1.91142-4.4466-2.69897-6.95515zm2.4016 6.17792c2.1074 4.38339 5.44166 7.05214 9.28438 8.28614l-1.785 5.58478c-5.31206-1.70589-9.90655-5.36295-12.7868-11.35363zm9.28438 8.28614c4.48317 1.43913 9.69942.99825 14.5722-.90164l2.13007 5.44762c-6.09206 2.37536-12.70173 2.89615-18.48727 1.0388zm14.5722-.90164l5.08824-1.98457-1.16204 5.32597-2.86117-.61779zm3.9262 3.3414c-1.3803 6.33218-2.21316 12.96848-2.49264 20.4635l-5.85989-.20514c.2918-7.82617 1.17079-14.7984 2.6302-21.49354zm-2.49264 20.4635c-.27829 7.49739.00556 15.90875.85433 25.78946l-5.86028.48024c-.8607-10.02065-1.14494-18.65265-.85394-26.47484zm.85433 25.78946c.21627 2.5153.47547 4.83222.77284 6.95076l-5.7923.77761c-.36853-2.629-.65238-5.05207-.84082-7.24813zm.77284 6.95076c.32798 2.33481.7291 4.72409 1.19464 7.15272l-5.745 1.09962c-.4711-2.45526-.88812-4.9483-1.24194-7.47473zm1.19464 7.15272l-.12523 1.5572-2.74747-1.00739"/><g fill-rule="evenodd"><path fill="#feeb50" stroke="#1f1917" stroke-miterlimit="10" stroke-width=".8587079999999999" d="M296.61844 246.78608l-38.57785 6.26937-35.20226 15.4305-29.89814 18.8073-28.45107 34.72003-16.07334 17.02309-15.54142 5.7283-4.11067-10.04649 7.1873-10.37446 1.61485-14.63064 4.81433.194 5.26039 4.79804-1.41886-14.90336-5.83087-3.9115.17691-5.6794-13.81247 7.81385-12.50772 14.75706-2.60753 13.18912 5.34824 10.56171 4.98885 17.94262 10.14588 4.804 10.67302-.52397 10.11964-5.88016-6.7504 34.2378 6.7504 38.09523-7.431 17.59-24.33921 26.22438 4.32733 15.66744 11.52975 18.15571 21.74121 15.30011 11.53173 1.57788 12.821.43492-7.99872 32.83803 29.41592 12.0561 36.64934 4.82188 12.53674-8.19708.96485-22.1821 13.98502-23.14695.96445-18.32467 33.75558 2.41154 31.34403-2.89377-31.34403 18.8069 5.3045 22.66433 19.77057 30.8618 19.28952 8.19828 15.4305-6.26897 6.26937-12.53793 32.30849-24.59284 6.26897 5.30451 50.63196 1.92812 10.1268-8.19709.96445-14.46724-3.3752-6.26817-2.41154-39.05968-16.87758-33.75558 2.89257-14.94986 10.12759 5.3045 28.45106 26.52295 13.98382.96366 15.4309-6.26896 15.4321-11.57229 7.71485-25.07626 45.32866 2.89297 27.4866-10.60902 22.1821-20.73501 15.91313-29.89815 3.85862-35.20146-3.37639-40.9874-8.67931-36.64815-8.6809-11.57348-12.05451-3.85862-21.21844 23.14695-19.28833 6.7512-16.87799-27.96884-16.87758-15.4309-9.16313-5.78674-36.64815-30.38037-29.41592-15.91313-29.41592-2.41154-34.2366 5.78674-29.89815 11.09124-20.73541 16.8776-16.39536 19.77174-16.87759 4.82189z"/><g fill="#fdf7ba"><path d="M184.73197 333.84953c-33.04555 38.54168-25.70479 85.2864-16.54643 131.08417-4.88748-12.3487-9.77615-24.6962-14.66323-37.0449l-5.4027-33.95952a333182.29908 333182.29908 0 0 1 1.54408-34.73037c4.63026-11.06183 9.26093-22.12365 13.8912-33.18668 6.94638-10.28978 13.89277-20.58076 20.83916-30.87174a1943126.01081 1943126.01081 0 0 1 32.41424-27.01193c11.83387-4.88748 23.66854-9.77616 35.50241-14.66364 13.8916-1.8009 27.78398-3.6014 41.67517-5.4023-12.86393 14.66323-25.72626 29.32806-38.59018 43.99288-30.98425 10.04967-49.25645 16.81796-70.66451 41.79443"/><path d="M340.28136 216.41327c-22.97322 22.41307-35.52149 39.3169-50.139 65.55997-10.45756 18.7735-22.18767 36.85368-33.18191 55.3628-5.56133 9.36947-6.0865 17.22625-7.74865 28.03007a377862.85374 377862.85374 0 0 0-16.20732-19.2939c2.57294-7.71843 5.14549-15.43647 7.71843-23.15371a2074299.3726 2074299.3726 0 0 1 26.2403-47.07787c18.52304-18.26623 37.04609-36.53127 55.56953-54.7983 5.91634-1.54408 11.83347-3.08697 17.751-4.63066m113.45839-55.5759c-18.39901 6.89869-48.9543 9.17069-51.07722 30.28894-1.5099 14.99718 1.13063 22.53274 10.17052 38.39975-22.3276-23.10401-27.84957-19.52845-71.00243-12.3487 6.17435-8.74729 12.3487-17.49418 18.52304-26.24147 10.80462-6.68799 21.61082-13.37756 32.41544-20.06594 13.89159-3.08738 27.78437-6.17435 41.67516-9.26173 6.43117-.25721 12.86273-.51403 19.2939-.77085"/></g><g fill="#edd749"><path d="M504.50927 446.49135c6.12584 3.7807 5.99425 6.52022 4.96977 9.11225a36685.09757 36685.09757 0 0 1 14.49547-5.79827c3.1307-4.2033 6.26022-8.4054 9.39052-12.60989 2.32368-5.9887 4.64736-11.97699 6.97104-17.96648-2.9693-2.23224-5.9374-4.46488-8.9071-6.69832-12.97643 1.6566-25.95366 3.31318-38.93009 4.96978a20237.38719 20237.38719 0 0 1-2.89973 7.8691c.2771 3.72783.5534 7.45446.8293 11.18229a32952.4946 32952.4946 0 0 0 3.72702 6.62636c1.93369.96684 3.86618 1.93368 5.79787 2.89933 1.52023.13875 3.03808.2775 4.55592.41385m-3.6177-66.56577c-19.51374 5.63328-19.36148 7.18492-25.12436 26.54441 7.60751-12.20558 13.24-18.36522 25.12436-26.54441m129.76032-144.86722c-3.46862 1.60252-6.84581 2.37417-9.01405 5.54781-4.66883 6.8303-8.66937 12.5761-16.3898 17.37135-3.88803 2.4159-7.91004 3.98027-12.03343 5.26475-3.42013 1.06384-5.47347.1141-8.38513 2.2056 1.72736.30175 3.45392.60389 5.18127.90722h11.4236c4.69467-2.89973 9.38854-5.79907 14.08202-8.6976a55675.6362 55675.6362 0 0 0 8.28295-8.6976c2.28393-4.63384 4.56825-9.26888 6.85257-13.90153m-310.84832 43.2932c-7.67788 21.00693-14.38495 39.01515-26.01607 58.03434 14.90335-16.05625 23.93688-29.70334 32.47228-47.85706 3.31517-7.05095 3.94171-15.32596 13.1768-12.24852.41464 7.041 1.90347 14.08082 2.31811 21.12183 4.99005-35.76956 19.06054-50.72738 51.76896-64.60982-9.2498 1.10558-18.49959 2.20878-27.7482 3.31318-8.6976 1.93368-17.3948 3.86538-26.0924 5.79787-4.28002 6.2129-8.56004 12.42542-12.83887 18.63714-2.34753 5.93622-4.69387 11.87283-7.041 17.80825m63.37384-.83207c7.05333 33.1998 17.20914 65.06303 21.62115 98.7872 2.86554 21.91494 3.1788 32.44366-7.84804 51.35153-12.05013-.7788-19.53163.58043-31.1874 4.3993-46.40203 15.21145-73.01403 37.57602-104.28134-7.48707 9.9809 4.70262 19.96298 9.40643 29.94307 14.11144l21.34605-4.19575c12.56258-7.3169 25.12556-14.63302 37.68854-21.94992 9.8016-1.93369 19.60359-3.86538 29.40439-5.79787 3.17563-13.25273 6.35006-26.50625 9.5257-39.75898-2.34714-17.53394-4.69468-35.0663-7.04062-52.59984-.2751-8.28256-.5514-16.56551-.8285-24.84926a21225.32504 21225.32504 0 0 0 1.6566-12.01078m79.90794 205.42204c-3.89797 26.97257 8.9747 41.47241 3.64554 48.9225-1.5099 2.1094-3.5553 5.78872-5.83842 6.7973-8.15653 3.603-19.36943-.67384-20.17169 1.43596h-26.9209c-3.58788-1.52023-7.17736-3.03848-10.76763-4.55632a281740.79236 281740.79236 0 0 1 16.5667-19.46524 316220.65672 316220.65672 0 0 1 16.15206-35.20345c3.45193-11.87204 6.90346-23.74407 10.353-35.6173h5.38441c3.86658 12.56298 7.73156 25.12556 11.59693 37.68853"/><path d="M417.84337 404.53392c2.18652 12.24733 5.98392 15.157 11.74481 27.01194-3.83476 19.34001-9.9944 42.33907-17.40752 59.4059-3.12593 7.19644-5.64918 11.164-11.16082 16.72532-9.30505 9.3965-18.71228 17.58205-29.26604 25.72626-7.59519 5.8555-12.89731 2.9188-22.26995 1.59139-3.98584 7.22587-5.08705 11.23993-12.42304 14.90812-11.28287 5.64124-21.37984-6.51584-30.23527-13.66618 6.393 9.98567 12.786 19.97093 19.17781 29.95659a65262.89752 65262.89752 0 0 1 13.25392 12.42542c3.72663.551 7.45446 1.1032 11.18229 1.6566 4.96977-3.03808 9.93915-6.07536 14.90892-9.11225 2.62343-4.96977 5.24686-9.93954 7.8691-14.90892 5.52197-4.14167 11.04513-8.28295 16.56591-12.42542 6.7659-5.79787 13.53062-11.59614 20.29453-17.394 4.28002-6.07537 8.55885-12.14914 12.83888-18.2233 3.86418-7.17856 7.73076-14.35792 11.59574-21.53648 4.96977-14.90892 9.93954-29.81903 14.9105-44.72835.41346-5.6615.8281-11.32103 1.24156-16.98016a127223.04895 127223.04895 0 0 0-18.63675-8.28414c-4.55592-4.28003-9.62826-7.86791-14.18458-12.14674m-148.56842 86.27073c20.90318 0 42.97914-1.15926 62.12117-9.93915 5.4182-8.1283 10.76565-14.7662 17.3952-21.94993-6.03362 11.39538-7.92556 17.83648-9.5257 30.64753-2.07163 3.0357-4.14168 6.07377-6.21291 9.11105-15.7386.41465-31.47563.8281-47.21304 1.24274a52950.61663 52950.61663 0 0 0-15.32396-1.65659c-.5518-.55299-1.104-1.10519-1.6562-1.65659.13835-1.93368.2771-3.86617.41465-5.79906m-2.89734-14.49467c-.54067-4.8998-1.08174-9.8016-1.6228-14.70379-3.5712 21.49593-2.71249 35.90115-12.60552 55.15609-7.39045 8.56323-16.48918 16.35481-26.91056 20.52431.87978 5.27947 1.14256 8.57794.6321 12.44888-1.83588 13.923-29.68863 7.7725-41.14642 7.21792 18.38232 4.73323 36.76463 9.46487 55.14416 14.1981 4.14168-1.65659 8.28296-3.31318 12.42543-4.96977 1.38069-8.00666 2.76098-16.0145 4.14167-24.02116 3.86499-7.17856 7.73156-14.35792 11.59574-21.53529.68975-4.41876 1.3807-8.83634 2.07124-13.25352-1.24274-10.35419-2.48469-20.70838-3.72783-31.06257m-31.0578-121.35134c-.57803 10.45199-1.25307 14.80993 3.35612 24.04144 5.85989 11.73369 13.05634 22.75695 19.4235 34.35388.68935-7.73155 1.3791-15.4623 2.07004-23.19267-8.28295-11.73488-16.5659-23.46936-24.84966-35.20265m-85.02004 78.96138c-1.79295 3.81608-3.5859 7.63296-5.37885 11.44865 4.93479 16.62077 9.32056 27.14948 18.71705 41.67119-1.63632 5.88374-2.86117 8.45748-6.62636 13.25272-8.26944-1.27255-15.61219-1.63989-23.99095-1.61484 9.25099 7.17816 18.50078 14.35672 27.74938 21.53647 4.55474-.8285 9.11106-1.65659 13.66698-2.48508 4.55513-4.55593 9.11105-9.11105 13.66737-13.66698-6.49-10.07829-12.97762-20.15618-19.46524-30.23407a1097797.42857 1097797.42857 0 0 1-18.33938-39.90607m480.39545-204.3904c5.63248 25.3454 12.89771 48.73168 12.22386 74.68772-.8273 31.84535-7.03425 72.07184-36.5404 91.27748-33.04317 21.50587-71.83332 11.33415-108.0859 2.11974 14.77256 6.07377 29.54432 12.14674 44.3149 18.2221 13.80572.69055 27.61143 1.3803 41.41676 2.07124 9.38854-2.76218 18.77549-5.52316 28.16283-8.28296 7.31691-6.07496 14.63422-12.14912 21.94993-18.2233 5.52197-11.59573 11.04394-23.19306 16.5667-34.7888 2.07045-13.39226 4.14168-26.78334 6.21173-40.17242-1.6566-13.11637-3.31319-26.23035-4.96978-39.34513-3.03688-12.97762-6.07496-25.95524-9.11105-38.93048-4.04547-2.87826-8.09133-5.75533-12.138-8.6332m-493.1067 75.53252c-15.00155 9.76343-20.89324 14.0502-19.24898 32.1451 1.4944 5.4194 2.98958 10.83999 4.48516 16.259 2.11735 1.43356 4.2359 2.86593 6.35365 4.2995 2.61667.87103 5.23334 1.74325 7.85002 2.61548 4.73402-1.1215 9.46845-2.24258 14.20367-3.36407 2.42942-7.53795 4.85925-15.0755 7.28868-22.61344-6.72854 3.30165-13.45628 6.6037-20.18401 9.90536h-4.6724l-5.23336-8.03608c2.11855-3.1148 4.2363-6.2296 6.35484-9.34441 1.1211-5.91833 2.24258-11.83705 3.36367-17.75419 1.43237.43611 2.86594.87103 4.29831 1.30715 1.74445 1.37154 3.4889 2.7415 5.23335 4.11186-.24926-3.1148-.49813-6.22961-.74819-9.34442-1.1835-1.99331-2.36662-3.98663-3.55092-5.98034-1.1835-.99745-2.36661-1.99332-3.55091-2.99077-.7474 2.92875-1.4944 5.8567-2.24258 8.78426m336.54992-142.56143c13.31236 12.36222 29.65366 23.1084 40.30362 38.21728 4.121 5.84955 8.70078 8.84032-.06996 17.10061 9.26649-2.64688 12.70927-2.35945 20.12676-1.4602 13.49364 1.63274 26.1409 20.81413 26.94793 34.56022-.15902 1.28567-3.7481 4.2033-14.1814 7.08354-.20713.40113-5.88812-.7776-5.747-.39317 1.08413 2.96691 2.5332 3.42131 4.74517 4.80956.48024 3.29966.78913 8.3875 3.03609 11.99488 6.56553-.1149 12.9808.5995 19.40998 1.87285 2.16346 3.58829 1.83668 7.17618 1.65659 10.76765 2.48469-.41346 4.96977-.8281 7.45446-1.24195-.69094-5.66151-1.3803-11.32063-2.07005-16.98016a24294.30468 24294.30468 0 0 1 6.62597-11.18228c-3.17642-7.17856-6.35126-14.35712-9.5257-21.53648a149861.5993 149861.5993 0 0 1-18.22329-17.3952c-.5836-.02783-1.17078-.05844-1.75439-.08666-6.8315-4.19336-13.6618-8.38433-20.49211-12.5765-11.14174-9.11542-22.28347-18.23204-33.4252-27.34786-8.27263-5.4023-16.54405-10.80461-24.81587-16.20613m22.42023 102.01133c-.70208 1.22843-1.76274 3.19154-3.12157 4.55076 5.54543 5.24567 8.28137 8.75803 10.25799 16.1767-6.26897 3.11243-12.53674 6.22484-18.80571 9.33766-5.30451 5.08467-10.60902 10.17013-15.91313 15.25479-6.98138-3.75804-8.72145-6.64425-12.09983-13.8089-3.93416 1.04118-7.66198 2.0442-10.91076.85195 2.0613.0159 3.32789-.49932 5.3868-1.77268 3.376-3.50718 6.7512-7.01397 10.1264-10.52116 5.96245-4.51537 11.9249-9.03074 17.88617-13.54532 3.90155-1.27216 7.8039-2.54352 11.70546-3.8145 1.48962-.61301 3.99696-2.09508 5.48818-2.7093"/><path d="M513.89144 283.24142c-19.94428 10.73862-39.04656 21.53886-49.24451 41.93357 0-25.88726 25.99221-37.28263 49.24451-41.93357m-53.23194-50.92616c-14.80874 10.09738-25.281 30.4742-23.96471 50.33381-4.82427-17.19563-3.1148-33.44469 11.69711-45.3207 2.4998-1.21491 4.998-2.42983 7.4962-3.64434 1.5914-.4556 3.1816-.91079 4.7714-1.36717"/></g><path d="M488.96506 385.61055c3.06074-1.66574 8.6173-3.95642 11.67803-5.62216-3.1486.53192-8.7934 1.6892-11.942 2.21992-8.41017 1.42005-9.39928 3.4416-10.70443 11.72216-.61541 3.89917-1.4626 8.73696-2.078 12.63732 1.64864-4.40962 3.63202-9.53484 5.55338-13.74052 2.03307-4.44779 3.17801-4.8672 7.49302-7.21672zM332.91873 172.3528c6.60927-9.9137 10.41462-13.13863 20.58514-19.41913-13.81009 3.3267-16.44267 5.88374-20.58514 19.41913zm-2.175 21.8406c11.56553-23.25031 20.32276-31.81155 44.53753-43.22959-27.3884 6.71303-35.4392 11.48681-44.53752 43.22959zM83.0701 315.2116c2.53796-11.64226 4.90338-16.034 12.08154-25.5911-11.64424 8.13507-13.16208 11.47648-12.08154 25.5911zm259.23838 194.85515a10495.48044 10495.48044 0 0 0-1.0547-8.47775c-.6345-5.11846-.60945-9.27802-.20156-14.43027.39318-4.98647.78437-9.97294 1.17635-14.9606-1.45265 5.06876-4.35556 10.13752-5.80701 15.20629-.58043 2.0287-1.06146 3.66938-1.33657 5.18603-21.67164 4.42792-43.18585 4.705-64.86425.83764-1.38268-8.02494-3.0663-16.3878-4.4784-22.38166-.42817 6.71422-.15227 25.27543-.18725 35.66778-.02703 8.05278-.36614 10.80939-4.51776 17.65878-3.88764 6.41327-5.5343 7.8679-10.97596 18.70234.45202 6.83587.46076 11.35681-1.35564 17.84562-3.02138 10.78593-33.492 2.42863-41.53205.2278-9.899-2.7093-30.36487-6.73688-25.21819-19.93395 4.53008-11.61403 7.4004-23.85897 9.61356-40.1128-18.13623-26.1262-35.00388-61.93034-38.23954-93.65483-2.51292-24.633-1.005-39.79475 4.32534-54.8619 8.44595-23.87248 20.26074-44.53753 39.2211-61.17897 25.57399-22.4401 49.48304-31.45415 86.91237-37.15105-9.00093 10.0759-17.90684 20.73184-27.61382 32.15663-9.82664 11.56791-15.66665 23.25032-21.905 35.90115-8.61968 17.47391-8.43522 24.12294 2.99196 39.4624 9.84691 13.21973 15.16255 19.17225 19.46166 32.10575-3.55092 7.31929-4.84137 13.50358-6.0356 23.49838 12.0569 13.17799 21.01568 22.20913 32.72194 24.99158 11.48243 2.72918 21.07213 2.19965 31.34403-3.0508 22.81659-11.6657 43.92928-26.72688 69.66666-27.34984 11.90702-29.274 10.70364-53.73286 4.98647-82.05432-3.90354-19.3424-5.4687-37.65713-6.6836-57.3784-4.82746 20.30805-5.73268 38.16719-2.15234 58.39612 4.31819 24.37856 7.6743 51.31178-4.33648 72.73575-23.27178 1.78182-43.21766 15.94017-64.1924 26.80362-8.43044 4.36828-17.20835 4.79286-26.54123 2.23145-8.66261-2.37894-14.5078-8.10923-23.83988-18.8725-.1455-10.8058 2.29227-15.79347 7.2541-25.57876 7.97286-15.71555 16.77382-30.3442 26.43031-45.80969-11.82552 14.27483-23.02848 26.19855-32.33552 40.5501-3.55768-10.13633-8.64354-15.28182-17.0704-26.69429-8.23088-11.1461-9.09316-16.02802-2.93909-28.92653 6.18787-12.96291 11.43592-24.3571 21.96822-35.72901 18.19824-19.6521 34.8687-41.5241 54.77046-60.87683 10.80501-10.50844 15.19197-10.14548 29.52524-12.3181 12.95377-1.9631 25.60341-4.44261 38.8152-7.5121-12.77806 1.19106-25.12874 1.62956-37.56769 1.93806-.1296.00358-.25681.00795-.38562.00795 12.23858-15.63007 19.3412-24.3392 39.21791-32.97558 48.9384-21.25501 80.03477-23.55364 118.47785 8.7616 9.963 8.3752 18.66497 16.50588 28.76791 23.73175-3.66263.31327-6.81917.97002-10.99424 2.60992 5.08108-.96804 10.94892-.00795 16.22163.9557 1.48087.9601 3.0011 1.89632 4.5607 2.81586 7.13005 4.2013 11.1779 6.5218 16.00098 13.24239 5.09818 7.10183 9.3468 14.1981 13.09251 22.0199-2.45447-.8766-4.51219-1.61804-6.34648-2.16347-1.35008-.6186-2.81863-1.02767-4.37584-1.17755-3.08459-.29657-6.036.46196-8.49484 1.97543-.099.04611-.19719.09104-.29737.13954-3.9445 1.92017-10.05563 4.10987-14.14523 4.77378 2.08475.71996 6.69832.9895 8.87451.1284.2918-.11608.58837-.20394.8925-.27708-.98155 1.6701-1.6228 3.5676-1.81998 5.61658-.2612 2.71686.291 5.32439 1.4594 7.58844l.01193.02385c.36972.86865.88256 1.6709 1.44708 2.24814-1.87047.68737-3.77752 1.47491-5.7438 2.32925 9.119-1.38944 17.34192-1.62836 26.24347-.4552.58718 2.80591 1.17873 5.7788 1.72656 8.80335-1.1032.08786-2.20323.17135-3.30523.25801-.08906.00795-.1793.0159-.26835.02386-4.21125-3.36606-8.90353-2.80035-15.31363-1.33736-19.49346 4.4454-14.9125 15.38439-23.88162 31.86562 9.31181-11.38305 8.62206-23.29206 23.79615-26.88591 3.5362-.83724 5.94337-1.88439 8.33662-1.5246-4.30785 2.16704-8.03488 5.7585-9.51218 9.9292-4.16513 11.76152-1.57867 21.67165-6.15407 32.65675 5.66827-9.81988 6.00976-19.40442 11.07773-29.73595 1.81999-3.71192 8.57555-9.6529 12.7228-9.74435 1.13818-.02385 2.27398-.0485 3.41336-.07314.99944 6.5381 1.6069 13.0281 1.21928 18.41252-.70644 9.82426-3.25911 24.4068-4.7869 29.986 5.13397-6.59932 7.47235-20.57758 9.72726-30.41654 2.34872-10.24685 1.75598-22.54149-.29975-33.54805-2.82062-15.10293 12.73312-12.64647 21.76307-19.7638 6.6375-5.23335 11.20614-13.58826 17.29224-19.50699 6.0372-5.86903 15.53903 2.75542 17.9124 8.49366 10.29655 24.9069 14.98685 64.093 12.2676 89.20227-3.05159 28.17397-16.66132 58.9328-41.51217 72.80333-31.67757 17.68024-69.03058 6.8784-100.50064-3.72465-6.7174-2.26285-11.38861-5.56133-17.29382-9.2812 1.6081 7.23938 2.3384 14.90137.19957 22.1316-3.39547 11.47092-8.87888 30.23965 6.69633 33.70151 5.92747 1.31709 8.61531 1.12666 16.98453-3.19153-6.77385 1.53137-10.1884 1.15608-14.84372.29618-4.2188-.77721-6.45581-3.45829-7.63455-6.61802 1.47372 1.06464 3.8777 1.64387 7.98519 2.63337 11.54644 2.78246 22.54943-2.7745 24.70097-10.78235 1.25507-4.67757 1.04119-7.13443 3.6996-13.50835 2.38769.73587 4.85926 1.40971 7.39245 2.02194a62609.6825 62609.6825 0 0 1-4.28997 13.99177c-3.71112 12.105-18.16843 21.86645-30.93495 21.64223-11.80127-.20951-19.28277-7.60195-27.42936-14.8493-5.613-4.99441-11.01412-9.77256-16.36833-14.5046-14.68708-4.63385-26.45973-10.04967-40.08894-20.14108 9.70022 11.40094 16.28166 17.71165 29.81029 23.3843-1.96867 20.0695-8.94329 34.70213-14.88984 53.90777-2.69022 8.68647-23.93808 43.48402-29.82619 46.8791-4.19892 2.4183-30.49646 24.56978-35.44476 27.49098-3.6841 4.89423-6.91817 11.65457-12.45683 14.58213-16.87918 8.925-27.72554-8.16448-36.80956-22.59913-4.1369-6.57547-15.62013-25.51436-5.60863-30.82006 9.46606-5.0147 14.767-8.59583 24.42468-14.93595 1.41885 2.58606 3.85504 5.08108 5.44166 7.66516zm58.67838 30.60022c-8.54534 6.90346-22.91558 19.12375-25.7036 20.65431-5.04849 7.53556-5.67184 12.19883-13.7596 16.57665-24.07642 13.0281-36.85448-2.08118-51.10505-24.04502-6.79095-10.4655-21.63905-34.35945-5.88255-42.45834 6.63869-3.41257 11.67048-5.9704 16.68955-8.8936-16.52974 2.05097-32.75256 2.07562-49.6222-.46234.29856 2.03545.55896 3.97232.76966 5.74857 1.09644 9.2168 1.45623 12.04338-3.55091 19.46961-3.64991 5.41583-5.05644 6.98337-9.46488 16.82273.80226 7.9987.454 12.50056-1.80288 20.87813-5.01709 18.61767-39.78283 8.41256-53.95152 4.58097-17.04575-4.6092-41.40085-8.90154-31.40843-30.81648 2.34196-5.13436 4.18103-10.3856 5.5649-15.39393-14.90454 6.59694-35.6173-7.39682-45.4837-17.28667-9.38297-9.40762-14.47996-20.3319-16.25581-30.93257-1.51228-9.022-.12762-8.97827 6.3107-15.35656 5.8901-5.83047 11.77822-11.6681 17.66673-17.49538 2.37775-6.47291 4.75987-12.94026 7.13642-19.4088-.9263-4.83221-1.61485-9.6521-2.02512-14.4255-1.71066-19.90254-1.1358-34.0756 1.70748-47.10569-10.37089 4.04666-22.27115 2.15114-27.56413-8.85543-2.0128-4.18421-3.2118-8.44634-4.73204-14.63421-23.13463-22.29023 20.219-51.51055 32.86625-53.709-1.44588 4.10867-3.03012 7.86711-4.42433 11.59375 8.57714 4.44023 7.52562 17.09186 5.70445 25.23727-3.08539-3.89361-4.79048-8.98503-9.32852-9.20368-.6647 9.21163-.5498 19.3909-7.74387 24.79916 2.12967 5.69292 2.01796 5.6977 8.07066 3.37043 8.59622-3.3096 15.06913-10.68217 21.5806-17.87742 7.01279-13.66022 16.00219-25.81173 28.36878-36.77576 30.38951-26.94316 59.11568-35.75804 105.36665-43.1302 6.15646-6.4248 12.51885-12.6238 19.34796-18.65146 9.25218-8.16448 15.25956-9.85964 24.01003-10.31602 14.47997-19.36824 25.87295-32.85632 49.47908-42.79229 49.48304-20.82844 83.59283-21.83265 123.30808 10.91553 13.12511 10.82052 24.31853 22.22384 38.74323 31.25698 7.29982 4.57103 12.51647 7.85678 18.05076 14.44736 6.95991 8.29369 12.64408 16.58777 16.6005 27.26318 5.1117-2.10383 10.94137-4.08601 15.64836-8.10922 6.07735-5.1928 9.94392-13.88483 15.57283-19.59047 7.47155-7.57134 24.51492 1.56873 28.28886 8.79222 12.8357 24.56461 18.08694 69.8376 15.35895 96.7597-3.37202 33.2801-17.09107 64.741-46.40999 80.38858-19.93634 10.63684-46.69225 11.62754-69.59113 7.29901-1.48405 4.88311-2.96254 9.76582-4.4466 14.64893-4.45255 14.63182-21.83304 26.59172-37.01587 27.3093-14.57776.68776-22.47986-6.83588-32.04054-16.04472-5.0159-4.83222-10.03496-9.66126-15.05085-14.49348-.2918 3.29171-.72235 6.44826-1.2646 9.50343 3.94886 7.79715 5.84557 14.6521 9.22514 22.69016 3.71868 8.85225 5.52873 14.66244 5.78435 24.13646.22422 8.41017.44963 16.82272.67504 25.2325 3.75129 6.66492 4.07926 8.28653 3.53303 15.91353-1.15528 16.07413-10.00832 17.60788-24.763 17.51525-4.9157-.0314-23.47015.08349-28.1998-.258-9.40206-.67942-15.59987-1.3974-18.8399-5.28066zm49.7494-87.6876c-2.9681 10.59948-6.95752 20.60541-10.59947 32.07393-3.44636 10.8567-21.12303 42.38281-31.5277 50.02372 2.02511 1.5079 5.7426 2.09867 12.3642 2.66995 4.68473.4043 23.1537.49018 27.79113.57008 10.20948.1781 14.084-.58917 15.11644-12.21472.50449-5.69093.05963-6.75477-2.78723-11.74363-.25244-8.89796-.50449-17.79831-.75494-26.69627-.23774-8.43602-1.85696-13.29527-5.17372-21.15682-1.98536-4.705-3.06272-9.09634-4.4287-13.52505zm-310.9795-145.61462c2.29187-.2604 3.70953.9422 5.4822 2.71368-.32797-4.23271-1.10995-7.37097-4.08164-9.10111-.20832.68855-.4043 1.37592-.58917 2.07481-.35978 1.3624-.6166 2.80949-.8114 4.31262zm14.40084 30.58233c-1.64983 4.2685-3.1804 8.66818-4.62152 13.21417-.23892.75137-.46791 1.5079-.69094 2.26047-8.71787 3.6976-20.18083 6.04713-24.56898-3.1148-2.13087-4.4466-3.33346-8.81011-4.88748-14.43107-14.35673-14.87314 7.10421-34.50854 18.79377-41.55193-1.69157 3.6364-2.89297 6.38942-3.71311 9.22356-3.5545 12.2835 1.60888 23.24594-9.53961 32.15106 5.2393 10.57244 4.998 14.78846 17.18767 9.90297 4.70262-1.88399 8.58033-4.52889 12.0402-7.65482zm-3.3593 100.09117c6.60808 22.85395 17.86153 45.30877 30.33744 64.18842-.00119.10933-.00238.21746-.00318.32877-.78118 3.2456-1.686 6.4089-3.58152 8.94766-8.91705 11.92968-31.60086-5.5824-38.1664-12.28549-7.17736-7.32843-11.98136-16.00774-13.1251-24.14639-.83168-5.9378-.02466-6.08172 4.11782-10.28183 5.58279-5.65157 11.17115-11.30752 16.75156-16.9579 1.22167-3.26587 2.44772-6.52817 3.66939-9.79285zM573.07592 254.6047c1.27216 1.25745 2.29863 2.75502 3.00667 4.41161.38522-.35382.79788-.68855 1.22922-1.0062-.52278-1.17754-1.0547-2.33838-1.59775-3.48214-.90403.01988-1.78182.04493-2.63814.07673zm-109.23084 41.10667c-1.16284-2.43857-1.7194-5.01151-1.73968-7.55265-4.28002 3.41893-8.93335 6.66015-13.76199 8.533 6.66691-5.9537 15.7227-19.99477 22.28467-24.42705 7.4465-5.0318 17.55262-4.05223 26.23472-8.06868-2.96413 2.6934-6.76272 4.86363-10.63049 6.9293 4.26094 1.55959 7.94265 4.71494 10.0433 9.119.88575 1.85735 1.41528 3.7966 1.62956 5.73704 5.83286-1.91579 11.56076-2.8226 16.39854-2.75303-17.30574 4.85806-35.7139 16.21964-48.40568 31.26532 1.42561-3.92382 3.41813-7.4648 5.81814-10.6269-3.3263-1.7389-6.1346-4.51896-7.8703-8.15535zm-80.25342-62.60617c-9.5563 3.72902-18.27299 6.52697-27.58918 8.86775-8.5004 11.17195-13.6785 16.95988-15.63484 31.9344-2.30102-14.73122-2.78007-17.46597 3.77633-28.4614-1.8999.96564-3.667 2.29346-6.199 4.45812-9.15955 7.83213-21.09917 38.61045-25.87295 49.61424 3.03012-13.24478 12.5089-46.35035 22.27115-55.9989 6.42003-6.34688 7.87586-6.20138 16.92847-7.0577 10.78235-1.0221 21.54323-2.13683 32.32002-3.35492zm199.46674 32.11488c7.75222.73348 12.1845 1.9301 19.12613-1.50353 12.93906-6.40294 22.45958-16.85612 28.63274-29.35828-3.77633 14.91568-11.37629 27.59037-27.14074 33.21252-7.74189 2.7586-12.73392-.09024-20.61813-2.3507zm-148.7831 1.45702c2.9208-12.93469 8.10685-25.39748 28.19545-35.03926-26.62591 6.66691-31.61795 17.8492-28.19544 35.03926zM89.02699 336.33581c2.28432-25.86738 7.31492-37.03377 25.69365-56.4998-23.05233 16.2431-28.80488 23.6244-25.69365 56.4998"/><path fill="#edd749" d="M467.29858 299.89877c-1.77943-3.72107-.18843-8.20504 3.54178-9.9801 3.731-1.77705 8.22411-.18923 10.00355 3.53422.16896.35263.30333.71559.41266 1.07935-3.56245 2.64251-6.82912 5.7585-9.56665 9.36707-1.84582-.74143-3.47737-2.08952-4.39134-4.00054m83.36624-32.24131c.29776-3.083 2.92676-5.3562 6.00897-5.05843 3.0818.29856 5.35738 3.05359 5.06081 6.13698-.06321.65596-.24092 1.27137-.50688 1.83788-2.8218.48024-5.64282 1.30833-8.5501 2.37695-1.21611-1.24433-2.18375-3.51593-2.0128-5.29338"/></g></g></svg>