<svg xmlns="http://www.w3.org/2000/svg" role="img" viewBox="-1.76 -1.63 37.77 84.89"><title>Apache Impala logo</title><path fill="#266792" d="M17.72082 80.22044c-.0118-.10554-.04157-.65768-.06615-1.22698-.04185-.96944-.116-1.05894-1.16916-1.41111-1.2208-.40824-1.49091-.86109-.51359-.86109.68861 0 1.36254-.45944 1.57273-1.07219.16923-.49334-.46423-2.10281-.82763-2.10281-.49291 0-1.88515-1.37366-1.88515-1.85999 0-.88451.46624-.80482 1.58606.2711.60662.58285 1.18813 1.05972 1.29225 1.05972.10411 0 .64656-.46828 1.20544-1.04063 1.12947-1.15668 1.0872-.59187.41718-5.57395-.53953-4.01192.04677-6.86161 2.26722-11.01951 1.93795-3.62893 1.92775-4.02427-.21275-8.25137-1.49637-2.95506-1.66177-3.44523-1.74963-5.18511-.19327-3.82745 2.1217-8.53077 6.79243-13.80012l2.47008-2.78665.37319-2.29894c.4966-3.05923.4773-8.84413-.03944-11.82393-.50244-2.8973-1.63034-6.35692-2.8842-8.84675C25.33337.37198 25.2961.25667 25.66006.25667c.5327 0 3.56253 4.46025 4.9195 7.24204 2.41625 4.95335 3.55037 10.60672 3.18894 15.89632-.3075 4.50039-.38458 4.68465-3.15453 7.54222-1.34598 1.38855-2.95756 3.27739-3.58128 4.19742-2.67343 3.9435-3.9125 8.34861-2.5007 8.89037 1.07451.41233 3.31365-1.86008 7.23356-7.34106 1.21539-1.6994 2.30782-3.08981 2.42764-3.08981.46075 0 .33415 4.28437-.18947 6.41209-.6236 2.53394-1.491 3.89868-3.80709 5.98999-2.4216 2.18658-2.92934 2.9718-2.92934 4.53014 0 1.07584.65348 2.07764 1.60253 2.45671.28807.11506.17613.33583-.4558.89898-1.23198 1.09787-2.46965 3.61741-2.46965 5.02747 0 3.83079-1.36821 11.40922-2.76577 15.31942-1.028 2.87621-1.84647 4.20403-3.11692 5.05661-1.03139.69215-2.31085 1.20312-2.34086.93486zm-4.17185-18.77887c-.13375-.25466-.57068-1.29646-.97096-2.31511-.9067-2.3074-.99685-2.41921-2.12053-2.63002-.68102-.12776-1.02373-.38935-1.33613-1.01986-.23109-.46642-.72282-1.10273-1.09272-1.41403-.79596-.66986-.64273-1.04547.56221-1.37818 1.29017-.35623 2.17059-.0936 3.0522.91052.90083 1.02598 2.0658 4.43801 2.30868 6.7618.16441 1.57303.03572 1.91971-.40275 1.08488zM4.12673 44.41765C1.9761 42.37477.62366 40.11701.35623 38.1232c-.19564-1.45863.36284-1.45538 1.61665.009 1.69486 1.98007 4.85473 7.74349 4.39966 8.02474-.13807.0853-1.14869-.69753-2.24581-1.7397zm5.58986 1.17097c-.097-.097-.17845-.66256-.18098-1.25677-.0077-1.81191-.7363-4.66468-1.72085-6.73785-1.1676-2.45866-2.67668-4.58004-5.21706-7.3339C.6288 28.12577.61911 28.10801.3178 26.08211c-.94835-6.3763.25868-13.64746 3.20592-19.31243C4.97645 3.97737 8.48187-.73912 8.48187.09859c0 .0942-.40176.97199-.8928 1.95063-2.33655 4.65667-3.40226 9.28619-3.42449 14.8762-.01501 3.7742.40065 7.55932.94429 8.59896.15219.29104.9732 1.27749 1.82448 2.1921 4.19033 4.50208 6.90686 9.79715 6.95186 13.55061.02366 1.97355-.37128 2.69696-2.08286 3.81512-1.03423.67566-1.74414.84802-2.08576.50641z"/><path d="M24.94783 80.23771v1.46671H24.655v-1.46671h-.52613v-.26803h1.3451v.26803zm1.13544 1.46671h-.29285v-1.73474h.45664l.52365 1.08948.52365-1.08948h.45416v1.73474h-.29285v-1.35504l-.60554 1.20365h-.1638l-.60306-1.20365z" fill="#444" stroke-width=".09"/></svg>