<svg xmlns="http://www.w3.org/2000/svg" role="img" viewBox="21.22 42.22 456.56 406.06"><title>Apache APISIX logo</title><defs><linearGradient id="a" x1="25119.8" x2="21725.7" y1="11052.5" y2="21551.7" gradientTransform="translate(-492.867 -144.77) scale(.0281)" gradientUnits="userSpaceOnUse"><stop offset="0" stop-color="#a92f33"/><stop offset="1" stop-color="#e62129"/></linearGradient><linearGradient id="b" x1="27026.6" x2="30514.6" y1="8021.8" y2="16218.5" gradientTransform="translate(-492.867 -144.77) scale(.0281)" gradientUnits="userSpaceOnUse"><stop offset="0" stop-color="#a92f33"/><stop offset="1" stop-color="#e8443f"/></linearGradient><linearGradient id="c" x1="23046.1" x2="26713.9" y1="14340.2" y2="9900.07" gradientTransform="translate(-492.867 -144.77) scale(.0281)" gradientUnits="userSpaceOnUse"><stop offset="0" stop-color="#e62129"/><stop offset="1" stop-color="#e8443f"/></linearGradient></defs><path fill="url(#a)" d="M156.005 337.641l91.279-132.409-28.769-45.037-84.086 99.791c-27.926 33.153-32.422 41.413-55.74 80.295l77.344-2.64z" class="fil1"/><path fill="url(#b)" d="M382.616 340.281l37-.14L253.325 51.188l80.294 289.093h49.025zM253.297 51.188l-42.058 69.506 8.456-13.962 33.602-55.516z" class="fil2"/><path fill="url(#c)" d="M218.487 160.195L333.59 340.281 253.297 51.188l-33.573 55.515L78.661 340.281z" class="fil3"/><path fill="#333" d="M119.46743 401.9114v37.91794H99.92755v-3.88476c-.51563.97285-1.53915 1.85937-3.0628 2.65625-1.55078.82012-2.94648 1.22851-4.18711 1.22851h-52.9205c-1.42285 0-2.85732-.30879-4.30343-.92968-1.4461-.64082-2.6247-1.5373-3.52803-2.68945-.90334-1.12891-1.36857-2.41387-1.39571-3.85156-.02714-2.7459-.0659-6.21894-.1163-10.42578-.0504-4.20683-.07755-6.41816-.07755-6.64062 0-3.14433.98087-5.61132 2.9465-7.40429 1.93847-1.8162 4.21425-2.72265 6.82344-2.72265h50.05155c2.32618 0 4.3422.508 6.04806 1.52734 1.733 1.01933 2.97363 2.02539 3.72188 3.02148v-5.08007c0-1.0625-.36055-2.14824-1.08554-3.2539-.74826-1.10567-1.81055-2.0254-3.17911-2.75586-1.3453-.70723-2.93486-1.0625-4.76866-1.0625H30.9952v-13.51366h67.53664c2.84181 0 5.54405.59765 8.10284 1.79296 2.53166 1.19531 4.76867 2.7459 6.70715 4.64844 1.93848 1.90253 3.45049 3.88476 4.53604 5.94335 1.0584 2.03535 1.58955 3.86152 1.58955 5.47851zm-23.26176 20.58593c0-.70723-.29852-1.35137-.8917-1.92578-.62031-.59766-1.36857-1.07246-2.24864-1.42774-.90333-.33203-1.62832-.49804-2.1711-.49804H53.94682c-1.67873 0-2.85732.48808-3.52804 1.46093-.6707.9961-1.008 1.75977-1.008 2.29102 0 1.15214.4381 2.08183 1.31816 2.78906.85293.6873 1.7175 1.0293 2.59756 1.0293h38.61453c.85293 0 1.7834-.3752 2.7914-1.12891.98088-.77364 1.47325-1.63692 1.47325-2.58984zm115.7195-27.7578v13.08202c0 3.1211-.88007 5.7541-2.63633 7.90234-1.76014 2.14824-4.69112 3.2207-8.8007 3.2207h-53.3082v20.88475h-18.72571v-34.332h60.90704c.79865 0 1.61281-.4084 2.44248-1.22852.8258-.79687 1.24063-1.69335 1.24063-2.68945 0-.95293-.34893-1.7498-1.04678-2.39062-.6746-.66406-1.58955-1.15215-2.75264-1.46094-1.13983-.30879-2.2874-.46484-3.4505-.46484h-57.34023v-13.21483h70.25051c4.88497 0 8.30833 1.00605 10.27394 3.02148 1.96175 2.03535 2.9465 4.59199 2.9465 7.66991zm28.58095-10.6914v55.7148h-18.72571v-55.7148h18.72571zm93.3068 30.84569v16.33592c0 2.34746-.78702 4.37285-2.36495 6.07617-1.60118 1.6834-3.83819 2.52343-6.70714 2.52343h-75.3681v-13.67967h60.4418c1.08556 0 2.20987-.33203 3.37296-.9961 1.19023-.66406 1.7834-1.67011 1.7834-3.02148 0-.73047-.24424-1.41777-.73662-2.0586-.51563-.64081-1.26389-1.1621-2.24863-1.56054-1.00801-.3752-2.1052-.56445-3.29542-.56445h-45.74813c-2.1711 0-4.10958-.4748-5.81544-1.42773-1.72912-.95293-3.04729-2.0586-3.9545-3.32031-.93047-1.26172-1.3957-2.29102-1.3957-3.0879v-18.09568c0-1.55059 1.008-3.26387 3.02403-5.14648 2.01601-1.88262 4.61358-2.82226 7.79268-2.82226h67.69173v13.21483h-55.90577c-1.13595 0-2.05479.42168-2.75264 1.26172-.69785.82011-1.04678 1.6834-1.04678 2.58984 0 .84004.48075 1.72656 1.43448 2.65625.9576.92968 2.31454 1.39453 4.0708 1.39453h45.82567c4.05918 0 7.05607.89648 8.99455 2.68945 1.93848 1.79297 2.90772 4.14042 2.90772 7.03906zm29.80995-30.84568v55.7148h-18.72572v-55.7148h18.72572zm73.77079 28.28904l32.06246 27.42576h-26.09194l-23.64946-20.81835-23.53314 20.88475h-26.51841l32.29508-27.72459-28.4569-27.9902h22.87407l22.91284 21.05076 23.41684-21.05077h24.26976l-29.5812 28.22264z"/></svg>