<svg xmlns="http://www.w3.org/2000/svg" role="img" viewBox="-4.09 -3.84 199.94 49.94"><title>API7 logo</title><g data-name="图层 2"><path fill="red" d="M44.74 39.7a3.11 3.11 0 0 1-.7.9 6.26 6.26 0 0 1-4.2 1.6H6.44A6 6 0 0 1 0 35.8c0-4.4-.1-8.8 0-13.1a6.81 6.81 0 0 1 5-6.6 8.6 8.6 0 0 1 1.6-.1h31.6a8 8 0 0 1 6.2 2.6c.1.1.3.2.4.3h.2a18.75 18.75 0 0 0-.1-4.1c-.6-2.7-2.9-4.4-6-4.4H1.74c-1.3 0-1.3 0-1.3-1.3v-8c0-.7.2-1.1 1-1.1h43.4c3.1 0 5.6 1.5 7.8 3.6a16.5 16.5 0 0 1 4.8 7.6 7.83 7.83 0 0 1 .4 2.6v27.1c0 1.2 0 1.2-1.1 1.2h-10.5c-1.1 0-1.2 0-1.2-1.2v-1.2c-.1.1-.2 0-.3 0zm-17.4-8h11.9a3.41 3.41 0 0 0 2.4-.9 2.11 2.11 0 0 0-.2-3.5 4.8 4.8 0 0 0-3.1-1h-23.1a2.74 2.74 0 0 0-2.8 2.4 2.66 2.66 0 0 0 2.9 3zM87.54 0h21.8a12.42 12.42 0 0 1 3.3.4c3 .8 4.5 3 5 6a27.9 27.9 0 0 1 .2 5 60.68 60.68 0 0 1-.2 8.5c-.4 3.6-2.4 5.9-5.6 6.5a10.87 10.87 0 0 1-1.8.1h-33c-1.3 0-1.3 0-1.3 1.3v13.3c0 .8-.2 1.2-1.1 1.2h-10.1c-.9 0-1.1-.3-1.1-1.1V17.4c0-1.1 0-1.2 1.2-1.2h37.6a2.73 2.73 0 0 0 2.9-3.2 2.57 2.57 0 0 0-1.9-2.2 8.59 8.59 0 0 0-3.2-.5H65c-1.3 0-1.3 0-1.3-1.3V1.5c0-1.3 0-1.3 1.4-1.3C72.44 0 79.94 0 87.54 0zm48.7 21.1V41c0 1.1 0 1.1-1.2 1.1H125c-.8 0-1-.2-1-1V1c0-.8.3-1 1.1-1h10.1c.8 0 1.1.2 1.1 1.1-.06 6.7-.06 13.3-.06 20zm30.5-11.1h-24.3c-1.2 0-1.2 0-1.2-1.2V1c0-.8.2-1 1-1h48.9c.8 0 1 .3 1 1v7.9c0 .9-.3 1.1-1.1 1.1zm-11.1 32.2h-6.9c-.2 0-.5.1-.6-.1s.1-.5.3-.6c3.8-4.3 7.7-8.5 11.5-12.8 3.4-3.8 6.9-7.6 10.3-11.4a2.52 2.52 0 0 1 2-.9h12.6c.3 0 .6-.1.8.2s-.2.4-.4.6c-7 8-13.9 16-20.9 24a2.54 2.54 0 0 1-2.4 1.1c-2.1-.2-4.2-.1-6.3-.1z" data-name="图层 1"/></g></svg>