<svg xmlns="http://www.w3.org/2000/svg" role="img" viewBox="-2.95 -2.95 125.03 153.53"><title>Apollo logo</title><g data-name="Layer 2"><g data-name="Layer 1"><path fill="#8fa896" d="M61.83769.00028a25.77375 25.77375 0 0 1 5.74589.5201C78.61014 2.97542 86.579 12.70226 87.64871 23.87653a31.16932 31.16932 0 0 1-.31078 8.31906c-.15717.91542-.47579 1.18124-1.4402.90669C83.22 32.34 80.51842 31.65445 77.8072 31.02c-.96815-.22656-1.16623-.588-.97906-1.57887A15.92677 15.92677 0 0 0 63.1612 10.85355a16.19138 16.19138 0 0 0-17.11994 10.79877 15.80728 15.80728 0 0 0 7.207 18.77454c1.09407.64046 2.16748 1.32071 3.29054 1.90556.77278.40244.886.74854.39833 1.53627-4.115 6.647-8.17893 13.32562-12.26217 19.9923-.88293 1.44154-1.76336 2.88524-2.6805 4.305a2.47287 2.47287 0 0 0-.24315 2.46183c1.54633 4.2036.9427 8.15821-2.18877 11.40269A10.21393 10.21393 0 0 1 28.379 84.71369c-4.99169-1.64127-7.71778-6.38172-7.028-11.95955.54683-4.42225 4.84919-8.33969 9.70824-8.73781a2.056 2.056 0 0 0 1.80192-1.1076q4.74164-7.8733 9.5462-15.70846a1.32464 1.32464 0 0 0-.2285-1.92663A26.16012 26.16012 0 0 1 34.582 24.99931a25.80624 25.80624 0 0 1 9.06424-18.36638A26.39121 26.39121 0 0 1 57.87279.22206c.10021-.01379 3.00112-.15062 3.9649-.22178z"/><path fill="#636060" d="M87.90166 101.28077a27.05243 27.05243 0 0 1-20.1095-8.95242c-.59672-.63781-.78409-.99414.053-1.62949 2.25469-1.7114 4.4556-3.49734 6.61765-5.32491.69553-.58792 1.0237-.426 1.58481.15969 4.38881 4.58079 9.71824 6.43115 15.88862 4.75325a15.37359 15.37359 0 0 0 11.44514-11.88237 15.9665 15.9665 0 0 0-13.43389-19.31871 17.42231 17.42231 0 0 0-11.25955 2.56045c-1.01306.60027-2.21938 1.75307-3.04652 1.53752-.80252-.20914-1.25178-1.83944-1.82173-2.86477Q67.75853 49.41506 61.725 38.49585a2.10943 2.10943 0 0 0-1.802-1.26733 10.60067 10.60067 0 0 1-9.36853-11.65546 10.66286 10.66286 0 1 1 20.41106 5.26977 2.57307 2.57307 0 0 0 .17916 2.58054c2.80726 4.912 5.59611 9.83508 8.32439 14.79117a1.34292 1.34292 0 0 0 1.86973.77413 26.48383 26.48383 0 0 1 33.09627 21.39343 26.86993 26.86993 0 0 1-21.23629 30.37376 22.53272 22.53272 0 0 1-5.29713.52491z"/><path fill="#2c2929" d="M63.28336 69.28619c4.65173 0 9.30378-.029 13.9549.0239a2.248 2.248 0 0 0 2.0839-1.05922 10.54518 10.54518 0 0 1 11.97764-3.71049 10.685 10.685 0 0 1 .1176 20.16215 10.56244 10.56244 0 0 1-11.93616-3.4917 2.87461 2.87461 0 0 0-2.6249-1.29321q-8.75276.0906-17.50674-.00424c-1.06649-.01217-1.38656.334-1.65634 1.30624C54.71475 91.95336 47.658 98.502 36.855 100.83089 22.69068 103.8844 7.94215 93.63441 5.62042 79.33222a26.73471 26.73471 0 0 1 18.27931-30.16736c1.04538-.3369 1.45384-.18041 1.70164.91427.58648 2.59084 1.22632 5.1738 1.97388 7.722.32566 1.11012.02537 1.47606-1.01147 1.85735A15.98352 15.98352 0 0 0 15.8911 74.68141C15.72627 82.14169 21.66854 89.165 29.15382 90.357a16.00639 16.00639 0 0 0 18.71646-15.90114c.02014-1.31064.06117-2.62531-.01642-3.93163-.05692-.9583.19047-1.27823 1.221-1.26494 4.73546.06111 9.4722.02691 14.2085.0269z"/><path fill="#383635" d="M13.061 107.39378h3.05957l13.63476 30.18554H25.2998l-4.05273-8.89453H8.27344l-3.79981 8.89453H0zm6.396 17.46679l-4.90576-10.87109-4.54981 10.87109zm12.82327 22.79492V117.8137h6.93555q5.32543 0 8.29346 2.62109a9.26336 9.26336 0 0 1 2.96777 7.32617 10.01466 10.01466 0 0 1-2.793 7.30469 9.52323 9.52323 0 0 1-7.11719 2.85742 12.61666 12.61666 0 0 1-4.23828-.83789v10.57031zm6.8501-26.18945h-2.80176v12.16016a8.3495 8.3495 0 0 0 3.82276.92383 5.91983 5.91983 0 0 0 4.55029-1.91211 6.95428 6.95428 0 0 0 1.77051-4.91993 6.83155 6.83155 0 0 0-.83643-3.416 5.03764 5.03764 0 0 0-2.28027-2.15918 10.31426 10.31426 0 0 0-4.2251-.67681zm25.27734-3.69531a10.52024 10.52024 0 0 1 7.59668 2.91113 9.72891 9.72891 0 0 1 3.02588 7.31543 9.2419 9.2419 0 0 1-3.06933 7.10059 10.96852 10.96852 0 0 1-7.727 2.82519 10.52243 10.52243 0 0 1-7.53174-2.86816 10.03588 10.03588 0 0 1 .03271-14.39453 10.73491 10.73491 0 0 1 7.6728-2.88965zm-.21777 3.52344a6.30232 6.30232 0 0 0-4.67969 1.84765 6.41219 6.41219 0 0 0-1.82861 4.70508 6.12614 6.12614 0 0 0 1.87207 4.62988 6.66579 6.66579 0 0 0 4.81055 1.79395 6.554 6.554 0 0 0 4.77783-1.81543 6.65867 6.65867 0 0 0-.07617-9.31348 6.78435 6.78435 0 0 0-4.87598-1.84765zm15.32422-13.72852h3.96143v30.01367h-3.96143zm9.77344 0h3.9614v30.01367h-3.9614zm19.26367 10.20508a10.52026 10.52026 0 0 1 7.59668 2.91113 9.72891 9.72891 0 0 1 3.02588 7.31543 9.2419 9.2419 0 0 1-3.06934 7.10059 10.96852 10.96852 0 0 1-7.727 2.82519 10.52245 10.52245 0 0 1-7.53174-2.86816 10.03587 10.03587 0 0 1 .03272-14.39453 10.73489 10.73489 0 0 1 7.6728-2.88965zm-.21777 3.52344a6.30232 6.30232 0 0 0-4.67969 1.84765 6.41219 6.41219 0 0 0-1.82861 4.70508 6.12614 6.12614 0 0 0 1.87207 4.62988 6.66576 6.66576 0 0 0 4.81054 1.79395 6.554 6.554 0 0 0 4.77783-1.81543 6.65867 6.65867 0 0 0-.07617-9.31348 6.78431 6.78431 0 0 0-4.87597-1.84765z"/></g></g></svg>