<svg xmlns="http://www.w3.org/2000/svg" role="img" viewBox="-3.26 -3.26 163.02 54.15"><title>Arm logo</title><g data-name="图层 2"><path fill="#0090bc" d="M35.4 1.3h10.5v45.1H35.4v-4.7a17.17 17.17 0 0 1-13.5 6.1C8 47.8 0 36.2 0 23.8 0 9.1 10.1.1 22 .1a16.67 16.67 0 0 1 13.4 6.4V1.3zM10.8 24.1c0 7.7 4.9 14.4 12.5 14.4 6.6 0 12.8-4.8 12.8-14.2 0-9.9-6.1-14.6-12.8-14.6-7.6-.1-12.5 6.4-12.5 14.4zM58.4 1.3h10.5v4a19.72 19.72 0 0 1 4.4-3.8A11.88 11.88 0 0 1 79.7 0 15.76 15.76 0 0 1 88 2.1l-4.3 9.5a9.62 9.62 0 0 0-5.4-1.6 8.17 8.17 0 0 0-6.6 2.5c-2.9 3.1-2.9 7.4-2.9 10.4v23.4H58.3l.1-45zm36.4 0h10.5v4.2A13.83 13.83 0 0 1 116.4.1a13.48 13.48 0 0 1 11.7 6.6A15.84 15.84 0 0 1 141.5.1a14.25 14.25 0 0 1 12.8 7.1c.9 1.5 2.4 4.8 2.4 11.4v27.9h-10.5V21.7c0-5-.5-7.1-1-8a6.09 6.09 0 0 0-6-4A7.76 7.76 0 0 0 133 13c-1.9 2.6-2.1 6.4-2.1 10.3v23.2h-10.5V21.7c0-5-.5-7.1-1-8a6.09 6.09 0 0 0-6-4 7.76 7.76 0 0 0-6.2 3.3c-1.9 2.6-2.1 6.4-2.1 10.3v23.2H94.8V1.3z" data-name="图层 1"/></g></svg>