<svg xmlns="http://www.w3.org/2000/svg" role="img" viewBox="-4.31 -4.31 224.12 99.37"><title>Bash logo</title><g fill="none" fill-rule="evenodd"><path fill="#FEFEFE" d="M73.9497 18.6567l-28.637-16.999c-3.418-2.029-7.631-2.029-11.049 0l-28.637 16.999c-3.417 2.029-5.523 5.778-5.523 9.836v33.998c0 4.057 2.106 7.808 5.524 9.837l28.637 16.996c1.709 1.015 3.615 1.521 5.524 1.521 1.908 0 3.814-.506 5.523-1.521l28.637-16.996c3.418-2.029 5.525-5.78 5.525-9.837v-33.998c0-4.058-2.107-7.807-5.524-9.836z"/><path fill="#3E474A" d="M35.2656 87.5832l-28.637-16.996c-2.801-1.663-4.541-4.765-4.541-8.097v-33.997c0-3.332 1.74-6.434 4.54-8.096l28.638-16.999c1.373-.815 2.937-1.246 4.523-1.246 1.585 0 3.149.431 4.523 1.246l28.637 16.999c2.36 1.401 3.952 3.827 4.4 6.548-.95-2.027-3.092-2.578-5.588-1.12l-27.092 16.734c-3.378 1.975-5.869 4.191-5.871 8.264v33.383c-.002 2.439.983 4.019 2.496 4.477-.497.086-.998.146-1.505.146-1.586 0-3.15-.431-4.523-1.246m38.684-68.927l-28.637-16.998c-1.709-1.015-3.617-1.522-5.524-1.522-1.908 0-3.816.507-5.525 1.522l-28.637 16.998c-3.417 2.029-5.523 5.779-5.523 9.837v33.997c0 4.057 2.106 7.808 5.524 9.837l28.637 16.997c1.71 1.014 3.616 1.521 5.524 1.521s3.814-.507 5.523-1.521l28.638-16.997c3.418-2.029 5.524-5.78 5.524-9.837v-33.997c0-4.058-2.106-7.808-5.524-9.837"/><path fill="#47B353" d="M66.4428 65.7771l-7.131 4.268c-.189.11-.328.234-.329.461v1.866c0 .228.153.323.342.212l7.241-4.401c.189-.11.218-.321.219-.548v-1.646c0-.227-.153-.322-.342-.212"/><path fill="#FEFEFE" d="M51.258 50.0704c.231-.117.421.027.424.329l.024 2.467c1.033-.411 1.93-.521 2.743-.333.176.047.254.287.182.572l-.543 2.186c-.042.165-.135.332-.247.436-.047.046-.095.082-.143.106-.073.037-.145.049-.214.035-.371-.084-1.253-.277-2.641.426-1.456.737-1.965 2.002-1.955 2.941.012 1.121.587 1.461 2.573 1.495 2.646.044 3.789 1.2 3.817 3.865.027 2.617-1.37 5.427-3.507 7.149l.047 2.442c.003.294-.188.631-.419.748l-1.446.833c-.232.117-.422-.027-.425-.321l-.025-2.402c-1.239.515-2.494.639-3.296.317-.151-.059-.216-.282-.156-.536l.524-2.208c.042-.174.134-.348.259-.459.044-.043.09-.076.136-.099.083-.042.164-.051.233-.025.864.291 1.969.155 3.032-.383 1.35-.683 2.253-2.06 2.239-3.428-.013-1.241-.685-1.757-2.319-1.769-2.08.006-4.019-.404-4.051-3.466-.026-2.521 1.285-5.144 3.36-6.803l-.026-2.465c-.003-.303.182-.636.42-.756l1.4-.894z"/><path fill="#3E474A" d="M98.6338 48.0456h6.311c.891.028 1.725.172 2.48.426.719.24 1.351.587 1.88 1.03.517.434.914.952 1.21 1.579.29.619.431 1.353.416 2.208 0 .807-.159 1.526-.474 2.138-.325.632-.752 1.15-1.301 1.582-.573.449-1.246.806-1.999 1.061-.768.259-1.593.399-2.427.412h-6.096v-10.436zm10.841-9.299c-.329.559-.747 1.017-1.278 1.399-.551.395-1.193.704-1.912.915-.746.221-1.519.34-2.27.354h-5.381v-8.9h5.221c.839.015 1.668.119 2.466.311.734.175 1.386.45 1.936.814.515.341.915.768 1.224 1.304.295.514.445 1.173.445 1.958 0 .724-.148 1.327-.451 1.845zm7.035 8.064c-.714-.862-1.575-1.608-2.559-2.217-.121-.074-.243-.146-.367-.217.785-.524 1.483-1.141 2.078-1.836.636-.743 1.141-1.59 1.504-2.515.365-.931.56-1.966.581-3.086.02-1.942-.387-3.651-1.211-5.081-.81-1.406-1.911-2.578-3.271-3.487-1.319-.879-2.838-1.536-4.516-1.954-1.625-.404-3.31-.618-5.025-.636h-11.463c-.8 0-1.449.617-1.449 1.378v36.651c0 .761.649 1.378 1.449 1.378h12.352c1.778-.018 3.529-.286 5.204-.795 1.701-.518 3.229-1.276 4.542-2.255 1.344-1.001 2.43-2.26 3.228-3.741.811-1.502 1.212-3.243 1.192-5.16 0-1.24-.201-2.417-.596-3.498-.395-1.08-.958-2.065-1.673-2.929zm23.4859 2.0805h-6.328l3.189-9.827 3.139 9.827zm.317-22.149c-.191-.572-.749-.96-1.381-.96h-4.103c-.629 0-1.185.385-1.378.954l-12.443 36.652c-.142.419-.065.877.208 1.234.273.356.708.566 1.171.566h4.898c.634 0 1.195-.393 1.383-.969l2.781-8.522h10.725l2.732 8.516c.186.58.749.975 1.386.975h4.871c.462 0 .896-.209 1.169-.564.273-.354.351-.811.211-1.23l-12.23-36.652zm41.6628 21.4848c-.655-.84-1.428-1.599-2.301-2.259-.839-.636-1.754-1.212-2.719-1.716-.947-.494-1.948-.938-2.976-1.322-.988-.366-1.989-.702-2.989-1.002-.848-.247-1.756-.537-2.699-.861-.875-.299-1.697-.678-2.444-1.127-.676-.406-1.238-.905-1.672-1.484-.376-.502-.566-1.125-.578-1.882 0-.751.147-1.378.451-1.92.318-.565.732-1.028 1.266-1.413.553-.4 1.199-.706 1.919-.909 1.684-.477 3.573-.406 4.938.101.739.274 1.383.662 1.911 1.15.536.496.974 1.103 1.303 1.803.346.737.584 1.577.707 2.495.091.687.707 1.203 1.437 1.203h5.029c.39 0 .763-.148 1.035-.413.273-.264.422-.622.414-.992-.04-1.878-.475-3.612-1.294-5.152-.81-1.519-1.903-2.833-3.247-3.906-1.326-1.057-2.865-1.887-4.574-2.47-3.243-1.103-6.847-1.162-10.29-.143-1.656.491-3.16 1.222-4.47 2.17-1.336.966-2.432 2.168-3.258 3.569-.852 1.444-1.284 3.093-1.284 4.903 0 1.822.439 3.444 1.304 4.822.821 1.307 1.893 2.456 3.186 3.413 1.245.923 2.64 1.71 4.145 2.34 1.445.605 2.885 1.129 4.283 1.56.918.281 1.875.593 2.871.939.905.315 1.745.712 2.495 1.18.688.429 1.234.94 1.666 1.56.381.548.566 1.229.566 2.084 0 .76-.158 1.381-.483 1.898-.355.565-.799 1.019-1.356 1.388-.58.382-1.255.67-2.011.854-1.812.444-3.783.374-5.337-.103-.833-.255-1.575-.636-2.205-1.133-.628-.495-1.15-1.111-1.553-1.829-.41-.73-.686-1.594-.821-2.565-.095-.685-.71-1.197-1.436-1.197h-5.003c-.392 0-.767.15-1.039.417-.273.267-.421.628-.41 1 .06 1.963.559 3.749 1.484 5.308.903 1.523 2.095 2.83 3.542 3.887 1.421 1.04 3.052 1.847 4.846 2.398 1.777.545 3.619.821 5.475.821 1.66 0 3.342-.225 4.998-.668 1.686-.451 3.224-1.137 4.57-2.037 1.38-.923 2.521-2.093 3.39-3.48.9-1.435 1.356-3.122 1.356-5.01 0-1.237-.192-2.393-.57-3.434-.374-1.027-.901-1.981-1.568-2.836m32.1119-22.4449h-4.633c-.8 0-1.449.616-1.449 1.377V41.54h-12.906V27.159c0-.761-.648-1.377-1.448-1.377h-4.607c-.8 0-1.449.616-1.449 1.377v36.652c0 .761.649 1.377 1.449 1.377h4.607c.8 0 1.448-.616 1.448-1.377V48.247h12.906v15.564c0 .761.649 1.377 1.449 1.377h4.633c.8 0 1.449-.616 1.449-1.377V27.159c0-.761-.649-1.377-1.449-1.377M95.243 71.541H93.49v4.69h-.937v-4.69h-1.741v-.739h4.431zm5.397 4.69h-.917v-2.423h-1.941v2.423h-.914v-5.429h.914v2.271h1.941v-2.271h.917zm5.389-2.434h-2.349v1.704h2.749v.73h-3.694v-5.428h3.666v.738h-2.721v1.532h2.349zm9.0806-.0264v1.73h1.027c.149-.002.285-.024.408-.065s.228-.098.318-.17c.088-.072.158-.16.209-.265.051-.104.077-.22.077-.35 0-.137-.022-.259-.067-.367-.045-.109-.109-.2-.192-.275-.084-.074-.186-.132-.306-.173-.12-.041-.255-.062-.404-.065h-1.07zm0-.683h.902c.141-.002.272-.02.394-.054.121-.033.226-.083.315-.149.089-.065.16-.146.212-.242.052-.096.078-.206.078-.329 0-.137-.024-.254-.074-.352-.05-.096-.12-.176-.21-.238-.09-.061-.196-.107-.319-.136-.123-.029-.258-.044-.404-.047h-.894v1.547zm-.945 3.144v-5.429h1.823c.275.003.531.033.77.09.24.057.449.146.628.265.179.119.319.271.421.456.102.185.152.405.149.659-.002.268-.081.497-.235.687-.154.191-.362.338-.623.442.159.042.301.103.425.181s.228.172.312.281c.083.11.148.231.192.363.044.134.067.275.067.424 0 .258-.05.486-.15.682-.099.196-.237.36-.413.492-.177.132-.386.232-.627.3-.242.069-.503.105-.783.107h-1.956zm8.6709-3.0645c-.002-.204-.022-.407-.059-.608-.036-.201-.098-.381-.184-.538-.087-.159-.201-.286-.343-.385-.143-.098-.321-.147-.535-.147-.212 0-.388.049-.528.147-.139.099-.251.227-.333.386-.083.159-.14.338-.173.539-.032.2-.05.402-.053.606v.7c.003.204.022.406.055.607.035.2.092.38.175.54.082.16.194.29.333.39.14.099.316.149.528.149.214 0 .392-.05.535-.149.142-.1.256-.229.343-.388.086-.16.147-.339.182-.541.035-.201.055-.404.057-.608v-.7zm.945.7c0 .321-.043.629-.13.923-.086.295-.215.554-.386.78-.171.224-.385.403-.643.536-.257.133-.558.199-.903.199-.343 0-.641-.067-.894-.201-.254-.134-.465-.314-.634-.538-.168-.225-.295-.484-.38-.778-.085-.293-.127-.6-.127-.921v-.693c0-.214.018-.422.057-.626.037-.204.094-.396.168-.577.075-.18.168-.346.278-.499.111-.153.242-.284.392-.393.151-.11.321-.196.51-.258.19-.061.398-.093.626-.093.345 0 .646.067.904.202.257.134.472.314.645.538.172.226.301.486.387.782.087.295.13.603.13.924v.693zm5.5851-3.0646l.008 3.636c-.003.278-.05.533-.141.762-.092.23-.22.427-.385.591-.164.164-.363.291-.598.38-.233.089-.495.134-.785.134-.283 0-.539-.045-.769-.134-.23-.089-.427-.215-.592-.378-.165-.163-.293-.36-.384-.59-.092-.229-.139-.485-.141-.765l.008-3.636h.925l.007 3.636c.003.166.025.319.067.458.042.14.102.259.181.359.078.101.175.18.292.236.116.056.251.084.406.084.156 0 .295-.028.415-.084.12-.056.221-.135.302-.236.081-.1.142-.219.185-.359.041-.139.063-.292.066-.458l.008-3.636h.925zm2.9862 2.5881h.866c.157 0 .301-.021.432-.063.13-.043.243-.103.339-.181.095-.079.169-.174.221-.288.052-.112.079-.243.079-.389 0-.152-.025-.286-.075-.402-.05-.118-.121-.216-.214-.296-.092-.079-.205-.139-.339-.18-.133-.041-.282-.063-.447-.065h-.862v1.864zm.956.723h-.956v2.117h-.941v-5.428h1.803c.293.003.563.038.81.107.247.068.461.17.641.305.181.136.32.305.419.509.1.204.149.442.149.716 0 .184-.025.351-.076.501-.051.151-.122.287-.214.409-.091.121-.201.228-.329.32-.128.093-.269.171-.423.235l1.207 2.282v.044h-1.003l-1.087-2.117zm7.5222 2.1174h-.949l-1.858-3.735-.004 3.735h-.953v-5.429h.953l1.851 3.726.008-3.726h.952zm5.394-2.434h-2.349v1.704h2.749v.73h-3.694v-5.428h3.666v.738h-2.721v1.532h2.349zm2.79.413h3.14v-.719h-3.14zm6.5724-.0035h1.309l-.646-2.128-.663 2.128zm1.545.765h-1.784l-.392 1.26h-.973l1.855-5.429h.827l1.82 5.429h-.969l-.384-1.26zm6.8043.5816c-.096.109-.21.21-.341.302-.131.092-.277.171-.439.238-.162.067-.338.119-.527.157-.19.037-.392.055-.606.055-.343 0-.646-.063-.91-.19-.264-.126-.487-.299-.668-.519-.182-.221-.32-.48-.416-.778-.095-.298-.144-.619-.147-.962v-.67c0-.344.047-.664.141-.962.094-.299.229-.558.406-.78.177-.222.393-.396.649-.523.256-.129.549-.193.878-.193.295 0 .559.039.792.115.233.078.433.189.6.335.167.145.3.322.398.531.098.208.16.442.186.701h-.925c-.023-.147-.06-.279-.11-.395-.05-.117-.116-.217-.2-.299-.084-.082-.185-.144-.304-.188-.119-.044-.259-.065-.421-.065-.199 0-.369.046-.512.139-.142.094-.26.219-.354.377-.094.158-.164.341-.209.548-.044.208-.068.425-.07.651v.678c.002.226.027.443.072.649.046.206.118.389.216.546.098.158.224.284.378.379.155.094.34.143.557.145.089 0 .181-.005.275-.016.094-.012.184-.03.268-.054.085-.026.163-.057.234-.095.07-.04.128-.087.172-.145l.008-1.085h-1.031v-.696h1.952l.008 2.069zm3.135-1.3466h1.309l-.646-2.128-.663 2.128zm1.545.765h-1.784l-.392 1.26h-.973l1.855-5.429h.827l1.82 5.429h-.969l-.384-1.26zm3.0993-4.1685h3.396v.742h-1.235v3.949h1.235v.738h-3.396v-.738h1.208v-3.949h-1.208zm9.31 5.428h-.949l-1.858-3.735-.004 3.735h-.953v-5.429h.953l1.851 3.726.008-3.726h.952zm10.7547-1.3978c0-.129-.028-.243-.084-.341-.057-.099-.136-.184-.24-.26-.103-.074-.225-.139-.368-.195-.142-.056-.297-.107-.465-.155a5.4419 5.4419 0 0 1-.664-.231c-.219-.092-.413-.205-.584-.337-.172-.133-.31-.289-.416-.467-.106-.177-.159-.382-.159-.616 0-.234.053-.443.159-.629.106-.185.248-.341.425-.471.178-.129.385-.229.62-.299.235-.069.481-.104.737-.104.275 0 .531.041.771.121.239.081.448.195.627.34.179.145.321.319.425.521.105.203.158.428.161.674h-.941c-.013-.137-.044-.262-.092-.375-.049-.113-.117-.211-.204-.293-.088-.082-.194-.145-.32-.19-.125-.045-.27-.067-.435-.067-.141 0-.272.018-.392.052s-.224.086-.312.153c-.087.067-.156.148-.205.242-.05.095-.075.202-.075.321 0 .127.034.237.102.33.068.093.157.175.266.244.11.07.237.13.379.181.143.051.291.097.445.139.238.068.465.15.682.249.217.098.408.216.573.354.164.138.295.298.392.479.096.181.145.389.145.623 0 .241-.054.453-.161.637-.107.184-.251.339-.431.462-.181.124-.39.218-.627.282-.238.063-.487.095-.746.095-.175 0-.348-.016-.521-.049-.173-.031-.338-.08-.496-.145-.158-.064-.305-.144-.441-.24s-.254-.207-.355-.332c-.1-.126-.18-.266-.237-.422-.058-.155-.088-.326-.09-.512h.944c.014.164.051.306.114.428s.146.224.251.304c.105.081.227.143.367.184.14.04.294.061.464.061.142 0 .274-.017.396-.048.123-.033.231-.081.322-.144.091-.064.163-.142.216-.236.052-.093.078-.199.078-.318m6.4753 1.3978h-.917v-2.423h-1.941v2.423h-.914v-5.429h.914v2.271h1.941v-2.271h.917zm5.39-2.434h-2.349v1.704h2.749v.73h-3.694v-5.428h3.666v.738h-2.721v1.532h2.349zm3.428 1.704h2.721v.73h-3.662v-5.428h.941zm5.743 0h2.721v.73h-3.662v-5.428h.941z"/></g></svg>