<svg xmlns="http://www.w3.org/2000/svg" role="img" viewBox="13.93 72.93 471.64 353.64"><title>Blue Matador logo</title><g fill="none" fill-rule="evenodd"><path fill="#0093EE" fill-rule="nonzero" d="M367.72396 181.23026v-9.30153c.23597-17.94957-9.37131-34.61534-25.09889-43.53906-11.11065-6.49128-23.3004-13.61586-35.96974-20.89876-10.67102-6.13505-21.70174-12.38884-32.77243-18.4843-14.8774-9.03503-33.5362-9.35337-48.71902-.8312-22.8208 12.58674-45.4018 25.7672-67.18348 38.51227l-2.11822 1.22701c-16.11683 8.5299-26.08938 25.24494-25.85825 43.34116V249.38868c.39967 18.64264 8.39294 33.20844 23.14054 42.11416 22.86077 13.89292 47.44009 27.90458 73.0985 41.71834 6.87714 3.76644 14.60248 5.75402 22.46111 5.77882 8.62115-.08928 17.07326-2.3796 24.53936-6.6496 15.98655-8.98488 32.2129-18.0885 47.95965-27.27129 7.43375-4.3539 14.82753-8.66823 22.10141-13.02214 12.21273-6.85901 20.71943-18.73474 23.22047-32.41681a52.35071 52.35071 0 0 0 .91922-8.35159c.63947-24.81726.7194-47.73464.27977-70.05831zm-61.1086 110.82671l-8.95247 5.10595-15.78672 8.82655-6.27472 3.64145c-3.35717 1.93947-6.75431 3.9581-10.15146 5.8184-10.20844 6.32296-23.13805 6.43005-33.45186.27707-26.29787-14.80328-47.95965-27.11296-67.94284-38.6706-9.94919-5.3883-16.09414-15.76441-15.98655-26.99423-.31973-19.15719-.27977-38.63102-.19984-57.51114v-20.42378c-.34578-11.6737 6.04028-22.52663 16.46615-27.98375l10.5911-6.09547c19.58352-11.12225 39.44681-22.64031 58.99037-33.52508 4.06615-2.30005 8.66612-3.51397 13.34877-3.5227 6.31024.091 12.48524 1.82463 17.90494 5.02678a2712.30611 2712.30611 0 0 1 30.73414 17.61353l16.34625 9.38069 8.75264 4.9872 10.63106 6.05589c9.94417 5.33267 16.17517 15.5973 16.26631 26.79631v3.20606a40713.20475 40713.20475 0 0 0-81.05181-28.85452c-2.27071-.62346-4.70254-.2485-6.67439 1.0291-20.78252 15.83239-41.4851 32.06059-61.94789 48.40753-6.5813 5.44797-14.22816 9.49057-22.4611 11.87429-7.75348 2.41444-15.3471 5.10594-22.98067 7.63912l.19983.6333h32.2129l.27977 1.54366-14.18807 3.9581c6.54907.09443 12.58853 3.51868 15.98655 9.06404 4.5162 5.97672 10.39126 11.20141 13.86834 17.69269 6.07489 11.35974 5.4754 11.6368 18.3046 11.16183.55953 0 1.15902-.23748.63946 0l11.71015-25.7672 17.22551 14.9616-4.71603 9.42027c6.6272 5.36372 12.92638 11.11311 18.86413 17.21772 10.55112 12.11178 25.33868 9.81608 39.60668 13.85334l-4.91586-20.62169c-9.1523 1.70199-18.22467 4.35391-23.02064-7.32248 3.19731-.31664 6.27472-.51455 9.2722-.94994 14.30797-2.0582 13.70847-1.70198 21.54188 10.2119 5.55533 8.23283 7.71351 15.3574.9592 22.83821zm26.57765-15.397l-4.79597 2.81025c-2.11822-8.312-7.59361-15.83238-9.55196-24.42145a160.5574 160.5574 0 0 0 17.06564-1.86031 67.27338 67.27338 0 0 1 9.91166-1.38533l2.35802.87078c-.51307 9.99092-6.17344 19.01998-14.9874 23.9069v.07916z"/><path fill="#000" d="M51.93533 406.92667c2.41733-2.54224 3.62598-5.8911 3.62598-10.04667 0-4.15558-1.19656-7.4311-3.58972-9.82667-2.39316-2.39556-5.24557-3.59333-8.55732-3.59333-3.31174 0-6.16415 1.22221-8.55731 3.66667-2.39316 2.44445-3.58972 5.74442-3.58972 9.9 0 4.15557 1.19656 7.46776 3.58972 9.93666 2.39316 2.4689 5.23348 3.70334 8.52105 3.70334 3.28757 0 6.13998-1.24666 8.55732-3.74zM45.191 376.2c5.36648 0 9.83848 1.91887 13.41613 5.75667 3.57765 3.8378 5.36645 8.82441 5.36645 14.96 0 6.13558-1.80088 11.17109-5.4027 15.10666-3.60183 3.93558-8.06175 5.90334-13.37988 5.90334-3.14253 0-5.89825-.74555-8.26723-2.23667-2.36899-1.49112-4.25448-3.48332-5.65653-5.97667v7.55334H23V363h8.26724v21.04667c1.3537-2.34668 3.2271-4.2411 5.62027-5.68334C39.28067 376.9211 42.04847 376.2 45.191 376.2zm25.9575 41.06667V363h8.26723v54.26667h-8.26724zM117.19391 376.86h8.26723v40.40667h-8.26723v-6.38c-2.61072 4.64446-6.86516 6.96666-12.76345 6.96666-4.49624 0-8.2068-1.50332-11.13177-4.51s-4.38743-7.2233-4.38743-12.65V376.86h8.19471v22.58667c0 3.6178.8944 6.3922 2.68323 8.32333 1.78883 1.93112 4.2303 2.89667 7.32448 2.89667 3.09419 0 5.54774-.96555 7.36074-2.89667 1.813-1.93112 2.71949-4.70554 2.71949-8.32333V376.86zm34.94992 41.06667c-5.8016 0-10.51533-1.90665-14.14132-5.72-3.626-3.81336-5.43897-8.8733-5.43897-15.18 0-6.3067 1.83714-11.35443 5.51149-15.14334 3.67434-3.7889 8.42433-5.68333 14.2501-5.68333s10.55159 1.8211 14.17759 5.46333c3.626 3.64224 5.43897 8.39664 5.43897 14.26334 0 1.41778-.0967 2.73777-.29008 3.96h-30.60328c.19339 3.37335 1.31743 6.04999 3.37216 8.03 2.05474 1.98 4.62916 2.97 7.72334 2.97 4.49624 0 7.6629-1.8822 9.50007-5.64667h8.91991c-1.20866 3.71557-3.4084 6.75888-6.59928 9.13-3.19088 2.37112-7.13107 3.55667-11.8207 3.55667zm11.16802-23.76c-.04834-3.32446-1.13613-5.97666-3.26338-7.95667s-4.71376-2.97-7.7596-2.97-5.59609.98999-7.65082 2.97-3.22712 4.6322-3.5172 7.95667h22.191zm20.8086-16.94v6.52666c2.65907-4.84002 7.03437-7.26 13.12605-7.26 3.14253 0 5.95868.75777 8.44854 2.27334 2.48985 1.51556 4.33908 3.73998 5.54775 6.67333 1.3537-2.83557 3.29963-5.03555 5.83783-6.6 2.5382-1.56445 5.45104-2.34667 8.73861-2.34667 4.39955 0 8.07384 1.45443 11.02298 4.36334 2.94915 2.9089 4.4237 7.10108 4.4237 12.57666v23.83334h-5.00385v-22.88c0-4.40002-1.05153-7.74888-3.1546-10.04667-2.10309-2.29779-4.97967-3.44667-8.62984-3.44667-3.65018 0-6.52676 1.14888-8.62984 3.44667-2.10308 2.29779-3.1546 5.64665-3.1546 10.04667v22.88h-5.00385v-22.88c0-4.40002-1.05153-7.74888-3.1546-10.04667-2.10309-2.29779-4.97967-3.44667-8.62984-3.44667s-6.52676 1.14888-8.62984 3.44667c-2.10308 2.29779-3.1546 5.64665-3.1546 10.04667v22.88h-5.07637v-40.04h5.07637zm94.34349 31.9c2.9008-3.03113 4.35118-6.99109 4.35118-11.88 0-4.88892-1.4383-8.83666-4.31492-11.84334-2.87663-3.00668-6.34545-4.51-10.40656-4.51-4.06112 0-7.51786 1.44221-10.37031 4.32667s-4.27866 6.7833-4.27866 11.69667c0 4.91335 1.4383 8.9222 4.31492 12.02666 2.87662 3.10446 6.33336 4.65667 10.3703 4.65667 4.03695 0 7.4816-1.4911 10.33405-4.47333zM267.36845 418c-5.51152 0-10.08021-1.97998-13.7062-5.94-3.626-3.96002-5.43898-9.00775-5.43898-15.14333 0-6.13559 1.80088-11.07332 5.40271-14.81334 3.60183-3.74002 8.1826-5.61 13.74247-5.61 3.57765 0 6.72014.88 9.42755 2.64 2.70741 1.76001 4.71377 4.03332 6.01913 6.82v-8.72666h5.07637v40.04h-5.07637v-8.8c-1.30536 2.78668-3.31172 5.07221-6.01913 6.85666C274.08859 417.1078 270.9461 418 267.36845 418zm48.00345-36.74h-10.95046v26.54667c0 2.00445.38677 3.41 1.16031 4.21666.77355.80667 2.15141 1.21 4.13362 1.21h5.65653v4.03334h-6.74432c-6.18837 0-9.28251-3.1533-9.28251-9.46V381.26h-5.5115v-4.03333h5.5115V367.18h5.07637v10.04667h10.95046V381.26zm33.64457 27.86667c2.9008-3.03113 4.35118-6.99109 4.35118-11.88 0-4.88892-1.4383-8.83666-4.31492-11.84334-2.87662-3.00668-6.34544-4.51-10.40656-4.51-4.06112 0-7.51785 1.44221-10.3703 4.32667-2.85246 2.88446-4.27866 6.7833-4.27866 11.69667 0 4.91335 1.43829 8.9222 4.31491 12.02666 2.87663 3.10446 6.33336 4.65667 10.3703 4.65667 4.03695 0 7.4816-1.4911 10.33405-4.47333zM337.92097 418c-5.51152 0-10.0802-1.97998-13.7062-5.94-3.626-3.96002-5.43898-9.00775-5.43898-15.14333 0-6.13559 1.80089-11.07332 5.40271-14.81334 3.60183-3.74002 8.1826-5.61 13.74247-5.61 3.57765 0 6.72014.88 9.42755 2.64 2.70741 1.76001 4.71377 4.03332 6.01913 6.82v-8.72666h5.07637v40.04h-5.07637v-8.8c-1.30536 2.78668-3.31172 5.07221-6.01913 6.85666-2.70741 1.78446-5.8499 2.67667-9.42755 2.67667zm58.08368-8.87333c2.9008-3.03113 4.35118-6.99109 4.35118-11.88 0-4.88892-1.4383-8.83666-4.31492-11.84334-2.87662-3.00668-6.34544-4.51-10.40656-4.51-4.06112 0-7.51786 1.44221-10.3703 4.32667-2.85246 2.88446-4.27867 6.7833-4.27867 11.69667 0 4.91335 1.4383 8.9222 4.31492 12.02666 2.87663 3.10446 6.33336 4.65667 10.3703 4.65667 4.03695 0 7.4816-1.4911 10.33405-4.47333zM384.90915 418c-5.51152 0-10.0802-1.97998-13.7062-5.94-3.626-3.96002-5.43898-9.00775-5.43898-15.14333 0-6.13559 1.80089-11.07332 5.40271-14.81334 3.60183-3.74002 8.1826-5.61 13.74247-5.61 3.57765 0 6.72014.88 9.42755 2.64 2.70741 1.76001 4.71377 4.03332 6.01913 6.82V363h5.07637v54.26667h-5.07637v-8.8c-1.30536 2.78668-3.31172 5.07221-6.01913 6.85666C391.6293 417.1078 388.4868 418 384.90915 418zm46.98818-4.10667c4.10947 0 7.6629-1.4911 10.66038-4.47333 2.9975-2.98224 4.49622-7.0522 4.49622-12.21 0-5.1578-1.4262-9.21554-4.27866-12.17333-2.85245-2.9578-6.33336-4.43667-10.44282-4.43667-4.10947 0-7.54203 1.46665-10.29779 4.4-2.75576 2.93335-4.13362 7.01553-4.13362 12.24667 0 5.23113 1.30534 9.31331 3.91606 12.24666 2.61072 2.93335 5.97077 4.4 10.08023 4.4zm0 4.10667c-5.65656 0-10.2615-1.90665-13.81499-5.72-3.55348-3.81335-5.33019-8.8122-5.33019-14.99667 0-6.18447 1.8855-11.19553 5.65653-15.03333 3.77104-3.8378 8.48477-5.75667 14.14133-5.75667 5.65656 0 10.37028 1.91887 14.14132 5.75667 3.77104 3.8378 5.65653 8.82441 5.65653 14.96 0 6.13559-1.98218 11.13443-5.9466 14.99667C442.43682 416.0689 437.60223 418 431.89732 418zm32.84686-40.77333v6.6c2.1756-4.88892 6.26083-7.33334 12.25581-7.33334v5.35334h-1.4504c-3.48095 0-6.15206.95332-8.01341 2.86-1.86135 1.90667-2.792 5.1822-2.792 9.82666v22.73334h-5.07638v-40.04h5.07638z"/></g></svg>