<svg xmlns="http://www.w3.org/2000/svg" role="img" viewBox="-17.02 -17.02 885.04 426.54"><title>Caffe logo</title><g data-name="图层 2"><g data-name="图层 1"><path fill="#c00000" d="M588.12 104h-64.45v167.63h-32.39V103.91h-28.94V78.54h28.8v-4.78c.39-11.61.31-23.25 1.29-34.8 1.62-19.13 16.41-34.3 36.67-37.48C544.09-.88 559 .34 573.79 3.3a8.76 8.76 0 0 1 1.32.6c-1.57 9.15-3.15 18.33-4.75 27.69-5.81-.44-11.48-1.1-17.15-1.22a65.23 65.23 0 0 0-12.64.94c-7.92 1.43-13.29 5.95-15.27 14-2.65 10.83-1.45 21.79-1.72 32.91h64.23c.07-1.44.17-2.87.22-4.3.4-11.48.07-23 1.33-34.42 2.31-20.73 15.65-34.12 36.48-38 11.88-2.24 36-1.08 46.24 2.38-1.57 9.18-3.16 18.45-4.69 27.43-8.11-.31-15.8-.73-23.49-.84a30.1 30.1 0 0 0-7.75 1.11c-7.24 1.83-12 6.25-13.87 13.68-2.69 10.84-1.25 21.81-1.74 33.21h37.54v25.23H620.8v167.94h-32.68zM231.84 77.9L197.33 86c-2.92-6.59-5.42-13-8.51-19.06-11.76-23.17-31.2-34.7-56.71-36.35-16.55-1.07-32.74.91-47.82 8.33-19.49 9.55-32.36 25.02-39.47 45.41-7.88 22.57-9.82 45.8-7.82 69.48 1.31 15.52 4.37 30.63 10.5 45 10.44 24.51 29.25 39.22 54.76 45.09 25 5.77 48.72 2.31 69.54-13.9 12.59-9.76 20.2-23 25.2-37.8 1.52-4.46 2.66-9 4.05-13.84l35 8.87c-3.59 14.05-8.59 27.16-16.12 39.17-18.75 29.92-46.08 46-81 49.31-22 2.08-43.68.18-64.59-7.46-23.44-8.56-40.89-24.31-53-45.84C4.11 191.65-1.73 158.33.43 123.39c1.22-19.76 5.33-38.8 13.93-56.74 14.86-31 39.17-51 71.86-60.72 24.07-7.19 48.52-8 72.88-1.57 31.39 8.28 53.34 27.85 66.47 57.39 2.27 5.11 4.06 10.42 6.27 16.15zm210.65 194.02c-11.11 0-21.8 0-32.49-.09a3.25 3.25 0 0 1-2.19-2c-1.83-5.69-3.49-11.42-5.16-17.16-.36-1.26-.53-2.58-.8-3.92-6.86 4.73-13.14 9.72-20 13.69-26.2 15.1-54 18.36-82.59 8.51-20.46-7.06-32.27-22.47-34.33-44.08s6.1-39.08 24.27-51.46c12.53-8.53 26.87-11.69 41.58-13.65 20.65-2.76 41.44-4.79 61.57-10.56 8.5-2.43 7-.6 7.15-9.36a81.79 81.79 0 0 0-.83-12.31c-1.68-12.21-8.75-20.21-20.17-24.26-16.8-6-33.83-5.77-50.78-.7-12 3.58-18.23 12.9-22.58 23.86-.27.7-.51 1.41-.76 2.11-2.53 7.14-2.55 7.24-9.91 6.32-7.9-1-15.77-2.19-24.15-3.37.67-2.78 1.2-5.3 1.88-7.78 6.39-23.47 21.08-38.84 44.5-45.82a141.17 141.17 0 0 1 74.72-2c12.28 3 23.57 8.45 31.13 19.37a51.5 51.5 0 0 1 9.16 28.48c.44 17 .51 34 .74 51 .26 19.49.49 39 .79 58.46.19 12.16 2.66 23.78 8.47 34.58a21.15 21.15 0 0 1 .78 2.14zm-42.4-96.21l-1.49-.57c-1.15.36-2.29.75-3.45 1.07-7 1.94-13.85 4.3-20.93 5.71-15.17 3-30.46 5.42-45.67 8.29-7.15 1.35-14.09 3.53-19.64 8.6-8.42 7.7-11.14 17.38-8.59 28.28 2.75 11.71 10.82 18.8 22.15 21.57 18.63 4.54 36.54 2.12 52.92-8.17 11.33-7.13 19.5-17.16 21.66-30.58 1.82-11.27 2.09-22.79 3.04-34.2zm450.63 7.84H706.35c1.26 7.25 2 14.15 3.71 20.84 4.55 18.12 14.54 32.17 31.86 40.23C762 254 787.41 249.9 801.78 235c6.22-6.35 10.22-14 13.57-22.21.49-1.19 2.13-2.87 3.07-2.77 10.51 1.1 21 2.5 31.82 3.87-6.79 24.1-19.85 42.89-42.7 53.76-18 8.59-37.24 9.86-56.79 7.71-16.22-1.78-31.06-7.21-44-17.32a78.16 78.16 0 0 1-27.59-40.11c-9.14-31-9.2-62.1 3.33-92.12 11.83-28.32 33.67-45.22 64.18-50.34 16.69-2.8 33.16-1.84 49.07 4.17 21.67 8.2 37 23.3 46.27 44.4 8.09 18.46 10 38 9.15 58a10.34 10.34 0 0 1-.44 1.51zm-34.19-27.21c-1.06-34.11-22.71-54-49.91-55.38-34.32-1.69-56.8 24.74-57.78 55.38z"/><path fill="#333" d="M137.11 326.67q-6.39 18.22-12.78 36.45c-2.91 8.35-5.87 16.69-8.62 25.09-.75 2.31-1.85 3.3-4.25 3a12.2 12.2 0 0 0-3.36 0c-2.48.38-3.35-.83-4.09-3.05-6.64-19.81-13.42-39.58-20.17-59.35a8.45 8.45 0 0 0-2.14-3.51v65.61h-9.8v-79.98c4.86 0 9.58-.14 14.27.14.81.05 1.85 1.75 2.23 2.87q10.45 31 20.78 62.06c.31.93.67 1.84 1.26 3.42 1-2.92 1.87-5.21 2.66-7.52 6.56-19.11 13.16-38.2 19.58-57.35 1-2.86 2.29-4 5.32-3.73 3.21.28 6.46.06 10 .06V391h-9.92v-64.21zm216.36-15.4c12.56 0 24.94-.57 37.25.15 12.73.75 21.17 8.26 25.49 20.08 4.87 13.31 4.38 26.75-.62 39.9-4.28 11.27-12.75 18.12-24.75 18.86-12.31.76-24.7.17-37.37.17zm10.35 8.26v61.65c9 0 17.71.55 26.35-.17 7.72-.63 12.91-5.6 15.58-12.89a49.54 49.54 0 0 0 .75-32.71c-2.21-7-6.6-13-14.18-14.06-9.32-1.35-18.8-1.27-28.5-1.82zM211.8 351c.95-12.41 4.28-23.3 13.43-32.26 14.76-14.45 52-14.36 61.58 16.83 4.05 13.17 3.55 26.34-3.27 38.51-7.53 13.43-19.83 19.05-34.83 18.26-16.65-.89-28.14-9.47-33.58-25.32-1.76-5.14-2.26-10.7-3.33-16.02zm66.65.52c-.18-2.61-.17-5.25-.6-7.82a46.12 46.12 0 0 0-2-7.95c-4-11.15-14.07-17.73-26.16-17.27s-21.74 7.86-24.73 19.24a50.3 50.3 0 0 0-.14 26.26c5.18 19.12 29.64 26.14 44.18 12.65 7.29-6.84 9.24-15.63 9.45-25.14zm216.96 30.23h48.75V391h-59.45v-79.8h57.76v8.8h-47v24.87h44.08v9.46h-44.1zm284.12-48.51l-9.48.89a21.88 21.88 0 0 0-32.52-12.93c-3.92 2.31-6.37 5.61-6 10.41.32 4.56 3.07 7.41 7.16 8.67 7.15 2.19 14.42 4 21.62 6 2.28.64 4.56 1.3 6.76 2.16 9.64 3.74 14.93 10.63 15 19.4a22.44 22.44 0 0 1-14.48 21.64c-12.09 4.73-24.3 4.37-35.89-1.57-8.71-4.47-12.67-12.28-13.38-22.37 3-.28 5.84-.66 8.64-.7.56 0 1.51 1.22 1.64 2 1.71 9.92 8.5 14.31 17.56 15.82 7.14 1.2 14.26.78 20.54-3.44 7.71-5.17 7.3-16-1.18-19.74-6.67-2.93-14-4.25-21-6.53-4.72-1.54-9.69-2.85-13.88-5.36-12.21-7.31-12.33-24.62-.56-32.69 10.38-7.12 29.15-7.2 39.56-.16a22.26 22.26 0 0 1 9.89 18.5zM609 390.86v-79.67h10.33v70.48h39.43v9.19z"/></g></g></svg>