<?xml version="1.0" encoding="utf-8"?>
<!-- Generator: Adobe Illustrator 22.1.0, SVG Export Plug-In . SVG Version: 6.00 Build 0)  -->
<svg version="1.1"
	 id="svg3023" xmlns:cc="http://creativecommons.org/ns#" xmlns:dc="http://purl.org/dc/elements/1.1/" xmlns:rdf="http://www.w3.org/1999/02/22-rdf-syntax-ns#" xmlns:svg="http://www.w3.org/2000/svg"
	 xmlns="http://www.w3.org/2000/svg" xmlns:xlink="http://www.w3.org/1999/xlink" x="0px" y="0px" viewBox="0 0 160.5 220.7"
	 style="enable-background:new 0 0 160.5 220.7;" xml:space="preserve">
<style type="text/css">
	.st0{fill:#FF2745;}
	.st1{fill:#313C47;}
</style>
<g>
	<g>
		<path id="path3043" class="st0" d="M59.7,92.7c-2.1-1.1-3.3-2.4-3.6-3.8c-0.3-1.3,0.3-2.8,1.8-4.5c3.6-4.1,5.5-9.3,5.5-14.8
			c0-12.4-10.1-22.5-22.5-22.5c0,0-0.1,0-0.1,0s-0.1,0-0.1,0c-12.4,0-22.5,10.1-22.5,22.5c0,5.4,2,10.7,5.5,14.8
			c1.5,1.7,2.1,3.2,1.8,4.5c-0.3,1.4-1.5,2.7-3.6,3.8c-3.3-2.7-6.2-6.4-8-10.1c-1-2-1.7-4.1-2.2-6.2c-0.5-2.2-0.8-4.5-0.8-6.8
			c0-4,0.8-7.9,2.3-11.6c1.5-3.5,3.6-6.7,6.4-9.4c2.7-2.7,5.9-4.9,9.4-6.4c3.7-1.6,7.6-2.3,11.6-2.3c0,0,0.1,0,0.1,0s0.1,0,0.1,0
			c4,0,7.9,0.8,11.6,2.3c3.5,1.5,6.7,3.6,9.4,6.4c2.7,2.7,4.9,5.9,6.4,9.4c1.6,3.7,2.3,7.6,2.3,11.6c0,2.3-0.3,4.6-0.8,6.8
			c-0.5,2.2-1.3,4.3-2.2,6.2C65.8,86.3,62.9,90,59.7,92.7"/>
		<path id="path3045" class="st0" d="M48.7,98.3c-0.3-0.2-1.5-1.1-2.7-2.7c-1.1-1.5-2.4-4-2.3-7.4c0-2,0.5-4,1.2-5.9
			c0.8-1.9,1.8-3.6,3.2-5.1l0,0c0.1-0.1,0.2-0.2,0.3-0.4c0.5-0.6,1.1-1.2,1.5-2c0.5-0.9,0.9-1.9,1.1-2.8c0.4-1.5,0.4-3.1,0.1-4.6
			c-0.3-1.4-0.9-2.7-1.7-3.9c-0.8-1.1-1.8-2.1-3-2.8c-1.2-0.8-2.6-1.3-4-1.5c-0.5-0.1-1-0.1-1.5-0.1c0,0-0.1,0-0.1,0
			c0,0-0.1,0-0.1,0c-0.5,0-1,0-1.5,0.1c-1.4,0.2-2.8,0.7-4,1.5c-1.2,0.7-2.2,1.7-3,2.8c-0.8,1.2-1.4,2.5-1.7,3.9
			c-0.3,1.5-0.3,3.1,0.1,4.6c0.2,1,0.6,1.9,1.1,2.8c0.4,0.7,1,1.4,1.5,2c0.1,0.1,0.2,0.2,0.3,0.4l0,0c1.4,1.5,2.5,3.2,3.2,5.1
			c0.8,1.9,1.2,3.9,1.2,5.9c0.1,3.4-1.2,5.9-2.3,7.4c-1.2,1.6-2.3,2.5-2.7,2.7c-0.6-0.2-1.2-0.3-1.7-0.5c-1.7-0.6-3.4-1.3-5-2.2
			c2.7-1.5,4.4-4.3,4.4-7.4c0-2.1-0.8-4-2.4-5.9c0,0,0-0.1-0.1-0.1c0,0,0,0,0,0c-0.2-0.2-0.3-0.3-0.5-0.5c-0.5-0.5-0.9-1-1.3-1.5
			c-1.4-1.9-2.5-4.2-3-6.5c-0.6-2.5-0.6-5.2-0.1-7.8c0.5-2.3,1.5-4.6,2.9-6.6c1.3-1.9,3.1-3.5,5.1-4.8c2.1-1.3,4.4-2.2,6.9-2.5
			c0.8-0.1,1.7-0.2,2.5-0.2c0,0,0.1,0,0.1,0c0,0,0.1,0,0.1,0c0.8,0,1.7,0.1,2.5,0.2c2.4,0.3,4.8,1.2,6.9,2.5c2,1.2,3.7,2.9,5.1,4.8
			c1.4,2,2.4,4.2,2.9,6.6c0.5,2.5,0.5,5.2-0.1,7.8c-0.6,2.3-1.6,4.6-3,6.5c-0.4,0.5-0.8,1-1.3,1.5c-0.1,0.2-0.3,0.3-0.5,0.5
			c0,0,0,0,0,0c0,0,0,0-0.1,0.1c-1.6,1.9-2.4,3.8-2.4,5.9c0,3.1,1.7,6,4.4,7.4c-1.6,0.9-3.2,1.6-5,2.2C49.9,98,49.3,98.1,48.7,98.3"
			/>
		<path id="path3047" class="st0" d="M40.8,75.8c-3.2,0-5.9-2.6-5.9-5.9c0-3.2,2.6-5.9,5.9-5.9c3.2,0,5.9,2.6,5.9,5.9
			C46.7,73.2,44,75.8,40.8,75.8"/>
	</g>
	<g>
		<path id="path3049" class="st1" d="M94.3,72.9c0,4.1-0.4,5.2-1.3,6.2c-0.6,0.6-1.5,1-3.2,1h-6c-1.9,0-3.1-0.3-3.9-1.1
			c-1.3-1.3-1.6-2.8-1.6-8.7c0-5.9,0.4-7.4,1.6-8.7c0.8-0.8,2-1.1,3.9-1.1h6c1.8,0,2.6,0.4,3.2,1c0.9,0.9,1.3,2.3,1.3,5.9h-3.7
			c-0.1-2.5-0.2-3-0.4-3.2c-0.2-0.2-0.5-0.3-1.3-0.3h-4.5c-1.1,0-1.4,0.1-1.7,0.4c-0.4,0.4-0.5,1.1-0.5,6.1c0,5,0.2,5.7,0.5,6.1
			c0.3,0.3,0.5,0.4,1.7,0.4h4.6c0.8,0,1.2-0.1,1.4-0.3c0.3-0.3,0.4-1,0.4-3.5H94.3"/>
		<path id="path3051" class="st1" d="M100.7,68.4h8.9c0-3.3-0.2-4-0.5-4.4c-0.2-0.2-0.5-0.4-1.7-0.4h-4.5c-1.1,0-1.4,0.1-1.7,0.4
			C100.9,64.4,100.8,65.1,100.7,68.4z M100.7,71.4c0,3.9,0.3,4.6,0.5,4.9c0.3,0.3,0.5,0.4,1.7,0.4h5.1c0.8,0,1.1-0.1,1.3-0.4
			c0.3-0.3,0.3-0.7,0.4-2.4h3.7c-0.1,3.1-0.4,4.1-1.3,5.1c-0.6,0.6-1.5,1-3.2,1h-6.4c-1.9,0-3.1-0.3-3.9-1.1
			c-1.3-1.3-1.6-2.8-1.6-8.7c0-5.9,0.4-7.4,1.6-8.7c0.8-0.8,2-1.1,3.9-1.1h5.4c1.9,0,3.2,0.4,3.9,1.1c1.3,1.3,1.6,2.8,1.6,8.5v1
			c0,0.3-0.1,0.4-0.4,0.4H100.7"/>
		<path id="path3053" class="st1" d="M128.2,76.2c-0.3,0.3-0.8,0.5-2,0.5h-2.8c-1.2,0-2.2-0.3-3.6-1c-0.1,0-0.2-0.1-0.3-0.1V64.8
			c1.5-0.7,2.5-1.1,3.7-1.1h3c1.2,0,1.7,0.1,2,0.5c0.5,0.5,0.7,1.6,0.7,6C128.9,74.6,128.8,75.7,128.2,76.2z M127.1,60.3h-2.7
			c-1.6,0-2.4,0.4-4.9,2.4v-2.4h-3.8v24c1.4,0,3.8,0,3.8,0v-6.7c2.5,2,3.3,2.4,4.9,2.4h2.7c2.1,0,3.2-0.4,4-1.2
			c1.1-1.1,1.6-2.5,1.6-8.7c0-6.1-0.5-7.6-1.6-8.7C130.3,60.7,129.2,60.3,127.1,60.3"/>
		<path id="path3055" class="st1" d="M150.9,61.5c-0.7-0.7-1.7-1.1-3.4-1.1h-3.1c-1.6,0-2.4,0.4-4.9,2.4v-7.5
			c-1.2-0.6-2.4-1.1-3.8-1.4c0,0,0,0,0,0V80h3.8V64.8c0.3-0.1,0.5-0.3,0.8-0.4c1.1-0.5,1.9-0.7,2.9-0.7h2.5c1.3,0,1.6,0.1,2,0.5
			c0.4,0.4,0.5,0.9,0.5,1.9V80h3.8V65.9C152,63.2,151.6,62.2,150.9,61.5"/>
	</g>
</g>
</svg>
