<svg xmlns="http://www.w3.org/2000/svg" role="img" viewBox="8.05 37.05 146.64 64.02"><title>Ceph logo</title><style>svg {enable-background:new 0 0 160.5 220.7}</style><style>.st0{fill:#ff2745}.st1{fill:#313c47}</style><path id="path3043" d="M59.7 92.7c-2.1-1.1-3.3-2.4-3.6-3.8-.3-1.3.3-2.8 1.8-4.5 3.6-4.1 5.5-9.3 5.5-14.8 0-12.4-10.1-22.5-22.5-22.5h-.1-.1c-12.4 0-22.5 10.1-22.5 22.5 0 5.4 2 10.7 5.5 14.8 1.5 1.7 2.1 3.2 1.8 4.5-.3 1.4-1.5 2.7-3.6 3.8-3.3-2.7-6.2-6.4-8-10.1-1-2-1.7-4.1-2.2-6.2-.5-2.2-.8-4.5-.8-6.8 0-4 .8-7.9 2.3-11.6 1.5-3.5 3.6-6.7 6.4-9.4 2.7-2.7 5.9-4.9 9.4-6.4 3.7-1.6 7.6-2.3 11.6-2.3h.2c4 0 7.9.8 11.6 2.3 3.5 1.5 6.7 3.6 9.4 6.4 2.7 2.7 4.9 5.9 6.4 9.4 1.6 3.7 2.3 7.6 2.3 11.6 0 2.3-.3 4.6-.8 6.8s-1.3 4.3-2.2 6.2c-1.7 3.7-4.6 7.4-7.8 10.1" class="st0"/><path id="path3045" d="M48.7 98.3c-.3-.2-1.5-1.1-2.7-2.7-1.1-1.5-2.4-4-2.3-7.4 0-2 .5-4 1.2-5.9.8-1.9 1.8-3.6 3.2-5.1.1-.1.2-.2.3-.4.5-.6 1.1-1.2 1.5-2 .5-.9.9-1.9 1.1-2.8.4-1.5.4-3.1.1-4.6-.3-1.4-.9-2.7-1.7-3.9-.8-1.1-1.8-2.1-3-2.8-1.2-.8-2.6-1.3-4-1.5-.5-.1-1-.1-1.5-.1h-.1-.1c-.5 0-1 0-1.5.1-1.4.2-2.8.7-4 1.5-1.2.7-2.2 1.7-3 2.8-.8 1.2-1.4 2.5-1.7 3.9-.3 1.5-.3 3.1.1 4.6.2 1 .6 1.9 1.1 2.8.4.7 1 1.4 1.5 2 .1.1.2.2.3.4 1.4 1.5 2.5 3.2 3.2 5.1.8 1.9 1.2 3.9 1.2 5.9.1 3.4-1.2 5.9-2.3 7.4-1.2 1.6-2.3 2.5-2.7 2.7-.6-.2-1.2-.3-1.7-.5-1.7-.6-3.4-1.3-5-2.2 2.7-1.5 4.4-4.3 4.4-7.4 0-2.1-.8-4-2.4-5.9 0 0 0-.1-.1-.1l-.5-.5c-.5-.5-.9-1-1.3-1.5-1.4-1.9-2.5-4.2-3-6.5-.6-2.5-.6-5.2-.1-7.8.5-2.3 1.5-4.6 2.9-6.6 1.3-1.9 3.1-3.5 5.1-4.8 2.1-1.3 4.4-2.2 6.9-2.5.8-.1 1.7-.2 2.5-.2h.2c.8 0 1.7.1 2.5.2 2.4.3 4.8 1.2 6.9 2.5 2 1.2 3.7 2.9 5.1 4.8 1.4 2 2.4 4.2 2.9 6.6.5 2.5.5 5.2-.1 7.8-.6 2.3-1.6 4.6-3 6.5-.4.5-.8 1-1.3 1.5-.1.2-.3.3-.5.5l-.1.1c-1.6 1.9-2.4 3.8-2.4 5.9 0 3.1 1.7 6 4.4 7.4-1.6.9-3.2 1.6-5 2.2-.3.2-.9.3-1.5.5" class="st0"/><path id="path3047" d="M40.8 75.8c-3.2 0-5.9-2.6-5.9-5.9 0-3.2 2.6-5.9 5.9-5.9 3.2 0 5.9 2.6 5.9 5.9 0 3.3-2.7 5.9-5.9 5.9" class="st0"/><g><path id="path3049" d="M94.3 72.9c0 4.1-.4 5.2-1.3 6.2-.6.6-1.5 1-3.2 1h-6c-1.9 0-3.1-.3-3.9-1.1-1.3-1.3-1.6-2.8-1.6-8.7 0-5.9.4-7.4 1.6-8.7.8-.8 2-1.1 3.9-1.1h6c1.8 0 2.6.4 3.2 1 .9.9 1.3 2.3 1.3 5.9h-3.7c-.1-2.5-.2-3-.4-3.2-.2-.2-.5-.3-1.3-.3h-4.5c-1.1 0-1.4.1-1.7.4-.4.4-.5 1.1-.5 6.1s.2 5.7.5 6.1c.3.3.5.4 1.7.4H89c.8 0 1.2-.1 1.4-.3.3-.3.4-1 .4-3.5h3.5" class="st1"/><path id="path3051" d="M100.7 68.4h8.9c0-3.3-.2-4-.5-4.4-.2-.2-.5-.4-1.7-.4h-4.5c-1.1 0-1.4.1-1.7.4-.3.4-.4 1.1-.5 4.4zm0 3c0 3.9.3 4.6.5 4.9.3.3.5.4 1.7.4h5.1c.8 0 1.1-.1 1.3-.4.3-.3.3-.7.4-2.4h3.7c-.1 3.1-.4 4.1-1.3 5.1-.6.6-1.5 1-3.2 1h-6.4c-1.9 0-3.1-.3-3.9-1.1-1.3-1.3-1.6-2.8-1.6-8.7 0-5.9.4-7.4 1.6-8.7.8-.8 2-1.1 3.9-1.1h5.4c1.9 0 3.2.4 3.9 1.1 1.3 1.3 1.6 2.8 1.6 8.5v1c0 .3-.1.4-.4.4h-12.3" class="st1"/><path id="path3053" d="M128.2 76.2c-.3.3-.8.5-2 .5h-2.8c-1.2 0-2.2-.3-3.6-1-.1 0-.2-.1-.3-.1V64.8c1.5-.7 2.5-1.1 3.7-1.1h3c1.2 0 1.7.1 2 .5.5.5.7 1.6.7 6s-.1 5.5-.7 6zm-1.1-15.9h-2.7c-1.6 0-2.4.4-4.9 2.4v-2.4h-3.8v24h3.8v-6.7c2.5 2 3.3 2.4 4.9 2.4h2.7c2.1 0 3.2-.4 4-1.2 1.1-1.1 1.6-2.5 1.6-8.7 0-6.1-.5-7.6-1.6-8.7-.8-.7-1.9-1.1-4-1.1" class="st1"/><path id="path3055" d="M150.9 61.5c-.7-.7-1.7-1.1-3.4-1.1h-3.1c-1.6 0-2.4.4-4.9 2.4v-7.5c-1.2-.6-2.4-1.1-3.8-1.4V80h3.8V64.8c.3-.1.5-.3.8-.4 1.1-.5 1.9-.7 2.9-.7h2.5c1.3 0 1.6.1 2 .5.4.4.5.9.5 1.9V80h3.8V65.9c0-2.7-.4-3.7-1.1-4.4" class="st1"/></g></svg>