<svg xmlns="http://www.w3.org/2000/svg" role="img" viewBox="18.08 18.08 463.84 259.84"><title>Cloudify logo</title><path fill="#282561" d="M362.768 142.345c-1.079-2.487-3.704-3.804-6.262-3.358 3.92-7.707 6.193-16.921 4.918-26.772-2.643-20.417-17.777-35.732-36.367-39.876.783 4.092 1.117 8.182 1.041 12.218 3.342 1.125 6.54 2.756 9.5 4.891 8.011 5.781 13.126 14.393 14.402 24.247.99 7.644-.986 14.705-4.056 20.519-1.38-2.208-4.088-3.233-6.592-2.444-.191.058-.382.131-.571.211-2.916 1.269-4.255 4.663-2.984 7.581l5.308 12.207c.951 2.187 3.092 3.484 5.339 3.461.264-.002.525-.045.789-.087.114-.015.226-.013.339-.038.06-.011.117-.04.177-.054.316-.078.629-.166.938-.301.003-.002.006-.003.009-.004l11.089-4.82c2.914-1.27 4.253-4.663 2.983-7.581"/><path fill="#2AABE2" d="M293.743 38.05c-3.104-2.3-6.392-4.287-9.816-5.96l-4.491 6.453c-1.915 2.54-1.407 6.152 1.135 8.067 2.375 1.791 5.686 1.464 7.674-.667.137-.147.267-.303.392-.467l4.69-6.74c.163-.217.286-.454.416-.686m-35.921-10.8c-3.816-.098-7.652.144-11.457.746 0 .065-.013.127-.008.192l.845 8.167c.208 3.174 2.949 5.58 6.124 5.372 2.97-.194 5.264-2.605 5.38-5.515.009-.201.005-.403-.008-.61l-.845-8.165c-.003-.066-.023-.125-.031-.187m-30.584 21.295c-.127-.156-.263-.307-.408-.452l-6.02-5.583c-.257-.257-.536-.477-.826-.674-2.985 2.362-5.719 4.939-8.166 7.712.237.391.506.769.845 1.107l6.021 5.582c2.249 2.25 5.896 2.251 8.146.001 2.104-2.102 2.241-5.429.408-7.693"/><path fill="#282561" d="M331.373 150.212c-2.557 1.085-5.212 1.864-7.926 2.322-6.367 1.079-12.93.38-18.949-2.008-4.794-1.917-10.173-1.645-14.757.74-2.667 1.39-4.945 3.448-6.557 5.908-3.905 5.895-9.306 10.748-15.621 14.034-1.061.554-2.164 1.069-3.284 1.54-16.642 6.993-35.816 2.333-47.573-10.701-1.301.977-2.628 1.93-4.013 2.829-1.898 1.231-3.836 2.351-5.802 3.381 14.831 17.68 40.073 24.263 61.851 15.113 1.421-.596 2.803-1.245 4.142-1.943 8.345-4.342 15.06-10.574 19.906-17.893.581-.889 1.371-1.58 2.271-2.048 1.557-.811 3.446-.948 5.162-.263 7.884 3.131 16.584 4.121 25.146 2.672 4.155-.706 7.777-1.908 10.799-3.217l-4.795-10.466z"/><path fill="#2AABE2" d="M301.869 54.014c-15.896-21.093-45.448-27.438-68.596-14.718-1.353.742-2.658 1.531-3.916 2.364-7.846 5.193-13.873 12.093-17.928 19.875-.486.946-1.198 1.715-2.043 2.276-1.464.969-3.329 1.304-5.108.8-8.167-2.287-16.921-2.363-25.286-.028-5.559 1.553-10.05 3.933-13.339 6.11-1.11.734-2.083 1.446-2.913 2.094 0 0-2.272 1.68-4.792 3.907l7.707 8.564c2.103-1.841 4.092-3.324 4.197-3.409.685-.533 1.411-1.055 2.159-1.55 3.13-2.073 6.522-3.626 10.08-4.62 6.22-1.737 12.818-1.729 19.055.02 4.967 1.403 10.289.572 14.598-2.281 2.508-1.659 4.558-3.945 5.902-6.56 3.268-6.27 8.132-11.662 14.07-15.59.999-.662 2.041-1.29 3.105-1.876 18.197-10 41.347-5.033 53.85 11.558 7.121 9.445 9.947 21.029 7.958 32.619-1.991 11.604-8.495 21.574-18.311 28.071-12.099 8.008-27.251 9.226-40.594 3.229-5.557-2.458-11.906-1.92-16.982 1.44-1.768 1.17-3.295 2.63-4.543 4.346-2.483 3.419-5.523 6.328-9.033 8.651-8.239 5.454-18.078 7.205-27.703 4.927-9.614-2.274-17.635-8.271-22.585-16.89-3.84-6.681-4.718-13.961-4.104-20.506 2.12 1.511 5.014 1.424 7.024-.264.153-.127.304-.266.446-.417 2.209-2.288 2.147-5.934-.142-8.144l-9.576-9.245c-1.716-1.658-4.19-2.038-6.257-1.157-.242.103-.468.244-.698.382-.097.058-.202.098-.296.164-.051.034-.093.083-.142.119-.261.192-.519.394-.752.636-.001.002-.005.005-.006.01l-8.401 8.695c-2.21 2.287-2.147 5.935.142 8.145 1.95 1.884 4.878 2.095 7.072.705-.673 8.622.753 18.004 5.701 26.618 13.628 23.72 44.189 30.687 66.635 15.829 4.804-3.18 8.802-7.091 11.995-11.485.442-.605.979-1.114 1.582-1.51 1.73-1.146 3.985-1.391 5.965-.515 16.225 7.292 35.68 6.387 51.612-4.157 25.681-16.998 32.023-52.259 13.191-77.232"/><g><path fill="#282561" d="M442.594 266.894c0 .841.674 1.6 1.599 1.6h7.742c.843 0 1.599-.759 1.599-1.6v-26.843l19.44-28.023c.673-1.093 0-2.44-1.349-2.44h-8.667c-.673 0-1.094.421-1.348.758L448.147 229.7l-13.465-19.354c-.253-.337-.673-.758-1.347-.758h-8.583c-1.349 0-2.021 1.348-1.349 2.44l19.188 28.106v26.76h.003zm-65.299 0c0 .841.673 1.6 1.6 1.6h7.739c.842 0 1.6-.759 1.6-1.6v-21.288h20.785c.842 0 1.598-.758 1.598-1.601v-6.901c0-.842-.756-1.598-1.598-1.598h-20.785v-15.821h24.908c.926 0 1.599-.756 1.599-1.599v-6.9c0-.841-.673-1.599-1.599-1.599h-34.247c-.927 0-1.6.758-1.6 1.599v55.708zm-31.387 0c0 .841.756 1.6 1.599 1.6h7.826c.841 0 1.6-.759 1.6-1.6v-55.708c0-.841-.759-1.599-1.6-1.599h-7.826c-.843 0-1.599.758-1.599 1.599v55.708zm-56.296-8.666V219.77h9.593c10.94 0 18.935 8.247 18.935 19.188 0 11.022-7.994 19.271-18.935 19.271h-9.593zm-10.854 8.666c0 .841.673 1.6 1.514 1.6h19.944c16.24 0 29.536-13.211 29.536-29.536 0-16.157-13.296-29.37-29.536-29.37h-19.944c-.841 0-1.514.758-1.514 1.599v55.707zm-66.396-20.702c0 12.792 10.183 23.142 23.394 23.142 13.296 0 23.478-10.35 23.478-23.142v-35.007c0-.841-.757-1.599-1.599-1.599h-7.994c-.926 0-1.599.758-1.599 1.599v34.504c0 7.066-4.964 12.705-12.287 12.705-7.321 0-12.202-5.639-12.202-12.789v-34.42c0-.841-.672-1.599-1.599-1.599h-7.994c-.841 0-1.6.758-1.6 1.599v35.007h.002zm-64.793-7.068c0-10.603 8.667-19.439 19.27-19.439 10.602 0 19.354 8.837 19.354 19.439 0 10.604-8.752 19.271-19.354 19.271-10.604 0-19.27-8.666-19.27-19.271m-10.94 0c0 16.83 13.381 30.21 30.21 30.21s30.294-13.38 30.294-30.21c0-16.828-13.466-30.378-30.294-30.378-16.83 0-30.21 13.55-30.21 30.378m-42.748 27.77c0 .841.674 1.6 1.6 1.6h30.798c.926 0 1.6-.759 1.6-1.6v-6.899c0-.842-.674-1.6-1.6-1.6h-21.457v-47.209c0-.841-.757-1.599-1.598-1.599H95.48c-.926 0-1.599.758-1.599 1.599v55.708zm-66.9-27.77c0 16.83 13.548 30.21 30.379 30.21 7.49 0 14.727-2.608 20.449-8.162.588-.589.757-1.684.083-2.271l-5.217-5.387c-.504-.503-1.43-.59-2.103 0-3.535 2.861-7.826 4.796-12.876 4.796-10.771 0-18.849-8.918-18.849-19.438 0-10.603 7.995-19.606 18.766-19.606 4.712 0 9.424 1.852 12.959 4.965.673.673 1.515.673 2.103 0l5.134-5.301c.673-.674.673-1.684-.085-2.356-5.723-5.133-11.865-7.826-20.364-7.826-16.831-.002-30.379 13.548-30.379 30.376"/></g></svg>