<svg xmlns="http://www.w3.org/2000/svg" role="img" viewBox="-12.73 -12.23 635.96 141.96"><title>DCache logo</title><defs><style>.a{fill:#0048dc}</style></defs><path d="M611.2 67.3v-6.2c0-16.9-14.8-30.6-32.9-30.6h-18.9c-18.1 0-32.9 13.7-32.9 30.6v25.1c0 16.8 14.8 30.5 32.9 30.5h43.5a2.9 2.9 0 0 0 3.1-2.7V99.5a2.9 2.9 0 0 0-3.1-2.7h-43.5c-5.4 0-10-4.9-10-10.6v-3.3h58.7a2.9 2.9 0 0 0 3.1-2.7V67.3zm-22.9-.7h-38.9v-5.5c0-5.8 4.6-10.7 10-10.7h18.9c5.4 0 10 4.9 10 10.7zM212.4 0H186c-30.7 0-55.7 27.6-55.7 58.3a61.7 61.7 0 0 0 16.3 41.2c10.1 11 24.1 18.1 39.4 18.1h26.4a2.2 2.2 0 0 0 2.2-2.2V97.8a2.2 2.2 0 0 0-2.2-2.2H186c-18.6 0-33.7-18.7-33.7-37.3s15-36.2 34-36.2h26.2a2.3 2.3 0 0 0 2.1-2.2V2.2a2.2 2.2 0 0 0-2.2-2.2zm2.5 114.5zM285 29.8h-38.6a3 3 0 0 0-3.2 2.8v14.8a3 3 0 0 0 3.2 2.7H285c5.5 0 10.2 5 10.2 10.9v6h-29.5c-17.3 0-31.5 9.1-31.5 25.3 0 17.8 14 25.3 31.5 25.3h52.9V61c0-17.2-15.1-31.2-33.6-31.2zm10.2 56.8v14.6h-29.5a8.9 8.9 0 1 1 0-17.8h29.5zm109-56.7h-23.1c-21 0-43.2 15.6-43.2 44.5s25.8 43.2 43.2 43.2h23.1a2.1 2.1 0 0 0 2.2-2V99.1a2.1 2.1 0 0 0-2.2-2h-23.1c-6.6 0-21.2-5.7-21.2-22.7 0-9.6 5.7-24 21.2-24h23.1a2.1 2.1 0 0 0 2.2-2V31.9a2.1 2.1 0 0 0-2.2-2zm68.4-1h-22.3V2.2a2.2 2.2 0 0 0-2.2-2.2h-19.9a2.2 2.2 0 0 0-2.2 2.2v113.2a2.2 2.2 0 0 0 2.2 2.2h19.9a2.2 2.2 0 0 0 2.2-2.2V50.6h22.3c5.5 0 10.2 5.4 10.2 11.7v53.2a2.1 2.1 0 0 0 2.2 2.1h19.1a2.1 2.1 0 0 0 2.2-2.1V66.7c0-29.1-15.2-37.8-33.7-37.8zM50.2 0h-2.1a2.2 2.2 0 0 0-2.2 2.2v17.7a2.2 2.2 0 0 0 2.2 2.2h2.2c21.7 0 39.1 17.7 37.6 39.3a36.7 36.7 0 0 1-36.6 34.2H10.7a2.2 2.2 0 0 0-2.2 2.2v17.6a2.2 2.2 0 0 0 2.2 2.2h40.6A58.8 58.8 0 0 0 110 56.8C108.9 25 82.1 0 50.2 0z" class="a"/><rect width="20.6" height="20.58" x="30.8" y="35.9" class="a" rx="3" ry="3"/><rect width="29.4" height="29.4" y=".1" class="a" rx="3" ry="3"/><rect width="20.6" height="20.58" x="8.8" y="62.4" class="a" rx="3" ry="3"/></svg>