<?xml version="1.0" encoding="utf-8"?>
<!-- Generator: Adobe Illustrator 22.1.0, SVG Export Plug-In . SVG Version: 6.00 Build 0)  -->
<svg version="1.1" id="图层_1" xmlns="http://www.w3.org/2000/svg" xmlns:xlink="http://www.w3.org/1999/xlink" x="0px" y="0px"
	 viewBox="0 0 320 45" style="enable-background:new 0 0 320 45;" xml:space="preserve">
<style type="text/css">
	.st0{fill:#1649DC;}
</style>
<g>
	<g>
		<path class="st0" d="M37,32.7v-32l27,0c0,0,4.2-0.1,7.4,2.4c3.2,2.5,3.5,6.7,3.5,6.7l0,21c0,0,0,2.1-2.4,4.1
			c-2.4,2-5.7,2.6-9.9,2.9s-12.9,1.1-20.4,1.8c-7.5,0.7-11.7,1.2-19.4,2S12.7,42.8,8,43.4s-8,1.2-8,1.2s14.4-4.2,26.2-6.6
			c9.9-2,14.2-2.5,20.8-3.6c6.3-1.1,18.1-2.6,18.1-2.6s1.5-0.5,2.3-1.5c0.8-1.1,0.7-2.7,0.7-2.7L68,11.7c0,0,0.2-1.8-1.4-3.2
			c-1.5-1.3-3.1-1.4-3.1-1.4H44l-0.1,24.6L37,32.7z"/>
	</g>
	<g>
		<path class="st0" d="M115.9,0.7l-26,0c0,0-3.7-0.1-6.1,1.9C81.2,4.8,81,7.8,81,7.8l0,17.9c0,0,0,3.2,2.5,5.4
			c2.5,2.3,5.6,2.6,5.6,2.6h26.9l0-6l-22.9,0c0,0-2.2-0.1-3.5-1.2c-1.4-1.2-1.6-3.4-1.6-3.4l0-12.4c0,0,0.2-1.9,1.3-2.9
			C90.4,6.7,92,6.6,92,6.6h23.9L115.9,0.7z"/>
	</g>
	<g>
		<polygon class="st0" points="118,34.6 126,34.6 141.2,6.6 156.1,33.6 164,33.6 145.2,0.6 137,0.7 		"/>
	</g>
	<g>
		<rect x="138" y="26.6" class="st0" width="7" height="7"/>
	</g>
	<g>
		<path class="st0" d="M200.9,0.7l-26,0c0,0-3.7-0.1-6.1,1.9c-2.7,2.3-2.9,5.2-2.9,5.2l0,17.9c0,0,0,3.2,2.5,5.4
			c2.5,2.3,5.6,2.6,5.6,2.6h26.9l0-6l-22.9,0c0,0-2.2-0.1-3.5-1.2c-1.4-1.2-1.6-3.4-1.6-3.4l0-12.4c0,0,0.2-1.9,1.3-2.9
			c1.1-1.1,2.7-1.1,2.7-1.1h23.9L200.9,0.7z"/>
	</g>
	<g>
		<polygon class="st0" points="206,0.7 213,0.7 213,13.7 235,13.7 235,0.7 242.1,0.7 242,35.6 235,35.6 235.1,19.6 213,19.7 
			213,34.6 206,34.6 		"/>
	</g>
	<g>
		<path class="st0" d="M256.4,37c0,0-3.1-0.2-5.6-2.5c-2.5-2.3-2.6-5.8-2.6-5.8l0-20.9c0,0,0.2-2.9,2.9-5.2c2.3-1.9,6.1-1.9,6.1-1.9
			l26,0l0,5.9h-23.9c0,0-1.6,0-2.7,1.1c-1.1,1-1.3,2.9-1.3,2.9l0,3l27.9,0.1v5.8l-27.9,0l0,7.5c0,0,0.1,2.3,1.6,3.4
			c0,0,1.5,1.5,4.3,2.1c2.8,0.6,19,2.8,23.3,3.6s13.7,2.6,20.7,4.2s15,3.8,15,3.8s-26.7-3.4-35.7-4.5C275.3,38.7,256.4,37,256.4,37z
			"/>
	</g>
</g>
</svg>
