<svg id="Layer_1" data-name="Layer 1" xmlns="http://www.w3.org/2000/svg" viewBox="0 0 1000 111.7"><defs><style>.cls-1{fill:#3d1152;}.cls-2,.cls-3{fill:#922c48;}.cls-3{fill-rule:evenodd;}</style></defs><title>edgexfoundry-horizontal-color</title><polygon class="cls-1" points="403.5 2.7 425.3 2.7 378.1 64.7 405.1 100 397.3 100 370.5 64.7 413.4 8.2 406.9 8.2 330.2 108.9 308.7 109.1 349.4 55.1 309.6 2.7 317.4 2.7 357.2 55 320.6 103.5 326.8 103.5 403.5 2.7"/><path class="cls-1" d="M37.9,93c-1.2,2.4-3,6.1-3.5,6.9-.8,1.2-2.4,2.5-5.9,2.5H4.3V11.9A3.18964,3.18964,0,0,1,7.6,9.2H35.9l-3.6,6.9c-.6,1.2-2.3,2.7-5.8,2.7H17.7a2.34717,2.34717,0,0,0-2.6,2.3V48.8H31.4c-1.2,2.4-3,6.3-3.5,7.1-.8,1.2-2.3,2.5-5.8,2.5H17.6A2.53686,2.53686,0,0,0,15,60.7V93Z"/><path class="cls-1" d="M99.8,9.3c7.4,0,13.3,5.2,13.5,11.7V90.8c-.2,6.5-6.1,11.7-13.5,11.7h-21V9.3Zm2.7,14.3c0-3.5-2.7-4.8-5.8-4.8H89.6V93h7.1c3,0,5.8-1.3,5.8-4.9Z"/><path class="cls-1" d="M192.1,34.7c0,3.2-1.5,4.5-3,5.2-.8.4-5,2.1-7.9,3.2V21.8c0-2.8-2.6-5.1-5.8-5.1s-5.8,2.3-5.8,5.1V90c0,2.8,2.6,5.1,5.8,5.1s5.8-2.3,5.8-5.1V62.1h-.5c-2.4,0-3.9-3.1-3.9-3.1l-3.6-6.7h13.6c3.3,0,5.3,1.6,5.3,5.2v34c0,6.4-5.9,11.6-13.2,11.9h-6.7c-7.4,0-13.5-5.3-13.5-11.9V20.2c0-6.5,6.1-11.9,13.5-11.9h6.7c7.3.3,13.2,5.5,13.2,11.9V34.7Z"/><path class="cls-1" d="M276.3,93c-1.2,2.4-3,6.1-3.5,6.9-.8,1.2-2.4,2.5-5.9,2.5H242.7V11.9A3.18964,3.18964,0,0,1,246,9.2h28.3l-3.6,6.9c-.6,1.2-2.3,2.7-5.8,2.7h-8.8a2.34718,2.34718,0,0,0-2.6,2.3V48.8H270c-1.2,2.4-3,6.3-3.5,7.1-.8,1.2-2.3,2.5-5.8,2.5h-4.5a2.53687,2.53687,0,0,0-2.6,2.3V93Z"/><polygon class="cls-2" points="367.5 31.4 389.2 2.6 396.9 2.6 360.4 50.7 323 2.6 345.4 2.6 364.2 27.2 360.4 32.4 341.8 8 334.9 8 360.4 40.7 367.3 31.7 367.5 31.4"/><polygon class="cls-2" points="388.8 60 389.4 60.8 426.2 108.9 390.1 108.9 367.1 79.3 344.3 108.9 336.5 108.9 366.9 69.3 393.7 103.5 414.3 103.5 384.8 65.2 388.8 60"/><path class="cls-2" d="M494.8,9.1c-1.1,2.4-3,6.2-3.5,7-.8,1.2-2.3,2.7-5.8,2.7H473.3a2.53687,2.53687,0,0,0-2.6,2.3V50.3h19.5l-3.6,7c-.8,1.2-2.3,2.7-5.8,2.7h-7.3a2.4359,2.4359,0,0,0-2.7,2.3v37.8a3.02645,3.02645,0,0,1-3.2,2.8H460v-91a3.03036,3.03036,0,0,1,3.2-2.8Z"/><path class="cls-2" d="M557,8.1c7.3.3,13.2,5.5,13.2,11.9V91.8c-.2,6.4-5.9,11.5-13.2,11.8h-8.4c-7.4,0-13.5-5.3-13.7-11.8V20c0-6.6,6.1-11.9,13.7-11.9Zm-3.7,87.1c3.2,0,5.8-2.3,5.8-5.2V21.8c0-2.9-2.6-5.2-5.8-5.2h-1.7c-3.2.1-5.8,2.4-5.8,5.2V90c0,2.8,2.6,5.1,5.8,5.2Z"/><path class="cls-2" d="M649.8,91.7c0,6.4-5.9,11.2-13.1,11.4v.1h-8.4c-7.4,0-13.5-4.9-13.5-11.5v-80A3.15865,3.15865,0,0,1,618,9h7.8V90a5.3114,5.3114,0,0,0,5.6,5.1h1.7c3.2,0,5.8-2.3,5.8-5.1V9.1h10.9Z"/><path class="cls-2" d="M729.6,102.7h-5c-5.9,0-6.8-4.1-7.3-6L705.6,50.4v52.3h-10.9V9.1h5c6.1,0,7.1,2.5,7.8,5.2L718.7,63V9.1h10.9v93.6Z"/><path class="cls-2" d="M795.7,9.1c7.4,0,13.4,5.2,13.5,11.8V91c-.2,6.6-6.1,11.8-13.5,11.8H774.6V9.1Zm2.8,14.4c0-3.5-2.7-4.8-5.8-4.8h-7.1V93.2h7.1c3,0,5.8-1.3,5.8-4.9Z"/><path class="cls-2" d="M953.2,63.8v38.9h-7.8a3.16017,3.16017,0,0,1-3.2-2.8V63.8l-13-54.7h8.1a3.54976,3.54976,0,0,1,3.5,3.2l7,35.4,7-35.4a3.54976,3.54976,0,0,1,3.5-3.2h8.1Z"/><path class="cls-2" d="M877.2,102.7V68.4c0-4.5-2.7-6-5.6-6h-5.8v40.3H854.9V9.1h19.9c7.3,0,13.4,5.2,13.4,11.8V49.8c0,2.7-4.1,7.4-8.5,8.3,4.3,1.9,8.5,6,8.5,8.8v35.8Zm-5.6-49.4c2.9,0,5.6-1.1,5.6-5.3V22.8c0-3.5-2.7-4.8-5.6-4.8h-5.8V53.3Z"/><path class="cls-3" d="M981.5,8.8h-9.1v1.6h3.5v9.2h2.2V10.4h3.5V8.8Zm5.3,0h-3V19.6h2V10.7l3.5,8.9h1.1l3.3-8.9v8.9h2V8.8h-3l-2.8,7.7Z"/></svg>