<svg xmlns="http://www.w3.org/2000/svg" role="img" viewBox="-15.82 -17.82 1030.64 145.64"><title>EdgeX Foundry logo</title><path fill="#3d1152" d="M403.5 2.7h21.8l-47.2 62 27 35.3h-7.8l-26.8-35.3 42.9-56.5h-6.5l-76.7 100.7-21.5.2 40.7-54-39.8-52.4h7.8L357.2 55l-36.6 48.5h6.2L403.5 2.7zM37.9 93c-1.2 2.4-3 6.1-3.5 6.9-.8 1.2-2.4 2.5-5.9 2.5H4.3V11.9a3.18964 3.18964 0 0 1 3.3-2.7h28.3l-3.6 6.9c-.6 1.2-2.3 2.7-5.8 2.7h-8.8a2.34717 2.34717 0 0 0-2.6 2.3v27.7h16.3c-1.2 2.4-3 6.3-3.5 7.1-.8 1.2-2.3 2.5-5.8 2.5h-4.5a2.53686 2.53686 0 0 0-2.6 2.3V93zM99.8 9.3c7.4 0 13.3 5.2 13.5 11.7v69.8c-.2 6.5-6.1 11.7-13.5 11.7h-21V9.3zm2.7 14.3c0-3.5-2.7-4.8-5.8-4.8h-7.1V93h7.1c3 0 5.8-1.3 5.8-4.9zm89.6 11.1c0 3.2-1.5 4.5-3 5.2-.8.4-5 2.1-7.9 3.2V21.8c0-2.8-2.6-5.1-5.8-5.1s-5.8 2.3-5.8 5.1V90c0 2.8 2.6 5.1 5.8 5.1s5.8-2.3 5.8-5.1V62.1h-.5c-2.4 0-3.9-3.1-3.9-3.1l-3.6-6.7h13.6c3.3 0 5.3 1.6 5.3 5.2v34c0 6.4-5.9 11.6-13.2 11.9h-6.7c-7.4 0-13.5-5.3-13.5-11.9V20.2c0-6.5 6.1-11.9 13.5-11.9h6.7c7.3.3 13.2 5.5 13.2 11.9v14.5zM276.3 93c-1.2 2.4-3 6.1-3.5 6.9-.8 1.2-2.4 2.5-5.9 2.5h-24.2V11.9a3.18964 3.18964 0 0 1 3.3-2.7h28.3l-3.6 6.9c-.6 1.2-2.3 2.7-5.8 2.7h-8.8a2.34718 2.34718 0 0 0-2.6 2.3v27.7H270c-1.2 2.4-3 6.3-3.5 7.1-.8 1.2-2.3 2.5-5.8 2.5h-4.5a2.53687 2.53687 0 0 0-2.6 2.3V93z"/><path fill="#922c48" d="M367.5 31.4l21.7-28.8h7.7l-36.5 48.1L323 2.6h22.4l18.8 24.6-3.8 5.2L341.8 8h-6.9l25.5 32.7 6.9-9 .2-.3zM388.8 60l.6.8 36.8 48.1h-36.1l-23-29.6-22.8 29.6h-7.8l30.4-39.6 26.8 34.2h20.6l-29.5-38.3 4-5.2zm106-50.9c-1.1 2.4-3 6.2-3.5 7-.8 1.2-2.3 2.7-5.8 2.7h-12.2a2.53687 2.53687 0 0 0-2.6 2.3v29.2h19.5l-3.6 7c-.8 1.2-2.3 2.7-5.8 2.7h-7.3a2.4359 2.4359 0 0 0-2.7 2.3v37.8a3.02645 3.02645 0 0 1-3.2 2.8H460v-91a3.03036 3.03036 0 0 1 3.2-2.8zm62.2-1c7.3.3 13.2 5.5 13.2 11.9v71.8c-.2 6.4-5.9 11.5-13.2 11.8h-8.4c-7.4 0-13.5-5.3-13.7-11.8V20c0-6.6 6.1-11.9 13.7-11.9zm-3.7 87.1c3.2 0 5.8-2.3 5.8-5.2V21.8c0-2.9-2.6-5.2-5.8-5.2h-1.7c-3.2.1-5.8 2.4-5.8 5.2V90c0 2.8 2.6 5.1 5.8 5.2zm96.5-3.5c0 6.4-5.9 11.2-13.1 11.4v.1h-8.4c-7.4 0-13.5-4.9-13.5-11.5v-80A3.15865 3.15865 0 0 1 618 9h7.8v81a5.3114 5.3114 0 0 0 5.6 5.1h1.7c3.2 0 5.8-2.3 5.8-5.1V9.1h10.9zm79.8 11h-5c-5.9 0-6.8-4.1-7.3-6l-11.7-46.3v52.3h-10.9V9.1h5c6.1 0 7.1 2.5 7.8 5.2L718.7 63V9.1h10.9v93.6zm66.1-93.6c7.4 0 13.4 5.2 13.5 11.8V91c-.2 6.6-6.1 11.8-13.5 11.8h-21.1V9.1zm2.8 14.4c0-3.5-2.7-4.8-5.8-4.8h-7.1v74.5h7.1c3 0 5.8-1.3 5.8-4.9zm154.7 40.3v38.9h-7.8a3.16017 3.16017 0 0 1-3.2-2.8V63.8l-13-54.7h8.1a3.54976 3.54976 0 0 1 3.5 3.2l7 35.4 7-35.4a3.54976 3.54976 0 0 1 3.5-3.2h8.1zm-76 38.9V68.4c0-4.5-2.7-6-5.6-6h-5.8v40.3h-10.9V9.1h19.9c7.3 0 13.4 5.2 13.4 11.8v28.9c0 2.7-4.1 7.4-8.5 8.3 4.3 1.9 8.5 6 8.5 8.8v35.8zm-5.6-49.4c2.9 0 5.6-1.1 5.6-5.3V22.8c0-3.5-2.7-4.8-5.6-4.8h-5.8v35.3z"/><path fill="#922c48" fill-rule="evenodd" d="M981.5 8.8h-9.1v1.6h3.5v9.2h2.2v-9.2h3.5V8.8zm5.3 0h-3v10.8h2v-8.9l3.5 8.9h1.1l3.3-8.9v8.9h2V8.8h-3l-2.8 7.7z"/></svg>