<svg xmlns="http://www.w3.org/2000/svg" role="img" viewBox="-15.32 -15.32 796.64 205.14"><title>Eolink logo</title><defs><style>.cls-1{fill:#2057ca}.cls-5{fill:#124dc7}.cls-6{fill:#104cc6}.cls-11{fill:#fefefe}</style></defs><g id="图层_2" data-name="图层 2"><g id="图层_1-2" data-name="图层 1"><path d="M51.76 173.87c-7.56-1.43-13-6-16.72-12.37-10.6-18.5-20.94-37.1-31.32-55.7-5.24-9.39-4.84-18.72.53-28 10.1-17.43 20.07-34.93 30.2-52.34 4.27-7.35 10.09-12.75 19.08-13.61 1.63 1.29 3.53.63 5.28.63q32.16.09 64.31 0c-22.75 0-45.49 0-68.24-.06a2.4 2.4 0 0 1-1.32-.6c1.61-1.29 3.52-.78 5.3-.78h61.45c11 0 19.15 4.75 24.62 14.2 10.4 18 20.83 36 31.14 54.05 4.73 8.28 5 16.94.43 25.28q-15.92 28.85-32.38 57.43a23.39 23.39 0 0 1-16.41 11.94c-25.32.06-50.64.06-75.95-.07z" class="cls-1"/><path d="M277 100c-12.33 0-24.66.12-37-.08-3.53-.06-3.77 1.1-2.93 4 4 13.84 18.77 21.82 34.82 18.64a30.86 30.86 0 0 0 14.76-6.87c2.18-1.93 3.85-2.31 6.51-.9 4.83 2.58 9.85 4.85 14.91 7 2.77 1.17 2.95 2.16 1.07 4.53-9.86 12.43-22.93 18.44-38.47 19.35-22.93 1.36-41.67-6.07-53.22-27-13.32-24.18-4.91-57 18.07-71.55 23.16-14.7 56.68-8.53 72.55 13.42 8 11 10.31 23.55 10 36.86-.08 3-1.74 2.6-3.59 2.6q-18.79-.07-37.48 0z"/><path d="M691.64 3c2.24 1.19 1.05 3.27 1.06 4.87.09 23.12.06 46.25.06 69.37v6c5.89-6.52 11-12.12 16-17.74 6.23-6.93 12.47-13.85 18.65-20.82 1.48-1.66 2.89-2.91 5.42-2.87 9.3.16 18.6.07 27.94.07.25 2-1.35 2.72-2.27 3.75-12.42 13.88-24.81 27.8-37.42 41.51-2.39 2.61-2 4 .2 6.31 15 16 29.78 32.24 44.65 48.39-6.23 1.41-12.55.24-18.81.6-3.82.22-7.65-.34-11.46.3-9.62-9.19-18.15-19.4-27.27-29.06-5-5.27-9.88-10.64-15.65-16.87 0 14.57 0 28-.07 41.33 0 1.61 1.17 3.68-1 4.91-8-1.16-16-.63-24-.28-1.17-2-.44-4.17-.44-6.23q-.09-63.25 0-126.51c0-2 .17-4 .25-5.95 6.08-1.2 12.23-.2 18.33-.56 1.93-.11 3.97.57 5.83-.52z" class="cls-1"/><path d="M440 92.14a53.23 53.23 0 0 1-106.43 2.16c-1-32.82 26.69-55.07 51.55-55 30.71.03 54.64 22.87 54.88 52.84z"/><path d="M553.64 42.09c6.64-.07 13.28 0 19.9-.28 3.48-.17 4.86.89 4.39 4.4a48.47 48.47 0 0 0 0 5.64c7.93-5.76 15.2-11.33 24.73-11.9a78.08 78.08 0 0 0 11 0 30.79 30.79 0 0 1 28 29c-.13 23.59.06 47.18-.1 70.77-.11 2.55-1.86 2.71-3.83 2.7-5.31 0-10.62-.13-15.92 0-2.83.09-3.73-.93-3.71-3.73.1-16.49 0-33 .06-49.48-.28.62 0 1.49-.67 2-.54-4.76-.74-9.58-1.67-14.27-2.8-14.2-17.74-19.06-28.63-9.38-5.35 4.76-8 11-8.61 18-1.33 14.28-.45 28.59-.7 42.89q-.12 6.72-.23 13.45c-7.26 1.07-14.58.2-21.86.5-1.91.07-2.77-.74-2.64-2.65.05-.66 0-1.33 0-2V45.92c.03-1.24-.28-2.61.49-3.83zM458.7 142.86c-1.37-1-.7-2.45-.71-3.68V6.84c0-1.23-.66-2.68.72-3.68 8 .51 16 .86 24-.17 1.92.9 1 2.64 1 3.94q.09 66.07 0 132.15c0 1.32.91 3-1 4-8-1.15-16.01-.77-24.01-.22zm45.96.14c-1.71-1-.83-2.71-.84-4-.05-30.76 0-61.51-.11-92.27 0-3.51.55-5.09 4.54-4.85 6 .37 12 .14 18 .07 2 0 3.42.12 3.41 2.85q-.11 48.38 0 96.76a1.41 1.41 0 0 1-.91 1.55 111.4 111.4 0 0 0-24.09-.11zm6.96-110.9c-7.87-2.86-12-9.52-11-17.88A16.42 16.42 0 0 1 515.2.06a16.65 16.65 0 0 1 17 11.25c2.54 7.83-.33 15.25-7.58 19.61-4.23 1.53-8.62.91-13 1.18z" class="cls-1"/><path fill="#1d54c9" d="M51.76 173.87c1.18-1.32 2.75-.9 4.2-.9h67.56c1.44 0 3-.42 4.19.92a16.46 16.46 0 0 1-6.85 1H58.09a15.33 15.33 0 0 1-6.33-1.02z"/><path fill="#1a52c9" d="M640.64 140V74.67c0-1.9-.77-4 1-5.65a14.05 14.05 0 0 1 .79 5.89v64.93c0 1.06.61 2.38-.81 3.1-1.01-.77.01-2.21-.98-2.94z"/><path fill="#134dc7" d="M553.64 42.09c0 31.47.1 63-.09 94.43 0 4.49 1.25 5.79 5.63 5.53 6.14-.36 12.32-.09 18.48-.09-.26 1.76-1.67 1.31-2.72 1.32-6.5 0-13-.08-19.48.06-2.41.06-3.08-.74-3.08-3.11q.11-47.92.06-95.85c0-.93-.25-2.09 1.2-2.29z"/><path d="M640.64 140c1.15.71.94 1.87 1 2.94-7.28.87-14.6.11-21.89.41-2.58.11-2.48-1.44-2.47-3.19q.13-24.43.23-48.87l.42-6.26h.72v49.69c0 7.23 0 7.23 7.18 7.23h11c1.52-.02 3.45.48 3.81-1.95z" class="cls-5"/><path d="M735.68 142.74c5.53-1.65 11.19-.48 16.79-.74 4.48-.21 9-.12 13.48-.16 1 1 .39 1.44-.56 1.41-9.9-.25-19.83.75-29.71-.51z" class="cls-6"/><path fill="#124ec7" d="M691.64 3c-3.47 2.19-7.3.74-10.95 1-4.39.28-8.82.1-13.23.12-.13-1.62 1.11-1.32 2-1.31 7.38.01 14.78.1 22.18.19z"/><path d="M667.69 142.77c8-1.13 16-1.69 24 .28-8.02.25-16.02.74-24-.28zm-163.03.23a57.82 57.82 0 0 1 24 .06 186.76 186.76 0 0 1-24-.06z" class="cls-6"/><path fill="#1650c8" d="M511.62 32.1c4.19-2 8.65-1 13-1.18-4.11 2.77-8.47 2.89-13 1.18z"/><path d="M458.7 142.86c8-1.32 16-1.74 24 .19-8.01.28-16.01.65-24-.19z" class="cls-6"/><path fill="#134ec7" d="M482.67 3c-8 1.84-16 1.45-24 .17 8.03-.8 16.02-.45 24-.17z"/><path fill="#0f4bc7" d="M613.65 40a12.7 12.7 0 0 1-11 0 22.5 22.5 0 0 1 11 0z"/><path d="M52.64 150.2c-8.89-14-16.16-29-24.51-43.31-9-15.54-7.67-13 .58-28.9.58-2.16.86-4.49 3.17-5.68A15 15 0 0 0 34.83 67a1.68 1.68 0 0 1 1-1.82 26.19 26.19 0 0 0 4-7.17 1.62 1.62 0 0 1 1-1.81C45.07 50.5 47.4 43.62 52 38.12c.34-1.55 1.39-2 2.86-1.91l3.1-1.1c6.4-1.28 12.87-.47 19.3-.51 4.77 0 9.59-.8 14.32.5 1.2.55 2.44 1 3.6 1.64a12.39 12.39 0 0 1 6.48 13.83c-1.09 5-6.45 9.38-11.92 9.5-5.81.13-11.62 0-17.43.08-1.56 0-3.33-.75-4.69.72a115.13 115.13 0 0 0-10.18 17.9l.23.39-.32-.32c-1.85 2.8.69 2.06 1.81 2.08 6.46.07 12.92 0 19.37 0 9.61 0 19.22.23 28.81-.08 7.25-.23 12.4 2.29 15.12 9.18 1.31 1.9 1 3.85.2 5.83-.37 1-.73 2-1.1 3-1.42 5-5.31 6.87-10 7.5-7.25 1-14.55.51-21.83.54-9.1 0-18.2.17-27.3-.46-1.71-.11-3.74-.61-4.83 1.52a24.15 24.15 0 0 0 4 7.19 1.6 1.6 0 0 1 1 1.82c1.37 2.65 2.83 5.25 4.07 8 1 2.27 2.52 3.11 5 3 5-.21 10 .16 15-.12 6.51-.37 11.55 1.87 14.18 7.87s.23 11-4.35 15.12c-2.38 2.43-5.37 3.09-8.63 3.09H62.49c-3.71.02-7.19-.79-9.85-3.72z" class="cls-11"/><path fill="#fdfdfe" d="M133.41 38.18c5.12 6.57 5.52 12.5 1.19 17.56-4.07 4.76-10.21 5.69-16.26 2.47-5.21-2.77-7.28-10.36-4.28-16.07a36 36 0 0 1 2.84-4 11 11 0 0 1 16.51.04zM157.59 96c-.58 1.35-1.17 2.7-1.75 4.06a4.38 4.38 0 0 1-4.09 4.08c-9.66 3.56-18-.46-19-9.12a12.42 12.42 0 0 1 23.71-6.6c.42.9.81 1.8 1.21 2.7a4.75 4.75 0 0 1-.08 4.88zm-38.9 33.85c5.5-2.68 10.81-2.89 15.61 1.45 4.55 4.12 5 9.81 1.56 16.69.07 2.26-2 2.72-3.24 3.91-3.09 1.45-6.14 3.31-9.59.91-9.55-4.56-11.72-10.34-7.48-19.89a3 3 0 0 1 3.14-3.07z"/><path fill="#1c55c8" d="M57.63 108c-2.19-2.68.29-2.14 1.58-2.16 4.82-.06 9.65 0 14.47 0 11.15 0 22.3-.19 33.44.07 6.2.15 11-1.75 14.44-7 .41 3.24-3.54 7.59-7.68 8a244.4 244.4 0 0 1-48 .17c-2.75-.28-5.65-.61-8.25.92z"/><path fill="#1b54c8" d="M52.64 150.2c4 2.3 8.31 2.84 12.88 2.71 7-.18 14-.15 20.92 0a21.29 21.29 0 0 0 10.11-2c-.24 3.51-3.5 3.58-5.43 3.65-11.49.43-23 1.46-34.46-.6-1.94-.39-4.22-.87-4.02-3.76z"/><path fill="#104ac6" d="M53.56 11.87h71.29c-1.31 1.71-2.61 1.12-3.71 1.12q-31.23.06-62.47 0c-1.76 0-3.72.56-5.14-1.13z"/><path fill="#0344c3" d="M57.44 78.77h54.22V80H62.53c-1.78 0-3.71.46-5.18-1.1z"/><path fill="#114bc8" d="M91.55 35.1H57.93c-.34-.29-2.07-.93-.37-1C69 33.89 80.45 34 91.9 34c.24 0 .48.24.72.37z"/><path fill="#1852c9" d="M133.41 38.18c-5.49-3.41-11-4.11-16.51-.09-.14-.41-.52-1-.37-1.19 3.31-4.1 13.73-4.26 17.21-.3.55.62.35 1.18-.33 1.58z"/><path fill="#023fc3" d="M67.59 60.87h23.85c-8 .41-16 2.53-23.86 0z"/><ellipse cx="80.26" cy="126.5" fill="#0d49c6" rx="14.67" ry=".32"/><path fill="#1651c8" d="M123 152.81a15.78 15.78 0 0 0 9.68-1.9 1.4 1.4 0 0 1 0 2.05c-3.38 1.53-6.88 3.09-10.44.94-1.56-.98.54-.69.76-1.09z"/><path fill="#1c54ca" d="M31.88 72.31L28.71 78c-.71-2.89-.12-5 3.17-5.69z"/><path fill="#1b55c9" d="M132.73 153v-2.05l3.15-2.92c1.22 3.06-1.71 3.53-3.15 4.97z"/><path d="M151.75 104.1l4.09-4.08c.39 3.12-.96 4.49-4.09 4.08z" class="cls-5"/><path fill="#104cc5" d="M118.69 129.85l-3.14 3.07c-.3-2.87.34-3.49 3.14-3.07z"/><path fill="#154fc8" d="M112.37 144.08c-.82-2.77-.76-4.33 0-5.92z"/><path fill="#124cc7" d="M131.27 97.13c-.66-2.95-.74-4.5-.08-6.59.73 2.1.6 3.71.08 6.59z"/><path fill="#144dc6" d="M122.66 95.88l-.2-5.83c2.13 1.67 1.2 3.86 1 5.92 0 .06-.26.14-.38.13a2.05 2.05 0 0 1-.42-.22z"/><path fill="#1852c8" d="M54.83 36.21L52 38.12c-1.38-1.08-.11-1.66.49-2.24.83-.88 1.7-.83 2.34.33z"/><path fill="#104cc7" d="M123.87 126.68a3.9 3.9 0 0 1 3.7-.46c-1.09 1.59-2.47.15-3.7.46z"/><path fill="#0946c5" d="M157.59 96c0-1.63 0-3.25.07-4.88 1.94 1.62 1.34 3.23-.07 4.88z"/><path fill="#0847c4" d="M103.21 142.76c-.5-2.28-.68-3.53 0-4.92.87 1.42.6 2.74 0 4.92z"/><path fill="#0a47c4" d="M147.58 79.29a6.69 6.69 0 0 1-4.83.4c1.25-1.29 2.56-.56 4.83-.4z"/><path fill="#1e58ca" d="M62.61 117l-1-1.82c.43-.76 1-.82 1.5-.15s.39 1.53-.5 1.97z"/><path fill="#1d55ca" d="M35.84 65.21c-.33.61-.67 1.21-1 1.82-.88-.48-1.1-1.16-.48-2 .5-.61 1.05-.58 1.48.18z"/><path fill="#0643c4" d="M123.57 61.46a3.46 3.46 0 0 1 3.4 0 2.89 2.89 0 0 1-3.4 0z"/><path fill="#1d56ca" d="M40.85 56.23l-1 1.81c-.89-.47-1.13-1.15-.5-2 .51-.62 1.07-.58 1.5.19z"/><path fill="#fdfdfd" d="M292 79.82h-54.08c3.67-11.74 14.09-18.69 27.66-18.6 12.59.08 23.09 7.33 26.42 18.6z"/><path d="M414 92.45c0 17.09-11.69 29.48-27.79 29.42-15.92-.05-27.17-12.22-27.16-29.38 0-16.88 11.58-29.13 27.49-29.11 16.11.01 27.46 12.05 27.46 29.07z" class="cls-11"/></g></g></svg>