<svg xmlns="http://www.w3.org/2000/svg" role="img" viewBox="141.97 28.97 495.56 415.56"><title>Epsagon logo</title><style>svg {enable-background:new 0 0 756.3 507}</style><style>.st4{opacity:.7}.st12,.st4,.st6{fill:#a1beff}.st12{opacity:.22}</style><g id="Layer_3"><g><path d="M151.8 376.9c0-.1 0-.2 0-.5 0-.2 0-.4 0-.5 0-23.1 9.8-34.7 29.4-34.7 4.1 0 7.8.6 11.2 1.9 3.3 1.3 6 2.8 7.9 4.6 2 1.8 3.7 4 5.2 6.9 1.5 2.8 2.5 5.2 3.2 7.2.6 2 1.1 4.4 1.5 7.2.3 2.7.5 4.4.5 5.1v2.9l-.3 4.7h-48.9c.6 6.8 2.7 11.7 6.2 14.7 3.5 3 8.7 4.6 15.6 4.6 9.7 0 17.4-1.7 23-5v10c-6.5 3.1-14.3 4.7-23.5 4.7-.1 0-.3 0-.4 0-3.9 0-7.5-.5-10.8-1.4-3.3-.9-6.5-2.6-9.7-4.9-3.2-2.3-5.6-5.8-7.4-10.5C152.7 389.2 151.8 383.5 151.8 376.9zM161.5 373.1h39.4c0-1.5-.2-3.2-.6-5.1-.4-1.9-1.1-4.3-2.2-7.3-1.1-3-3.1-5.4-6.1-7.4-2.9-2-6.5-3-10.8-3-6.7 0-11.5 1.7-14.5 5.2C163.7 359 162 364.9 161.5 373.1zM226.6 434.5v-72.1c0-1.8.3-3.6.8-5.5.5-1.9 1.6-4.2 3.3-6.8 1.6-2.7 4.5-4.8 8.6-6.4s9.1-2.5 15-2.5c2.5 0 4.9.2 7.3.7 2.4.4 5 1.4 7.8 3 2.8 1.5 5.2 3.5 7.2 6 2 2.5 3.7 6 5.1 10.4 1.4 4.4 2.1 9.6 2.1 15.5 0 6.7-.9 12.4-2.7 17-1.8 4.7-4.3 8.2-7.5 10.5-3.2 2.3-6.4 4-9.7 4.9-3.3.9-6.9 1.4-10.9 1.4-5.5 0-11-.9-16.7-2.6v26.5H226.6zM236.4 398.2c5.1 2.2 10.7 3.3 16.7 3.3 7.4 0 12.7-1.9 16-5.8 3.3-3.9 5-10.2 5-19 0-5.6-.6-10.3-1.8-14.1-1.2-3.8-2.9-6.5-5.1-8.2-2.2-1.7-4.2-2.8-6.2-3.4-2-.6-4.2-.9-6.7-.9-11.9 0-17.9 4-17.9 11.9V398.2zM296.6 360.6c0-5.4 2-9.9 5.9-13.7 3.9-3.8 9.9-5.7 18-5.7 5.7 0 11.5 1.4 17.2 4.1v9.7c-5.1-3.1-10.5-4.6-16.2-4.6-10.1 0-15.2 3.4-15.2 10.3 0 2.3 1.2 4.2 3.7 5.6 2.5 1.4 5.5 2.6 9 3.6 3.6.9 7.1 2.1 10.7 3.4 3.6 1.3 6.6 3.6 9 6.7 2.5 3.1 3.7 7.2 3.7 12 0 5.8-2.2 10.4-6.5 13.7-4.4 3.3-10.4 5-18.1 5-7.5 0-14.2-1.7-20.3-5.1v-10.3c6.4 4 13.1 5.9 19.9 5.9 10.2 0 15.3-3.1 15.3-9.3 0-3.3-1.2-6-3.7-7.8-2.5-1.9-5.5-3.3-9-4.3-3.6-.9-7.1-2-10.7-3.1-3.6-1.1-6.6-3-9-5.7C297.9 368.4 296.6 364.9 296.6 360.6zM354.7 389c0-3 .6-5.7 1.7-8.1 1.1-2.4 2.5-4.3 4.1-5.8 1.6-1.5 3.7-2.8 6.2-3.8s4.7-1.8 6.6-2.3c1.9-.5 4.2-.9 6.9-1.1 2.7-.3 4.5-.4 5.7-.5 1.1 0 2.4-.1 4-.1l10.8.6c0-6.1-1.7-10.5-5-13.1-3.3-2.6-8.2-3.9-14.7-3.9-7.3 0-13.8 1.1-19.7 3.2v-9.4c6.6-2.3 13.3-3.5 20.2-3.5 9.4 0 16.6 2.4 21.5 7.1 4.9 4.8 7.4 11.7 7.4 20.9v20.2c0 4.3-1 8-3 11-2 3-4.6 5.3-7.7 6.6-3.1 1.4-6.1 2.3-8.8 2.8-2.7.5-5.4.8-8.1.8-2.1 0-4.2-.1-6.4-.4-2.2-.3-4.6-.9-7.4-1.8-2.7-.9-5.1-2.2-7.1-3.6-2-1.5-3.7-3.6-5.2-6.3C355.4 395.7 354.7 392.6 354.7 389zM364.4 389c0 8.4 6.1 12.6 18.3 12.6 0 0 .1 0 .2 0 11.9 0 17.9-4.1 17.9-12.2v-12.9c-3-.5-7-.8-11.9-.8C372.5 375.7 364.4 380.1 364.4 389zM425.2 375.7c0-7 .9-13 2.8-17.9 1.9-4.9 4.4-8.5 7.6-10.7 3.2-2.2 6.2-3.8 9.1-4.6 2.9-.9 5.9-1.3 9.1-1.3 5.7 0 10.6.8 14.5 2.4 3.9 1.6 6.6 3.7 8.2 6.2 1.6 2.5 2.6 4.7 3.2 6.5.5 1.8.8 3.7.8 5.5v50.6c0 3-.4 5.7-1.3 8.2-.9 2.5-2.3 4.9-4.2 7.3-2 2.4-5 4.3-9 5.6-4.1 1.3-8.9 2-14.7 2-6.3 0-12.6-.8-19.1-2.4V424c5.7 1.6 11.8 2.4 18.1 2.4 4.3 0 7.9-.4 10.8-1.1 2.9-.8 5-1.9 6.3-3.3 1.3-1.4 2.2-2.8 2.7-4.2.5-1.4.7-3.1.7-5.1V406c-5 1.6-10.3 2.5-15.8 2.5-3 0-5.8-.3-8.4-.8-2.6-.5-5.2-1.5-7.9-3-2.7-1.5-5-3.4-6.9-5.8-1.9-2.4-3.5-5.5-4.7-9.5C425.8 385.5 425.2 380.9 425.2 375.7zM434.9 375.7c0 5 .5 9.2 1.6 12.5 1.1 3.3 2.6 5.7 4.7 7.3 2.1 1.6 4.2 2.6 6.3 3.2 2.1.5 4.6.8 7.4.8 5.4 0 10.6-1 15.8-3.1v-34.9c0-7.5-5.6-11.3-16.9-11.3-2.4 0-4.6.3-6.4.9-1.9.6-3.9 1.7-5.9 3.3-2.1 1.6-3.7 4.3-4.8 7.9C435.5 365.8 434.9 370.3 434.9 375.7zM497.4 393.4c-1.9-4.8-2.8-10.6-2.8-17.5 0-6.8.9-12.7 2.8-17.5 1.9-4.8 4.4-8.4 7.7-10.8 3.2-2.4 6.5-4 9.9-5 3.4-1 7.1-1.5 11.1-1.5 4.1 0 7.8.5 11.2 1.5 3.4 1 6.7 2.7 10 5 3.2 2.4 5.8 6 7.7 10.8 1.9 4.8 2.8 10.6 2.8 17.5 0 6.8-.9 12.7-2.8 17.5-1.9 4.8-4.5 8.4-7.7 10.8-3.2 2.4-6.6 4-10 5-3.4 1-7.1 1.5-11.2 1.5-4.1 0-7.8-.5-11.1-1.5-3.4-1-6.7-2.7-9.9-5C501.9 401.8 499.3 398.2 497.4 393.4zM509.5 356.3c-3.5 4.1-5.2 10.7-5.2 19.7 0 9 1.7 15.5 5.2 19.7 3.5 4.1 9 6.2 16.6 6.2 7.6 0 13.2-2 16.7-6.1 3.5-4.1 5.2-10.7 5.2-19.7s-1.7-15.7-5.2-19.7c-3.5-4.1-9-6.1-16.7-6.1C518.5 350.1 513 352.1 509.5 356.3zM573.3 409.6v-61.8c8.8-4.4 18.3-6.6 28.4-6.6 8.5 0 15 2.1 19.7 6.4 4.7 4.3 7 10.3 7 18.2v43.8h-9.7v-43.8c0-1.9-.2-3.6-.6-5-.4-1.5-1.2-3-2.3-4.7-1.1-1.7-3-2.9-5.5-3.8-2.5-.9-5.7-1.3-9.6-1.3-5.6 0-11.5.9-17.7 2.7v56H573.3z"/></g><g><path fill="#fff" d="M552.8 257.9L543.3 265.2 544.8 277 555.9 281.7 565.4 274.4 563.9 262.5zM189.4 179.1L173.5 191.2 176 210.9 194.4 218.6 210.2 206.6 207.7 186.8zM257.6 148.8L255.9 135 241.1 128.8 228.4 138.5 229.7 149 218.4 157.6 221.8 184.2 246.5 194.6 267.9 178.4 264.5 151.7zM545.9 142.2l12.3-33.1-1.6-33.5-1.6-17.8-12.3-.3-11 16.7-.1-10.7-8-4.7-9.6 7.9-5.9 30.6 5.9 38.9c0 0-7.9 3.6-9.2 4.1-.6.3-2.3 1-3.9 1.9l-1.2-9.2-44.8-18.8-2.7 2-1.1-8.5-52.7-22.1-15.1 11.5-14-5.9-15.7 12-14.6-6.1 17.6-13.4-4.1-32.3-30-12.6-25.9 19.7 3.3 26.2-18.9 14.4 2.3 17.7-6.2 4.7 6.8 53.3 49.5 20.7 26.5-20.2.2 1.5 14.6 6.1 3.1 24.3 42.8 17.9 6.6-5 17.8 9.1-1.7 18.6 34.2 37.7 0 .2.2.1.8.9.7-.3 7.1 3 7.7-5.9-1.2-9.6-8.7-3.6-.6-.6-7-19.8 8.3-23 1-.2-.1.1 2.4 19 16.2 6.8 1 8.2 15 6.3 12.9-9.8-2.1-16.1-10.9-4.6-1.8-13.9-5.2-2.2 6.2-1.4h32.7l16.6-11.1v-42L545.9 142.2z"/></g><g><path fill="#a1beff" d="M499.9 133L455.1 114.3 416.4 143.7 422.6 191.9 467.4 210.6 506 181.2z" opacity=".77"/><path fill="#a1beff" d="M451.3 107.8L398.6 85.7 353.1 120.3 360.4 177 413.1 199.1 458.6 164.5z" opacity=".74"/><path fill="#a1beff" d="M369.6 109.9L320 89.1 277.3 121.6 284.1 174.9 333.6 195.7 376.4 163.1z" opacity=".79"/><path d="M325.5 93.5L301.7 83.6 281.3 99.2 284.5 124.7 308.3 134.6 328.7 119z" class="st4"/><path fill="#a1beff" d="M396.2 102.5L369.5 91.3 346.5 108.8 350.2 137.5 376.8 148.6 399.8 131.1z" opacity=".37"/><path d="M531.7 241.2L520.8 236.6 519 222.7 501.4 215.3 486.1 226.9 488.6 245.9 504.8 252.7 505.8 260.8 520.8 267.1 533.7 257.3z" class="st4"/><path d="M493.3 274.2L484.3 270.4 476.6 276.3 477.9 285.9 486.8 289.6 494.5 283.8zM563.9 262.5L552.8 257.9 543.3 265.2 544.8 277 555.9 281.7 565.4 274.4zM207.7 186.8L189.4 179.1 173.5 191.2 176 210.9 194.4 218.6 210.2 206.6z" class="st6"/><path fill="#a1beff" d="M264.5 151.7L239.7 141.3 218.4 157.6 221.8 184.2 246.5 194.6 267.9 178.4z" opacity=".29"/><defs><filter id="Adobe_OpacityMaskFilter" width="154.2" height="229.3" x="415.1" y="57.6" filterUnits="userSpaceOnUse"><feFlood flood-color="#fff" flood-opacity="1" result="back"/><feBlend in="SourceGraphic" in2="back"/></filter></defs><path fill="#a1beff" d="M492.2,147.7c1.2-1.2,11.6-6.8,12.8-7.3s9.2-4.1,9.2-4.1l-5.9-38.9l5.9-30.6l9.6-7.9l8,4.7l0.1,10.7l11-16.7 l12.3,0.3l1.6,17.8l1.6,33.5l-12.3,33.1l23.3,23.8v42l-16.6,11.1H520l-34.7,7.9l-8.3,23l7,19.8l10,11.1l-15.1,5.9l-35.3-38.9 l1.7-18.6l-23.5-12l-6.8-51.5l39.2-28.6L492.2,147.7z" mask="url(#SVGID_1_)" opacity=".46"/><defs><filter id="Adobe_OpacityMaskFilter_1_" width="154.2" height="229.3" x="415.1" y="57.6" filterUnits="userSpaceOnUse"><feFlood flood-color="#fff" flood-opacity="1" result="back"/><feBlend in="SourceGraphic" in2="back"/></filter></defs><path fill="#a1beff" d="M497,144.7c1.2-1.2,6.8-3.7,8-4.3s9.2-4.1,9.2-4.1l-5.9-38.9l5.9-30.6l9.6-7.9l8,4.7l0.1,10.7l11-16.7 l12.3,0.3l1.6,17.8l1.6,33.5l-12.3,33.1l23.3,23.8v42l-16.6,11.1H520l-34.7,7.9l-8.3,23l7,19.8l10,11.1l-15.1,5.9l-35.3-38.9 l1.7-18.6l-23.5-12l-6.8-51.5l43.4-37.8L497,144.7z" mask="url(#SVGID_2_)"/><path d="M255.9 135L241.1 128.8 228.4 138.5 230.4 154.4 245.2 160.6 257.9 150.9z" class="st4"/><path d="M452 151.2L409.2 133.3 372.2 161.4 378.1 207.5 421 225.4 457.9 197.3z" class="st12"/><path d="M464.8 146.6L432.3 133 404.2 154.4 408.7 189.3 441.2 203 469.2 181.6z" class="st12"/><path d="M352.7 51.4L322.7 38.9 296.8 58.6 301 90.8 331 103.4 356.8 83.7z" class="st6"/><g opacity=".28"><linearGradient id="SVGID_3_" x1="223.66" x2="544.908" y1="152.214" y2="266.435" gradientUnits="userSpaceOnUse"><stop offset="0" stop-color="#5ccd53"/><stop offset=".99" stop-color="#0000f3"/></linearGradient><path fill="url(#SVGID_3_)" d="M552.8 257.9L543.3 265.2 544.8 277 555.9 281.7 565.4 274.4 563.9 262.5z"/><linearGradient id="SVGID_4_" x1="205.369" x2="526.617" y1="203.657" y2="317.879" gradientUnits="userSpaceOnUse"><stop offset="0" stop-color="#5ccd53"/><stop offset=".99" stop-color="#0000f3"/></linearGradient><path fill="url(#SVGID_4_)" d="M189.4 179.1L173.5 191.2 176 210.9 194.4 218.6 210.2 206.6 207.7 186.8z"/><linearGradient id="SVGID_5_" x1="222.923" x2="544.17" y1="154.289" y2="268.51" gradientUnits="userSpaceOnUse"><stop offset="0" stop-color="#5ccd53"/><stop offset=".99" stop-color="#0000f3"/></linearGradient><path fill="url(#SVGID_5_)" d="M257.6 148.8L255.9 135 241.1 128.8 228.4 138.5 229.7 149 218.4 157.6 221.8 184.2 246.5 194.6 267.9 178.4 264.5 151.7z"/><linearGradient id="SVGID_6_" x1="250.21" x2="571.457" y1="77.544" y2="191.765" gradientUnits="userSpaceOnUse"><stop offset="0" stop-color="#5ccd53"/><stop offset=".99" stop-color="#0000f3"/></linearGradient><path fill="url(#SVGID_6_)" d="M545.9,142.2l12.3-33.1l-1.6-33.5l-1.6-17.8l-12.3-0.3l-11,16.7l-0.1-10.7l-8-4.7l-9.6,7.9l-5.9,30.6 l5.9,38.9c0,0-7.9,3.6-9.2,4.1c-0.6,0.3-2.3,1-3.9,1.9l-1.2-9.2l-44.8-18.8l-2.7,2l-1.1-8.5l-52.7-22.1l-15.1,11.5l-14-5.9 l-15.7,12l-14.6-6.1l17.6-13.4l-4.1-32.3l-30-12.6l-25.9,19.7l3.3,26.2l-18.9,14.4l2.3,17.7l-6.2,4.7l6.8,53.3l49.5,20.7 l26.5-20.2l0.2,1.5l14.6,6.1l3.1,24.3l42.8,17.9l6.6-5l17.8,9.1l-1.7,18.6l34.2,37.7l0,0.2l0.2,0.1l0.8,0.9l0.7-0.3l7.1,3 l7.7-5.9l-1.2-9.6l-8.7-3.6l-0.6-0.6l-7-19.8l8.3-23l1-0.2l-0.1,0.1l2.4,19l16.2,6.8l1,8.2l15,6.3l12.9-9.8l-2.1-16.1l-10.9-4.6 l-1.8-13.9l-5.2-2.2l6.2-1.4h32.7l16.6-11.1v-42L545.9,142.2z"/></g><linearGradient id="SVGID_7_" x1="222.923" x2="544.17" y1="154.289" y2="268.51" gradientUnits="userSpaceOnUse"><stop offset="0" stop-color="#5ccd53"/><stop offset=".99" stop-color="#0000f3"/></linearGradient></g></g></svg>