<svg xmlns="http://www.w3.org/2000/svg" role="img" viewBox="-3.91 -3.91 203.06 67.56"><title>Falcon logo</title><defs><linearGradient id="a" x1="29.839%" x2="100%" y1="27.906%" y2="100%"><stop offset="0%" stop-color="#009FEA"/><stop offset="100%" stop-color="#01D9DB"/></linearGradient></defs><g fill="none" fill-rule="evenodd"><path d="M109.69614 36.06043h-4.49918c-2.49072 0-4.51-2.01465-4.51-4.5 0-2.4852 2.01387-4.5 4.5046-4.5 2.49072 0 4.50458 2.0148 4.50458 4.5v4.5zm-4.50459-12c-4.1513 0-7.51382 3.3579-7.51382 7.5s3.36807 7.5 7.51923 7.5h7.50585v-7.5c0-4.1421-3.35995-7.5-7.51126-7.5zm58.62465 0c-4.15131 0-7.51668 3.3579-7.51668 7.5s3.36537 7.5 7.51668 7.5c4.1513 0 7.51667-3.3579 7.51667-7.5s-3.36536-7.5-7.51667-7.5zm0 12c-2.49073 0-4.51-2.0148-4.51-4.5s2.01927-4.5 4.51-4.5c2.49072 0 4.51 2.0148 4.51 4.5s-2.01928 4.5-4.51 4.5zm-37.1036-.48077l-.02871.05085v-.05295c-1.20267-.93285-1.95088-2.36715-1.95088-4.01715h-.00346v-13.4901c-.03848-1.05585-1.30128-1.8099-2.85468-1.8099-.05066 0-.15199.0033-.15199.00495v15.44505h.00662c.06269 3.23865 2.1415 6.1074 4.95439 7.3107v-.0165l.11891.0669c.02586-.04275.05307-.08415.07802-.12825.7637-1.34955.68387-2.83935-.16822-3.3636zm68.67363-4.01923c0-4.05-3.36537-7.4988-7.51668-7.4988-4.15055 0-7.51517 3.4488-7.51667 7.4988v7.50945c.05021.00165.09952-.00915.15033-.00915 1.54648 0 2.80718-.7503 2.85634-1.8003v-5.7c0-2.4 2.01928-4.4988 4.51-4.4988 2.48983 0 4.5085 2.0988 4.51 4.4988v5.7c.04917 1.05 1.31002 1.8003 2.85635 1.8003.0508 0 .10027.0108.15033.00915v-7.50945zm-53.22348-7.5c-4.059 0-7.51277 3.3606-7.51277 7.5027 0 4.14135 3.45918 7.4973 7.51818 7.4985v-.0012h5.1154c.00165 0-.00632-.09675-.00632-.1473 0-1.54305-.7494-2.80365-1.80174-2.8527h-3.31275c-2.40534 0-4.5061-2.0121-4.5061-4.4973 0-2.48445 2.10618-4.5 4.51151-4.50135v-.00135h3.30734v.0003c1.05233-.04905 1.80174-1.3047 1.80174-2.8476 0-.05055.00797-.1527.00632-.1527h-5.12081zm-52.01172 0h-9.0182c0-2.4852 2.01913-4.5 4.51-4.5h1.804c1.00032-.0384 1.804-1.3002 1.804-2.85 0-.05055-.0033-.15-.00496-.15h-3.60304c-4.15146 0-7.51667 3.3579-7.51667 7.5h-1.20267v.0102c-1.05233.08355-1.7565 1.32-1.7565 2.83995v.14985h2.95917V39.03193c0 .00165.10147 0 .15198 0 1.55325 0 2.8162-.8715 2.85469-1.7715v-10.2h7.216c1.05234-.048 1.804-1.30635 1.804-2.85 0-.05055-.0018-.15-.0018-.15z" fill="#73B5CF" fill-rule="nonzero"/><path d="M48.05391 27.25635c-3.01393-1.8663-6.2811-2.98935-9.58516-3.42C45.97292 22.1826 53.63085 23.5011 60 27.1542c-.23837-2.47725-.79133-4.96515-1.68421-7.4124-.41779-1.1451-.89979-2.24835-1.43759-3.3093-4.01558-.3342-8.15537-.00345-12.27341 1.0833-4.45378 1.17525-8.49066 3.13005-12.0052 5.676 4.58489 6.6963 7.73054 17.9346-2.77571 28.48635-3.1425 3.156-6.98766 5.19495-11.0388 6.12075.09046.0366.18152.0717.27243.1074.1221.048.24377.09705.36648.1434.22787.08625.45694.16995.68737.25095.003.00105.00615.0021.0093.00315.22067.0774.44224.15225.66471.22455.00705.00225.01425.00435.02145.0066.17897.05805.35854.11415.5387.1689.06301.01905.12662.0369.18962.05565.11881.0351.23747.0705.35674.1041.0627.0177.12586.03435.18886.05175.12107.0333.24228.0669.36379.0987.05715.015.11461.02895.17191.04365.12887.033.25788.06585.3872.0972.04995.012.1002.02325.1503.0351.13817.0327.27633.06495.4151.0957.04185.0093.084.018.126.027.14837.03225.29704.06375.446.09375.03345.00675.06706.01305.10051.01965.15886.03135.31788.0618.47734.0906.0252.00465.05056.009.07576.0135.16892.03.33783.0588.50735.0861.0177.00285.03555.00555.05326.0084.17716.02805.35448.05475.53225.0798.01305.0018.02595.00345.03885.00525.18257.0255.36543.0492.5486.0714.01035.0012.0207.0024.0312.00375a29.5694 29.5694 0 0 0 .55476.06105c.01155.0012.0231.00225.0348.00345.17687.01755.35388.0336.5312.048.0264.0021.0525.0045.0789.00645.16547.0132.33154.02475.49776.03525.0255.0015.05115.00315.07665.0048.0102.0006.0204.00135.0306.00195.14327.0084.28698.0153.4307.0219.06525.003.13051.006.19577.00855.04995.00195.1002.003.15016.00465.16442.00525.32883.01065.49385.01335.16336.00285.32688.0054.491.0057.0915 0 .18331-.00195.27482-.00285.14671-.00135.29343-.0021.43954-.00555.16367-.0039.32658-.01065.4895-.0171.0786-.0033.15721-.00525.23582-.009 1.554-.07515 3.11565-.27405 4.67295-.5991 6.15268-6.1314 9.23592-15.09645 7.45015-24.2442-.45454-2.32905-1.19846-4.5288-2.1854-6.5712 6.34605 6.4308 9.29353 15.5709 7.8378 24.51825.0234-.01935.0474-.0384.0708-.0579.06165-.05145.12286-.1035.18407-.1554.12-.10185.23942-.20445.35778-.30825.06796-.0594.13531-.1194.20267-.1794a29.93933 29.93933 0 0 0 .33918-.30705 36.3203 36.3203 0 0 0 .19292-.1791 33.21565 33.21565 0 0 0 .34938-.33225 38.43793 38.43793 0 0 0 .15842-.15435 31.97463 31.97463 0 0 0 .38433-.38385c.0339-.0345.06781-.069.10141-.10365.14912-.153.29658-.30765.4424-.4638.0078-.0084.01575-.0168.02355-.02535 2.7229-2.92845 4.82026-6.3642 6.19019-10.07985-1.67806-5.24595-5.1668-9.94695-10.23068-13.0827zM19.74 36.87663c4.3309-1.5693 8.9149-1.0368 12.6267 1.0728-.04666-.6876-.18932-1.3803-.43804-2.06055-.73402-2.00745-2.24047-3.51135-4.06284-4.3044-.10501-.92385-.31728-1.85025-.65076-2.76255-1.22517-3.3507-3.79461-5.82585-6.88086-7.0461.75202-.5679 1.6008-1.035 2.5342-1.37325 2.79836-1.01385 5.76144-.65655 8.14892.72585 2.71196-4.9368 7.16858-8.9508 12.89748-11.02666 2.40727-.87225 4.8633-1.3362 7.29294-1.4322-.02715-.0267-.0537-.05415-.081-.08085-.03451-.0336-.06902-.06735-.10367-.1008a30.0297 30.0297 0 0 0-.4649-.44145c-.00854-.0078-.01694-.01575-.0255-.02355C45.11806 3.01202 37.97588.12047 30.52692.00497c-.1167-.0018-.23357-.00405-.35073-.00435-.04366-.00015-.0873-.00075-.13111-.0006-.08686 0-.17402.0018-.26088.0027a27.03924 27.03924 0 0 0-.24662.00315c-3.23056.0633-6.50582.6486-9.71163 1.8102-4.58443 1.6611-8.5166 4.3155-11.6426 7.6293-3.42858 3.6462-5.88281 8.0916-7.17939 12.89326-.0222.08325-.04485.16635-.0663.2499a29.19452 29.19452 0 0 0-.11176.44835c-.0369.15375-.0732.30765-.10756.46215-.0201.0894-.0393.17895-.0585.26865-.04741.2223-.09392.4449-.13637.6684-.00705.03675-.01425.07335-.02115.1101a30.86273 30.86273 0 0 0-.07486.42075 23.9299 23.9299 0 0 0-.0342.20325c-.021.12765-.04156.25545-.0609.3834-.01276.08445-.02461.1689-.03661.2535-.01665.11715-.03376.23415-.04906.3516-.0216.16545-.0414.3312-.06015.49725-.0123.1083-.0234.2169-.03436.3255-.0132.12855-.02625.2571-.03765.38595-.006.06705-.01125.1341-.01665.2013-.01935.24165-.03735.4836-.051.72675a30.65596 30.65596 0 0 0-.01966.3906 45.55678 45.55678 0 0 0-.00645.1461c-.00105.0252-.00255.0504-.00345.07575-.0072.1983-.0129.39675-.0162.5955-.0003.01425-.00075.0285-.00105.04275-.0021.14205.04425.28395.0441.4266-.00015.1026.0528.20535.0528.3081v.00375c0 .1446-.0474.2895-.0441.4338.0003.0087-.024.01755-.02385.0264-.00015-.00855-.0129-.0171-.0132-.0255.0003.0084-.00555.01695-.00525.0255.00405.16095.0072.3222.01395.48345.00285.06945.00375.13875.00705.2082a29.18505 29.18505 0 0 1-.00975-.2289c-.0063-.15435-.0135-.30855-.01755-.46275.0042.16095.0105.3222.0171.48345.003.07035.00465.1407.0081.2112.0039.0804.0105.1611.015.2415.01035.1833.02056.3666.03436.55005.0156.2064.0351.41295.0552.6195.00525.0549.00915.10965.01485.1644.02476.2406.05296.48135.08356.72195.00255.01995.0045.03975.00705.0597.01665.12795.0366.2559.0549.38385-.0099-.07305-.0186-.1461-.02775-.21915.0249.19725.05056.39465.08026.5919.00975.06435.0192.12885.02956.19305.0135.0846.0291.16905.04365.2535.30093 1.76115.80093 3.5199 1.43639 5.2584 1.50899 4.12725 3.8069 7.72245 6.69258 10.67445.03916.0399.07846.07935.11776.1191.15272.1545.30738.3069.4634.4578.05115.0495.102.0993.15346.14835.19562.1866.39304.3711.5936.55215-.55234-6.5763 3.33408-12.9678 9.8627-15.3333z" fill="url(#a)"/></g></svg>