<svg xmlns="http://www.w3.org/2000/svg" role="img" viewBox="-9.42 -11.42 1217.84 450.84"><title>FoundationDB logo</title><style>svg {enable-background:new 0 0 1200 432}</style><g><g><path fill="#3f9afb" d="M354.2 177.6L354.1 165.7 457.2 150.5 457.2 98.6 561.4 124 561.6 164.8 666.6 150.9 666.3 98.7 845.8 143 846.4 189.9 667.4 165.8 560.6 177.3 457.1 165.4z"/><path fill="#0b70e0" d="M666.6,183.2l179.6,18.6v46H353.8l-0.5-12.2h103.5c0,0,0-34.2,0-52.3c34.8,3.4,103.8,10.2,103.8,10.2l0,40.9 h106L666.6,183.2L666.6,183.2z"/><path fill="#9eccfd" d="M561.4,109.1l-0.3-12.6c0,0,68.1-20.4,103.3-30.8c0-16.9,0-33.2,0-52.9c61.8,24.8,121.2,48.8,181.2,72.9 c0,15,0,29.4,0,45.4c-61.5-16.9-121.7-33.5-180.2-49.6C629.8,91,561.4,109.1,561.4,109.1z"/></g><g><path fill="#047bfe" d="M1087.8 414.7c0-40.1 0-79 0-117.9 0-1 .1-2.4.1-4.4 21.9-.1 44.5-1.4 66.3 1.4 14.2 1.9 22.9 11.6 25 24.8 2 12.5-4.2 22.4-19.5 31.1.2 1.9 1.9 1.8 3.1 2.1 12.3 3.4 20.2 11 21.9 23.9 1.8 13.7-2.8 24.8-14.6 32.5-5.7 3.7-12.2 6.1-18.7 6.3C1130.6 415 1109.7 414.7 1087.8 414.7zM1113.8 395.7c10.9-.2 20.6.8 30.3-1.3 9.4-2 14.9-7.7 15.1-16 .2-8.3-4.9-14.7-14.4-16.7-10.2-2.1-20.5-1.5-31-.5C1113.8 372.8 1113.8 383.5 1113.8 395.7zM1113.7 342.9c10.4.6 19.8 1.3 29-1.3 7.3-2 11.5-7 11.4-14.4-.1-7.4-4.4-12.7-11.7-14.2-9.5-1.9-19.1-1.5-28.7-.4C1113.7 323.1 1113.7 332.5 1113.7 342.9zM959.8 414.9c0-41.2 0-81 0-122.4 16.5 0 32.8-.5 49 .1 36.3 1.3 54.7 19.9 56.2 56.4.3 6.6.2 13.4-.8 19.9-4.5 27.9-23.1 44.7-51.4 45.9C995.4 415.5 978 414.9 959.8 414.9zM985.9 314.4c0 26.7 0 52.4 0 78.9 17.4-.2 35.5 3.1 46.4-13.8 10.2-15.8 10.3-33.5 1.1-49.9C1022.8 311 1004 314.1 985.9 314.4zM491.4 334.1c0-15.1 0-47.5 0-47.5l17.8-.1V415h-17.5c0 0-.1-9-.1-14.1-4.7 4.3-8.4 9.4-14.1 12.1-17.8 8.3-38.8 1.7-47.6-16-8.6-17.2-8.9-35.2-1.7-52.9 10.6-26 40.1-31.2 59.7-10.9C488.5 334 489.1 334.9 491.4 334.1zM442.4 368.8c-.4 5 .8 9.8 2.2 14.4 3.2 10.3 11.3 16.5 21.5 17 10.6.5 19.3-5.5 23.3-16.1 3.7-9.9 3.6-19.9.4-29.8-3.6-11.1-12.7-17.4-23.7-16.9-10.6.5-18.6 7-21.8 18C443.1 359.7 442 364.2 442.4 368.8z"/><path fill="#087efe" d="M85.4 347.1c.5 6.8 1.1 11.6-.6 17.4-17 0-34 0-51.6 0 0 17.1 0 33.1 0 49.8-6.4 1.5-12.2.7-18.7.5 0-40.5 0-80.9 0-121.9 24.9 0 49.9 0 75.5 0 1.8 5.2.4 10.3 1 16.6-19.3 0-38 0-57.1 0-1.3 12.9-.6 24.7-.6 37.6C50.8 347.1 67.7 347.1 85.4 347.1zM591 402.9c-10.8 12.4-23.8 16.4-39 12-11.9-3.4-19-12.6-19.5-24.4-.5-12.6 5.1-21.2 17.3-25.9 7.9-3.1 16.3-3.8 24.8-4.1 5.2-.2 11.8.1 16.8.1.7-13.8-.1-18-7.5-21.8-9.7-5-22.3-1.9-31.2 7.7-4.7-.4-10.3-.5-15.8-.6.4-9.3 5.5-15.3 12.6-19.3 14.7-8.2 30.1-8.6 45.4-1.6 10.2 4.7 15 13.8 15.2 24.6.4 21.3.1 65.3.1 65.3l-18.9 0C591.1 415.1 591.1 408.5 591 402.9zM590.7 372.9c-10.4 1.1-20.2 1.7-29.8 3.4-6.4 1.1-10.5 5.5-9.8 12.7.6 6.6 4.8 9.9 10.7 11.3C579.6 404.5 592.6 392.8 590.7 372.9zM743 368.4c.2-34.7 25.4-54.8 57.6-45.8 18.1 5.1 28.6 20.4 29.9 43.4 2 35.7-24.4 58.1-57.6 49C754.1 409.8 742.9 392.3 743 368.4zM761.9 368.5c.1 6.7 1 13.3 4 19.3 4.3 8.6 11.5 12.7 21.1 12.6 9.3-.1 16.4-4 20.3-12.2 5.9-12.6 6-25.8.2-38.5-4-8.7-11.4-12.7-21.1-12.6-9.7.1-16.7 4.4-20.8 13.1C763 356 762.1 362.2 761.9 368.5zM110.1 368.8c0-35.2 25.8-55.6 58.2-46.1 17.7 5.2 28.4 21.1 29.4 43.9 1.6 35.3-24.3 57.2-57.3 48.4C121.4 410 110.1 392.7 110.1 368.8zM129 369.1c.2 6.7 1.1 13.3 4.3 19.2 4.5 8.5 11.8 12.4 21.4 12.2 9.3-.2 16.3-4.4 20-12.7 5.6-12.3 5.7-25.1.2-37.5-3.9-8.8-11.1-13-20.8-13.1-9.7-.1-16.8 4-21.1 12.7C130 355.8 129.1 362.4 129 369.1zM853.3 322.9l18 .1 0 13.4c0 0 3.5-4.7 5-6.3 9.4-9.3 20.5-11.1 32.9-8.2 12.3 2.9 18.7 11.1 21.3 23.2 2 9.4 1.1 18.9 1.3 28.3.2 13.6 0 40.8 0 40.8l-18.5.1c0 0-.1-20.3-.1-31.8 0-8.6.2-17.5-.4-26.2-.8-11.6-6.6-17.3-17.6-18.6-10.3-1.2-19.3 4.7-22.5 14.8-1.5 4.7-1.7 9.6-1.7 14.5.1 15.7 0 31.4 0 47.6-6.2 0-11.7 0-17.8 0C853.3 384 853.3 322.9 853.3 322.9zM401.9 414.6h-18.6c0 0 0-26.9 0-40.1 0-6.3.2-12.6-.4-18.9-1.1-11.4-7-17-18.1-18-9.8-.9-18.7 5-21.8 14.5-1.5 4.7-1.8 9.6-1.8 14.5.1 15.7.1 48 .1 48l-18.1 0v-92l15.6-.1c0 0 0 8.5.1 15.4 10.2-14.2 25.7-19.7 41.1-15.7 11 2.8 17.3 9.9 20.1 20.6 1.7 6.1 1.9 12.4 1.8 18.7C401.9 378.8 401.9 414.6 401.9 414.6zM219.4 322.9l18.3.3c0 0 0 22 0 33 0 8.4-.1 16.8.4 25.2.7 12 6.2 17.5 17.3 18.4 11.2.9 20.4-5.3 23-15.5 1.4-5.5 1.6-11 1.6-16.6-.1-14.6 0-44.7 0-44.7l17.7.1v91.7l-16.7-.1c0 0-.8-8.2-1.2-13.7-6.1 9.1-14 14.6-24.6 15.8-19.4 2.2-34.6-8.9-35.5-28.2C218.6 366.9 219.4 322.9 219.4 322.9zM680.7 338.7l-21-.1c0 15.6-.1 23.5-.1 41.3 0 7.1 1.5 13 3.3 15.4 6.3 8.1 18.1 5.3 18.1 5.3s-.1 8.7.3 13.8c-7.5 1.4-14.4 1.5-21.2.3-11.5-2.1-16.9-8.9-17.4-22.7-.5-13.6-.1-27.3-.3-40.9 0-3.8.1-12.8.1-12.8l-14.1-.2 0-15.9 14.2-.1-.1-22 18.5-.3-.1 21.9 20 .2L680.7 338.7zM702.3 322.3c0 0 5.5.2 7.9.2 2.8-.1 9 0 9 0v92.8h-16.9L702.3 322.3 702.3 322.3zM722.3 294.6c.2 6.6-4.3 11.1-11.1 11.2-6.5.1-11.9-4.6-12.1-10.5-.2-6 4.9-11.1 11.4-11.3C717.1 283.8 722.1 288.3 722.3 294.6z"/></g></g></svg>