<svg xmlns="http://www.w3.org/2000/svg" role="img" viewBox="-5.06 -15.06 991.12 323.12"><title>Honeycomb logo</title><style>svg {enable-background:new 0 0 985 295.2}</style><g><path fill="#424343" stroke="#424343" stroke-miterlimit="10" d="M391.3 179.1h-17.8c-11.3 0-20.5 9.2-20.5 20.5v29.5 8.3 5.7h.8 5.4v-13.9-26c0-9.8 8-17.7 17.7-17.7h10.6c9.8 0 17.7 8 17.7 17.7v26V243h5.8.8v-5.7-8.3-29.5C411.8 188.3 402.6 179.1 391.3 179.1zM320.3 178.1h-14.2c-12.1 0-22 9.9-22 22V222c0 12.1 9.9 22 22 22h14.2c12.1 0 22-9.9 22-22v-21.9C342.3 188 332.4 178.1 320.3 178.1zM335.7 223.1c0 8-6.6 14.6-14.6 14.6h-15.8c-8 0-14.6-6.6-14.6-14.6v-23.7c0-8 6.6-14.6 14.6-14.6h15.8c8 0 14.6 6.6 14.6 14.6V223.1zM254.5 179.1h-17.8c-5.6 0-10.8 2.3-14.5 6v-29.4H216V243h.2.8 5.2.2v-13.9-26c0-9.8 8-17.7 17.7-17.7h10.6c9.8 0 17.7 8 17.7 17.7v26V243h5.8.8v-5.7-8.3-29.5C275 188.3 265.8 179.1 254.5 179.1zM643.5 178.3h-14.2c-12.1 0-22 9.9-22 22v21.9c0 12.1 9.9 22 22 22h14.2c12.1 0 22-9.9 22-22v-21.9C665.5 188.3 655.6 178.3 643.5 178.3zM658.9 223.4c0 8-6.6 14.6-14.6 14.6h-15.8c-8 0-14.6-6.6-14.6-14.6v-23.7c0-8 6.6-14.6 14.6-14.6h15.8c8 0 14.6 6.6 14.6 14.6V223.4zM761.7 179.7h-17.6c-7 0-13.1 3.6-16.8 9-3.6-5.4-9.6-9-16.4-9h-17.2c-10.9 0-19.8 9.2-19.8 20.5v29.5 8.3 5.7h.8 5.2v-13.9-26c0-9.8 7.7-17.7 17.1-17.7h10.2c8 0 14.8 5.8 16.6 13.5 0 .2 0 .5 0 .7v29.5 8.3 5.7h.5.3 5.3 0 .8V238v-8.3-29.5c0-.5 0-1.1-.1-1.6 2.2-7.3 8.9-12.6 16.8-12.6h10.5c9.6 0 17.5 8 17.5 17.7v26 13.9h5.8.8V238v-8.3-29.5C782 188.9 772.9 179.7 761.7 179.7zM826.9 177.8h-14.2c-6 0-11.4 2.4-15.4 6.3v-28.7h-6.7v44.4 18.3 3.5c0 12.1 9.9 22 22 22h14.2c12.1 0 22-9.9 22-22v-21.9C849 187.7 839.1 177.8 826.9 177.8zM842.3 222.8c0 8-6.6 14.6-14.6 14.6h-15.8c-8 0-14.6-6.6-14.6-14.6v-4.7-19c0-8 6.6-14.6 14.6-14.6h15.8c8 0 14.6 6.6 14.6 14.6V222.8zM593.9 232.6c-2.5 2.9-6.1 4.8-10 4.8h-14.7c-7.5 0-13.6-6.6-13.6-14.6v-23.7c0-8 6.1-14.6 13.6-14.6h14.7c3.5 0 6.6 1.4 9 3.7h7.7c-3.6-6.3-10.1-10.5-17.5-10.5h-13.3c-11.3 0-20.5 9.9-20.5 22v21.9c0 12.1 9.2 22 20.5 22h13.3c7.6 0 14.2-4.5 17.8-11.1H593.9zM541.3 178.3l-26.7 52c-.3-.1-.7-.2-1.1-.3-2.1-.5-4-1.7-5.6-3.1-3.9-3.6-6.9-9.3-8.4-14.3l-9.6-32.5c-.2-.6-.3-1.2-.5-1.8H483c.3 1.6.7 3.2 1.2 4.9l8.9 30c3.4 11.6 10.8 20.1 18.6 22.9L496.9 265h6.4l44.4-86.6H541.3zM860.6 231.1c0-3 .7-5.3 2.1-6.9s3.4-2.3 5.9-2.3c2.6 0 4.7.8 6.1 2.3 1.5 1.6 2.2 3.9 2.2 6.9 0 2.9-.7 5.2-2.2 6.8-1.5 1.6-3.5 2.4-6.1 2.4-2.3 0-4.2-.7-5.7-2.1C861.4 236.7 860.6 234.4 860.6 231.1zM889.9 181.8H895.9V243.70000000000002H889.9zM892 161.4h1.2c1.9 0 3.4 1.5 3.4 3.4v3c0 1.9-1.5 3.4-3.4 3.4H892c-1.9 0-3.4-1.5-3.4-3.4v-3C888.6 162.9 890.1 161.4 892 161.4zM945.2 177.7H931c-12.1 0-22 9.9-22 22v21.9c0 12.1 9.9 22 22 22h14.2c12.1 0 22-9.9 22-22v-21.9C967.3 187.6 957.4 177.7 945.2 177.7zM960.6 222.7c0 8-6.6 14.6-14.6 14.6h-15.8c-8 0-14.6-6.6-14.6-14.6v-23.7c0-8 6.6-14.6 14.6-14.6H946c8 0 14.6 6.6 14.6 14.6V222.7zM429 213.2h11.3.4 19.1c9.5 0 17.4-7.4 17.4-16.4v-2.1c0-9-7.8-16.4-17.4-16.4h-19.5c-9.1 0-16.6 6.6-17.3 15 0 .7 0 1.3 0 2 0 1.7 0 3.4 0 5 0 2.2 0 4.4 0 6.6 0 2.3 0 4.6 0 6.9 0 1.9 0 3.8 0 5.7 0 .6 0 1.3 0 1.9 0 3.2.5 6.4 1.8 9.3 1.1 2.8 2.8 5.3 4.9 7.4 2.1 2 4.5 3.6 7.3 4.6 2 .7 4.1 1.1 6.2 1.1h13c4.2 0 8.1-1.4 11.3-3.8 1.1-.8 2.2-1.7 3.1-2.7.8-1 1.5-2 2.2-3.1.2-.3 1.6-3.5 1.6-3.5l-5.9-.9c-.8 1.7-1.9 3.3-3.3 4.5-2.3 2-5.1 3.2-8.3 3.2h-14.5c-1.3 0-2.6-.2-3.8-.6-2.8-.9-5.2-2.8-6.8-5.2-.9-1.3-1.5-2.6-2-4.1-.2-.8-.4-1.5-.5-2.3-.1-.9-.3-1.7-.3-2.6 0-.9 0-1.9 0-2.8 0-1.8 0-3.7 0-5.5C429 214 429 213.6 429 213.2zM429 193.4c.3-2 1-3.8 2.2-5.2 1.9-2.4 5-3.9 8.3-3.9 0 0 21.6 0 21.6 0 3.2 0 6.2 1.4 8.2 3.8 2.5 3 2.9 9.4 1.6 12.9-1.4 3.9-5.4 6.6-9.8 6.6h-20.3H440 429c0 0 0-.1 0-.1 0-2.3 0-4.6 0-6.8 0-1.7 0-3.5 0-5.2C429 194.7 429 194.1 429 193.4L429 193.4z"/></g><path fill="#f7941e" d="M77.7 151L98.9 187.6 77.7 224.3 35.4 224.3 14.2 187.6 35.4 151z"/><path fill="#8dc63f" d="M167.9 85.1L193.7 129.7 167.9 174.3 116.5 174.3 90.7 129.7 116.5 85.1z"/><path fill="#fdb913" d="M167 200.6L192.7 245.2 167 289.8 115.5 289.8 89.7 245.2 115.5 200.6z"/><path fill="#25bdbe" d="M282.9 4.2L316.8 62.9 282.9 121.7 215 121.7 181.1 62.9 215 4.2z"/></svg>