<svg xmlns="http://www.w3.org/2000/svg" role="img" viewBox="22.65 21.15 252.20 239.70"><title>IronDB logo</title><path fill="#C3312D" fill-rule="evenodd" d="M119.215,193.539c4.211,0,8.422-0.016,12.632,0.01	c1.147,0.007,2.307,0.056,3.439,0.226c3.729,0.561,5.206,2.126,5.619,5.907c0.12,1.099,0.182,2.21,0.178,3.315	c-0.029,7.222-0.074,14.444-0.146,21.667c-0.007,0.743-0.17,1.497-0.345,2.226c-0.604,2.515-2.362,3.763-4.793,4.137	c-1.265,0.194-2.556,0.286-3.836,0.29c-8.554,0.024-17.108,0.019-25.662,0.004c-1.016-0.002-2.041-0.053-3.045-0.197	c-4.014-0.579-5.537-2.19-5.944-6.207c-0.044-0.441-0.094-0.884-0.093-1.326c0.012-7.667,0.025-15.333,0.06-22.999	c0.003-0.613,0.134-1.231,0.251-1.837c0.594-3.058,2.009-4.513,5.087-4.914c1.879-0.245,3.795-0.267,5.695-0.289	C111.947,193.508,115.582,193.538,119.215,193.539z M103.566,198.654c0,9.214,0,18.266,0,27.296c10.443,0,20.785,0,31.146,0	c0-9.142,0-18.196,0-27.296C124.294,198.654,113.951,198.654,103.566,198.654z" clip-rule="evenodd"/><path fill="#C3322E" fill-rule="evenodd" d="M65.951,216.69c-3.724,0-7.39,0-11.171,0c0,4.867,0,9.679,0,14.564	c-2.132,0-4.151,0-6.257,0c0-12.523,0-25.043,0-37.647c0.412-0.024,0.797-0.067,1.182-0.067c9.62-0.003,19.24-0.012,28.86,0.01	c1.102,0.002,2.217,0.087,3.3,0.28c2.802,0.499,4.584,2.104,4.756,4.937c0.247,4.056,0.311,8.151,0.048,12.203	c-0.226,3.484-2.232,5.227-5.724,5.461c-2.376,0.16-4.772,0.03-7.16,0.03c-0.048,0.135-0.096,0.269-0.143,0.403	c5.561,4.74,11.122,9.48,16.859,14.372c-3.205,0-6.186,0-9.359,0C76.159,226.465,71.042,221.566,65.951,216.69z M54.785,211.676	c2.411,0,4.704,0.002,6.998,0c5.091-0.006,10.183,0.017,15.273-0.038c2.339-0.025,3.356-0.892,3.445-2.973	c0.103-2.386,0.098-4.782,0-7.168c-0.08-1.942-0.966-2.75-2.914-2.927c-0.967-0.088-1.94-0.149-2.912-0.151	c-6.153-0.013-12.307-0.007-18.46-0.007c-0.467,0-0.934,0-1.43,0C54.785,202.9,54.785,207.188,54.785,211.676z" clip-rule="evenodd"/><path fill="#C3312D" fill-rule="evenodd" d="M159.22,201.589c0,9.867,0,19.735,0,29.672	c-1.703,0-3.547,0-5.494,0c0-12.511,0-25.026,0-37.632c1.226,0,2.493,0,4.012,0c10.586,9.805,21.903,19.138,32.101,29.124	c0-9.425,0-19.257,0-29.153c1.72,0,3.567,0,5.512,0c0,12.508,0,25.027,0,37.638c-1.095,0-2.227,0-3.718,0	c-10.626-9.772-21.475-19.75-32.324-29.728c-0.037-0.117-0.075-0.234-0.112-0.352c-0.04,0.015-0.081,0.028-0.121,0.043	C159.124,201.33,159.172,201.459,159.22,201.589z" clip-rule="evenodd"/><path fill="#5C5C5F" fill-rule="evenodd" d="M233.665,227.503c0.032,0.341,0.47,0.653,1.226,0.765	c0,0.934,0,1.899,0,3.182c-0.898-0.084-1.892,0.063-2.613-0.312c-0.743-0.387-1.438-1.195-1.754-1.98	c-0.32-0.796-0.151-1.789-0.182-2.391c-1.744,1.295-3.411,2.938-5.403,3.931c-4.87,2.43-10.879,0.999-14.505-3.143	c-5.165-5.898-5.153-14.969,0.121-20.786c4.474-4.935,12.833-5.893,18.368,0.841c0.278,0.338,0.542,0.689,1.005,1.278	c0-5.718,0-11.164,0-16.714c1.271,0,2.394,0,3.737,0C233.665,203.966,233.665,215.766,233.665,227.503z M230.019,215.128	c-0.141-2.086-0.677-3.766-2.007-5.272c-3.19-3.616-8.059-4.791-11.747-2.83c-4.24,2.253-6.622,7.363-5.729,12.29	c0.956,5.272,4.352,8.572,9.521,9.255c4.97,0.655,9.613-3.913,9.946-8.658C230.128,218.584,230.16,217.215,230.019,215.128z" clip-rule="evenodd"/><path fill="#5A5A5D" fill-rule="evenodd" d="M246.514,226.084c0,1.954,0,3.533,0,5.177	c-1.076,0-2.071,0-3.147,0c0-13.03,0-26.03,0-39.11c1.151,0,2.278,0,3.564,0c0,5.522,0,10.979,0,16.518	c1.278-1.334,2.335-2.363,3.557-3.342c4.771-3.82,11.748-3.177,15.823,1.397c5.078,5.701,5.261,14.637,0.42,20.518	c-5.146,6.251-14.512,6.131-19.504-0.25C247.069,226.789,246.91,226.587,246.514,226.084z M266.483,217.409	c0-0.398,0.023-0.799-0.003-1.196c-0.298-4.51-3.461-8.696-7.387-9.785c-4.202-1.166-8.592,0.489-11.153,4.786	c-0.711,1.062-0.893,1.695-1.062,3.47s-0.096,4.174,0.068,6.245c0.09,1.142,0.433,2.386,1.041,3.343	c2.195,3.448,7.069,5.113,11.003,3.934C263.356,226.896,266.51,222.37,266.483,217.409z" clip-rule="evenodd"/><path fill="#B9302A" fill-rule="evenodd" d="M151.911,127.94c0.475-0.151,0.995-0.223,1.417-0.466	c17.561-10.118,35.107-20.261,52.681-30.356c0.743-0.427,1.78-0.721,2.577-0.562c0.658,0.131,1.506,0.949,1.648,1.599	c0.158,0.716-0.34,1.611-0.662,2.381c-0.115,0.273-0.545,0.431-0.85,0.607c-18.93,10.931-37.861,21.857-56.793,32.785	C151.923,131.932,151.917,129.936,151.911,127.94z" clip-rule="evenodd"/><path fill="#6B0F07" fill-rule="evenodd" d="M136.687,94.398c1.604,0.911,3.207,1.822,4.811,2.732	c-0.164,20.521-0.328,41.043-0.492,61.564c-0.003,0.399,0.016,0.801-0.028,1.195c-0.141,1.274-1.169,2.167-2.441,2.146	c-1.263-0.019-2.288-0.945-2.38-2.221c-0.054-0.75-0.014-1.507-0.008-2.26c0.163-20.788,0.328-41.575,0.494-62.363	C136.644,94.928,136.671,94.663,136.687,94.398z" clip-rule="evenodd"/><path fill="#B9302A" fill-rule="evenodd" d="M151.605 161.506c.508-.172 1.062-.263 1.518-.525 17.523-10.102 35.035-20.226 52.568-30.312.682-.392 1.633-.745 2.324-.572.718.179 1.598.918 1.805 1.596.208.679-.262 1.612-.571 2.379-.126.311-.601.5-.942.698-18.818 10.871-37.639 21.737-56.46 32.601-.226.13-.48.209-.722.312.155-.884.385-1.764.446-2.654C151.652 163.86 151.599 162.681 151.605 161.506zM152.166 105.838c5.491-3.145 10.99-6.274 16.472-9.436 12.462-7.186 24.915-14.388 37.374-21.577.496-.286 1.01-.569 1.55-.742 1.125-.36 2.308.144 2.81 1.18.52 1.075.383 2.07-.537 2.888-.262.233-.563.429-.869.605-18.855 10.895-37.713 21.785-56.572 32.674-.074.043-.165.061-.248.09C152.151 109.627 152.158 107.733 152.166 105.838zM152.132 117.028c14.182-8.176 28.365-16.35 42.545-24.526 3.91-2.255 7.811-4.526 11.724-6.775 1.485-.854 2.9-.669 3.682.433.915 1.292.471 2.8-1.167 3.754-3.863 2.249-7.74 4.47-11.611 6.704-14.752 8.518-29.504 17.036-44.258 25.553-.305.176-.623.329-.935.493C152.119 120.785 152.125 118.907 152.132 117.028zM151.877 139.375c5.488-3.139 10.985-6.264 16.464-9.422 12.572-7.247 25.135-14.511 37.703-21.766 1.553-.896 2.855-.803 3.701.255 1.012 1.263.646 2.847-.957 3.792-3.012 1.775-6.051 3.501-9.078 5.249-15.633 9.025-31.264 18.052-46.897 27.076-.305.176-.626.322-.939.482C151.875 143.154 151.876 141.265 151.877 139.375z" clip-rule="evenodd"/><path fill="#6B0F07" fill-rule="evenodd" d="M126,88.225c1.61,0.918,3.221,1.836,4.831,2.753	c-0.108,17.011-0.214,34.023-0.325,51.035c-0.024,3.677-0.055,7.354-0.102,11.03c-0.021,1.759-1.016,2.859-2.488,2.817	c-1.48-0.042-2.402-1.144-2.393-2.918c0.132-21.265,0.269-42.529,0.408-63.794C125.933,88.841,125.976,88.533,126,88.225z" clip-rule="evenodd"/><path fill="#B9302A" fill-rule="evenodd" d="M151.848,150.57c12.347-7.115,24.696-14.229,37.04-21.347	c5.714-3.295,11.425-6.593,17.127-9.906c1.033-0.601,2.061-0.838,3.104-0.126c1.54,1.051,1.326,3.191-0.457,4.238	c-3.741,2.196-7.51,4.346-11.266,6.515c-14.719,8.5-29.437,17-44.156,25.498c-0.457,0.264-0.934,0.496-1.4,0.743	C151.842,154.313,151.845,152.442,151.848,150.57z" clip-rule="evenodd"/><path fill="#6A0D05" fill-rule="evenodd" d="M151.848,150.57c-0.003,1.872-0.006,3.743-0.009,5.615	c-0.078,1.772-0.156,3.546-0.234,5.32c-0.006,1.176,0.047,2.354-0.034,3.523c-0.062,0.891-0.291,1.771-0.446,2.654l-0.006-0.004	c-0.116,0.071-0.232,0.143-0.348,0.214c-2.306,1.104-4.029,0.007-4.007-2.584c0.151-17.422,0.312-34.843,0.472-52.264	c0.037-4.166,0.08-8.332,0.121-12.499c0.485,0.208,0.967,0.429,1.458,0.623c1.243,0.491,2.269,0.116,3.298-1.192	c0.035,0.15,0.071,0.3,0.107,0.449c-0.019,1.804-0.037,3.607-0.055,5.411c-0.008,1.895-0.015,3.789-0.021,5.683	c-0.004,1.836-0.008,3.671-0.012,5.507c-0.007,1.879-0.014,3.757-0.021,5.636c-0.067,1.759-0.134,3.518-0.201,5.276	c0.006,1.996,0.013,3.992,0.019,5.988c-0.018,1.815-0.035,3.632-0.052,5.447c-0.001,1.89-0.003,3.778-0.004,5.667	C151.865,146.885,151.857,148.728,151.848,150.57z" clip-rule="evenodd"/><path fill="#6A0E06" fill-rule="evenodd" d="M115.216,81.959c1.629,0.956,3.258,1.912,4.889,2.868	c-0.093,20.56-0.188,41.12-0.271,61.681c-0.004,1.062-0.129,2.042-1.072,2.71c-1.443,1.021-3.467,0.18-3.818-1.593	c-0.051-0.258-0.038-0.53-0.037-0.795C115.008,125.207,115.112,103.583,115.216,81.959z" clip-rule="evenodd"/><path fill="#6A0D05" fill-rule="evenodd" d="M104.538,75.817c1.603,0.97,3.204,1.94,4.806,2.91	c-0.02,12.361-0.039,24.723-0.062,37.085c-0.015,8.198-0.013,16.396-0.089,24.593c-0.008,0.811-0.311,1.799-0.833,2.39	c-1.178,1.332-3.377,0.677-3.911-1.065c-0.127-0.413-0.144-0.872-0.143-1.309c0.062-21.357,0.131-42.715,0.201-64.073	C104.507,76.17,104.527,75.994,104.538,75.817z" clip-rule="evenodd"/><path fill="#690C04" fill-rule="evenodd" d="M93.869 69.671c1.605.911 3.211 1.822 4.816 2.733-.023 20.57-.051 41.139-.059 61.709 0 1.181-.183 2.232-1.293 2.851-1.482.826-3.267-.053-3.568-1.733-.062-.346-.055-.706-.054-1.06.038-21.235.077-42.47.118-63.705C93.831 70.202 93.855 69.937 93.869 69.671zM83.179 63.047c1.613 1.07 3.227 2.14 4.84 3.21-.008 20.434-.016 40.867-.021 61.302-.002 2.369-.807 3.529-2.452 3.525-1.636-.005-2.415-1.148-2.415-3.547-.001-20.966-.001-41.932.002-62.898C83.132 64.109 83.163 63.578 83.179 63.047z" clip-rule="evenodd"/><path fill="#C3322E" fill-rule="evenodd" d="M27.722,193.602c2.089,0,4.105,0,6.187,0	c0,12.571,0,25.078,0,37.657c-2.064,0-4.081,0-6.187,0C27.722,218.746,27.722,206.239,27.722,193.602z" clip-rule="evenodd"/><path fill="#6A6A6D" fill-rule="evenodd" d="M57.896 255.938c-.978-3.199-1.956-6.4-2.967-9.712.174-.038.533-.101.689-.147.229.875.424 1.365.783 2.567.278.932.552 1.864.837 2.793.292.949.595 1.895 1.015 3.226 1.014-3.069 1.895-5.73 2.931-8.867.446.636.309.062.497.062.745 2.126 1.856 5.536 2.573 7.672.094.281.218.552.421 1.058.908-2.975 1.746-5.719 2.584-8.463.201.065.401.132.602.197-.97 3.217-1.939 6.434-2.909 9.65-.193-.01-.385-.019-.578-.028-.946-2.747-2.839-8.242-2.839-8.242l-.137-.516c0 0-2.008 6.007-2.943 8.757C58.27 255.941 58.083 255.94 57.896 255.938zM138.024 250.709c1.388.739 2.022 1.703 1.642 3.115-.335 1.247-1.335 1.921-2.943 2.002-.785.04-1.574.007-2.396.007-.025-.295-.06-.51-.061-.725-.003-2.908-.002-5.816-.002-8.909.75 0 1.437-.006 2.123.001 1.214.013 2.327.271 2.802 1.556C139.633 248.962 139.091 249.885 138.024 250.709zM135.089 251.093c0 1.474 0 2.767 0 4.114 1.397.024 2.828.286 3.619-1.081.288-.499.295-1.441.009-1.939C137.927 250.81 136.48 251.145 135.089 251.093zM135.066 250.459c1.235-.015 2.544.34 3.226-.985.252-.489.249-1.397-.05-1.827-.756-1.086-1.982-.863-3.176-.768C135.066 248.089 135.066 249.218 135.066 250.459zM48.773 251.015c-.002 3.476-2.729 5.789-5.662 4.803-2.341-.787-3.62-3.837-2.743-6.54.824-2.541 3.008-3.795 5.337-3.064C47.552 246.791 48.775 248.706 48.773 251.015zM40.917 250.962c0 .309-.031.62.005.925.232 1.98 1.499 3.326 3.23 3.453 1.896.139 3.188-.917 3.723-3.008.357-1.397.153-2.706-.545-3.953-.64-1.145-1.615-1.701-2.925-1.688C42.289 246.709 40.897 248.395 40.917 250.962zM224.719 251.125c-.034 3.395-2.755 5.665-5.631 4.699-2.354-.79-3.649-3.833-2.778-6.53.821-2.543 3.006-3.808 5.329-3.085C223.547 246.803 224.744 248.711 224.719 251.125zM223.949 250.804c-.007-.11.002-.467-.054-.813-.308-1.929-1.562-3.186-3.257-3.283-1.854-.107-3.118.916-3.659 2.93-.387 1.441-.181 2.793.548 4.078.62 1.095 1.572 1.631 2.818 1.653C222.507 255.406 223.945 253.677 223.949 250.804z" clip-rule="evenodd"/><path fill="#5C5C5F" fill-rule="evenodd" d="M89.353 251.562c-.401 0-1.172.031-1.828.031 0 1.434.016 2.827.016 4.227-.141-.001-.34-.003-.48-.004 0-3.141 0-6.28 0-9.539.861 0 1.86-.078 2.843.02 1.224.122 2.066.858 2.254 2.085.193 1.266-.369 2.229-1.548 2.79-.192.091-.338.166-.673.308.959 1.5 2.885 4.189 2.885 4.189l-.426.29C92.395 255.959 89.416 251.688 89.353 251.562zM87.565 251.094c1.443-.077 3.184.302 3.944-1.365.267-.585.165-1.721-.227-2.208-.855-1.063-2.472-.75-3.718-.75C87.565 248.177 87.565 249.656 87.565 251.094zM191.603 251.562c-.401 0-1.172.031-1.828.031 0 1.434.016 2.827.016 4.227-.141-.001-.34-.003-.48-.004 0-3.141 0-6.28 0-9.539.861 0 1.86-.078 2.843.02 1.224.122 2.066.858 2.254 2.085.193 1.266-.369 2.229-1.548 2.79-.192.091-.338.166-.673.308.959 1.5 2.885 4.189 2.885 4.189l-.426.29C194.645 255.959 191.666 251.688 191.603 251.562zM189.815 251.094c1.443-.077 3.184.302 3.944-1.365.267-.585.165-1.721-.227-2.208-.855-1.063-2.472-.75-3.718-.75C189.815 248.177 189.815 249.656 189.815 251.094zM111.613 255.827c0-3.271 0-6.361 0-9.582 2.401-.011 4.87-.498 6.532 1.86 1.204 1.708 1.304 3.547.278 5.378C116.884 256.233 114.236 255.802 111.613 255.827zM112.323 246.809c0 2.879 0 5.636 0 8.45 2.117-.071 4.276.246 5.466-1.995.88-1.658.838-3.333-.278-4.879C116.193 246.559 114.241 246.824 112.323 246.809zM238.333 254.083l-.012-8.021h.812l-.031 9.875-.562-.031-5.729-8.864v8.896c0 0-.63.002-.771 0 0-3.152.003-9.942.003-9.942l1.06.005L238.333 254.083z" clip-rule="evenodd"/><path fill="#6A6A6D" fill-rule="evenodd" d="M247.077 246.255c0 0-.026 4.042.008 6.062.03 1.742.95 2.838 2.408 2.977 1.954.187 3.153-.82 3.211-2.789.051-1.726.003-3.453.021-5.18.004-.379-.012-1.135-.012-1.135l.744.003c0 0-.012.511-.009.768.017 1.771.024 3.541.007 5.312-.023 2.271-1.473 3.769-3.59 3.747-2.068-.021-3.468-1.46-3.518-3.69-.039-1.727-.018-3.453.003-5.18.004-.326.003-.897.003-.897L247.077 246.255zM28.495 246.263c1.016 0 1.988-.089 2.937.021 1.409.161 2.263 1.146 2.31 2.457.048 1.346-.806 2.502-2.15 2.782-.729.152-1.487.164-2.363.253-.082 1.354-.165 2.728-.247 4.102-.162-.02-.324-.038-.486-.058C28.495 252.676 28.495 249.533 28.495 246.263zM29.201 250.981c1.354.025 2.75.341 3.439-1.002.306-.597.313-1.65-.022-2.21-.748-1.246-2.117-.952-3.417-.922C29.201 248.24 29.201 249.548 29.201 250.981zM260.645 254.667c0 0 1.269.532 1.952.61 1.182.135 2.163-.249 2.466-1.489.278-1.137-.444-1.809-1.389-2.285-.71-.357-1.363-.635-2.029-1.064-.874-.562-1.104-1.209-.98-2.464.23-1.161 1.021-1.536 1.73-1.828 1.021-.375 2.958.292 2.958.292l-.159.587c0 0-1.349-.425-1.986-.358-.925.121-1.526.325-1.817 1.283-.294.964.164 1.624.992 2.069.738.396 1.517.726 2.229 1.164.949.584 1.429 1.479 1.213 2.593-.223 1.147-.961 1.87-2.141 2.069-1.198.202-2.394-.032-3.281-.61C260.457 255.116 260.645 254.667 260.645 254.667zM174.806 254.505c.026.078.151.391.255.578-1.208.917-2.95 1.119-4.029.884-2.234-.487-3.596-2.534-3.497-5.26.088-2.457 1.692-4.377 3.906-4.673 1.412-.159 2.806.355 3.412.799-.083.229-.167.396-.218.606-1.72-.939-4.167-1.383-5.634.905-1.13 1.761-.896 4.512.412 5.97C170.562 255.593 172.666 255.875 174.806 254.505zM208.806 254.505c.026.078.151.391.255.578-1.208.917-2.95 1.119-4.029.884-2.234-.487-3.596-2.534-3.497-5.26.088-2.457 1.692-4.377 3.906-4.673 1.412-.159 2.806.355 3.412.799-.083.229-.167.396-.218.606-1.72-.939-4.167-1.383-5.634.905-1.13 1.761-.896 4.512.412 5.97C204.562 255.593 206.666 255.875 208.806 254.505zM149.4 251.062L152.513 246.031 153.046 246.329 149.728 251.734 149.728 256 149.087 256 149.072 251.734 145.907 246.444 146.447 246.172z" clip-rule="evenodd"/><path fill="#5A5A5D" fill-rule="evenodd" d="M75.619 246.709c0 1.362 0 2.603 0 3.822 1.156 0 2.214-.011 3.308.04.001.14.002.279.003.419-1.092.025-2.154.025-3.315.025 0 1.352 0 2.768 0 4.234 1.426 0 2.846 0 4.266 0 .005.131.01.261.015.392-1.599 0-3.196 0-4.89 0 0-3.015 0-6.136 0-9.299 1.564 0 3.139 0 4.712 0 .006.122.011.244.016.366C78.384 246.709 77.036 246.709 75.619 246.709zM103.648 251.007c-1.06 0-2.119 0-3.283 0 0 1.471 0 2.765 0 4.265 1.392 0 2.804 0 4.215 0 .003.127.006.255.008.382-1.598 0-3.195 0-4.879 0 0-3.046 0-6.161 0-9.314 1.584 0 3.158 0 4.732 0 .007.116.014.232.021.35-1.348 0-2.694 0-4.119 0 0 1.347 0 2.474 0 3.806 1.087 0 2.194 0 3.302 0C103.645 250.665 103.646 250.836 103.648 251.007z" clip-rule="evenodd"/><path fill="#6A6A6D" fill-rule="evenodd" d="M182.574,255.894l-0.763-0.019v-9.792c0,0,0.562,0.021,0.763,0.009	C182.574,249.432,182.574,255.894,182.574,255.894z" clip-rule="evenodd"/><path fill="#B9302A" fill-rule="evenodd" d="M210.015,63.867c0.691,1.188,0.288,2.713-0.9,3.405l-58.365,33.999	c-1.189,0.692-2.715,0.288-3.406-0.901l-0.018-0.044c-0.691-1.188-0.288-2.713,0.902-3.403l58.363-34	c1.189-0.691,2.715-0.288,3.406,0.901L210.015,63.867z" clip-rule="evenodd"/><path fill="#DA2339" fill-rule="evenodd" d="M200.435 71.941c-.676 1.197-2.195 1.62-3.394.944l-64.667-36.552c-1.197-.676-1.621-2.196-.943-3.394l.028-.038c.675-1.198 2.194-1.62 3.393-.943l64.667 36.551c1.197.677 1.621 2.196.944 3.394L200.435 71.941zM190.935 77.566c-.676 1.197-2.195 1.62-3.394.944l-64.667-36.552c-1.197-.676-1.621-2.196-.943-3.394l.028-.038c.675-1.198 2.194-1.62 3.393-.943l64.667 36.551c1.197.677 1.621 2.196.944 3.394L190.935 77.566zM181.06 83.316c-.676 1.197-2.195 1.62-3.394.944L113 47.708c-1.197-.676-1.621-2.196-.943-3.394l.028-.038c.675-1.198 2.194-1.62 3.393-.943l64.667 36.551c1.197.677 1.621 2.196.944 3.394L181.06 83.316zM171.435 88.941c-.676 1.197-2.195 1.62-3.394.944l-64.667-36.552c-1.197-.676-1.621-2.196-.943-3.394l.028-.038c.675-1.198 2.194-1.62 3.393-.943l64.667 36.551c1.197.677 1.621 2.196.944 3.394L171.435 88.941zM161.685 94.525c-.676 1.197-2.195 1.62-3.394.944L93.625 58.917c-1.197-.676-1.621-2.196-.943-3.394l.028-.038c.675-1.198 2.194-1.62 3.393-.943l64.667 36.551c1.197.677 1.621 2.196.944 3.394L161.685 94.525zM151.852 100.275c-.677 1.197-2.196 1.62-3.394.944L83.791 64.667c-1.197-.676-1.62-2.196-.943-3.394l.029-.038c.674-1.198 2.194-1.62 3.393-.943l64.667 36.551c1.197.677 1.62 2.196.944 3.394L151.852 100.275zM210.06 66.316c-.676 1.197-2.195 1.62-3.394.944L142 30.708c-1.197-.676-1.621-2.196-.943-3.394l.028-.038c.675-1.198 2.194-1.62 3.393-.943l64.667 36.551c1.197.677 1.621 2.196.944 3.394L210.06 66.316z" clip-rule="evenodd"/><path fill="#6A6A6D" fill-rule="evenodd" d="M61.185,245.797c0.075,0,0.387,0,0.481,0	c0.745,2.126,1.872,5.599,2.589,7.734" clip-rule="evenodd"/></svg>