<svg xmlns="http://www.w3.org/2000/svg" role="img" viewBox="-42.55 -25.05 2992.60 1442.60"><title>Istio logo</title><path fill="#4d6cac" d="M1361.8426 1206.28987h-242.74414v-62.75h80.502V654.33625h-80.502v-62.75h242.74414v62.75h-80.50195v489.20362h80.50195zm462.36914-132.93164q0 63.16405-52.22265 103.62109-52.229 40.46337-142.63282 40.457-51.19482 0-93.91894-12.17871-42.728-12.17139-71.626-26.627v-87.10743h4.12891a311.14762 311.14762 0 0 0 81.74023 43.96582q44.99121 16.314 86.28125 16.30762 51.18458 0 80.08887-16.51367 28.89111-16.50732 28.89844-52.0166 0-27.24609-15.6875-41.2832-15.69433-14.02881-60.27344-23.94336-16.51611-3.71631-43.14063-8.66993-26.62792-4.9541-48.50781-10.73339-60.68555-16.1001-86.07519-47.26954-25.38869-31.16454-25.38868-76.5791a125.24593 125.24593 0 0 1 11.76563-53.66845q11.76563-25.17627 35.71-44.99854 23.11524-19.39966 58.82812-30.75586 35.70264-11.34961 79.88282-11.35254a358.85716 358.85716 0 0 1 83.59765 10.11434q42.312 10.1206 70.3877 24.56348v82.97851h-4.12891q-29.72315-21.876-72.24511-36.94824-42.52441-15.06446-83.39161-15.06787-42.52442 0-71.832 16.30664-29.31738 16.31324-29.31152 48.50732 0 28.48536 17.752 42.93457 17.33935 14.45508 56.14551 23.53125 21.46 4.95411 48.09473 9.90821 26.62646 4.95409 44.3789 9.082 54.07764 12.38525 83.3916 42.52148 29.30704 30.55521 29.31045 80.9141zm350.49219 128.80371a422.89089 422.89089 0 0 1-47.68164 9.49511 326.80229 326.80229 0 0 1-46.03028 3.71485q-70.59375 0-107.33593-37.98047-36.74854-37.97607-36.74219-121.78418V810.38606h-52.42871V745.159h52.42871V612.64045h77.6123V745.159h160.17774v65.22705h-160.17774v210.13037q0 36.33252 1.65137 56.76367a92.69675 92.69675 0 0 0 11.55957 38.1875q9.07617 16.51611 24.97559 24.15039 15.88769 7.64355 48.50781 7.63672a152.02131 152.02131 0 0 0 39.63184-5.57227q20.63818-5.57373 29.72363-9.28906h4.12793zm177.10547-534.20215h-87.52051v-80.502h87.52051zm-4.9541 538.33008h-77.6123V745.159h77.61231zm546.58593-230.35938q0 112.70361-57.79589 177.92969-57.80274 65.23389-154.81153 65.22754-97.84131 0-155.43066-65.22754-57.58887-65.22363-57.58985-177.92969 0-112.70214 57.58985-178.13574 57.59032-65.42726 155.43066-65.4336 97.00782 0 154.81153 65.4336 57.79248 65.43603 57.79589 178.13574zm-80.08886 0q0-89.57665-35.09082-133.13769-35.09327-43.54982-97.42774-43.55323-63.1626 0-98.04687 43.55323-34.89113 43.56-34.88477 133.13769 0 86.69532 35.09082 131.48633 35.08447 44.79932 97.84082 44.792 61.9248 0 97.22168-44.37891 35.29688-44.37306 35.29688-131.89942zM16.761 1147.72l305.778-108.091V464.586L16.761 1147.72zM391.717 32.222v1007.407l540.455 108.091L391.717 32.222zM56.636 1195.28h843.108L311.73 1361.74 56.636 1195.28z"/></svg>