<svg xmlns="http://www.w3.org/2000/svg" role="img" viewBox="-4.02 -9.52 495.04 288.54"><title>Java logo</title><path fill="#0074BD" fill-rule="evenodd" d="M69.8485 208.7s-10.2939 5.999 7.3342 8.023c21.3592 2.442 32.2733 2.09 55.8043-2.363 0 0 6.199 3.883 14.841 7.245-52.7663 22.636-119.4214-1.311-77.9795-12.905zm-6.4512-29.544s-11.5471 8.561 6.0941 10.386c22.8181 2.359 40.8316 2.552 72.0196-3.458 0 0 4.303 4.378 11.081 6.77-63.7883 18.682-134.8352 1.469-89.1947-13.698z" clip-rule="evenodd"/><path fill="#EA2D2E" fill-rule="evenodd" d="M117.751 129.035c13.009 14.993-3.411 28.474-3.411 28.474s33.011-17.06 17.854-38.434c-14.161-19.923-25.019-29.8197 33.76-63.9509.001 0-92.2682 23.0679-48.203 73.9109z" clip-rule="evenodd"/><path fill="#0074BD" fill-rule="evenodd" d="M187.538 230.555s7.621 6.29-8.393 11.154c-30.45 9.235-126.7599 12.021-153.5102.37-9.6094-4.191 8.4193-9.999 14.0918-11.226 5.9146-1.281 9.2916-1.047 9.2916-1.047-10.6945-7.541-69.1235 14.809-29.6754 21.219 107.5762 17.459 196.0962-7.864 168.1952-20.47zM74.8026 148.542s-48.9829 11.653-17.3454 15.888c13.3626 1.79 39.9847 1.378 64.8008-.707 20.275-1.703 40.623-5.347 40.623-5.347s-7.144 3.068-12.317 6.602c-49.751 13.102-145.84358 7-118.1757-6.395 23.3882-11.329 42.4143-10.041 42.4143-10.041zm87.8754 49.177c50.571-26.305 27.186-51.586 10.865-48.181-3.991.834-5.782 1.556-5.782 1.556s1.487-2.332 4.319-3.336c32.289-11.36 57.115 33.518-10.413 51.292 0 0 .777-.704 1.011-1.331z" clip-rule="evenodd"/><path fill="#EA2D2E" fill-rule="evenodd" d="M132.195 0s28 28.0522-26.566 71.1763c-43.7591 34.6067-9.9776 54.3307-.016 76.8777-25.5451-23.075-44.2821-43.391-31.7143-62.2958C92.3543 58.0111 143.49 44.5539 132.195 0z" clip-rule="evenodd"/><path fill="#0074BD" fill-rule="evenodd" d="M79.7745 269.022c48.5315 3.106 123.0765-1.729 124.8405-24.724 0 0-3.391 8.717-40.111 15.634-41.427 7.809-92.5329 6.899-122.8325 1.89 0 0 6.2073 5.144 38.103 7.2z" clip-rule="evenodd"/><path fill="#EA2D2E" fill-rule="evenodd" d="M471.151 127.353h-1.802v-.843h4.854v.843h-1.795v4.217h-1.257v-4.217zm9.692.213h-.023l-1.789 4.003h-.823l-1.779-4.003h-.018v4.003h-1.191v-5.06h1.747l1.646 3.582 1.651-3.582H482v5.06h-1.156v-4.003h-.001zm-162.93 53.963c-5.363 4.7-11.035 7.342-16.126 7.342-7.252 0-11.185-4.404-11.185-11.452 0-7.629 4.211-13.213 21.076-13.213h6.235v17.323zm14.806 16.882v-52.259c0-13.358-7.537-22.173-25.702-22.173-10.598 0-19.891 2.648-27.445 6.021l2.174 9.256c5.949-2.209 13.643-4.26 21.198-4.26 10.466 0 14.969 4.26 14.969 13.069v6.608h-5.23c-25.423 0-36.893 9.965-36.893 24.955 0 12.914 7.56 20.257 21.791 20.257 9.145 0 15.98-3.818 22.361-9.404l1.162 7.93h11.615zm49.681.208h-18.525l-22.3-73.375h16.179l13.842 45.088 3.078 13.547c6.987-19.594 11.942-39.488 14.419-58.635h15.736c-4.208 24.16-11.8 50.683-22.429 73.375zm70.875-17.09c-5.38 4.7-11.053 7.342-16.129 7.342-7.254 0-11.186-4.404-11.186-11.452 0-7.629 4.219-13.213 21.067-13.213h6.247v17.323h.001zm14.809 16.882v-52.259c0-13.358-7.558-22.173-25.703-22.173-10.611 0-19.901 2.648-27.454 6.021l2.177 9.256c5.952-2.209 13.655-4.26 21.208-4.26 10.452 0 14.962 4.26 14.962 13.069v6.608h-5.229c-25.425 0-36.89 9.965-36.89 24.955 0 12.914 7.548 20.257 21.776 20.257 9.152 0 15.973-3.818 22.37-9.404l1.17 7.93h11.613zm-209.242 12.853c-4.26 6.218-11.148 11.145-18.683 13.922l-7.382-8.688c5.74-2.945 10.656-7.692 12.944-12.113 1.973-3.94 2.794-9.004 2.794-21.129V99.9423h15.889v82.1657c0 16.215-1.295 22.771-5.562 29.156z" clip-rule="evenodd"/></svg>