<svg xmlns="http://www.w3.org/2000/svg" role="img" viewBox="-7.44 -7.44 386.88 142.88"><title>K8STARS logo</title><g data-name="图层 2"><path fill="#1649dc" d="M0 100.76q39.24-9.2 79.91-14.51c4.91-.62 9.81-1.23 14.82-1.74V32.8l20.64-.1a1.46 1.46 0 0 0 1.43-1.43v-12a1.4 1.4 0 0 0-1.43-1.43l-56.1.16a1.46 1.46 0 0 0-1.43 1.43v11.84a1.39 1.39 0 0 0 1.43 1.43h20.64v44.35A526.4 526.4 0 0 0 0 100.76zm310.86-19.32a21.47 21.47 0 0 0 3.47-11.85 22.15 22.15 0 0 0-22.17-22.17h-14.62a7.36 7.36 0 0 1 0-14.72h26.27a3 3 0 0 0 3-3v-8.85a3 3 0 0 0-3-3h-26.16A22.22 22.22 0 0 0 256 44.76c2.15 10.42 12 17.47 22.59 17.47h13.79a7.36 7.36 0 1 1 0 14.72H256.9a1.4 1.4 0 0 0-1.43 1.43v4c16.56 1.33 33 3.27 49.26 5.62 22.89 3.38 45.37 7.67 67.65 12.78a516.11 516.11 0 0 0-61.52-19.34zm-65.4.21L239.63 69l-4.19-9.1a22.11 22.11 0 0 0-9.7-42h-33a1.57 1.57 0 0 0-1.53 1.54v46.8h-5c-2.56 0-5.11 0-7.67.1L159.82 18.9a1.58 1.58 0 0 0-1.43-.91h-15a1.24 1.24 0 0 0-1.33.91l-20.35 51.2-4.81 12.26c5.52-.4 10.94-.92 16.35-1.22l5.11-12.88 11-28.1 1.43-3.68.82 2.15.61 1.43 10.42 26.36 5.26 13.08c5.21-.1 10.52-.2 15.73-.2h7.46c4.91 0 9.81 0 14.82.2V32.6h19.83a7.33 7.33 0 0 1 7.35 7.4 7.48 7.48 0 0 1-6.54 7.35h-11a1.46 1.46 0 0 0-1.43 1.43 1.35 1.35 0 0 0 .1.62l8.38 18 6.13 13.18c5.59.25 11.21.56 16.73 1.07zm67.14-66.93h8.89a3 3 0 0 0 3-3V3a3 3 0 0 0-3-3h-8.89a3 3 0 0 0-3 3v8.89a3 3 0 0 0 3 2.83zm-75.45 102.73v1.08a.56.56 0 0 1-.17.41.51.51 0 0 1-.39.16H225v-3.24l7.89-.07v-.32a4.24 4.24 0 0 0-.83-3.09c-1-1-2.61-1-4.37-1h-1c-2 0-3.14 0-4.14 1.16-.74.85-.81 1.73-.78 3.53v3.58c0 1.59 0 2.4.86 3.56.81 1 3 1 4.73 1h9.46v3.9h-10.14c-2.7 0-6.08 0-7.49-1.55-1.61-1.77-1.61-5.27-1.6-8.37v-.66c0-3.35.14-6.51 1.76-8.36 1.44-1.63 4.66-1.69 7.35-1.69h1.46c2.9 0 5.43 0 7.41 1.92 1.63 1.6 1.6 4.88 1.58 8.05zm17.61-12.08v3.93c-1.26 0-4.28.33-6 1.9a6.34 6.34 0 0 0-1.84 5v12h-4v-12a10.2 10.2 0 0 1 3.15-7.94 12.5 12.5 0 0 1 8.32-2.88zm-137.14-6.79H129a25.4 25.4 0 0 1 6.87.67 10.66 10.66 0 0 1 6.33 5.72 18 18 0 0 1 1.58 8.09q0 9.87-5.36 13.27a10.21 10.21 0 0 1-3.46 1.4 32.15 32.15 0 0 1-5.53.35h-11.81zm4.71 3.76v22h7.52q5 0 7-2.92c1.22-1.77 1.84-4.34 1.84-7.71q0-5.73-2.12-8.69a5.65 5.65 0 0 0-2.65-2 12.89 12.89 0 0 0-4.42-.61zm35.67 3.95c3.46 0 6.14 1 8.06 3s2.7 4.56 2.7 8.12a11 11 0 0 1-2.74 7.87q-2.92 3-8.26 3-5.62 0-8.52-3.11-2.47-2.64-2.48-7.53a11.9 11.9 0 0 1 2.79-8.25q2.78-3.05 8.45-3.1zm-.26 3.55a6 6 0 0 0-4.85 2 10.23 10.23 0 0 0-.32 10.78 6.12 6.12 0 0 0 5.08 2.18q6.69 0 6.68-7.26a8.38 8.38 0 0 0-1.7-5.66 6.23 6.23 0 0 0-4.87-2.04zm31.92-3.31v3.39h-6.85a9 9 0 0 0-3.26.48 4.25 4.25 0 0 0-2 1.56 9.51 9.51 0 0 0-1.25 5.38c0 2.82.59 4.83 1.79 6q1.32 1.32 4.69 1.32h6.85v3.39h-6.85a18.45 18.45 0 0 1-5.25-.58 7.45 7.45 0 0 1-4.63-4.52 13.39 13.39 0 0 1-1-5.27 11.85 11.85 0 0 1 2.83-8.33 8.17 8.17 0 0 1 3.27-2.2 14.76 14.76 0 0 1 4.81-.65zm8.09-7.95V115l10.22-8.5h5.47l-10.59 8.5H205q4 0 5.61 1.62c1.08 1.08 1.61 2.94 1.61 5.6v5.83H208v-5a10.08 10.08 0 0 0-.27-2.72 2.69 2.69 0 0 0-1-1.41 3.85 3.85 0 0 0-1.69-.69 20.44 20.44 0 0 0-3.22-.17h-4.06v10h-4.28V98.58z" data-name="图层 1"/></g></svg>