<svg xmlns="http://www.w3.org/2000/svg" role="img" viewBox="-2.86 -2.86 1084.72 1084.72"><title>Keras logo</title><style>svg {enable-background:new 0 0 1080 1080}</style><style>.st0{fill:#fff}</style><path d="M1080 1079.96c0 .02-.02.04-.04.04H.04c-.02 0-.04-.02-.04-.04V.04C0 .02.02 0 .04 0h1079.93c.02 0 .04.02.04.04v1079.92z" class="st0"/><path fill="#d00000" d="M1062 1061.96c0 .02-.02.04-.04.04H18.04c-.02 0-.04-.02-.04-.04V18.04c0-.02.02-.04.04-.04h1043.93c.02 0 .04.02.04.04v1043.92z"/><path d="M303 823.67c0 .79.46 1.89 1.01 2.44l17.87 17.87c.56.56 1.66 1.01 2.44 1.01h61.15c.79 0 1.89-.46 2.44-1.01l17.87-17.87c.56-.56 1.01-1.66 1.01-2.44V629.64c0-.79.47-1.88 1.04-2.42l77.69-74.2c.57-.54 1.4-.46 1.84.2l196.29 290.6c.44.65 1.45 1.19 2.23 1.19h86.63c.79 0 1.73-.57 2.09-1.27l15.72-30.46c.36-.7.29-1.8-.16-2.45l-229.6-332.8c-.45-.65-.36-1.63.2-2.19l211.18-210.19c.56-.56 1.01-1.65 1.01-2.44v-3.88c0-.79-.26-2.02-.57-2.75l-12.18-28.01c-.31-.72-1.22-1.31-2-1.31h-85.63c-.79 0-1.89.46-2.44 1.01l-262.31 263.3c-.56.56-1.01.37-1.01-.42V249.6c0-.79-.44-1.9-.98-2.48l-17.53-18.8c-.54-.58-1.62-1.05-2.41-1.05h-61.57c-.79 0-1.87.47-2.41 1.05l-17.95 19.38c-.54.58-.97 1.69-.97 2.48v573.49z" class="st0"/></svg>