<svg xmlns="http://www.w3.org/2000/svg" role="img" viewBox="-5.23 -5.23 272.22 95.22"><title>Kong logo</title><g data-name="图层 2"><g data-name="图层 1"><path fill="#3db464" d="M44.8 16.2h9.7l16.1 20 9.7-7.8v-5.6L77 18.2l2.4-2.4L59.9 0 48.2 9.5l-3.4 6.7z"/><path fill="#0eb298" d="M94.5 69.7l-3.2 15.1H73.5l1.2-4.4-38-44.4-1.3-1.5L43 19.7h9.2l.9 1.1 41.4 48.9z"/><path fill="#17bbc9" d="M32.8 37l18.1 21.5-5.1 7.8H29L15 84.8H0V66.3l14.1-17.5h5.1L32.8 37z"/><path fill="#159cc9" d="M30.9 69.9h17.3l9 11.2-1.8 3.7H33.3l1.1-3.4-5.6-8.5 2.1-3z"/><path fill="#062f4d" d="M154 62.8h-10.7l-12.2-17.3h-3.4v17.3h-9.9V21h9.9v16.2h3L143.3 21h10.4l-15.4 19.8 15.7 22zm24.2-32.6h-11c-4.6 0-9.4 2.2-9.4 10.3v12.1c0 8.1 4.8 10.3 9.4 10.3h11c4.6 0 9.4-2.2 9.4-10.3V40.5c0-8.2-4.8-10.3-9.4-10.3zm.5 25.9h-12.1V36.9h12.1zm45.8-19.9v26.6h-9.2V36.9h-11.4v25.9h-9.1V30.2h9.1v4.6l4.7-4.6h9.8a6 6 0 0 1 6.1 6zm15.7-6zM261.9 68V30.1H253V34l-4.6-3.9h-8.6a8.11 8.11 0 0 0-7.6 6.8v.2a66.65 66.65 0 0 0-.6 9.1 82.34 82.34 0 0 0 .6 9.7v.2a7.11 7.11 0 0 0 7.1 6.6h13.8v5.2h-16.2V70l4.2 4.4h14.6c6.6.1 6.2-6.4 6.2-6.4zM253 55.6h-12.5V36.9H253z"/></g></g></svg>