<svg xmlns="http://www.w3.org/2000/svg" role="img" viewBox="-8.20 -8.20 426.66 421.66"><title>KrakenD logo</title><g fill="none" fill-rule="evenodd"><path fill="#1064EE" fill-rule="nonzero" d="M360.12486 332.03614h12.17107c22.50076 0 38.04698 15.5529 38.04698 35.84267v.20566c0 20.29062-15.54622 36.04918-38.04698 36.04918h-27.92236v-57.7811l15.7513-14.31641zm12.17107 57.77937c12.88712 0 21.5805-8.75437 21.5805-21.5254v-.2065c0-12.77103-8.69338-21.73191-21.5805-21.73191h-12.17106v43.46381h12.17106z"/><g fill="#0F265C"><path d="M.235 341.601l16.807-9.565v34.127l19.682-21.715H56.85l-22.558 23.497 23.331 36.189h-19.24l-15.481-24.387-5.861 6.237v18.15H.234v-62.533zm61.03134 2.84649h16.80828v12.02672c3.42728-8.23981 8.95655-13.58502 18.90856-13.1393v17.70407h-.88437c-11.16792 0-18.02334 6.7925-18.02334 21.04525v22.0477H61.2672v-59.68444h-.00086z"/><path fill-rule="nonzero" d="M96.76017 386.98458v-.222c0-13.02916 9.84093-19.04123 23.88328-19.04123 5.9719 0 10.28355 1.00158 14.48583 2.44974v-1.00158c0-7.01451-4.3125-10.91156-12.71707-10.91156-6.4128 0-10.94662 1.22445-16.36481 3.22933l-4.20143-12.9173c6.52388-2.89547 12.93753-4.7885 22.99977-4.7885 9.17786 0 15.81196 2.45147 20.01424 6.68238 4.42274 4.45377 6.4128 11.02342 6.4128 19.04037v34.63028H135.0182v-6.45865c-4.0912 4.56477-9.7307 7.5721-17.9131 7.5721-11.16707-.00173-20.34493-6.46038-20.34493-18.26338zm38.58956-3.89705v-3.00732c-2.87443-1.33544-6.6341-2.22602-10.7253-2.22602-7.18695 0-11.61054 2.89546-11.61054 8.23981v.222c0 4.56477 3.75881 7.23823 9.17786 7.23823 7.85087.00086 13.15798-4.3419 13.15798-10.4667z"/><path d="M159.658 341.601l16.808-9.565v34.127l19.682-21.715h20.124l-22.557 23.497 23.331 36.189h-19.24l-15.481-24.387-5.86 6.237v18.15h-16.808v-62.533z"/><path fill-rule="nonzero" d="M215.05297 374.62486v-.22372c0-17.03635 12.05316-31.06537 29.30234-31.06537 19.79294 0 28.86057 15.47718 28.86057 32.4034 0 1.33543-.11023 2.89546-.2213 4.4529h-41.24441c1.65938 7.68395 6.9665 11.69114 14.48497 11.69114 5.64036 0 9.73156-1.78202 14.37475-6.12307l9.62047 8.57281c-5.52927 6.90438-13.49037 11.13528-24.21567 11.13528-17.80459 0-30.96172-12.58172-30.96172-30.84337zm41.7964-5.01049c-.9946-7.5721-5.4182-12.69358-12.49492-12.69358-6.96649 0-11.49945 5.00963-12.82644 12.69358h25.32136z"/><path d="M279.60902 344.44749h16.80657v8.46353c3.87075-5.01049 8.84633-9.57611 17.36027-9.57611 12.71622 0 20.12532 8.46181 20.12532 22.15783v38.63919h-16.80742v-33.29484c0-8.01609-3.75966-12.13686-10.17332-12.13686-6.41365 0-10.50485 4.12077-10.50485 12.13686v33.29484h-16.80657v-59.68444z"/></g><g fill="#1064EE"><path d="M337.20912 109.48718c-31.62624-56.51479-85.03981-70.06959-124.4622-63.92933l-1.938-12.76046c43.62806-6.81176 102.65741 8.09228 137.4777 70.31945l-11.0775 6.37034z"/><path fill-rule="nonzero" d="M205 305c-83.81349 0-152-68.91297-152-153.62045 0-40.92104 15.8278-79.11825 44.56788-107.5546C126.13186 15.56552 164.2848 0 205 0c40.71418 0 78.8671 15.56553 107.43212 43.82494C341.1722 72.2613 357 110.45851 357 151.37955 357 236.08703 288.81349 305 205 305zm0-292.0917c-37.35377 0-72.33476 14.25721-98.49815 40.14147-26.26535 25.98834-40.72962 60.90799-40.72962 98.32978 0 77.58824 62.45744 140.71215 139.22777 140.71215s139.22777-63.1239 139.22777-140.71215c0-37.42179-14.46427-72.34144-40.73168-98.32978C277.33373 27.1655 242.35377 12.9083 205 12.9083z"/><path d="M215.59077 196.49039c-43.51824 0-79.10506-36.04132-79.32845-80.34515-.22442-44.52913 31.89574-79.02447 78.11312-83.88562l1.31268 12.80596c-46.31165 4.87154-66.87901 39.17792-66.71813 71.01425.18753 37.23843 30.07378 67.53398 66.61975 67.53398 18.28733 0 35.34089-7.3561 48.02192-20.71858l9.15904 8.92804c-15.09632 15.9083-35.4034 24.66711-57.17993 24.66711z"/><path d="M185.29478 274.69551v-12.9025c25.68545 0 48.03907-8.5455 62.94012-24.06346 11.97083-12.4666 18.06178-28.56717 17.6161-46.5643-.94258-38.01674-30.20167-67.798-66.61108-67.798-18.28308 0-35.33363 7.37093-48.01243 20.7572l-9.15743-8.94602c15.09674-15.9362 35.40023-24.71369 57.16986-24.71369 43.35688 0 78.19566 35.30556 79.31242 80.378.53482 21.55411-6.80403 40.88186-21.21944 55.89422-17.31489 18.02938-42.89789 27.95855-72.03812 27.95855z"/><path d="M180.76658 274.69551c-88.52533 0-115.03557-61.60782-116.14875-64.30319l11.69657-5.10386c1.024 2.43371 26.0664 59.55136 111.73806 56.2297l.48894 13.02183c-2.64354.10508-5.2348.15552-7.77482.15552z"/><path fill-rule="nonzero" d="M211.77707 103.6218c-12.81262 0-23.23567-10.52438-23.23567-23.46154 0-12.93717 10.42305-23.46154 23.23567-23.46154 12.81262 0 23.23567 10.52437 23.23567 23.46154 0 12.93611-10.42305 23.46154-23.23567 23.46154zm0-33.90825c-5.7042 0-10.3451 4.68496-10.3451 10.44566s4.6409 10.44566 10.3451 10.44566 10.3451-4.68497 10.3451-10.44566c0-5.7607-4.64194-10.44566-10.3451-10.44566zM108.18471 125.1282c-12.81262 0-23.23567-10.52437-23.23567-23.46153 0-12.93717 10.42305-23.46154 23.23567-23.46154 12.81262 0 23.23567 10.52437 23.23567 23.46154 0 12.93612-10.42305 23.46153-23.23567 23.46153zm0-33.90824c-5.7042 0-10.3451 4.68496-10.3451 10.44566s4.6409 10.44566 10.3451 10.44566 10.3451-4.68497 10.3451-10.44566c0-5.7607-4.6409-10.44566-10.3451-10.44566zm169.91083 40.7512c-16.81629 0-30.49681-13.81352-30.49681-30.79432 0-16.97871 13.68052-30.79222 30.49681-30.79222 16.8163 0 30.49682 13.8135 30.49682 30.79222 0 16.9808-13.68053 30.79431-30.49682 30.79431zm0-48.61402c-9.73258 0-17.64918 7.99355-17.64918 17.8197 0 9.82824 7.9166 17.82179 17.64918 17.82179 9.73259 0 17.64918-7.99355 17.64918-17.8218 0-9.8251-7.9166-17.8197-17.64918-17.8197zM108.6688 200.40064c-16.8163 0-30.49682-13.8135-30.49682-30.79222 0-16.9808 13.68053-30.79432 30.49682-30.79432 16.8163 0 30.49682 13.81351 30.49682 30.79432 0 16.97871-13.68156 30.79222-30.49682 30.79222zm0-48.61401c-9.73259 0-17.64918 7.99355-17.64918 17.82179 0 9.8251 7.9166 17.8197 17.64918 17.8197 9.73259 0 17.64918-7.99355 17.64918-17.8197 0-9.82824-7.91763-17.8218-17.64918-17.8218zm201.86039 40.7935c-14.41445 0-26.14065-11.83948-26.14065-26.39423s11.7262-26.39423 26.14065-26.39423c14.41342 0 26.13961 11.83948 26.13961 26.39423s-11.7262 26.39423-26.13961 26.39423zm0-39.91973c-7.38655 0-13.39608 6.06655-13.39608 13.52653 0 7.45999 6.01056 13.52654 13.39608 13.52654 7.38654 0 13.39504-6.06655 13.39504-13.52653 0-7.45999-6.0085-13.52654-13.39504-13.52654zm-152.00103 94.66332c-14.41388 0-26.13962-11.84018-26.13962-26.39268 0-14.55457 11.72574-26.39578 26.13962-26.39578s26.14064 11.84018 26.14064 26.39578c0 14.55146-11.72676 26.39268-26.14064 26.39268zm0-39.92001c-7.38626 0-13.39658 6.06691-13.39658 13.52733 0 7.45731 6.01032 13.52423 13.39658 13.52423 7.38625 0 13.39658-6.06692 13.39658-13.52423 0-7.46042-6.01033-13.52733-13.39658-13.52733z"/></g></g></svg>