<svg xmlns="http://www.w3.org/2000/svg" role="img" viewBox="-11.27 -10.77 742.04 156.04"><title>Loggly logo</title><style>svg {enable-background:new 0 0 720 134.8}</style><g><g><g><path d="M23.7 109.8L23.7 5.3 3 5.3 3 130.2 3 130.2 58.8 130.2 65.1 109.8zM569.1 109.8L569.1 5.3 548.4 5.3 548.4 130.2 548.4 130.2 604.1 130.2 610.8 109.8zM363.3 67.7c0-1.7 0-3-.3-4.7h-55.8l-7.7 20.4h40.1c-.7 2-1.7 3.7-2.7 5.3-1.3 2.3-3 4.7-4.7 6.7l0 0c-1.3 1.3-2.7 2.7-4 4l0 0c-.7.7-1.3 1-2 1.7 0 0 0 0-.3 0-1.3 1-3 2-4.3 3h-.3c-.7.3-1.3.7-2 1 0 0-.3 0-.3.3-1.7.7-3 1.3-4.7 2-.3 0-.3 0-.7.3-.7.3-1.3.3-2 .7-.3 0-.3 0-.7.3-.7.3-1.7.3-2.3.7l0 0c-1 .3-1.7.3-2.7.3-.3 0-.3 0-.7 0-.7 0-1.3 0-2 .3-.3 0-.7 0-.7 0-1 0-1.7 0-2.7 0l0 0c-1 0-1.7 0-2.7 0-.3 0-.7 0-.7 0-.7 0-1.3 0-2-.3-.3 0-.3 0-.7 0-1 0-1.7-.3-2.7-.3l0 0c-1-.3-1.7-.3-2.3-.7-.3 0-.3 0-.7-.3-.7-.3-1.3-.3-2-.7-.3 0-.3 0-.7-.3-1.7-.7-3.3-1.3-4.7-2 0 0-.3 0-.3-.3-.7-.3-1.3-.7-2-1h-.3c-1.7-1-3-2-4.3-3 0 0 0 0-.3 0-.7-.7-1.3-1-2-1.7l0 0c-1.3-1.3-2.7-2.3-4-3.7l0 0c-1.7-2-3.3-4.3-4.7-6.7l0 0 0 0c-1.3-2.3-2.3-4.7-3.3-7.3v-.3c-.3-.7-.3-1.3-.7-2.3v-.3c-.3-1.7-.7-3.3-1-5 0-.3 0-.3 0-.7 0-.7 0-1.3-.3-2 0-.3 0-.3 0-.7 0-1 0-1.7 0-2.7l0 0 0 0 0 0c0-1 0-1.7 0-2.7 0-.3 0-.3 0-.7 0-.7 0-1.3.3-2 0-.3 0-.3 0-.7.3-1.7.7-3.3 1-5v-.3c.3-.7.3-1.7.7-2.3v-.3c1-2.7 2-5 3.3-7.3l0 0 0 0c1.3-2.3 3-4.7 4.7-6.7l0 0c1.3-1.3 2.3-2.7 4-3.7l0 0c.7-.7 1.3-1 2-1.7 0 0 0 0 .3 0 1.3-1 3-2 4.3-3h.3c.7-.3 1.3-.7 2-1 0 0 .3 0 .3-.3 1.7-.7 3-1.3 4.7-2 .3 0 .3 0 .7-.3.7-.3 1.3-.3 2-.7.3 0 .3 0 .7-.3.7-.3 1.7-.3 2.3-.7l0 0c1-.3 1.7-.3 2.7-.3.3 0 .3 0 .7 0 .7 0 1.3 0 2-.3.3 0 .7 0 .7 0 1 0 1.7 0 2.7 0l0 0c1 0 1.7 0 2.7 0 .3 0 .7 0 .7 0 .7 0 1.3 0 2 .3.3 0 .3 0 .7 0 1 0 1.7.3 2.7.3l0 0c1 .3 1.7.3 2.3.7.3 0 .3 0 .7.3.7.3 1.3.3 2 .7.3 0 .3 0 .7.3 1.7.7 3.3 1.3 4.7 2 0 0 .3 0 .3.3.7.3 1.3.7 2 1h.3c1.7 1 3 2 4.3 3 0 0 0 0 .3 0 .7.7 1.3 1 2 1.7l0 0c1.3 1.3 2.7 2.3 4 3.7l0 0c1.7 2 3.3 4.3 4.7 6.7l18-10 0 0c-2-3.3-4.3-6.7-7-9.7l0 0c-1.7-2-3.7-4-5.7-5.7l0 0c-1-1-2-1.7-3-2.3 0 0-.3 0-.3-.3-2-1.7-4.3-3-6.7-4.3 0 0-.3 0-.3-.3-1-.7-2-1-3-1.7-.3 0-.3-.3-.7-.3-2.3-1-4.7-2-7-3-.3 0-.7-.3-.7-.3-1-.3-2-.7-3-1-.3 0-.7-.3-1-.3-1.3-.3-2.3-.7-3.7-1l0 0c-1.3-.3-2.7-.3-3.7-.7-.3 0-.7 0-1 0-1 0-2-.3-3-.3-.3 0-.7 0-1 0-1.3 0-2.7 0-4 0l0 0 0 0c-1.3 0-2.7 0-4 0-.3 0-.7 0-1 0-1 0-2 .3-3 .3-.3 0-.7 0-1 0-1.3.3-2.7.3-3.7.7l0 0c-1.3.3-2.3.7-3.7 1-.3 0-.7.3-1 .3-1 .3-2 .7-3 1-.3 0-.7.3-.7.3-2.3 1-4.7 2-7 3-.3 0-.3.3-.7.3-1 .7-2 1-3 1.7 0 0-.3 0-.3.3-2.3 1.3-4.3 2.7-6.7 4.3 0 0-.3 0-.3.3-1 .7-2 1.7-3 2.3l0 0c-2 1.7-4 3.7-5.7 5.7l0 0c-2.7 3-5 6.3-7 9.7l0 0 0 0c-2 3.3-3.7 7-5 10.7v.3c-.3 1-.7 2.3-1 3.3V51c-.7 2.3-1.3 5-1.7 7.3 0 .3 0 .7 0 1 0 1-.3 2-.3 3 0 .3 0 .7 0 1 0 1.3 0 2.7 0 3.7l0 0 0 0 0 0c0 1.3 0 2.7 0 3.7 0 .3 0 .7 0 1 0 1 .3 2 .3 3 0 .3 0 .7 0 1 .3 2.7 1 5 1.7 7.3v.3c.3 1 .7 2.3 1 3.3v.3c1.3 3.7 3 7.3 5 10.7l0 0 0 0c2 3.3 4.3 6.7 7 9.7l0 0c1.7 2 3.7 4 5.7 5.7l0 0c1 1 2 1.7 3 2.3 0 0 .3 0 .3.3 2 1.7 4.3 3 6.7 4.3 0 0 .3 0 .3.3 1 .7 2 1 3 1.7.3 0 .3.3.7.3 2.3 1 4.7 2 7 3 .3 0 .7.3.7.3 1 .3 2 .7 3 1 .3 0 .7.3 1 .3 1.3.3 2.3.7 3.7 1l0 0c1.3.3 2.7.3 3.7.7.3 0 .7 0 1 0 1 0 2 .3 3 .3.3 0 .7 0 1 0 1.3 0 2.7 0 4 0l0 0 0 0c1.3 0 2.7 0 4 0 .3 0 .7 0 1 0 1 0 2-.3 3-.3.3 0 .7 0 1 0 1.3-.3 2.7-.3 3.7-.7l0 0c1.3-.3 2.3-.7 3.7-1 .3 0 .7-.3 1-.3 1-.3 2-.7 3-1 .3 0 .7-.3.7-.3 2.3-1 4.7-2 7-3 .3 0 .3-.3.7-.3 1-.7 2-1 3-1.7 0 0 .3 0 .3-.3 2.3-1.3 4.3-2.7 6.7-4.3 0 0 .3 0 .3-.3 1-.7 2-1.7 3-2.3l0 0c2-1.7 4-3.7 5.7-5.7l0 0c.7-1 1.3-1.7 2-2.7.3-.3.7-.7.7-1 .3-.7.7-1 1.3-1.7.3-.3.7-1 1-1.3s.7-1 1-1.3c.3-.3.7-1 1-1.3l.3-.3 0 0c3-4.7 5-10 6.7-15.7C362.7 78.4 363.3 73.1 363.3 67.7zM519.3 67.7c0-1.7 0-3-.3-4.7h-56.1l-7.7 20.4h40.1c-.7 2-1.7 3.7-2.7 5.3-1.3 2.3-3 4.7-4.7 6.7l0 0c-1.3 1.3-2.7 2.7-4 3.7l0 0c-.7.7-1.3 1-2 1.7 0 0 0 0-.3 0-1.3 1-3 2-4.3 3h-.3c-.7.3-1.3.7-2 1 0 0-.3 0-.3.3-1.7.7-3 1.3-4.7 2-.3 0-.3 0-.7.3-.7.3-1.3.3-2 .7-.3 0-.3 0-.7.3-.7.3-1.7.3-2.3.7l0 0c-1 .3-1.7.3-2.7.3-.3 0-.3 0-.7 0-.7 0-1.3 0-2 .3-.3 0-.7 0-.7 0-1 0-1.7 0-2.7 0l0 0c-1 0-1.7 0-2.7 0-.3 0-.7 0-.7 0-.7 0-1.3 0-2-.3-.3 0-.3 0-.7 0-1 0-1.7-.3-2.7-.3l0 0c-1-.3-1.7-.3-2.3-.7-.3 0-.3 0-.7-.3-.7-.3-1.3-.3-2-.7-.3 0-.3 0-.7-.3-1.7-.7-3.3-1.3-4.7-2 0 0-.3 0-.3-.3-.7-.3-1.3-.7-2-1h-.3c-1.7-1-3-2-4.3-3 0 0 0 0-.3 0-.7-.7-1.3-1-2-1.7l0 0c-1.3-1.3-2.7-2.3-4-3.7l0 0c-1.7-2-3.3-4.3-4.7-6.7l0 0 0 0c-1.3-2.3-2.3-4.7-3.3-7.3v-.3c-.3-.7-.3-1.3-.7-2.3v-.3c-.3-1.7-.7-3.3-1-5 0-.3 0-.3 0-.7 0-.7 0-1.3-.3-2 0-.3 0-.3 0-.7 0-1 0-1.7 0-2.7l0 0 0 0 0 0c0-1 0-1.7 0-2.7 0-.3 0-.3 0-.7 0-.7 0-1.3.3-2 0-.3 0-.3 0-.7.3-1.7.7-3.3 1-5v-.3c.3-.7.3-1.7.7-2.3v-.3c1-2.7 2-5 3.3-7.3l0 0 0 0c1.3-2.3 3-4.7 4.7-6.7l0 0c1.3-1.3 2.3-2.7 4-3.7l0 0c.7-.7 1.3-1 2-1.7 0 0 0 0 .3 0 1.3-1 3-2 4.3-3h.3c.7-.3 1.3-.7 2-1 0 0 .3 0 .3-.3 1.7-.7 3-1.3 4.7-2 .3 0 .3 0 .7-.3.7-.3 1.3-.3 2-.7.3 0 .3 0 .7-.3.7-.3 1.7-.3 2.3-.7l0 0c1-.3 1.7-.3 2.7-.3.3 0 .3 0 .7 0 .7 0 1.3 0 2-.3.3 0 .7 0 .7 0 1 0 1.7 0 2.7 0l0 0c1 0 1.7 0 2.7 0 .3 0 .7 0 .7 0 .7 0 1.3 0 2 .3.3 0 .3 0 .7 0 1 0 1.7.3 2.7.3l0 0c1 .3 1.7.3 2.3.7.3 0 .3 0 .7.3.7.3 1.3.3 2 .7.3 0 .3 0 .7.3 1.7.7 3.3 1.3 4.7 2 0 0 .3 0 .3.3.7.3 1.3.7 2 1h.3c1.7 1 3 2 4.3 3 0 0 0 0 .3 0 .7.7 1.3 1 2 1.7l0 0c1.3 1.3 2.7 2.3 4 3.7l0 0c1.7 2 3.3 4.3 4.7 6.7l18-10 0 0c-2-3.3-4.3-6.7-7-9.7l0 0c-1.7-2-3.7-4-5.7-5.7l0 0c-1-1-2-1.7-3-2.3 0 0-.3 0-.3-.3-2-1.7-4.3-3-6.7-4.3 0 0-.3 0-.3-.3-1-.7-2-1-3-1.7-.3 0-.3-.3-.7-.3-2.3-1-4.7-2-7-3-.3 0-.7-.3-.7-.3-1-.3-2-.7-3-1-.3 0-.7-.3-1-.3-1.3-.3-2.3-.7-3.7-1l0 0c-1.3-.3-2.7-.3-3.7-.7-.3 0-.7 0-1 0-1 0-2-.3-3-.3-.3 0-.7 0-1 0-1.3 0-2.7 0-4 0l0 0 0 0c-1.3 0-2.7 0-4 0-.3 0-.7 0-1 0-1 0-2 .3-3 .3-.3 0-.7 0-1 0-1.3.3-2.7.3-3.7.7l0 0c-1.3.3-2.3.7-3.7 1-.3 0-.7.3-1 .3-1 .3-2 .7-3 1-.3 0-.7.3-.7.3-2.3 1-4.7 2-7 3-.3 0-.3.3-.7.3-1 .7-2 1-3 1.7 0 0-.3 0-.3.3-2.3 1.3-4.3 2.7-6.7 4.3 0 0-.3 0-.3.3-1 .7-2 1.7-3 2.3l0 0c-2 1.7-4 3.7-5.7 5.7l0 0c-2.7 3-5 6.3-7 9.7l0 0 0 0c-2 3.3-3.7 7-5 10.7V47c-.3 1-.7 2.3-1 3.3v.3c-.7 2.3-1.3 5-1.7 7.3 0 .3 0 .7 0 1 0 1-.3 2-.3 3 0 .3 0 .7 0 1 0 1.3 0 2.7 0 3.7l0 0 0 0 0 0c0 1.3 0 2.7 0 3.7 0 .3 0 .7 0 1 0 1 .3 2 .3 3 0 .3 0 .7 0 1 .3 2.7 1 5 1.7 7.3v.3c.3 1 .7 2.3 1 3.3v.3c1.3 3.7 3 7.3 5 10.7l0 0 0 0c2 3.3 4.3 6.7 7 9.7l0 0c1.7 2 3.7 4 5.7 5.7l0 0c1 1 2 1.7 3 2.3 0 0 .3 0 .3.3 2 1.7 4.3 3 6.7 4.3 0 0 .3 0 .3.3 1 .7 2 1 3 1.7.3 0 .3.3.7.3 2.3 1 4.7 2 7 3 .3 0 .7.3.7.3 1 .3 2 .7 3 1 .3 0 .7.3 1 .3 1.3.3 2.3.7 3.7 1l0 0c1.3.3 2.7.3 3.7.7.3 0 .7 0 1 0 1 0 2 .3 3 .3.3 0 .7 0 1 0 1.3 0 2.7 0 4 0l0 0 0 0c1.3 0 2.7 0 4 0 .3 0 .7 0 1 0 1 0 2-.3 3-.3.3 0 .7 0 1 0 1.3-.3 2.7-.3 3.7-.7l0 0c1.3-.3 2.3-.7 3.7-1 .3 0 .7-.3 1-.3 1-.3 2-.7 3-1 .3 0 .7-.3.7-.3 2.3-1 4.7-2 7-3 .3 0 .3-.3.7-.3 1-.7 2-1 3-1.7 0 0 .3 0 .3-.3 2.3-1.3 4.3-2.7 6.7-4.3 0 0 .3 0 .3-.3 1-.7 2-1.7 3-2.3l0 0c2-1.7 4-3.7 5.7-5.7l0 0c.7-1 1.3-1.7 2-2.7.3-.3.7-.7.7-1 .3-.7.7-1 1.3-1.7.3-.3.7-1 1-1.3.3-.3.7-1 1-1.3s.7-1 1-1.3l.3-.3 0 0c3-4.7 5-10 6.7-15.7C518.6 78.4 519.3 73.1 519.3 67.7zM695 5.3L670.2 71.7 634.2 5.3 610.8 5.3 660.9 97.5 648.5 130.2 670.6 130.2 717 5.3z"/></g></g><circle cx="146.3" cy="67.7" r="63.8" fill="#ff3a00"/></g></svg>