<svg xmlns="http://www.w3.org/2000/svg" role="img" viewBox="-6.61 -6.61 343.72 85.97"><title>NextArch Foundation logo</title><defs><style>.cls-1{fill:#009ade}</style></defs><g id="图层_2" data-name="图层 2"><g id="图层_1-2" data-name="图层 1"><path d="M41.53 38.3a61.13 61.13 0 0 1-1.6 8.1c1.2.1 2.2.2 3.3.2 4 0 6.9-1.1 8-3 1.4-2.4.3-6.4-3.1-10.9a74.57 74.57 0 0 1-6.6 5.6" class="cls-1"/><path d="M17.93 43.1l-2.4-1.5c.3 1.3.6 2.6.9 3.8 1.2-.3 2.5-.6 3.8-1-.8-.4-1.6-.9-2.3-1.3"/><path d="M3.83 32.3c-.1.1-.1.2-.2.2-3.3 4.4-4.4 8.3-3.1 10.7s5.2 3.5 10.7 3.1c.3 0 .5-.1.8-.1a62.89 62.89 0 0 1-1.6-8 55.09 55.09 0 0 1-6.6-5.9m30.3-23.7C31.83 3.2 28.83 0 26 0s-5.8 3.1-8.1 8.4a56.82 56.82 0 0 1 8.2 2.8 53.11 53.11 0 0 1 8-2.6" class="cls-1"/><path d="M20.43 13.8a35.71 35.71 0 0 0-4-1.2c-.4 1.2-.7 2.6-1 3.9.9-.5 1.8-1.1 2.7-1.6.8-.3 1.6-.8 2.3-1.1M34 15.1l2.4 1.5c-.3-1.3-.6-2.6-.9-3.8-1.2.3-2.5.6-3.8 1 .8.5 1.6.9 2.3 1.3M.83 14.6c-1.4 2.4-.3 6.4 3 10.9a53.8 53.8 0 0 1 6.6-5.6A61.13 61.13 0 0 1 12 11.8c-1.2-.1-2.2-.2-3.3-.2-3.9 0-6.8 1-7.9 3m30.73 29.9a35.71 35.71 0 0 0 4 1.2c.4-1.2.7-2.6 1-3.9-.9.5-1.8 1.1-2.7 1.6a16.27 16.27 0 0 0-2.3 1.1m13.7-15.2c-.9-1-2-2-3.1-3 0 .9.1 1.9.1 2.9s0 2.1-.1 3.1c1.1-1 2.1-2 3.1-3m6.2-14.2c-1.1-2-4.1-3.2-8.4-3.2-1 0-2 .1-3.1.2a62.89 62.89 0 0 1 1.6 8 63.54 63.54 0 0 1 6.6 5.8c3.4-4.4 4.6-8.4 3.3-10.8M6.73 28.9c.9 1 2 2 3.1 3 0-.9-.1-1.9-.1-2.9s0-2.1.1-3.1c-1.1 1.1-2.1 2-3.1 3"/><path d="M31.83 19c-1.9-1.1-3.9-2.1-5.7-3a62.68 62.68 0 0 0-5.8 2.9c-2 1.1-3.9 2.3-5.7 3.5-.2 2.1-.3 4.4-.3 6.7s.1 4.5.3 6.6c1.7 1.2 3.6 2.4 5.6 3.6s3.9 2.1 5.7 3a52.27 52.27 0 0 0 5.8-2.9 50.64 50.64 0 0 0 5.7-3.5c.2-2.1.3-4.4.3-6.7s-.1-4.5-.3-6.6a53.5 53.5 0 0 0-5.6-3.6" class="cls-1"/><path d="M22.33 48.3c-1.5.5-3.1.9-4.5 1.3 2.3 5.4 5.3 8.6 8.1 8.6s5.8-3.1 8.1-8.4a56.82 56.82 0 0 1-8.2-2.8c-1.2.5-2.3.9-3.5 1.3m87.1 4.3h-10l-18.1-30v30h-10.1V6h10.1l18.1 30V6h10v46.6zm19.8.7a18.7 18.7 0 0 1-9.4-2.3 15.3 15.3 0 0 1-6-6.1 17.17 17.17 0 0 1-2.1-8.4v-1.2a20.75 20.75 0 0 1 2-9.2 15.82 15.82 0 0 1 5.6-6.4 17.92 17.92 0 0 1 17.2-.2 13.57 13.57 0 0 1 5.2 5.9 21.26 21.26 0 0 1 1.8 9v4.1h-27.6V32H134v-.8a8.29 8.29 0 0 0-.6-3.2 4.84 4.84 0 0 0-1.9-2.1 6.83 6.83 0 0 0-3.4-.8 4.84 4.84 0 0 0-3.8 1.4 7.2 7.2 0 0 0-2.1 3.6 19.82 19.82 0 0 0-.7 5.2v1.2a10.15 10.15 0 0 0 1 4.7 7.24 7.24 0 0 0 2.9 3.1 7.92 7.92 0 0 0 4.5 1.1 11.79 11.79 0 0 0 4.6-.9 9.09 9.09 0 0 0 3.6-2.9l4.7 5.4a15.44 15.44 0 0 1-5 4.3 17.63 17.63 0 0 1-8.6 2"/><path d="M159.43 28l5.5-10h10.3l-9.7 16.9 10.1 17.7h-10.3l-5.9-10.6-5.9 10.6h-10.4l10.1-17.7-9.6-16.9h10.3l5.5 10zm37.4-3h-20.5v-7h20.5zm-5.9-15.6v32.4a4.56 4.56 0 0 0 .4 2.2 1.89 1.89 0 0 0 1.2 1.1 6 6 0 0 0 2 .3 6.62 6.62 0 0 0 1.5-.1c.4-.1.8-.1 1.1-.2v7.3a9.92 9.92 0 0 1-2.6.6 30.28 30.28 0 0 1-3.1.2 14.45 14.45 0 0 1-5.4-1 7.46 7.46 0 0 1-3.5-3.3 12.79 12.79 0 0 1-1.2-6V9.4z"/><path d="M209.23 52.6h-10.7L215.83 6h6.8l-1 8.8zm22.3-9.3h-24.7v-8.1h24.7zm-12.2-28.5l-1-8.8h6.8l17.4 46.6h-10.7zm35.2 37.8h-9.7V18h9.1l.6 8v26.6zm10.1-25.5c-.5-.1-1-.1-1.7-.2a10.28 10.28 0 0 0-1.7-.1 10.14 10.14 0 0 0-4.2.8 4.89 4.89 0 0 0-2.4 2.3 10.11 10.11 0 0 0-.9 3.8l-1.9-.8a27.62 27.62 0 0 1 1.1-8 12 12 0 0 1 3.4-5.5 8 8 0 0 1 5.4-2 7.57 7.57 0 0 1 1.5.1 13 13 0 0 1 1.3.3zM282 45.5a6.84 6.84 0 0 0 2.9-.6 4.51 4.51 0 0 0 1.9-1.7 5.38 5.38 0 0 0 .7-2.7h9.1a11.44 11.44 0 0 1-2 6.6 13.42 13.42 0 0 1-5.2 4.5 16 16 0 0 1-7.3 1.6 16.7 16.7 0 0 1-9-2.3 14.41 14.41 0 0 1-5.4-6.3 21.12 21.12 0 0 1-1.8-8.9v-.9a21.12 21.12 0 0 1 1.8-8.9 14.41 14.41 0 0 1 5.4-6.3 16.58 16.58 0 0 1 8.9-2.3 17.28 17.28 0 0 1 7.5 1.6 12.22 12.22 0 0 1 5.1 4.7 14.14 14.14 0 0 1 1.9 7.3h-9.1a6 6 0 0 0-.7-3 4.3 4.3 0 0 0-1.9-2.1 6.21 6.21 0 0 0-3.1-.8 5.3 5.3 0 0 0-3.9 1.4A6.84 6.84 0 0 0 276 30a24.37 24.37 0 0 0-.5 4.8v.9a18.61 18.61 0 0 0 .5 4.8 6.84 6.84 0 0 0 1.8 3.6 6.25 6.25 0 0 0 4.2 1.4m27.93 7.1h-9.7V3.4h9.7zm-4-18.3a21.44 21.44 0 0 1 1.6-8.7 14.64 14.64 0 0 1 4.6-6 11.15 11.15 0 0 1 6.9-2.2 12.64 12.64 0 0 1 6 1.3 8.85 8.85 0 0 1 4 4.3 17.65 17.65 0 0 1 1.5 7.9v21.8h-9.7V30.8a8 8 0 0 0-.6-3.4 3.32 3.32 0 0 0-1.8-1.7 8.36 8.36 0 0 0-2.9-.5 6.08 6.08 0 0 0-3.2.7 4.84 4.84 0 0 0-2.1 1.9 11 11 0 0 0-1.2 2.9 19.82 19.82 0 0 0-.4 3.6z" class="cls-1"/><path fill="#231f20" d="M157 72.9h-1.1V60.2h1.1zm6.8-11.8h-7.2v-.9h7.2zm-.9 5.8h-6.3V66h6.3zm17.83.3a7.45 7.45 0 0 1-.6 3.1 4.25 4.25 0 0 1-1.7 2 5.28 5.28 0 0 1-2.6.7 4.41 4.41 0 0 1-2.6-.7 7 7 0 0 1-1.8-2 7.45 7.45 0 0 1-.6-3.1v-1.4a7.45 7.45 0 0 1 .6-3.1 4.25 4.25 0 0 1 1.7-2 5.18 5.18 0 0 1 5.2 0 5.51 5.51 0 0 1 1.7 2 7.45 7.45 0 0 1 .6 3.1v1.4zm-1-1.4a5.26 5.26 0 0 0-.5-2.6 4.53 4.53 0 0 0-1.3-1.7 3.48 3.48 0 0 0-2.1-.6 3.44 3.44 0 0 0-3.4 2.3 6.69 6.69 0 0 0-.5 2.6v1.4a6.69 6.69 0 0 0 .5 2.6 3.91 3.91 0 0 0 1.4 1.7 3.62 3.62 0 0 0 5.5-1.7 6.69 6.69 0 0 0 .5-2.6l-.1-1.4zm17.9-5.7v8.6a4.27 4.27 0 0 1-.6 2.4 3.64 3.64 0 0 1-1.6 1.4 5.45 5.45 0 0 1-2.2.5 5.93 5.93 0 0 1-2.3-.5 3.64 3.64 0 0 1-1.6-1.4 4.27 4.27 0 0 1-.6-2.4v-8.6h1.1v8.6a3.81 3.81 0 0 0 .4 1.9 2.54 2.54 0 0 0 1.2 1.1 4.78 4.78 0 0 0 1.8.4 3.66 3.66 0 0 0 1.8-.4 2.58 2.58 0 0 0 1.2-1.1 3.58 3.58 0 0 0 .4-1.9v-8.6zm17.9 12.8h-1.1l-7.3-10.9v10.9h-1.1V60.1h1.1l7.3 10.9V60.1h1.1v12.8zm9.7 0h-1.1V60.2h1.1zm-.5 0V72h2.9a4.75 4.75 0 0 0 2.4-.6 3.53 3.53 0 0 0 1.5-1.7 5.1 5.1 0 0 0 .5-2.5V66a7.08 7.08 0 0 0-.5-2.6 5 5 0 0 0-1.5-1.7 4.14 4.14 0 0 0-2.3-.6h-3v-.9h3a5.07 5.07 0 0 1 2.8.7 4.59 4.59 0 0 1 1.9 2 6.17 6.17 0 0 1 .7 3.1v1.2a6.17 6.17 0 0 1-.7 3.1 5.24 5.24 0 0 1-1.9 2 5.43 5.43 0 0 1-2.9.7l-2.9-.1zm16.27 0h-1.1l4.8-12.7h.8l-.1.8zm7.6-3.6h-6.8v-.9h6.8zm-3.6-8.4v-.8h.8l4.8 12.7h-1.1zm20.33.2h-9.8v-.9h9.8zm-4.4 11.8h-1.1V60.2h1.1zm12.1-12.8h1.1v12.7h-1.1zm19.3 7.1a7.45 7.45 0 0 1-.6 3.1 4.25 4.25 0 0 1-1.7 2 5.28 5.28 0 0 1-2.6.7 4.41 4.41 0 0 1-2.6-.7 5.51 5.51 0 0 1-1.7-2 7.45 7.45 0 0 1-.6-3.1v-1.4a7.45 7.45 0 0 1 .6-3.1 4.25 4.25 0 0 1 1.7-2 5.18 5.18 0 0 1 5.2 0 5.51 5.51 0 0 1 1.7 2 7.45 7.45 0 0 1 .6 3.1zm-1.1-1.4a5.26 5.26 0 0 0-.5-2.6 4.53 4.53 0 0 0-1.3-1.7 3.48 3.48 0 0 0-2.1-.6 3.44 3.44 0 0 0-3.4 2.3 6.69 6.69 0 0 0-.5 2.6v1.4a6.69 6.69 0 0 0 .5 2.6 3.91 3.91 0 0 0 1.4 1.7 3.62 3.62 0 0 0 5.5-1.7 6.69 6.69 0 0 0 .5-2.6l-.1-1.4zm18.7 7.1h-1.1l-7.3-10.9v10.9h-1.1V60.1h1.1l7.3 10.9V60.1h1.1v12.8z"/></g></g></svg>