<svg xmlns="http://www.w3.org/2000/svg" role="img" viewBox="-8.57 -8.57 445.64 212.39"><title>NodeSource logo</title><defs><clipPath id="a" clipPathUnits="userSpaceOnUse"><path d="M0 146.643h321.455V0H0z"/></clipPath></defs><g clip-path="url(#a)" transform="matrix(1.33333 0 0 -1.33333 0 195.524)"><path fill="#4c5859" d="M24.543.625c-.562 0-1.108.254-1.472.713L3.75 25.799V2.5c0-1.035-.84-1.875-1.875-1.875C.84.625 0 1.465 0 2.5v28.697c0 .798.506 1.51 1.26 1.772.756.26 1.591.017 2.087-.61L22.668 7.897v23.3c0 1.036.84 1.875 1.875 1.875 1.035 0 1.875-.839 1.875-1.875V2.5c0-.8-.506-1.511-1.26-1.771-.202-.071-.409-.104-.615-.104"/><path fill="#4c5859" d="M48.918 29.946c-6.739 0-12.222-5.876-12.222-13.098 0-7.221 5.482-13.097 12.222-13.097 6.74 0 12.222 5.876 12.222 13.097 0 7.222-5.483 13.098-12.222 13.098m0-29.945c-8.807 0-15.972 7.557-15.972 16.847 0 9.29 7.165 16.848 15.972 16.848 8.807 0 15.972-7.558 15.972-16.848C64.89 7.557 57.725.001 48.918.001"/><path fill="#4c5859" d="M177.24 29.946c-6.739 0-12.223-5.876-12.223-13.098 0-7.221 5.483-13.097 12.223-13.097 6.74 0 12.222 5.876 12.222 13.097 0 7.222-5.484 13.098-12.222 13.098m0-29.945c-8.808 0-15.972 7.557-15.972 16.847 0 9.29 7.164 16.848 15.972 16.848 8.807 0 15.972-7.558 15.972-16.848 0-9.291-7.165-16.847-15.972-16.847"/><path fill="#4c5859" d="M236.675 18.806h11.436c3.549 0 6.027 2.162 6.027 5.258s-2.479 5.258-6.027 5.258h-11.436zM234.8.624c-1.035 0-1.875.84-1.875 1.875v28.698c0 1.036.84 1.875 1.875 1.875h13.311c5.666 0 9.777-3.789 9.777-9.008 0-5.22-4.111-9.008-9.777-9.008h-11.436V2.499c0-1.035-.84-1.875-1.875-1.875"/><path fill="#4c5859" d="M212.47 0c-7.341 0-13.313 6.128-13.313 13.658v17.538c0 1.036.84 1.875 1.875 1.875 1.036 0 1.875-.839 1.875-1.875V13.658c0-5.464 4.291-9.908 9.563-9.908 5.273 0 9.563 4.444 9.563 9.908v17.538c0 1.036.84 1.875 1.875 1.875 1.036 0 1.875-.839 1.875-1.875V13.658C225.783 6.128 219.811 0 212.47 0"/><path fill="#4c5859" d="M152.719 27.108s-.062.041-.182.122c-.116.075-.311.214-.511.332-.407.26-1.076.647-1.914 1.046-.843.404-1.898.8-3.134 1.069-1.241.28-2.652.341-4.245.171-1.504-.174-3.134-.683-4.289-1.672-1.158-1.005-1.789-2.335-1.54-4.176.054-.284.126-.705.296-1.028.14-.344.361-.652.615-.956.535-.593 1.313-1.116 2.227-1.54.914-.426 1.948-.759 3.022-1.036.536-.141 1.089-.258 1.644-.373.66-.149 1.145-.229 1.818-.411 1.28-.317 2.481-.709 3.703-1.245 1.208-.534 2.407-1.205 3.491-2.144 1.078-.928 2.035-2.187 2.52-3.659.115-.365.196-.742.276-1.112.038-.371.095-.75.1-1.117l-.012-.546-.009-.274-.003-.068-.019-.17-.015-.105-.061-.418-.03-.208-.068-.288c-.712-3.087-3.03-5.008-5.209-5.985-2.218-1.006-4.417-1.281-6.389-1.309-.653.01-.864.008-1.47.075-.543.048-1.012.135-1.464.223-.903.198-1.742.434-2.492.725-1.513.564-2.715 1.248-3.677 1.842-.958.604-1.659 1.153-2.135 1.542-.474.386-.72.62-.72.62l-.045.043c-.674.644-.698 1.713-.054 2.385.622.65 1.642.692 2.318.115 0 0 .196-.168.608-.466.408-.298 1.032-.723 1.865-1.196.828-.476 1.869-1.009 3.098-1.429.61-.228 1.27-.397 1.962-.54.351-.062.706-.12 1.019-.143.243-.044.912-.047 1.153-.047 1.595.017 3.331.265 4.862.969.762.346 1.461.807 2.001 1.376.133.143.273.283.375.445.122.151.228.311.312.482.198.32.326.727.402.989.429 1.796-.055 3.19-1.461 4.422-1.396 1.206-3.506 2.048-5.609 2.572-.478.139-1.171.263-1.673.38-.612.127-1.226.258-1.84.418-1.228.319-2.461.706-3.678 1.272-1.21.565-2.434 1.326-3.446 2.449-.492.57-.934 1.213-1.234 1.918-.329.702-.493 1.401-.605 2.221-.035.221-.036.345-.044.484l-.021.416-.007.205.006.132.013.264.032.526c.048.35.11.7.181 1.045.103.341.188.685.32 1.012.511 1.32 1.379 2.447 2.364 3.279 2.007 1.677 4.279 2.294 6.3 2.544 1.966.231 3.877.099 5.471-.288 1.608-.365 2.915-.951 3.936-1.484 1.031-.537 1.742-1.048 2.259-1.417.463-.348.709-.535.709-.535.744-.56.892-1.62.331-2.364-.541-.717-1.543-.881-2.281-.39z"/><path fill="#4c5859" d="M75.021 4.375H79.8c12.001 0 14.52 6.782 14.52 12.474 0 7.578-5.699 12.473-14.52 12.473h-4.779zm4.78-3.75h-6.654c-1.035 0-1.875.84-1.875 1.875v28.697c0 1.036.84 1.875 1.875 1.875h6.654c12.62 0 18.27-8.147 18.27-16.223C98.07 6.537 91.411.625 79.801.625"/><path fill="#4c5859" d="M125.535.625h-19.167c-1.035 0-1.875.84-1.875 1.875v28.697c0 1.036.84 1.875 1.875 1.875h19.167c1.035 0 1.875-.839 1.875-1.875s-.84-1.875-1.875-1.875h-17.292V4.375h17.292c1.035 0 1.875-.841 1.875-1.875 0-1.035-.84-1.875-1.875-1.875"/><path fill="#4c5859" d="M120.393 15.04h-14.024c-1.035 0-1.875.839-1.875 1.875 0 1.035.84 1.875 1.875 1.875h14.024c1.035 0 1.875-.84 1.875-1.875 0-1.036-.84-1.875-1.875-1.875"/><path fill="#4c5859" d="M319.58.625h-19.168c-1.035 0-1.875.84-1.875 1.875v28.697c0 1.036.84 1.875 1.875 1.875h19.168c1.035 0 1.875-.839 1.875-1.875s-.84-1.875-1.875-1.875h-17.293V4.375h17.293c1.035 0 1.875-.841 1.875-1.875 0-1.035-.84-1.875-1.875-1.875"/><path fill="#4c5859" d="M314.438 15.04h-13.635c-1.035 0-1.875.839-1.875 1.875 0 1.035.84 1.875 1.875 1.875h13.635c1.035 0 1.875-.84 1.875-1.875 0-1.036-.84-1.875-1.875-1.875"/><path fill="#4c5859" d="M256.161.625c-.589 0-1.169.275-1.534.794l-10.129 14.349c-.597.845-.397 2.015.451 2.613.847.598 2.017.394 2.613-.451l10.129-14.349c.597-.847.396-2.017-.451-2.613-.328-.233-.706-.343-1.079-.343"/><path fill="#4c5859" d="M291.053 4.764s-.201-.192-.578-.552c-.459-.41-1.087-.946-1.977-1.54-.894-.581-2.04-1.212-3.447-1.721-1.408-.494-3.074-.866-4.913-.935l-.346-.011-.174-.005-.254.008c-.208.011-.419.021-.632.032-.421.019-.844.032-1.394.126-1.065.129-2.047.376-3.054.696-2.005.659-3.994 1.753-5.729 3.266-1.735 1.507-3.217 3.43-4.237 5.623-1.027 2.189-1.58 4.645-1.582 7.097l.044.912c.018.281.015.525.052.835.097.633.166 1.301.31 1.899.279 1.192.651 2.36 1.176 3.45 1.02 2.193 2.502 4.116 4.237 5.623 1.735 1.511 3.724 2.607 5.729 3.266 2.002.669 4.035.881 5.839.846 3.736-.128 6.608-1.49 8.375-2.656.889-.593 1.528-1.138 1.951-1.517.414-.392.633-.601.633-.601.675-.641.702-1.708.061-2.383-.616-.649-1.628-.699-2.305-.131l-.086.072s-.184.155-.532.448c-.355.283-.888.684-1.612 1.112-.722.432-1.639.895-2.749 1.251-1.1.366-2.419.636-3.827.665-1.462.008-3.003-.142-4.568-.665-1.556-.51-3.099-1.362-4.451-2.538-1.351-1.174-2.503-2.672-3.296-4.373-.41-.845-.692-1.753-.913-2.676-.11-.457-.141-.879-.229-1.319-.032-.231-.033-.533-.05-.796l-.039-.722c.003-1.916.434-3.815 1.23-5.514.793-1.702 1.945-3.2 3.296-4.373 1.351-1.178 2.895-2.028 4.451-2.538.779-.247 1.575-.441 2.262-.525.319-.074.764-.093 1.195-.111.213-.011.423-.021.632-.032l.078-.004.039-.002c.092-.003-.102.002-.077.002h.018l.135.002.271.004c2.886.068 5.159 1.061 6.592 1.917.724.426 1.265.837 1.587 1.088.382.325.587.498.587.498l.014.013c.711.603 1.777.516 2.379-.194.58-.687.518-1.704-.122-2.317"/><path fill="#4c5859" d="M162.463 146.643c-26.838 0-48.672-21.834-48.672-48.672 0-26.838 21.834-48.672 48.672-48.672 26.838 0 48.672 21.834 48.672 48.672 0 26.838-21.834 48.672-48.672 48.672m0-3.894c24.691 0 44.778-20.088 44.778-44.779 0-24.691-20.087-44.779-44.778-44.779s-44.778 20.088-44.778 44.779c0 24.691 20.087 44.779 44.778 44.779"/><path fill="#4c5859" d="M163.606 75.643c0-.631-.512-1.142-1.142-1.142-.63 0-1.142.511-1.142 1.142v44.655c0 .631.512 1.142 1.142 1.142.631 0 1.142-.511 1.142-1.142z"/><path fill="#4c5859" d="M147.398 85.717c-.601 0-1.183.276-1.563.772l-12.215 15.957V87.685c0-1.087-.881-1.968-1.968-1.968-1.088 0-1.968.881-1.968 1.968v20.571c0 .844.538 1.594 1.336 1.864.802.271 1.682.001 2.195-.668l12.215-15.958v14.762c0 1.087.881 1.968 1.968 1.968 1.088 0 1.968-.881 1.968-1.968V87.685c0-.844-.538-1.594-1.336-1.864-.208-.071-.421-.104-.632-.104"/><path fill="#4c5859" d="M191.387 104.845s-.182.109-.522.313c-.292.17-.791.427-1.396.693-.609.271-1.368.524-2.245.707-.906.184-1.834.228-3.024.119-1.049-.096-2.209-.443-2.989-1.037-.39-.298-.675-.647-.845-1.034-.091-.192-.135-.405-.176-.628l-.011-.176-.006-.089-.004-.044-.002-.022c0-.026-.006.197-.003.093l.001-.019c.014-.176.015-.482.04-.553.06-.287.204-.748.543-1.058.336-.348.872-.692 1.525-.972.65-.283 1.401-.511 2.184-.701.391-.097.796-.178 1.203-.258.512-.11.849-.161 1.373-.294 1.917-.475 3.819-1.089 5.624-2.495.879-.706 1.715-1.704 2.149-2.937.209-.613.319-1.255.326-1.871l-.011-.456-.004-.114-.001-.057-.001-.028-.018-.151-.023-.156c-.038-.215-.041-.364-.153-.762-.702-2.588-2.704-3.976-4.41-4.671-1.757-.71-3.439-.894-4.953-.911-.505.015-.646.013-1.141.067-.431.038-.781.109-1.135.172-.698.151-1.346.326-1.924.541-1.167.42-2.096.929-2.841 1.369-1.467.907-2.22 1.626-2.22 1.626l-.081.078c-.706.675-.731 1.796-.056 2.502.64.669 1.685.723 2.393.152 0 0 .583-.472 1.816-1.118.606-.322 1.369-.681 2.251-.961.439-.154.911-.265 1.402-.363.243-.037.508-.082.712-.094.137-.029.65-.031.811-.036 1.145.008 2.382.171 3.463.613 1.09.407 1.903 1.235 2.081 1.933.275 1.123.04 1.753-.91 2.574-.954.773-2.499 1.359-4.017 1.715-.336.093-.877.186-1.232.264-.464.091-.928.184-1.397.3-.935.228-1.879.506-2.834.919-.947.415-1.932.973-2.793 1.858-.425.443-.81.97-1.082 1.553-.289.587-.443 1.159-.54 1.877-.043.339-.032.451-.049.687l-.004.151.002.055.005.11.011.22c.01.146.015.291.034.437.087.585.231 1.167.474 1.704.472 1.085 1.241 1.964 2.063 2.587 1.68 1.241 3.427 1.662 5.01 1.83 1.46.158 3 .046 4.208-.244 1.244-.273 2.255-.715 3.045-1.113.801-.401 1.345-.787 1.753-1.067.353-.258.539-.396.539-.396.789-.579.959-1.689.38-2.478-.545-.742-1.556-.936-2.332-.476z"/><path fill="#4c5859" d="M204.078 133.774c-3.204 0-5.812 2.607-5.812 5.812s2.607 5.812 5.812 5.812 5.812-2.607 5.812-5.812-2.607-5.812-5.812-5.812m0 12.869c-3.892 0-7.057-3.166-7.057-7.057 0-3.891 3.165-7.057 7.057-7.057 3.891 0 7.057 3.166 7.057 7.057 0 3.891-3.166 7.057-7.057 7.057"/><path fill="#4c5859" d="M202.978 140.209h1.779c.492 0 .81.263.81.671 0 .408-.318.671-.81.671h-1.779zm-.607-3.805c-.336 0-.609.272-.609.608v5.148c0 .336.274.608.609.608h2.386c1.156 0 2.027-.812 2.027-1.888 0-1.076-.871-1.887-2.027-1.887h-1.779v-1.98c0-.337-.272-.609-.607-.609"/><path fill="#4c5859" d="M206.202 136.404c-.191 0-.379.09-.498.258l-1.817 2.573c-.194.274-.128.654.146.848.274.193.653.127.848-.146l1.817-2.573c.193-.274.128-.654-.146-.848-.106-.076-.229-.112-.35-.112"/></g></svg>