<svg xmlns="http://www.w3.org/2000/svg" role="img" viewBox="-8.63 -8.38 435.76 108.01"><title>Protocol Buffers logo</title><defs><style>.cls-1{fill:#2583fb}.cls-2{fill:#ed312a}.cls-4{fill:#d53128}.cls-16{fill:#feb000}</style></defs><g id="图层_2" data-name="图层 2"><g id="图层_1-2" data-name="图层 1"><path d="M71.22,90.5a6.35,6.35,0,0,0-2.7-.4H32c-.8-1.1-1.6-2.1-2.4-3.2.5-1.3-.5-1.5-1.3-2a13.55,13.55,0,0,1-3-3.7c.5-1-.2-1-.9-1.2-2.3-2.9-4.5-5.9-6.7-8.8.5-1-.2-1-.8-1.2l-7-9.1-.4-.5c-1.1-1.4-2.2-2.9-3.3-4.3-.1-.2-.1-.5-.2-.7a7,7,0,0,1-.9-.6l-.4-.5-2.6-3.4-.2-.3A8.22,8.22,0,0,1,0,45.7a5.68,5.68,0,0,1,1.1-3.8c5.6-7.4,11.3-14.8,16.9-22.2l1.9,2.4c5,6.9,10.1,13.6,15.4,20.3h0c.7,1,1,2.2,2.3,2.6.6,2.3,2.5,3.9,3.8,5.7q14.7,19.5,29.6,39A.72.72,0,0,0,71.22,90.5Z" class="cls-1"/><path d="M17.62 71.3c.1-.7-.5-.8-.8-1.2C17.32 70.3 18.12 70.4 17.62 71.3zM25.12 81.3c.1-.7-.5-.8-.9-1.2C24.92 80.3 25.72 80.4 25.12 81.3zM29.52 87a3.36 3.36 0 0 0-1.3-2C28.92 85.5 30 85.7 29.52 87zM37.42 45.1c-1.2-.4-1.6-1.6-2.3-2.6h0c-5.3-6.6-10.5-13.4-15.4-20.3l-1.9-2.4a1.35 1.35 0 0 1 .9.5 1.76 1.76 0 0 0 .4.5c.1.1.2.3.3.4a1.38 1.38 0 0 0 .3.4c5 6.6 10 13.1 14.9 19.7l.6.9.1.1A20.44 20.44 0 0 1 37.42 45.1zM71.22 90.5a2 2 0 0 1-1.3.2H35.22a5.44 5.44 0 0 1-3.3-.6h36.5A8.63 8.63 0 0 1 71.22 90.5z" class="cls-1"/><path d="M44.62,35.7h0l-.2.2c-.3.2-.8.4-.8,1V37h0c-.1.1-.1.1-.1.2h0l-.5.5h0a2.15,2.15,0,0,1-1.3.6c-1,0-1.6-1.2-2.4-1.8a.1.1,0,0,1-.1-.1l-.1-.1h0v-.1c-.1-.1-.2-.2-.2-.3L33.82,29l.8.5,9.7,5.7.4.2h.1Z" class="cls-2"/><path d="M71,.6c0,.3-.3.7-.9,1.5-.1.2-.3.3-.4.6a6.23,6.23,0,0,0-.9,1.2h0c-.1.1-.1.2-.2.3s-.2.2-.2.3c-3.2,4.3-6.4,8.6-9.7,12.8-2.2,2.9-4.4,5.7-6.5,8.5h0l-1,1.3-6.6,8.7h0l.1-.2h-.1l-.4-.2-9.7-5.7-.8-.5h0l-4.1-2.4a19,19,0,0,0-4.4-4.1,5.87,5.87,0,0,0-4.2-.9h0l-2.3-1.4a1.05,1.05,0,0,0-.9-.5c4.8-6.3,9.5-12.7,14.2-19a2,2,0,0,1,1.7-.7h36.2C70.32.1,70.92-.2,71,.6Z" class="cls-2"/><path fill="#e9312b" d="M39.52,36.2c-.1.1-.2.2-.3.2h-.1c-1.5-.6-2.5-1.8-3.8-2.7h0a4.23,4.23,0,0,0-.7-.5c-1-1-2.3-1.6-3.1-2.9-.1-.1-.1-.2-.2-.4s-.1-.2-.2-.3a22.39,22.39,0,0,0-2.9-3.8h0a23.48,23.48,0,0,0-2.9-2.6,6.11,6.11,0,0,0-3.3-1h0a.9.9,0,0,1-.5-.1h-.6a1.78,1.78,0,0,1-1-.4,8.65,8.65,0,0,0-1-.7,10.59,10.59,0,0,0-1-1.2,1.35,1.35,0,0,1,.9.5l2.3,1.4h0a5.76,5.76,0,0,1,4.2.9,24.34,24.34,0,0,1,4.4,4.1l4.1,2.4h0l.8.5c.5.7,1,1.4,1.6,2.1A21.78,21.78,0,0,1,39.52,36.2Z"/><path d="M38.82,43.3l-1.4,1.8c-1.2-.4-1.6-1.6-2.3-2.6h0a1.42,1.42,0,0,1-.2-.6c-.1-.2-.1-.3-.2-.5-.7-1.9-1.5-3.7-2.2-5.5-.8-2-1.8-3.9-1.8-6.1h.1a.3.3,0,0,1,.4,0,3.51,3.51,0,0,1,.8.5c.6,1.3,2.3,1.5,2.8,2.8a1.79,1.79,0,0,1,.5.7c.2.5.3,1,.5,1.5a62.43,62.43,0,0,0,2.7,7.2,2.51,2.51,0,0,0,.4.7C38.82,43.1,38.82,43.2,38.82,43.3Z" class="cls-4"/><path fill="#257cf2" d="M71.42,90.8a.35.35,0,0,0-.1.2,2.2,2.2,0,0,1-1.4.2h-36a2.3,2.3,0,0,1-1.4-.2,1.12,1.12,0,0,1-.7-.8h36.5a6.13,6.13,0,0,1,2.7.4C71.32,90.6,71.32,90.7,71.42,90.8Z"/><path d="M32.62,91h38.7c-.3.5-.8.3-1.3.3H34.12C33.62,91.2,33.12,91.4,32.62,91Z" class="cls-1"/><path fill="#2b7ce8" d="M29.52,87c-.5-.6-1.2-1.1-1.3-2C28.92,85.5,30,85.7,29.52,87Z"/><path fill="#d13427" d="M44.62,35.7h0l-.2.2-.8,1V37h0v-.1h0c-.4-.9.3-1,.9-1.2.1.1.1,0,.1,0Z"/><path fill="#2175e5" d="M17.62 71.3a8.34 8.34 0 0 1-.8-1.2C17.32 70.3 18.12 70.4 17.62 71.3zM25.12 81.3l-.9-1.2C24.92 80.3 25.72 80.4 25.12 81.3z"/><path fill="#ca302a" d="M35.32,42.2a.1.1,0,0,1-.1.1c0,.1-.1.1-.1.2h0c-5.3-6.6-10.5-13.4-15.4-20.3l-.9-1.2.6.3c.4.2.9.3,1.3.5a2.51,2.51,0,0,1,.7.4h0a57.25,57.25,0,0,1,9.3,7.1.75.75,0,0,1,.1.5h0c1.1,3.5,2.8,6.8,3.9,10.3C34.82,40.8,35.72,41.3,35.32,42.2Z"/><path fill="#e4322a" d="M31.92,30.2a6.37,6.37,0,0,0-.7-.2c-.2-.1-.4-.1-.5-.2h0c-3.2-2.5-6.4-5.1-9.6-7.6-.1-.1-.3-.2-.4-.3.1,0,.2-.1.3-.1h0a5.76,5.76,0,0,1,4.2.9,24.34,24.34,0,0,1,4.4,4.1A16.88,16.88,0,0,1,31.92,30.2Z"/><path d="M44.72 35.5L44.52 35.8 44.41 36 43.62 36.9 43.62 37 43.62 37 43.02 37.7 43.02 37.7 41.22 40.2 41.12 40.2 39.12 42.9 38.81 43.3 37.41 45.1 38.22 42.5 38.41 42.3 40.12 40.2 40.52 39.8 41.72 38.3 42.02 38 44.31 35.3 44.72 35.5z" class="cls-2"/><path d="M44.81 35.6L44.62 35.7 44.62 35.7 44.62 35.8 43.62 37 43.62 37 43.52 37.2 43.52 37.2 37.41 45.1 35.22 42.3 34.81 41.8 19.61 22.2 17.82 19.8 18.61 20.3 21.02 21.7 21.02 21.7 21.91 22.2 21.91 22.2 28.11 25.8 28.11 25.8 29.61 26.7 33.72 29.1 33.72 29.1 34.52 29.6 44.31 35.3 44.72 35.5 44.81 35.6z" class="cls-4"/><path fill="#00a050" d="M117.12,41c-6.5-8.3-12.9-16.7-19.2-25.3a24.48,24.48,0,0,0-4.8-6.3c-2.3-3-4.6-6-6.9-8.9.6-.7,1.2-.4,1.8-.4,11.9,0,23.7,0,35.6-.1a3.24,3.24,0,0,1,2.8,1.4c9.9,13.2,19.9,26.3,29.9,39.5,2.4,3.2,2.5,6.1.1,9.3-4.3,5.8-8.8,11.5-13.2,17.3-1,.3-1.3,1.2-1.9,2-.8,1-1.6,1.1-2.5.1-1.1-1.2-1.9-2.5-2.9-3.8-4.6-6.1-9.3-12.2-13.9-18.3-1.3-1.7-2.4-3.7-3.7-5.4A3.1,3.1,0,0,0,117.12,41Z"/><path fill="#febe00" d="M140,71.4l-9.6,12.9c-1.4,1.9-2.9,3.8-4.3,5.7a2.25,2.25,0,0,1-2.1,1.2H87.42a9.64,9.64,0,0,1-1.2-.2,20.38,20.38,0,0,1,3.1-4.4q14-18.45,28-36.9a4.74,4.74,0,0,1,1-1c.8,1.2-.2,1.9-.8,2.6-.9,1.1-.8,1.9.3,2.6s2.2,1.9,3.5,2.6c2.3,1.7,4.4,3.7,6.8,5.2,3.8,2.7,7.2,5.9,11.2,8.4C139.82,70.5,140.12,70.8,140,71.4Z"/><path fill="#feb700" d="M121.12,57a5,5,0,0,1-1.9-1.3c-1-1-2.6-1.4-3-2.7s1.5-2,1.9-3.2c.1-.3.1-.6.2-.9.7-1.1,1.4-2.2,2.1-3.2a17.9,17.9,0,0,1,4.2,5.3A7.9,7.9,0,0,1,121.12,57Z"/><path fill="#07914b" d="M124.32,50.9c-1.3-1.8-2.7-3.6-4-5.3L117,41.1c1.1-.4,1.2.7,1.6,1.2,6.6,8.8,13.3,17.6,19.9,26.4,1.3,1.7,1.6,1.7,2.9,0,.4-.5.5-1.6,1.6-1.2-1,1.3-2.1,2.6-3.1,4l-.9-.9c-3.5-3.5-6.1-7.6-9.1-11.4-1.4-1.9-2.9-3.8-4.3-5.7A21,21,0,0,1,124.32,50.9Z"/><path fill="#059250" d="M93,9.4a1.44,1.44,0,0,1,.3-.2,26.94,26.94,0,0,1,4.8,6.3s-.2.2-.2.3A77.29,77.29,0,0,1,93,9.4Z"/><path d="M124.32,50.9c2,2.6,4,5.3,6,7.9,0,.4.3,1-.2,1-1.7,0-2.2,1-2.2,2.4-2.5-1.4-4.5-3.5-6.8-5.2A19.78,19.78,0,0,0,124.32,50.9Z" class="cls-16"/><path fill="#fda900" d="M127.92,62.2c-.1-.3,0-.7-.3-1-.6-.6-.6-.8.4-.9a.79.79,0,0,0,.7-.5c.4-.8.7-1.5,1.4-.4l.3-.6c3,3.9,6.1,7.7,8.8,11.8-3.1-1.7-5.7-4.1-8.5-6.2C129.72,63.6,128.82,62.9,127.92,62.2Z"/><path d="M117.22 49.8L120.31 45.6 116.52 53.6 115.22 52.5 117.22 49.8z" class="cls-16"/><path fill="#666" d="M335.32 48.6c-.2.3-.1.6-.1.9v3.4c0 .6-.1.7-.7.7h-2.9c-.6 0-.6-.1-.7-.6V7.4c0-1.1 0-1.1 1.1-1.1h2c1.1 0 1.1 0 1.1 1.1V23.2c0 .3-.1.5.1.8.3 0 .3-.1.4-.2a13.17 13.17 0 0 1 7.6-4.6 17.91 17.91 0 0 1 6.5-.3 12.61 12.61 0 0 1 6.1 2.5 15.82 15.82 0 0 1 5.1 6.9 17.69 17.69 0 0 1 1.3 7.2V38a25.1 25.1 0 0 1-.7 5.5 16.84 16.84 0 0 1-2 4.8 13.13 13.13 0 0 1-7.3 5.6 15.59 15.59 0 0 1-8.3.4 13 13 0 0 1-8.4-5.5C335.52 48.7 335.42 48.7 335.32 48.6zm11.2 1.9a7.9 7.9 0 0 0 4.2-.8 9.43 9.43 0 0 0 4.3-3.3 13.13 13.13 0 0 0 2.6-7.9v-.9a18.07 18.07 0 0 0-1.2-8.3 11.39 11.39 0 0 0-3.1-4.4 10.7 10.7 0 0 0-4.7-2.2 10.2 10.2 0 0 0-5.5.3 10.45 10.45 0 0 0-6 5.3 18.18 18.18 0 0 0-1.7 5.6 17.54 17.54 0 0 0 .1 5.6 19.31 19.31 0 0 0 1.3 4.7 10.8 10.8 0 0 0 2.8 3.9A8.9 8.9 0 0 0 346.52 50.5zM183 49.1a1.53 1.53 0 0 0-.1.9V65.8c0 1.2 0 1.2-1.2 1.2h-2.2c-.7 0-.8-.1-.8-.8V20.8c0-1.6 0-1.4 1.4-1.4h1.7c1.1 0 1.1 0 1.1 1.1v3.2a2 2 0 0 0 .1.7c.3 0 .4-.2.5-.4a13 13 0 0 1 4.9-4.1 12.22 12.22 0 0 1 5.6-1.4h2.2a12.91 12.91 0 0 1 8.6 3.4 13.85 13.85 0 0 1 4 6.1 20.88 20.88 0 0 1 1.2 7.4c0 1.2 0 2.4-.1 3.6a18.65 18.65 0 0 1-1.1 5.1 15.13 15.13 0 0 1-2.2 4.4 13.15 13.15 0 0 1-5.9 4.8 12 12 0 0 1-3.7 1c-1 .1-2 .1-3 .1a14.66 14.66 0 0 1-10.1-4.2A2.92 2.92 0 0 0 183 49.1zm22.4-13a22.5 22.5 0 0 0-.4-4.4 12.81 12.81 0 0 0-1.7-4.2 10.47 10.47 0 0 0-8.1-5 10.07 10.07 0 0 0-5.1.7 10 10 0 0 0-5.4 4.9 14 14 0 0 0-1.3 3.4 29.67 29.67 0 0 0-.7 4.3 19.86 19.86 0 0 0 .7 5.9 12.63 12.63 0 0 0 3.7 6.3 9.3 9.3 0 0 0 5.1 2.4 11.17 11.17 0 0 0 4.8-.3 9.41 9.41 0 0 0 4.5-2.7 12.32 12.32 0 0 0 3-5.9A11 11 0 0 0 205.42 36.1zM307.82 18.6h1.3a13.44 13.44 0 0 1 8.6 3.2 15.26 15.26 0 0 1 4.5 6.4 18.9 18.9 0 0 1 1 4.1 29.11 29.11 0 0 1 .3 5.1 22.47 22.47 0 0 1-.7 5.2 16.31 16.31 0 0 1-2 4.9 14.33 14.33 0 0 1-7.4 6.1 17.49 17.49 0 0 1-6.8.9 14.92 14.92 0 0 1-8.8-3.3 15.66 15.66 0 0 1-3.9-4.9 15 15 0 0 1-1.5-4.2 12.59 12.59 0 0 1-.4-2.7 27.15 27.15 0 0 1 0-5.7 19.88 19.88 0 0 1 2.7-8.2 14.17 14.17 0 0 1 7.1-5.9A11.08 11.08 0 0 1 307.82 18.6zm11.1 17.6a19.63 19.63 0 0 0-.7-5.2 12.84 12.84 0 0 0-2.1-4.6 9.05 9.05 0 0 0-5-3.4 12.93 12.93 0 0 0-4.4-.4 10.59 10.59 0 0 0-3.6.9 10.31 10.31 0 0 0-5.5 6.4 24.91 24.91 0 0 0-.9 3.7 21.76 21.76 0 0 0-.1 5.7 16 16 0 0 0 1.8 6 9.64 9.64 0 0 0 8.8 5.4h1.6a8.61 8.61 0 0 0 3.8-1 10.58 10.58 0 0 0 5.2-6A20.68 20.68 0 0 0 318.92 36.2zM237.72 36.6a14 14 0 0 1 .4-5c1-4.4 2.9-8.2 6.8-10.7a13.59 13.59 0 0 1 7.6-2.3h2.4a13.66 13.66 0 0 1 10.2 4.7 16.72 16.72 0 0 1 3.6 7 25.31 25.31 0 0 1 .6 9.1 18.13 18.13 0 0 1-2.7 8.1 14.33 14.33 0 0 1-7.4 6.1 17.11 17.11 0 0 1-7.8.8 15.29 15.29 0 0 1-7.9-3.2 13.73 13.73 0 0 1-3.8-4.8 19.33 19.33 0 0 1-1.6-4.6A18.28 18.28 0 0 1 237.72 36.6zm27-.1a13.68 13.68 0 0 0-.2-2.8 19.52 19.52 0 0 0-1.4-5.4 9.67 9.67 0 0 0-8.4-5.8 15.89 15.89 0 0 0-3.8.2 9.51 9.51 0 0 0-6.2 4.3 16.3 16.3 0 0 0-2.4 8.1 22.13 22.13 0 0 0 .6 6.8 11.66 11.66 0 0 0 1.8 4.1 9.48 9.48 0 0 0 8.1 4.5h1.8a8.61 8.61 0 0 0 3.8-1 9.6 9.6 0 0 0 4.4-4.5A17.67 17.67 0 0 0 264.72 36.5zM397.42 36.5V52.9c0 .6-.1.7-.7.7h-2.8c-.7 0-.8-.1-.8-.8V50.1c0-.2.1-.4-.1-.4s-.3.1-.4.2a11.93 11.93 0 0 1-3.7 3 11.74 11.74 0 0 1-6 1.6 23.58 23.58 0 0 1-3.8-.2 9.54 9.54 0 0 1-7.4-5.3 12.71 12.71 0 0 1-1.3-4.6c-.1-1-.1-2-.1-2.9V20.8c0-1.3 0-1.3 1.4-1.3h2.1c.7 0 .8.1.9.8V41a26.2 26.2 0 0 0 .1 2.8 7.76 7.76 0 0 0 2.3 5.1 7.34 7.34 0 0 0 2.6 1.4 10.81 10.81 0 0 0 4.7.3 8 8 0 0 0 5.9-3.3 12.47 12.47 0 0 0 2.5-5.9 24.75 24.75 0 0 0 .3-4.7V20.2c0-.6.1-.7.8-.8h2.8c.6 0 .7.1.7.8V36.5zM412.52 38.3V52.8c0 .6-.1.7-.7.7h-3a.53.53 0 0 1-.6-.6v-29c0-.9 0-.9-.9-.9h-3.2c-1 0-1.1-.1-1.1-1V20.1c0-.6.1-.7.8-.7h3.5c.8 0 .8 0 .8-.8V12.5a9.16 9.16 0 0 1 1.7-5.1 5.06 5.06 0 0 1 3.5-2 15.45 15.45 0 0 1 4.8 0c.4.1.7.3.7.7V8.9c0 .5-.2.6-.7.5a19.42 19.42 0 0 0-2.4-.2 3.17 3.17 0 0 0-3.1 2.5 29.86 29.86 0 0 0-.4 4.3v2.7c0 .6 0 .7.7.7h4.5c1.4 0 1.4 0 1.4 1.3v1.5c0 .7-.2.9-.9.9h-4.6c-1 0-1 0-1 1C412.52 28.9 412.52 33.6 412.52 38.3zM277.52 36.5V24.1c0-1 0-1-1-1h-2.9c-.7 0-.8-.1-.9-.8V20.1c0-.6.2-.7.7-.7h3.3c.8 0 .8 0 .8-.8V10.5a.53.53 0 0 1 .6-.6h3a.47.47 0 0 1 .5.5v8.1c0 .9 0 .9.9.9H287c.8 0 .9 0 .9.9v1.8c0 .9-.1 1-1 1H282c-.4 0-.6.2-.5.6V44.4c0 1.2.2 2.5.2 3.7v.2c.2 1.4.8 2.2 2.5 2.1a8.52 8.52 0 0 0 3.2-.3c.6-.2.8 0 .8.6V53c0 .4-.1.7-.5.8-.8.1-1.6.4-2.4.5a12.1 12.1 0 0 1-3.8 0 4.85 4.85 0 0 1-3.9-3.5 14.28 14.28 0 0 1-.3-2.9C277.52 44.1 277.52 40.3 277.52 36.5zM222.52 24.8c.5-.3.6-.8.8-1.2a8.92 8.92 0 0 1 5.3-4.4 14.2 14.2 0 0 1 4.6-.6.53.53 0 0 1 .6.6v3.4a.68.68 0 0 1-.7.7 11.7 11.7 0 0 0-3.2.4 8.71 8.71 0 0 0-3.1 1.4 8.8 8.8 0 0 0-3.2 4.6 15.58 15.58 0 0 0-.8 4.2c-.4 4-.3 8.1-.3 12.1v7.3a.37.37 0 0 1-.4.4h-3.3a.47.47 0 0 1-.5-.5V20.9c0-1.3 0-1.3 1.3-1.3h2.1c.8 0 .8.1.8.8v3.7C222.32 24.2 222.32 24.5 222.52 24.8zM242.72 79.1V74c0-.9.1-1 1-1 1.5 0 3-.1 4.5 0s2.6.5 3.2 1.9a2.89 2.89 0 0 1-.6 3.3c-.4.4-.4.4.1.7 1.9 1.2 1.7 4.6-.7 5.7a4.06 4.06 0 0 1-1.9.4h-4.7c-.9 0-.9-.1-.9-1V79.1zm4.2 4.2a10.28 10.28 0 0 0 1.7-.1 1.75 1.75 0 0 0 1.6-1.8c0-.8-.6-1.4-1.6-1.6a19.33 19.33 0 0 0-3.4-.1.53.53 0 0 0-.6.6v2.3a.53.53 0 0 0 .6.6A9.7 9.7 0 0 0 246.92 83.3zm-.2-8.6h-1.5c-.3 0-.4.1-.4.5v2.4c0 .3.2.5.5.4h2.8a2.1 2.1 0 0 0 1.1-.4 1.28 1.28 0 0 0 .6-1.4 1.37 1.37 0 0 0-.8-1.3A19.53 19.53 0 0 0 246.72 74.7zM267.12 81.3V78.4c0-.4-.1-.6-.5-.6a8.55 8.55 0 0 0-1.6 0c-.4 0-.5.2-.5.6v5.7c0 .8-.1.9-.9.9h-.2c-.6 0-.7-.1-.7-.7V78.5c0-.4-.1-.7-.6-.7s-.6-.2-.6-.8.1-.7.6-.8.6-.3.6-.7v-.8a2.29 2.29 0 0 1 3-1.8c.3.1.3.4.3.7a.74.74 0 0 1-.4.8c-.1 0-.2 0-.2.1a1.09 1.09 0 0 0-.9 1.5c.1.2.2.3.4.3a10.82 10.82 0 0 0 1.8 0c.3 0 .4-.2.4-.5v-.9a2.29 2.29 0 0 1 3-1.9.55.55 0 0 1 .4.6c0 .3 0 .7-.3.9a.37.37 0 0 0-.3.1c-.8.2-.8.2-.8 1s0 .7.8.8c.6.1.7.2.7.8s-.1.7-.7.8h-.3a.53.53 0 0 0-.6.6v5.8c0 .3 0 .7-.4.7a1.5 1.5 0 0 1-1.3-.1c-.2-.1-.1-.4-.1-.6a10.86 10.86 0 0 1-.1-3.1zM178.62 79V74c0-.9.1-1 1-1H184a4.14 4.14 0 0 1 1.9.5 3.09 3.09 0 0 1 1.7 3.2 3.49 3.49 0 0 1-3.7 3.6h-2.5c-.9 0-.9 0-.8.9v3c0 .8-.1.9-.9.9h-.3c-.7 0-.8-.1-.8-.9V79zm4-.5h1.5a1.8 1.8 0 0 0 0-3.6c-1-.1-2 0-3 0-.3 0-.4.2-.4.5v2.7c0 .4.2.6.5.6A3.4 3.4 0 0 1 182.62 78.5zM275.72 81.4h-2.4c-.6 0-.6.1-.5.6a1.93 1.93 0 0 0 1.7 1.8 2.22 2.22 0 0 0 2.3-1.1 1.29 1.29 0 0 1 1.7-.6.43.43 0 0 1 .2.7 4.29 4.29 0 0 1-3.6 2.7 4.07 4.07 0 0 1-4.2-3.1 5.51 5.51 0 0 1 .2-3.8A4 4 0 0 1 275 76a3.88 3.88 0 0 1 3.6 2.7 5.37 5.37 0 0 1 .1 2.2c0 .4-.3.5-.7.5zm-.8-1.7h1.7c.4 0 .5-.2.4-.5a2.34 2.34 0 0 0-1.6-1.6 2.21 2.21 0 0 0-2.5 1.6c-.1.4 0 .6.4.6A8.08 8.08 0 0 1 274.92 79.7zM289.12 85.5a3.85 3.85 0 0 1-2.7-.9 2.59 2.59 0 0 1-.9-1.7c-.2-.6 0-.8.7-.9.9 0 1-.1 1.3.7.2.6.6.8 1.2 1a2.49 2.49 0 0 0 1.9-.2 1 1 0 0 0 .6-1c0-.4-.2-.6-.6-.8A11.07 11.07 0 0 0 288 81c-.2-.1-.5-.2-.7-.3a2.09 2.09 0 0 1-1.5-2.3 2.91 2.91 0 0 1 2-2.5 5.45 5.45 0 0 1 3.1 0 3 3 0 0 1 2 2.1c.1.5 0 .7-.5.8-.7.1-1 0-1.3-.6a1.55 1.55 0 0 0-1.5-.9h-.9a1.08 1.08 0 0 0-.9.8c-.1.4.1.7.6 1 .8.4 1.7.4 2.6.8a3.55 3.55 0 0 1 .9.4 2.35 2.35 0 0 1 .9 3.3A4.18 4.18 0 0 1 289.12 85.5zM202.32 80.4a7.1 7.1 0 0 1-.4 2.6 4 4 0 0 1-7.7-.9 6.08 6.08 0 0 1 .6-4.2 3.57 3.57 0 0 1 3.6-1.9 3.84 3.84 0 0 1 3.5 2.2A4.31 4.31 0 0 1 202.32 80.4zm-1.8.2a3.81 3.81 0 0 0-.3-1.9 2 2 0 0 0-2.1-1.2 2.14 2.14 0 0 0-1.7 1.4 5.24 5.24 0 0 0 0 3.7 1.87 1.87 0 0 0 1.9 1.3c1.1 0 1.5-.2 1.9-1.2A8.81 8.81 0 0 0 200.52 80.6zM233 80.5a5.69 5.69 0 0 1-.4 2.6 4.11 4.11 0 0 1-5 2.2 3.79 3.79 0 0 1-2.6-3 5.86 5.86 0 0 1 .5-4.3 3.82 3.82 0 0 1 4.1-2 4 4 0 0 1 3.5 3.6A2.48 2.48 0 0 0 233 80.5zm-1.9.1a4.23 4.23 0 0 0-.3-2 2.08 2.08 0 0 0-2.2-1.1 1.94 1.94 0 0 0-1.6 1.4 4.75 4.75 0 0 0 0 3.7 1.87 1.87 0 0 0 1.9 1.3c1.1 0 1.5-.2 1.9-1.2A4.12 4.12 0 0 0 231.12 80.6zM215.92 80.5a7.46 7.46 0 0 1-.4 2.6 4.14 4.14 0 0 1-5 2.2 3.61 3.61 0 0 1-2.5-2.7 5.82 5.82 0 0 1 .9-5.4 4 4 0 0 1 4.5-1.1 3.93 3.93 0 0 1 2.5 3.4zm-1.9.2c0-1.3 0-1.4-.3-2a1.94 1.94 0 0 0-2.1-1.2 1.9 1.9 0 0 0-1.7 1.4 5.24 5.24 0 0 0 0 3.7 1.87 1.87 0 0 0 1.9 1.3 1.66 1.66 0 0 0 1.9-1.2A4.88 4.88 0 0 0 214 80.7zM260.52 80.7v3.4c0 1-.3 1.2-1.3 1-.1 0-.2-.1-.3-.1-.3-.3-.5-.2-.8 0a3.13 3.13 0 0 1-3.1.3 2.66 2.66 0 0 1-1.7-2.6c-.1-1.9 0-3.8 0-5.6 0-.7.2-.8.9-.8s.9.1.9.8v5.6c.1.9.6 1.3 1.6 1.2a1.88 1.88 0 0 0 1.9-1.8 14.77 14.77 0 0 0 .1-2.1V77.1c0-.3 0-.6.3-.7a1.28 1.28 0 0 1 1.2 0c.3.1.2.5.2.8.1 1.1.1 2.3.1 3.5zM216.42 80.8a4.83 4.83 0 0 1 .8-3.1 3.9 3.9 0 0 1 5.9-.8 4 4 0 0 1 .9 2 .37.37 0 0 1-.2.5 1.32 1.32 0 0 1-1.8-.7 1.68 1.68 0 0 0-2.8-.7 2.18 2.18 0 0 0-.5.8 5.26 5.26 0 0 0-.1 3.9 1.71 1.71 0 0 0 1.7 1.2 1.63 1.63 0 0 0 1.7-1.2 1.36 1.36 0 0 1 1.8-.7.4.4 0 0 1 .2.6 3.52 3.52 0 0 1-3.3 2.9 4 4 0 0 1-4-2.6A7.61 7.61 0 0 1 216.42 80.8zM203.72 80.9V78.5c0-.4-.1-.6-.6-.6s-.7-.2-.6-.9.1-.7.6-.8a.53.53 0 0 0 .6-.6V74.5c0-.5.1-.6.7-.7h.5a.53.53 0 0 1 .6.6v1.3c0 .4.2.5.5.5h.2c.7.1.9.2.8.8s-.1.7-.8.8-.7.1-.7.7v4.4c0 .7 0 .7.7.8s.8.2.8.7-.2.8-.8.9c-1.4.2-2.5-.3-2.5-2.1V80.9zM234.62 79.1V73.9c0-.7.2-.9.9-.9s.9.2.9.9V84.3c0 .3 0 .7-.4.8a1.5 1.5 0 0 1-1.3-.1 1.08 1.08 0 0 1-.2-.8c0-1.8.1-3.5.1-5.1zM191 76.9c.3 0 .5-.3.7-.4a2.51 2.51 0 0 1 .7-.4c1-.2 1.4.1 1.3 1.1 0 .4-.3.6-.7.7a2 2 0 0 0-.8.1 1.89 1.89 0 0 0-1.2 1.4 12.1 12.1 0 0 0-.1 1.9v2.9c0 .3 0 .7-.3.8a1.5 1.5 0 0 1-1.3-.1c-.2-.1-.2-.4-.2-.6V77c0-.6.1-.8.6-.9.7-.1.9 0 1.2.6C190.92 76.8 190.92 76.8 191 76.9zM282.32 76.9a1.79 1.79 0 0 0 .7-.5 1.49 1.49 0 0 1 .7-.3c1.1-.3 1.5.1 1.3 1.2a.58.58 0 0 1-.6.6h-.6a1.71 1.71 0 0 0-1.4 1.3 4.87 4.87 0 0 0-.1 1.2v3.9c0 .7-.1.8-.9.8s-.9-.1-.9-.8V77.1c0-.6.1-.8.5-.9.6-.1 1 0 1.2.5C282.22 76.8 282.22 76.8 282.32 76.9z"/><path d="M9.32,60.5l-4.4-5.7a1.8,1.8,0,0,0,.9.6c.1.3.1.6.2.7C7.12,57.6,8.22,59.1,9.32,60.5Z" class="cls-1"/></g></g></svg>