<svg xmlns="http://www.w3.org/2000/svg" role="img" viewBox="-5.34 -5.34 277.94 92.69"><title>Pulumi logo</title><style>svg {enable-background:new 0 0 267.3280029 82.0653763}</style><style>.st0{fill:#ee985d}</style><path d="M261.90915 10.7612c2.92953.04929 5.41022-2.37682 5.41693-5.30707.07947-2.92506-2.31772-5.41687-5.32144-5.45372-2.94507-.0362-5.35654 2.35251-5.42325 5.2498-.06848 2.97358 2.28918 5.45977 5.32776 5.511z" class="st0"/><path fill="#522768" d="M160.7285 14.94901c-2.39508 0-4.35475 1.95966-4.35475 4.35474V42.0403c0 6.99445-5.6701 12.66456-12.66457 12.66456-6.99438 0-12.6645-5.6701-12.6645-12.66456V19.30375c0-2.39508-1.95966-4.35474-4.35475-4.35474-2.39514 0-4.3548 1.95966-4.3548 4.35474V42.0403c0 11.80458 9.56953 21.37411 21.37405 21.37411 11.80458 0 21.37412-9.56953 21.37412-21.37411V19.30375c0-2.39508-1.95966-4.35474-4.3548-4.35474zM109.47403.24701c-2.39514 0-4.3548 1.9596-4.3548 4.35475v54.49355c0 2.39515 1.95966 4.3548 4.3548 4.3548 2.39515 0 4.35474-1.95965 4.35474-4.3548V4.60176c0-2.39514-1.9596-4.35474-4.35474-4.35474zm152.48209 14.702c-2.39515 0-4.35474 1.95966-4.35474 4.35474v39.75586c0 2.39514 1.9596 4.3548 4.35474 4.3548s4.3548-1.95966 4.3548-4.3548V19.30375c0-2.39508-1.95966-4.35474-4.3548-4.35474zm-169.69806 0c-2.39508 0-4.35474 1.95966-4.35474 4.35474V42.0403c0 6.99445-5.67011 12.66456-12.66457 12.66456-6.99439 0-12.6645-5.6701-12.6645-12.66456V19.30375c0-2.39508-1.95966-4.35474-4.35474-4.35474-2.39515 0-4.35481 1.95966-4.35481 4.35474V42.0403c0 11.80458 9.56953 21.37411 21.37405 21.37411 11.80459 0 21.37412-9.56953 21.37412-21.37411V19.30375c0-2.39508-1.95966-4.35474-4.3548-4.35474zm135.45686 0c-6.95552 0-13.1161 3.33728-17.01932 8.48164-3.9032-5.14436-10.06384-8.48164-17.0193-8.48164-11.80458 0-21.37411 9.56953-21.37411 21.37411v22.73655c0 2.39508 1.95965 4.35474 4.3548 4.35474 2.39509 0 4.35474-1.95966 4.35474-4.35474V36.32312c0-6.99445 5.6701-12.66456 12.66457-12.66456 6.9944 0 12.6645 5.67011 12.6645 12.66456v22.73655c0 1.1975.48993 2.2862 1.27924 3.0755s1.878 1.27924 3.0755 1.27924h.00006c.2994 0 .592-.03058.87477-.08887a4.31193 4.31193 0 0 0 .8161-.25476c.52057-.22119.99-.54095 1.38465-.9356.7893-.78931 1.27923-1.878 1.27923-3.07551V36.32312c0-6.99445 5.6701-12.66456 12.66457-12.66456 6.9944 0 12.6645 5.67011 12.6645 12.66456v22.73655c0 2.39508 1.95966 4.35474 4.35476 4.35474 2.39514 0 4.3548-1.95966 4.3548-4.35474V36.32312c0-11.80458-9.56954-21.3741-21.37406-21.3741zm-203.48216-.00006c-13.38338 0-24.2327 10.84938-24.2327 24.23276H0v38.52892c0 2.3951 1.95966 4.35475 4.3548 4.35475 2.39509 0 4.35475-1.95966 4.35475-4.35475V39.18171h.00006c0-8.57325 6.94996-15.52315 15.52315-15.52315s15.52316 6.9499 15.52316 15.52315c0 8.5732-6.94997 15.5231-15.52316 15.5231-2.4051 0-4.3548 1.9497-4.3548 4.3548s1.9497 4.3548 4.3548 4.3548c13.38332 0 24.2327-10.84938 24.2327-24.2327 0-13.38338-10.84938-24.23276-24.2327-24.23276z"/><path d="M90.65162 10.08318c0-.02015-.0056-.03876-.006-.0588-.00265-.0887-.01221-.1765-.02656-.26428-.16632-1.91488-1.75506-3.42266-3.71308-3.42266-.60241 0-1.16333.15544-1.66748.40813-.89467-3.86211-4.34062-6.74521-8.47494-6.74521-3.62876 0-6.73636 2.21822-8.04923 5.3713-.89996-.58044-1.9692-.92102-3.11982-.92102-3.18583 0-5.76864 2.5827-5.76864 5.76864 0 1.66383 1.29842 1.8506 3.4259 1.8506l25.43298.0001c1.23699 0 1.96199-.98827 1.96086-1.98721a.12033.12033 0 0 1 .006.0004z" class="st0"/></svg>