<svg xmlns="http://www.w3.org/2000/svg" role="img" viewBox="2.35 7.60 384.80 142.55"><title>Replex logo</title><g fill="#000" fill-rule="evenodd"><path d="M67.06947 109H57V71.15305C57 60.59264 65.62157 52 76.21755 52c5.52834 0 10.7276 2.16456 14.54479 6.1657L93 60.52705l-7.3053 6.95282-2.23766-2.36133c-1.9086-1.96778-4.47532-3.08286-7.23949-3.08286-5.06764 0-9.14808 4.06675-9.14808 9.11738V109z"/><path d="M74 143c-35.30809 0-64-28.69191-64-64s28.69191-64 64-64 64 28.69191 64 64-28.75742 64-64 64zm0-123.61105c-32.88434 0-59.61105 26.72671-59.61105 59.61105 0 32.88434 26.72671 59.61105 59.61105 59.61105 32.88434 0 59.61105-26.72671 59.61105-59.61105 0-32.81883-26.72671-59.61105-59.61105-59.61105zM169.33728 59c1.7574 0 3.64497.19816 5.66272.52842l-.71598 3.69892c-1.7574-.46236-3.51479-.66052-5.40236-.66052-3.57989 0-6.44379 1.5192-8.7219 4.5576-2.2781 3.0384-3.38461 6.93549-3.38461 11.55914V102H153V59.72657h3.18935l.39053 7.59601h.26036c1.6923-3.10445 3.51479-5.28418 5.46745-6.53917C164.19527 59.66052 166.53846 59 169.33728 59zm33.91416 44c-6.0691 0-10.76775-1.92169-14.16123-5.6988C185.69674 93.5241 184 88.15663 184 81.33133c0-6.75904 1.63148-12.19278 4.89443-16.23494C192.1574 61.05422 196.59501 59 202.14203 59c4.89444 0 8.80998 1.7229 11.61613 5.23494C216.62956 67.74699 218 72.45181 218 78.41566v3.11446h-30.08445c.06526 5.83133 1.37044 10.27108 3.9808 13.31928 2.61037 3.04819 6.3954 4.57229 11.28983 4.57229 2.34933 0 4.50288-.1988 6.26488-.53012 1.82725-.33133 4.11132-1.06024 6.8522-2.18675v3.51205c-2.34932 1.06024-4.50288 1.72289-6.5259 2.12048-1.89252.46385-4.11133.66265-6.52592.66265zm-1.1094-40.55422c-4.04607 0-7.24377 1.3253-9.65836 4.04217-2.41458 2.71687-3.85028 6.56024-4.24184 11.66265h25.77735c0-4.90361-1.04414-8.74699-3.13243-11.53012-2.0883-2.78313-5.02496-4.1747-8.74473-4.1747zm48.5524 40.3228c-6.35185 0-11.01851-2.43525-13.93518-7.30573H236.5l.12963 3.22505c.12963 1.9087.12963 4.01486.12963 6.25265V121H233V59.85563h3.17593l.71296 5.98938h.25926C240 61.30361 244.53704 59 250.82407 59c5.57408 0 9.85186 1.84289 12.76852 5.59448C266.50926 68.34608 268 73.7431 268 80.85138c0 6.91083-1.55556 12.30786-4.66667 16.12527-3.0463 3.88322-7.25926 5.79193-12.63889 5.79193zm-.06481-3.4225c4.27778 0 7.51852-1.57963 9.85185-4.80468 2.33334-3.22505 3.5-7.70064 3.5-13.42675 0-12.37367-4.4074-18.56051-13.22222-18.56051-4.86111 0-8.36111 1.31635-10.62963 4.01486-2.26852 2.69852-3.37037 7.10828-3.37037 13.16348v1.25053c0 6.58175 1.10185 11.25478 3.24074 14.08493 2.2037 2.89597 5.7037 4.27813 10.62963 4.27813zM282 102h4V42h-4zm38.25144 1c-6.0691 0-10.76776-1.92169-14.16123-5.6988C302.69674 93.5241 301 88.15663 301 81.33133c0-6.75904 1.63148-12.19278 4.89443-16.23494C309.1574 61.05422 313.59501 59 319.14203 59c4.89444 0 8.80999 1.7229 11.61613 5.23494C333.62956 67.74699 335 72.45181 335 78.41566v3.11446h-30.08445c.06526 5.83133 1.37044 10.27108 3.9808 13.31928 2.61037 3.04819 6.3954 4.57229 11.28983 4.57229 2.34933 0 4.50288-.1988 6.26488-.53012 1.82725-.33133 4.11132-1.06024 6.8522-2.18675v3.51205c-2.34933 1.06024-4.50288 1.72289-6.5259 2.12048-1.89252.46385-4.11133.66265-6.52592.66265zm-1.1094-40.55422c-4.04607 0-7.24377 1.3253-9.65836 4.04217-2.41458 2.71687-3.85028 6.56024-4.24184 11.66265h25.77735c0-4.90361-1.04414-8.74699-3.13243-11.53012-2.15355-2.78313-5.02496-4.1747-8.74472-4.1747zM360.112 80.409L345.523 60h4.384l12.495 17.653L374.766 60h4.187l-14.327 20.409L380 102h-4.449l-13.149-18.703L349.187 102H345z"/></g></svg>