<svg xmlns="http://www.w3.org/2000/svg" role="img" viewBox="45.70 112.20 392.60 278.85"><title>Rundeck logo</title><path d="M174.731 123.926h21.098c9.282-.41 18.409 2.497 25.743 8.203 6.434 5.047 10.121 12.826 9.957 21.001.071 6.597-2.216 13.002-6.449 18.063-5.212 5.726-12.155 9.589-19.77 10.999l28.446 43.615h-15.55l-27.118-41.861h-2.987v41.956h-13.37V123.926zm13.37 12.326v35.557c19.69.442 29.536-5.5 29.536-17.826.166-3.841-1.062-7.613-3.461-10.619-2.39-2.797-5.613-4.757-9.196-5.593-5.548-1.166-11.213-1.675-16.879-1.519zm62.675-12.184h13.368v62.864c-.494 7.707 1.775 15.337 6.399 21.522 4.562 5.193 11.26 7.989 18.158 7.586 6.778.37 13.388-2.185 18.158-7.015 4.616-5.499 6.94-12.56 6.494-19.723v-65.234h13.322v64.097c.543 10.915-3.122 21.623-10.241 29.914-7.011 7.538-16.972 11.627-27.259 11.188-10.506.445-20.683-3.709-27.876-11.377-6.985-7.587-10.479-18.758-10.479-33.518l-.044-60.304zm94.579-4.219l72.251 77.513v-73.436h13.369v106.67l-72.251-77.134v72.394h-13.369V119.849zM89.425 279.637h23.4c18.534 0 32.326 5.102 41.374 15.305 8.77 9.545 13.617 22.046 13.572 35.007.061 13.08-4.976 25.673-14.04 35.103-9.36 10.172-22.949 15.256-40.765 15.256h-23.4l-.141-100.671zm13.2 13.433v73.618h.747c7.406.161 14.812-.31 22.138-1.404 5.06-.979 9.85-3.038 14.04-6.038 4.512-3.172 8.163-7.419 10.624-12.354 5.995-12.175 5.104-26.61-2.34-37.957-3.527-5.711-8.792-10.14-15.022-12.636-7.56-2.404-15.474-3.497-23.401-3.229h-6.786zm79.28-13.433h53.353v13.76h-40.436v25.039h40.436v13.572h-40.436v34.586h40.436v13.572h-53.353V279.637zm146.956 3.464v15.585c-8.798-4.896-18.629-7.639-28.689-8.004-10.587-.242-20.813 3.85-28.314 11.327-15.354 15.388-15.326 40.309.062 55.663.071.073.146.146.219.218 7.938 7.523 18.553 11.567 29.485 11.232 9.682-.367 19.088-3.325 27.238-8.565v15.727c-8.686 4.826-18.472 7.325-28.408 7.254-29.798 0-53.995-24.073-54.149-53.869.025-29.438 23.869-53.303 53.306-53.354 10.115.206 20.077 2.518 29.25 6.786zm15.772-3.464h13.197v40.905l40.951-40.905h18.394l-46.801 46.802 46.801 53.961h-16.801l-42.823-49.093v48.954h-13.197l.279-100.624z"/><path fill="#F91629" d="M53.518 121l13.726 21.67h68.668L122.304 121H53.518zm27.531 43.262l6.646 10.381-7.158 11.405h69.297l6.882-10.855-6.882-10.657H81.206l-.157-.274zm-14.12 43.536l-13.45 21.237v.434h68.825l13.646-21.671H66.929z"/></svg>