<svg xmlns="http://www.w3.org/2000/svg" role="img" viewBox="-1.60 -1.60 109.07 46.57"><title>Scala logo</title><style>svg {enable-background:new 0 0 106 44}</style><switch><g><linearGradient id="a" x1="-492.009" x2="-491.013" y1="554.114" y2="554.114" gradientTransform="matrix(-24.482 0 0 16.323 -12020.433 -9029.604)" gradientUnits="userSpaceOnUse"><stop offset="0" stop-color="#010101"/><stop offset="1" stop-color="#656565"/></linearGradient><path fill="url(#a)" d="M25 23.4C.5 20.9.5 16.8.5 16.8V7c0 4.1 24.5 6.5 24.5 6.5v9.9z"/><linearGradient id="b" x1="-492.044" x2="-491.048" y1="554.97" y2="554.97" gradientTransform="matrix(24.482 0 0 -16.323 12046.767 9087.02)" gradientUnits="userSpaceOnUse"><stop offset="0" stop-color="#656565"/><stop offset="1" stop-color="#010101"/></linearGradient><path fill="url(#b)" d="M.5 29.9S25 32.3 25 36.4v-9.8s0-4.1-24.5-6.5v9.8z"/><linearGradient id="c" x1="-492.044" x2="-491.048" y1="554.97" y2="554.97" gradientTransform="matrix(24.482 0 0 -16.323 12046.767 9067.434)" gradientUnits="userSpaceOnUse"><stop offset="0" stop-color="#9f1c20"/><stop offset="1" stop-color="#ed2224"/></linearGradient><path fill="url(#c)" d="M25 .5v9.8s0 4.1-24.5 6.5V7S25 4.6 25 .5"/><linearGradient id="d" x1="-492.044" x2="-491.048" y1="554.97" y2="554.97" gradientTransform="matrix(24.482 0 0 -16.323 12046.767 9080.49)" gradientUnits="userSpaceOnUse"><stop offset="0" stop-color="#9f1c20"/><stop offset="1" stop-color="#ed2224"/></linearGradient><path fill="url(#d)" d="M.5 20.1S25 17.7 25 13.6v9.8s0 4.1-24.5 6.5v-9.8z"/><linearGradient id="e" x1="-492.044" x2="-491.048" y1="554.97" y2="554.97" gradientTransform="matrix(24.482 0 0 -16.323 12046.767 9093.547)" gradientUnits="userSpaceOnUse"><stop offset="0" stop-color="#9f1c20"/><stop offset="1" stop-color="#ed2224"/></linearGradient><path fill="url(#e)" d="M.5 42.9v-9.8S25 30.7 25 26.6v9.8s0 4.1-24.5 6.5"/><path fill="#231f20" d="M34.4 31.6l1-4.4c1.2.3 2.3.8 3.5 1s2.4.1 3.6-.1c.7-.1 1.1-.6 1.2-1.3.1-.7-.3-1.2-.9-1.5l-2.2-1-3-1.4c-1.9-1.1-3.1-2.8-3-5.2.1-2.4 1.3-4.1 3.4-5.2 2-1 4.1-1.3 6.3-1 1.4.2 2.8.6 4.2 1l-1.2 4.4c-1.2-.4-2.4-.8-3.6-.9-.8-.1-1.8 0-2.6.2-1.2.4-1.3 1.7-.3 2.4.7.5 1.6.8 2.4 1.1 1.1.5 2.2.9 3.2 1.5 4 2.5 3.8 8.2-.4 10.4-2.2 1.2-4.5 1.4-6.9 1.2-1.5-.1-3.1-.5-4.7-1.2zm45.3.9h-4.9l-.4-1.3c-1.2 1.2-2.6 1.7-4.2 1.7-2.4 0-4.2-1.3-4.9-3.5-.6-2.3.4-4.6 2.4-5.8 1.7-1 3.6-1.2 5.5-1.4h.7c-.1-.9-.6-1.3-1.7-1.4-1.7-.1-3.3.2-5 1.1l-1-3.6c1.3-.4 2.6-.9 3.9-1 1.6-.2 3.3-.2 4.9.1 2.7.5 4.3 2.6 4.4 5.5.1 2 .1 4 .1 6 0 1.1 0 2.6.2 3.6zm-5.6-6.9c-1-.1-1.9 0-2.8.5-.6.3-.9.9-.8 1.5.1.4.4.9.7 1.1 1.1.6 2.6-.2 2.8-1.4.2-.5.1-1.1.1-1.7zm31.4 6.9h-4.9l-.4-1.3c-1.2 1.2-2.6 1.7-4.2 1.7-2.4 0-4.2-1.3-4.9-3.5-.6-2.3.4-4.6 2.4-5.8 1.7-1 3.6-1.2 5.5-1.4h.7c-.1-.9-.6-1.3-1.7-1.4-1.7-.1-3.3.2-5 1.1l-1-3.6c1.3-.4 2.6-.9 3.9-1 1.6-.2 3.3-.2 4.9.1 2.7.5 4.3 2.6 4.4 5.5.1 2 .1 4 .1 6 0 1.1 0 2.6.2 3.6zm-5.6-6.9c-1-.1-1.9 0-2.8.5-.6.3-.9.9-.8 1.5.1.4.4.9.7 1.1 1.1.6 2.6-.2 2.8-1.4.2-.5.1-1.1.1-1.7zm-37-4.1c-2-.4-3.9-.8-5.3 1.1-.9 1.2-.9 3.3 0 4.5 1.4 1.9 3.4 1.5 5.5 1.2l.5 4c.2 1.3 0 0-.2.1-3.8 1-8.2.3-10.2-2-2-2.4-2.3-5.2-1.4-8.1.9-2.9 3.1-4.5 5.9-5.1 1.8-.4 3.7-.4 5.5.1l.5.1-.8 4.1zm20.1-11h5.4v21.9H83V10.5z"/></g></switch></svg>