<svg xmlns="http://www.w3.org/2000/svg" role="img" viewBox="-9.60 -9.60 499.20 147.20"><title>Seata logo</title><defs><style>.cls-1{fill:#111}.cls-2{fill:#0074ff}</style></defs><g id="图层_2" data-name="图层 2"><g id="图层_1-2" data-name="图层 1"><path d="M294.43 126.52L268.35 126.52 229.67 1.61 255.75 1.61 294.43 126.52z" class="cls-1"/><path d="M190.92 126.52L217 126.52 255.69 1.61 229.61 1.61 190.92 126.52z" class="cls-2"/><path d="M480.09 126.52L454.01 126.52 415.33 1.61 441.41 1.61 480.09 126.52z" class="cls-1"/><path d="M376.58 126.52L402.66 126.52 441.34 1.61 415.26 1.61 376.58 126.52z" class="cls-2"/><path d="M291.63 1.61H377.86V22.48H291.63z" class="cls-1"/><path d="M321.7 1.61H347.78V126.52H321.7z" class="cls-2"/><path d="M102.93 1.61H178.67000000000002V22.48H102.93zM102.93 105.65H178.67000000000002V126.52000000000001H102.93zM102.93 52.65H171.58V73.52H102.93z" class="cls-1"/><path d="M102.93 1.61H129.01V126.52H102.93z" class="cls-2"/><path d="M28.32 35.1q0-6.62 3.69-10.51t10.3-3.91q7 0 10.77 4.59t3.73 13.35H82a41.06 41.06 0 0 0-4.84-20.08A33.67 33.67 0 0 0 63.25 4.85 42.65 42.65 0 0 0 42.74 0Q25.49 0 14.29 9.57T3.09 34.93a33.56 33.56 0 0 0 8.24 22.61 42.23 42.23 0 0 0 7.75 6.89L31.35 43.19A12.46 12.46 0 0 1 28.32 35.1zM66 62.5L53.74 83.75c1.81 2.52 2.73 5.89 2.73 10.13q0 14-13.22 14-9.53 0-13.73-4.89t-4.2-15.7H0Q0 99.9 5.62 109.16A37.26 37.26 0 0 0 21.2 123.4a48.55 48.55 0 0 0 22.05 5q17.85 0 28.23-9.18T81.87 93.71q0-14.83-8.28-24.46A41.59 41.59 0 0 0 66 62.5z" class="cls-1"/><path d="M31.35,43.19,19.08,64.43c6.47,3.76,34.3,18.82,34.66,19.32L66,62.5C59.72,59.08,31.68,43.6,31.35,43.19Z" class="cls-2"/></g></g></svg>