<svg xmlns="http://www.w3.org/2000/svg" role="img" viewBox="-26.66 -26.66 1386.32 1385.32"><title>Sensu logo</title><path fill="#293055" d="M103.72807 1090.66473c8.56286-5.50653 20.80575-8.26646 36.71775-8.26646 18.96753 0 35.26445 3.60124 48.88145 10.78773 13.61166 7.19315 16.90624 8.98244 39.52834 29.16593l40.56299-46.8375c-17.44223-19.27551-36.33776-33.19516-56.68259-41.76428-20.35282-8.56379-44.90954-12.85035-73.66615-12.85035-26.93 0-50.25808 4.21056-69.99292 12.61835-19.7375 8.42246-34.7314 20.1235-44.97914 35.11246-10.25641 14.99962-15.37771 31.9792-15.37771 50.94806 0 18.97286 4.66238 34.5778 14.00068 46.81216 9.33003 12.24636 22.4885 21.95945 39.47248 29.14727 16.98024 7.19009 38.47303 13.39047 64.48425 18.58887 21.11214 3.98004 36.17843 8.19193 45.20887 12.61835 9.02244 4.44363 13.53966 10.17842 13.53966 17.21424 0 8.87578-4.20923 15.68494-12.62102 20.42496-8.41979 4.74628-21.04214 7.11022-37.86572 7.11022-21.11187 0-39.17035-3.36245-54.15904-10.09562-14.99643-6.72783-27.54665-14.97816-43.46505-30.6887L0 1281.59862c15.60694 17.4397 34.11635 30.3659 55.53501 38.77774C76.94914 1328.78813 104.79685 1333 139.06986 1333c24.47538 0 46.42817-3.67179 65.86102-11.01431 19.43018-7.34256 34.6538-18.05056 45.66819-32.12634 11.01706-14.07152 16.52492-30.75644 16.52492-50.03155 0-26.618-8.94911-47.27096-26.85133-61.96259-17.89822-14.6863-47.8108-25.85269-89.72976-33.50316-21.72999-3.97457-37.104-8.33046-46.12671-13.08367-9.0279-4.73322-13.53873-10.93306-13.53873-18.58354 0-9.17977 4.28163-16.52225 12.85061-22.03011m259.7775 103.26941c4.58923-29.98858 19.27553-44.98287 44.06157-44.98287 24.4754 0 38.55504 14.99429 42.22695 44.98287zm44.52023-99.5975c-38.25238 0-67.7783 10.40507-88.58179 31.20855-20.8128 20.80881-31.21122 50.18674-31.21122 88.12286 0 37.94185 10.62907 67.31965 31.8992 88.1234C341.39547 1322.60026 372.06937 1333 412.15637 1333c26.922 0 49.63876-5.11862 68.15697-15.37722 18.50887-10.2476 30.98055-25.1603 37.40706-44.74941l-63.33842-20.1943c-2.45327 8.2602-7.27181 14.53457-14.4583 18.81567-7.19182 4.29309-16.45026 6.42637-27.7673 6.42637-13.469 0-24.25407-3.35818-32.35787-10.09708-8.11046-6.72223-13.389-17.28184-15.83427-31.66854h156.50942c1.52797-6.72637 2.29461-15.29535 2.29461-25.69936 0-36.72148-9.86642-65.2461-29.60192-85.6016-19.73684-20.34615-48.12147-30.5179-85.14054-30.5179m297.4099 0c-18.05822 0-33.81382 4.05457-47.27482 12.15837-13.469 8.11046-23.86874 20.27549-31.21122 36.49108l-2.29461-44.0589h-69.76226v229.48335h78.02339v-121.16725c0-18.05035 3.82257-31.44068 11.47304-40.16047 7.64648-8.71978 17.59423-13.08367 29.83526-13.08367 10.3984 0 18.4302 3.29459 24.09406 9.87176 5.65853 6.58116 8.49312 17.67155 8.49312 33.2765v131.26313h78.02472V1175.5706c0-26.00335-7.19315-46.04551-21.57146-60.1225-14.3863-14.0703-33.66183-21.11147-57.82922-21.11147m198.73236 56.90925c6.11585-3.36392 14.68497-5.04788 25.7007-5.04788 14.07164 0 26.166 2.45194 36.26175 7.34382 10.09708 4.89588 18.81687 12.69835 26.16068 23.40475l40.387-39.46835c-10.40375-14.3783-23.94074-25.16604-40.619-32.35919-16.67824-7.18515-38.1737-10.7824-64.48505-10.7824-23.86473 0-44.14023 3.59725-60.81314 10.7824-16.67959 7.19315-29.14194 16.60225-37.40173 28.22863-8.26646 11.63037-12.39703 24.02206-12.39703 37.17507 0 19.28085 7.26782 34.73353 21.80346 46.35724 14.52897 11.63198 38.93369 20.81041 73.2035 27.53838 15.29695 3.06085 26.08601 6.19824 32.3592 9.41016 6.26917 3.21352 9.41042 6.9597 9.41042 11.24252 0 4.90241-3.06659 8.80125-9.18377 11.7049-6.12251 2.91087-14.53563 4.3639-25.24203 4.3639-32.1272 0-54.00132-7.82527-71.20089-29.01647l-37.1164 40.48965C833.03116 1319.54047 870.3569 1333 922.98492 1333c35.4951 0 62.5731-6.95452 81.2393-20.88494 18.65953-13.91832 27.9953-32.0444 27.9953-54.38824 0-19.8859-7.41848-35.57098-22.25678-47.04403-14.84896-11.47278-39.09102-20.11256-72.75018-25.92708-15.60494-3.05726-26.54867-6.19985-32.81385-9.41177-6.2785-3.21325-9.41043-7.11715-9.41043-11.70637 0-4.89188 3.05726-9.02244 9.17977-12.3917m405.7192 126.21699c-7.95714 0-13.465-2.13328-16.52093-6.42531-3.06126-4.28123-4.59055-11.62531-4.59055-22.03025v-150.08011h-78.02605v135.37528c-1.5373 10.98612-5.03454 19.66204-10.5504 25.95242-7.65048 8.72018-17.89822 13.0758-30.75523 13.0758-10.71174 0-18.6662-3.05046-23.86474-9.17684-5.20387-6.11864-7.80247-16.67465-7.80247-31.66747v-133.5592h-78.02605v153.29204c0 27.85144 6.95982 48.27066 20.88481 61.27193 13.92099 13.01265 33.1205 19.50885 57.5999 19.50885 35.92976 0 61.35046-13.6986 76.28875-41.07084 2.7466 9.85135 6.96916 17.83649 12.74902 23.85767C1238.2917 1327.2616 1256.03526 1333 1280.51599 1333c8.56245 0 17.28356-1.07341 26.15934-3.2119 8.87178-2.13849 16.0636-4.89207 21.57146-8.26125l5.05321-48.19616c-8.26646 2.7546-16.06893 4.13217-23.41275 4.13217"/><path fill="#80ce54" d="M883.44991 589.68925c-65.70635-41.84829-140.84848-62.87443-216.0386-62.87443-75.18745 0-150.3309 21.02614-216.03593 62.87176l-120.18366-120.181c96.9829-71.19021 213.648-109.63725 336.2196-109.63725 122.57426 0 239.23935 38.44704 336.22092 109.6386zm-368.31346 63.76107c46.09085-25.50336 98.14288-39.06035 152.27486-39.06035 54.13465 0 106.18668 13.55432 152.2762 39.06035L667.4113 805.72518zm152.27486-529.56276l171.16906 171.16906c-56.0026-15.0503-113.56516-22.76344-171.16906-22.76344-57.60256 0-115.16645 7.71315-171.16772 22.76344zm464.72972 340.88348L667.4113.03999 202.68293 464.77104c-.01333.01333-.02533.02133-.03733.03467v.00266L667.41131 929.5741l464.76705-464.76572v-.00266c-.012-.01334-.024-.02134-.03733-.03467"/></svg>