<svg xmlns="http://www.w3.org/2000/svg" role="img" viewBox="-2.63 -3.13 292.50 89.75"><title>SignalFX logo</title><style>svg {enable-background:new 0 0 288 84}</style><style/><path fill="#59a200" d="M283.757 22.97h-11.44l-3.672 4.782v13.979z"/><path d="M268.645 41.731L254.211 22.97h-11.44l15.056 18.761-15.763 20.027h10.893L263.236 48.5l10.391 13.258h10.894l-15.876-20.027"/><path d="M244.787 11.529V4.043h-35.788v57.715h8.457V36.199h25.304v-7.325h-25.304V11.529zM36.61112 33.69259h-.0001c-1.62507-1.2456-3.46747-2.26322-5.4765-3.02447-1.98425-.75039-3.9753-1.43231-5.9128-2.02505-1.62156-.53987-3.15754-1.06996-4.56528-1.5757-1.40248-.50224-2.63666-1.11922-3.66823-1.83362-1.0219-.7075-1.84338-1.58162-2.4416-2.5986-.59647-1.01038-.89893-2.29174-.89893-3.80864 0-1.5712.32989-2.93473.98066-4.05263.65494-1.12711 1.51832-2.08363 2.5658-2.84269 1.05086-.76124 2.23689-1.32085 3.52505-1.66324 1.29716-.34393 2.59771-.51825 3.86547-.51825 2.37842 0 4.54806.4951 6.4486 1.47148 1.9012.9778 3.42566 2.24754 4.53105 3.77387l.15227.2103 6.00287-5.83095-.14339-.16061c-1.79445-2.01156-4.18998-3.63685-7.1201-4.83077C31.5289 3.19118 28.3436 2.5868 24.98882 2.5868c-2.37666 0-4.77713.31551-7.1348.93776-2.36032.62445-4.5078 1.62957-6.3829 2.9875-1.8787 1.362-3.42423 3.10039-4.59358 5.16691-1.17286 2.073-1.76757 4.58657-1.76757 7.47116 0 2.66596.44299 4.93038 1.31657 6.73021.87106 1.79917 2.03262 3.33384 3.45232 4.56112 1.41378 1.22398 3.03851 2.24292 4.8288 3.02864 1.78216.78351 3.61435 1.45349 5.43963 1.9895 1.89868.61556 3.60394 1.18406 5.21332 1.73774 1.61826.5572 3.05749 1.24296 4.27763 2.03833 1.20786.7879 2.17842 1.75814 2.8846 2.8835.70178 1.11833 1.05767 2.53397 1.05767 4.20786 0 1.67674-.3436 3.122-1.02103 4.29563-.68237 1.17999-1.5734 2.17743-2.64807 2.96424-1.08093.79076-2.29482 1.37746-3.60821 1.74453-1.32042.37015-2.66069.55775-3.98352.55775-2.593 0-5.03307-.61655-7.2524-1.83252-2.22385-1.21773-4.02071-2.82645-5.34102-4.78184l-.13998-.20735L3 54.6278l.13746.17114c2.2245 2.76743 5.07103 4.8854 8.46016 6.29447 3.38134 1.40686 6.93448 2.12016 10.5608 2.12016 2.54022 0 5.05127-.35676 7.46348-1.06019 2.4144-.70475 4.57592-1.79259 6.42446-3.23324 1.85051-1.4424 3.35457-3.29138 4.4706-5.49537 1.11626-2.20705 1.68223-4.83998 1.68223-7.8255 0-2.88219-.52648-5.29988-1.56484-7.18582-1.03485-1.87838-2.3885-3.4667-4.02323-4.72085zM48.324 22.97h8.053v38.788h-8.053zm47.1146 5.84497c-1.44856-2.25016-3.3932-3.96333-5.78642-5.09581-2.52729-1.19503-5.21287-1.80093-7.98228-1.80093-2.93 0-5.62745.53712-8.01738 1.59643-2.38994 1.05855-4.4558 2.51862-6.14022 4.33962-1.68442 1.82068-3.00582 3.98154-3.92756 6.4225-.92197 2.43841-1.38953 5.0776-1.38953 7.84437 0 2.76787.46767 5.39356 1.38985 7.80423.92208 2.4155 2.24381 4.54948 3.92834 6.34229 1.68464 1.79456 3.76476 3.22753 6.18256 4.25899 2.41461 1.03167 5.12467 1.55474 8.0549 1.55474 2.76996 0 5.41451-.57858 7.86018-1.71974 2.3115-1.07862 4.18823-2.63908 5.58467-4.64208v4.43847c0 1.96307-.22863 3.82148-.67963 5.52322-.44815 1.68509-1.19535 3.16677-2.22065 4.40336-1.02443 1.23332-2.39718 2.2189-4.07973 2.92914-1.6909.71287-3.8115 1.07424-6.30291 1.07424-2.59805 0-5.16581-.56476-7.63188-1.6785-2.46739-1.11438-4.55091-2.61954-6.19265-4.47379l-.17455-.19703-5.15594 6.27296.15787.14371c2.43777 2.22088 5.38863 3.9641 8.7704 5.1814 3.37783 1.2164 6.79132 1.83318 10.14579 1.83318 4.00063 0 7.40544-.60514 10.12-1.79874 2.71389-1.19425 4.94552-2.80648 6.6329-4.7917 1.68508-1.98612 2.89754-4.30113 3.60382-6.8803.70322-2.57238 1.05976-5.3001 1.05976-8.10724V22.96965H95.4386v5.84532zm-.59593 8.04844c.60986 1.5859.91912 3.30037.91912 5.09581 0 1.84986-.30937 3.60558-.91944 5.21848h-.00011c-.60657 1.6063-1.47795 3.0237-2.59004 4.21268-1.11099 1.18658-2.4778 2.13487-4.06283 2.81878-1.58547.68544-3.35699 1.03299-5.26553 1.03299-1.96022 0-3.72944-.37344-5.25874-1.11023-1.5351-.73766-2.86287-1.72676-3.94643-2.9401-1.08345-1.21093-1.91447-2.62789-2.46991-4.21137-.5572-1.5848-.83969-3.27427-.83969-5.02123 0-1.80026.2826-3.53076.84013-5.14365.555-1.6085 1.38536-3.02436 2.46793-4.20852 1.08367-1.18602 2.411-2.14814 3.94523-2.85958 1.53138-.71078 3.30158-1.07116 5.26148-1.07116 1.90536 0 3.66207.3606 5.22132 1.07171 1.56078.71243 2.92914 1.6887 4.06688 2.90138 1.13853 1.21565 2.02363 2.63348 2.63063 4.214zm46.88763-10.25527l-.00012-.00011c-1.20215-1.4198-2.72453-2.56875-4.52501-3.41502-1.8017-.84583-3.98363-1.27478-6.48491-1.27478-1.41377 0-2.79552.19352-4.10716.57508-1.30834.3821-2.52465.9212-3.61523 1.60236-1.09103.68203-2.07201 1.48354-2.91575 2.38225-.74622.7936-1.36342 1.65403-1.83856 2.56272-.00812-.70629-.034-1.55617-.07844-2.5806-.05463-1.21225-.0817-2.31929-.18898-3.2904l-.02216-.2h-7.6446l.02116.244c.10686 1.23593.13304 2.67428.18647 4.27489.0544 1.6503.08085 2.94427.08085 3.95598v30.31326h8.0526v-20.6073c0-3.75642.9484-6.79669 2.819-9.03632 1.86027-2.22746 4.29243-3.35688 7.2287-3.35688 1.73137 0 3.16324.3166 4.25591.94105 1.09267.62412 1.96341 1.4682 2.58795 2.50875.62972 1.05043 1.0692 2.27628 1.30617 3.64342.23936 1.38603.3607 2.8699.3607 4.41028v21.497h8.0526V37.75334c0-2.16636-.28906-4.22904-.8592-6.1309-.5719-1.9059-1.47083-3.59296-2.67199-5.0143zm43.20245 31.3942c-.08009-1.4253-.12068-2.79552-.12068-4.07227V37.18704c0-2.11885-.33066-4.13052-.98318-5.97917-.65582-1.85578-1.65216-3.48852-2.96182-4.85304-1.31142-1.36529-3.0123-2.4584-5.05524-3.2487-2.04074-.78824-4.47641-1.1879-7.23924-1.1879-3.13889 0-6.11827.52187-8.85543 1.55113-2.7389 1.0309-5.09077 2.46168-6.9902 4.25273l-.15381.14492 4.33687 5.20443.174-.174c1.26687-1.26677 2.86286-2.32597 4.74343-3.14788 1.87685-.8195 3.90136-1.23496 6.01714-1.23496 2.79156 0 5.05763.67754 6.73526 2.01364 1.66115 1.32404 2.50348 3.4011 2.50348 6.17357v.82707c-3.14768.00614-6.31575.1424-9.41976.40503-3.18936.27108-6.09239.8602-8.62876 1.7509-2.55791.8974-4.65658 2.22373-6.23809 3.94194-1.5961 1.7329-2.4054 4.11088-2.4054 7.06788 0 2.24194.45956 4.15828 1.36605 5.69525.90332 1.5328 2.05522 2.78148 3.42413 3.71134 1.36057.9268 2.89513 1.60455 4.56111 2.01397 1.6546.407 3.26462.61326 4.7858.61326 2.93485 0 5.51468-.58035 7.66797-1.72501 2.07015-1.10079 3.82259-2.64983 5.21298-4.60676.027 1.72633.2453 3.46955.65012 5.18798l.04082.17311h7.33688l-.06496-.27624c-.21173-.89805-.35939-2.0686-.43947-3.4792zm-7.84942-14.52435v1.79741c0 3.16303-.94676 5.8201-2.81374 7.89792-1.8606 2.07058-4.56659 3.12046-8.04294 3.12046-.95443 0-1.89132-.09369-2.7852-.27865-.88554-.18167-1.7035-.51145-2.43173-.98011-.72427-.46515-1.31274-1.06656-1.74937-1.78798-.4342-.71396-.6545-1.62715-.6545-2.71411 0-1.54422.51935-2.7942 1.54355-3.7155 1.0477-.94348 2.39268-1.66182 3.99768-2.13532 1.62079-.47831 3.45593-.80216 5.45454-.96211 2.00762-.1606 3.97441-.24201 5.84621-.24201h1.6355zM192.583 2.724h8.053v59.033h-8.053zM48.329 10.657h8.043V18.7h-8.043z"/></svg>