<svg xmlns="http://www.w3.org/2000/svg" role="img" viewBox="-1.80 -1.80 93.73 93.61"><title>SOFARPC logo</title><defs><linearGradient id="a" x1="17.6" x2="71.42" y1="19.24" y2="19.24" gradientUnits="userSpaceOnUse"><stop offset="0" stop-color="#0074e1" stop-opacity="0"/><stop offset=".19" stop-color="#0074e1" stop-opacity=".23"/><stop offset=".48" stop-color="#0074e1" stop-opacity=".56"/><stop offset=".72" stop-color="#0074e1" stop-opacity=".8"/><stop offset=".9" stop-color="#0074e1" stop-opacity=".94"/><stop offset="1" stop-color="#0074e1"/></linearGradient></defs><g data-name="图层 2"><g data-name="图层 1"><path fill="url(#a)" d="M45.14 1.57L71.42 18.55 27.25 36.91 17.6 19.84 45.14 1.57z"/><path d="M45.38 1.49H47.260000000000005V56.2H45.38z" transform="rotate(-59.98 46.325 28.837)"/><path d="M31.61 56.2L70.75 16.79 72.05 18.15 32.9 57.56 31.61 56.2z"/><path d="M44.18 3.4H46.06V64.44H44.18z"/><path d="M16.86 39.85L70.87 16.77 71.4 18.57 17.39 41.66 16.86 39.85z"/><path d="M30.22 18.61H32.1V69.35H30.22z" transform="rotate(-29.88 31.16 43.984)"/><path d="M15.85 16.84L15.83 50.8 45.1 67.92 70.2 53.28 65.34 50.46 45.11 62.26 20.71 48 20.73 19.67 45.13 5.63 69.52 19.64 69.54 43.35 74.4 46.15 74.4 16.82 45.13 0 15.85 16.84z"/><circle cx="55.23" cy="33.84" r="2.32"/><circle cx="45.14" cy="28.57" r="2.32"/><circle cx="36.25" cy="52.92" r="2.32"/><circle cx="45.14" cy="43.97" r="2.32"/><path d="M10.75 90.02L10.74 82.25 2.79 82.26 2.79 79.18 10.71 79.18 10.71 76.87 0 76.88.01 84.65 7.96 84.64 7.96 87.72.01 87.72.02 90.02 10.75 90.02zM13.08 90.05H24.83V76.92H13.08zm2.79-10.87H22v8.61H15.87zM36.9 82.56L29.92 82.56 29.92 79.1 37.13 79.1 37.13 76.84 27.13 76.85 27.14 90.06 29.93 90.06 29.92 84.82 36.91 84.82 36.9 82.56zM39.88 90.06l1-3.12h4.48l1 3.09 2.77 0L44.9 76.89l-3.44 0 0 0L37.14 90.05zM43.15 80l1.51 4.69h-3zM59.74 90l2.88 0-2-5.27h2.06v-8H51.14V90.05h2.79V84.77h3.81zM53.92 79.07h5.92v3.45H53.92zM76.45 76.79H65.91V90.06H68.7V85.44h7.77zm-2.78 6.4h-5V79.05h5zM79.22 77.09L79.23 90.07 90.22 90.07 90.22 87.81 82.01 87.82 82.01 79.34 90.22 79.34 90.22 77.08 79.22 77.09z"/></g></g></svg>