<svg xmlns="http://www.w3.org/2000/svg" role="img" viewBox="90.43 7.43 497.64 401.14"><title>StackStorm logo</title><g><path fill="#606062" d="M1137-14L2322 960 2322-14zM14 2389L1295 2389 14 1385z" class="fil0" transform="translate(189.5 18.882) scale(.12185)"/><path fill="#f47a04" d="M 2381 1345 C 2328 1251 2241 1155 2119 1057 L 830 1 C 743 2 672 7 618 15 C 563 24 508 39 452 61 C 309 119 198 205 118 320 C 39 434 -1 568 -1 722 C -1 778 7 838 23 902 C 38 966 60 1025 87 1079 C 122 1144 179 1220 261 1306 C 343 1396 454 1499 595 1615 C 738 1737 886 1854 1040 1967 C 1134 2036 1216 2095 1285 2144 C 1354 2193 1471 2275 1635 2389 C 1697 2387 1750 2384 1793 2380 C 1832 2376 1870 2369 1909 2360 C 1936 2354 1969 2343 2008 2326 C 2148 2269 2258 2182 2339 2064 C 2420 1946 2461 1814 2461 1668 C 2461 1549 2434 1442 2380 1345 Z" class="fil2" transform="translate(189.5 18.882) scale(.12185)"/></g><g><path fill="#636266" d="M6935 1129L6812 1098C6748 1082 6703 1060 6675 1032 6647 1004 6634 966 6634 918 6634 855 6655 806 6697 771 6739 736 6799 719 6876 719 6958 719 7021 739 7066 780 7111 821 7134 878 7136 953L7234 953C7233 852 7201 774 7139 718 7077 662 6991 634 6881 634 6777 634 6694 660 6632 711 6570 762 6539 830 6539 915 6539 992 6560 1052 6601 1094 6642 1137 6716 1172 6824 1199L6924 1224C7022 1249 7087 1277 7120 1309 7153 1340 7169 1386 7169 1446 7169 1511 7146 1561 7099 1598 7052 1635 6988 1653 6906 1653 6813 1653 6741 1630 6689 1585 6638 1539 6612 1475 6611 1393L6515 1393 6515 1400C6515 1509 6549 1593 6616 1652 6683 1711 6780 1740 6905 1740 7017 1740 7105 1713 7169 1659 7233 1605 7266 1531 7266 1437 7266 1355 7242 1291 7193 1245 7144 1198 7059 1160 6938 1130zM7544 737L7456 737 7456 954 7353 954 7353 1025 7456 1025 7456 1577C7456 1635 7465 1675 7483 1697 7501 1719 7532 1730 7576 1730 7592 1730 7608 1729 7626 1726 7644 1723 7663 1719 7684 1714L7683 1644C7659 1649 7641 1653 7630 1654 7619 1656 7608 1656 7599 1656 7578 1656 7564 1651 7556 1640 7548 1630 7544 1608 7544 1576L7544 1024 7684 1024 7684 953 7544 953 7544 736zM8323 1571C8278 1627 8215 1654 8133 1654 8052 1654 7989 1626 7944 1570 7899 1514 7877 1435 7877 1333 7877 1231 7899 1152 7944 1096 7989 1040 8052 1012 8133 1012 8215 1012 8279 1040 8323 1096 8368 1152 8390 1231 8390 1334 8390 1437 8368 1516 8323 1571zM8133 935C8023 935 7937 970 7877 1039 7816 1109 7786 1207 7786 1334 7786 1460 7816 1558 7877 1627 7938 1696 8023 1731 8133 1731 8244 1731 8330 1696 8391 1627 8452 1558 8482 1460 8482 1334 8482 1207 8451 1109 8390 1039 8329 969 8243 935 8132 935zM8814 972C8775 997 8745 1035 8723 1086L8723 953 8638 953 8638 1710 8728 1710 8728 1292C8728 1203 8747 1136 8785 1092 8823 1047 8879 1025 8955 1025L8966 1025 8966 933 8956 933C8899 933 8852 946 8813 971zM10052 996C10011 955 9950 934 9868 934 9814 934 9766 947 9724 972 9682 997 9649 1034 9624 1083 9612 1035 9587 999 9549 973 9512 947 9465 934 9408 934 9355 934 9309 946 9268 971 9227 996 9194 1032 9168 1078L9168 953 9086 953 9086 1710 9174 1710 9174 1242C9174 1174 9195 1118 9236 1076 9277 1034 9331 1013 9397 1013 9451 1013 9491 1028 9517 1059 9543 1089 9556 1136 9556 1199L9556 1711 9644 1711 9644 1236C9644 1169 9664 1115 9705 1074 9745 1033 9799 1012 9866 1012 9923 1012 9963 1026 9988 1053 10013 1081 10025 1126 10025 1190L10025 1711 10113 1711 10113 1158C10109 1087 10089 1033 10053 996z" class="fil1" transform="translate(-79.063 285.863) scale(.06504)"/><path fill="#f47a04" d="M3208 1093C3106 1067 3040 1041 3008 1016 2976 991 2960 958 2960 918 2960 879 2978 846 3014 819 3050 792 3097 779 3154 779 3223 779 3278 796 3319 830 3360 864 3383 910 3386 970L3552 969C3551 867 3516 786 3448 726 3380 666 3289 636 3174 636 3056 636 2962 663 2891 718 2820 773 2784 844 2784 931 2784 1013 2808 1078 2857 1126 2905 1174 2988 1213 3106 1244 3116 1246 3132 1250 3152 1255 3247 1278 3308 1302 3336 1328 3353 1343 3366 1361 3377 1383 3388 1404 3393 1423 3393 1440 3393 1482 3374 1518 3336 1547 3298 1576 3249 1590 3189 1590 3110 1590 3047 1571 3001 1534 2955 1496 2929 1444 2924 1376L2754 1376C2759 1494 2798 1584 2871 1647 2943 1710 3045 1741 3175 1741 3299 1741 3397 1711 3471 1651 3545 1591 3582 1511 3582 1413 3582 1331 3558 1268 3511 1222 3464 1176 3363 1134 3209 1095zM3924 731L3762 731 3762 943 3652 943 3652 1064 3762 1064 3762 1536C3762 1605 3775 1654 3802 1681 3828 1708 3874 1722 3938 1722 3957 1722 3990 1720 4036 1715 4043 1715 4049 1714 4052 1714L4052 1584 4020 1585C4017 1585 4012 1585 4005 1586 3998 1586 3993 1587 3988 1587 3963 1587 3946 1582 3937 1573 3928 1564 3923 1545 3923 1517L3923 1065 4051 1065 4051 944 3923 944 3923 732zM4627 1422C4627 1475 4607 1519 4567 1553 4527 1587 4477 1604 4417 1604 4377 1604 4346 1594 4324 1575 4302 1556 4291 1529 4291 1493 4291 1462 4300 1436 4319 1417 4338 1398 4366 1385 4404 1377 4417 1375 4437 1371 4464 1367 4539 1356 4593 1342 4627 1324L4627 1420zM4833 1597C4815 1597 4803 1592 4796 1583 4789 1574 4786 1555 4786 1525L4786 1144C4786 1069 4760 1012 4708 974 4656 936 4579 917 4477 917 4380 917 4303 939 4247 984 4191 1028 4163 1089 4163 1165L4163 1178 4318 1178 4318 1172C4318 1133 4331 1103 4358 1082 4385 1061 4423 1051 4473 1051 4527 1051 4566 1060 4592 1077 4618 1095 4630 1122 4630 1159 4630 1205 4578 1234 4475 1247 4468 1248 4462 1249 4459 1249 4335 1265 4250 1292 4203 1331 4156 1370 4132 1429 4132 1507 4132 1578 4154 1634 4198 1674 4242 1714 4303 1735 4380 1735 4430 1735 4478 1724 4522 1702 4566 1680 4604 1649 4635 1608 4636 1647 4648 1677 4672 1696 4696 1715 4733 1725 4782 1725 4795 1725 4808 1724 4822 1722 4836 1720 4850 1717 4865 1713L4865 1594C4855 1595 4848 1596 4844 1596 4840 1596 4836 1596 4833 1596zM5415 1550C5385 1578 5345 1592 5296 1592 5235 1592 5188 1569 5156 1524 5124 1479 5108 1413 5108 1326 5108 1238 5124 1171 5157 1125 5190 1080 5238 1057 5301 1057 5348 1057 5387 1070 5416 1097 5445 1123 5462 1159 5467 1205L5627 1205C5622 1116 5590 1046 5531 994 5472 943 5394 917 5296 917 5184 917 5097 953 5033 1026 4970 1099 4938 1199 4938 1328 4938 1453 4969 1553 5030 1626 5091 1699 5174 1736 5279 1736 5381 1736 5463 1709 5524 1654 5586 1600 5620 1525 5628 1429L5470 1429C5463 1481 5444 1521 5414 1549zM6425 943L6226 943 5924 1256 5924 662 5763 662 5763 1711 5924 1711 5924 1455 6033 1344 6241 1711 6430 1711 6147 1225z" class="fil2" transform="translate(-79.063 285.863) scale(.06504)"/></g></svg>