<svg xmlns="http://www.w3.org/2000/svg" role="img" viewBox="-0.95 -0.95 107.64 26.64"><title>Stolon logo</title><path fill="none" stroke="#f36325" stroke-miterlimit="10" d="M18.997 20.273c7.23199 6.52643 14.46398 0 14.46398 0" stroke-width=".35278"/><path fill="none" stroke="#f36325" stroke-miterlimit="10" d="M44.868 20.625c7.23199 6.52643 14.46398 0 14.46398 0" stroke-width=".35278"/><path fill="none" stroke="#f36325" stroke-miterlimit="10" d="M76.686 20.625c7.23199 6.52643 14.46398 0 14.46398 0" stroke-width=".35278"/><path fill="none" stroke="#f36325" stroke-miterlimit="10" d="M69.876 4.658c-7.23199-6.52643-14.46398 0-14.46398 0" stroke-width=".35278"/><path fill="none" stroke="#f36325" stroke-miterlimit="10" d="M20.055 4.274c-7.23199-6.52643-14.46398 0-14.46398 0" stroke-width=".35278"/><path fill="none" stroke="#f36325" stroke-miterlimit="10" d="M44.031 4.658c-7.23199-6.52643-14.46398 0-14.46398 0" stroke-width=".35278"/><path fill="none" stroke="#f36325" stroke-miterlimit="10" d="M91.696 20.306c10.52131-.53975 11.06106-11.06106 11.06106-11.06106" stroke-width=".35278"/><path fill="none" stroke="#f36325" stroke-miterlimit="10" d="M91.386 4.834c-7.05807 7.82113 0 15.64262 0 15.64262" stroke-width=".35278"/><path fill="#4785bd" d="M93.366 20.477c0 1.09291-.88618 1.97874-1.9791 1.97874s-1.9791-.88583-1.9791-1.97874c0-1.09327.8862-1.9791 1.9791-1.9791s1.9791.88583 1.9791 1.9791"/><path fill="#4785bd" d="M104.736 9.245c0 1.09327-.88618 1.9791-1.9791 1.9791s-1.9791-.88583-1.9791-1.9791c0-1.09291.8862-1.9791 1.9791-1.9791s1.9791.88619 1.9791 1.9791"/><path fill="#4785bd" d="M93.676 5.187c0 1.09291-.88618 1.9791-1.9791 1.9791-1.09326 0-1.97944-.88619-1.97944-1.9791 0-1.09327.88618-1.9791 1.97944-1.9791 1.09292 0 1.9791.88583 1.9791 1.9791"/><path d="M1.2 18.814q0-.47459.3497-.94918t.79931-.47459q.27476 0 .64944.32472.39966.29974.77433.67442.37468.3497 1.124.67442.77433.29974 1.7235.29974 1.4238 0 2.273-.67442.87424-.67442.87424-1.9733 0-1.199-.84926-1.9983-.82429-.79931-2.0232-1.2739-1.174-.47459-2.3729-1.0241t-2.0482-1.6486q-.82429-1.099-.82429-2.7476 0-1.3239.49957-2.298.52455-.97416 1.3988-1.4987t1.8234-.74935q.97416-.24978 2.0482-.24978.67442 0 1.3988.09991.74935.07493 1.4737.27476.72437.19983 1.199.5745.47459.37468.47459.84927 0 .47459-.29974.94918t-.79931.47459q-.24978 0-.67442-.2248-.42463-.24978-1.149-.47459-.6994-.24978-1.6236-.24978-1.4238 0-2.273.5745-.84926.54952-.84926 1.6985 0 .74935.44961 1.2989.44961.52455 1.149.87424.72437.3497 1.5986.6994.87424.32472 1.7235.77433.87424.44961 1.5736 1.0491.72437.5745 1.174 1.5986t.44961 2.3729q0 2.5978-1.5736 3.9716-1.5487 1.3488-4.1214 1.3488-2.298 0-3.9216-.94918-1.5986-.97416-1.5986-1.9983zM13.614 4.501q0-.47459.22481-.82429.22481-.37468.64944-.37468h10.366q.42463 0 .64944.3497.2248.3497.2248.82429 0 .52455-.24978.89922-.2248.3497-.62446.3497h-3.8467v14.962q0 .39965-.39965.64944-.39965.22481-.9242.22481-.54952 0-.94918-.22481-.37468-.24978-.37468-.64944v-14.962h-3.8717q-.39965 0-.64944-.3497-.22481-.37468-.22481-.87424zm13.614 11.64V8.8723q0-2.8725 1.5237-4.2213t4.0715-1.3488q2.5478 0 4.0715 1.3488 1.5487 1.3488 1.5487 4.2213v7.2687q0 2.8725-1.5487 4.2213-1.5237 1.3488-4.0715 1.3488-2.5478 0-4.0715-1.3488-1.5237-1.3488-1.5237-4.2213zm2.6477 0q0 3.2222 2.9475 3.2222 1.4238 0 2.1981-.79931.77433-.79931.77433-2.4229v-7.2687q0-1.6236-.77433-2.4229-.77433-.79931-2.1981-.79931-2.9475 0-2.9475 3.2222zM41.54 20.687V4.151q0-.42463.37468-.62446.39965-.2248.94918-.2248t.9242.2248q.39966.19983.39966.62446v15.062h6.4944q.37468 0 .5745.3497.2248.3497.2248.82429 0 .47459-.2248.82429-.19983.3497-.5745.3497h-7.9681q-.47459 0-.82429-.22481-.3497-.24978-.3497-.64944zm11.44-4.546V8.8723q0-2.8725 1.5237-4.2213t4.0715-1.3488q2.5478 0 4.0715 1.3488 1.5487 1.3488 1.5487 4.2213v7.2687q0 2.8725-1.5487 4.2213-1.5237 1.3488-4.0715 1.3488-2.5478 0-4.0715-1.3488Q52.98 19.0135 52.98 16.141zm2.6477 0q0 3.2222 2.9474 3.2222 1.4238 0 2.1981-.79931.77433-.79931.77433-2.4229v-7.2687q0-1.6236-.77433-2.4229-.77433-.79931-2.1981-.79931-2.9474 0-2.9474 3.2222zm11.6653 4.546V4.176q0-.87424 1.3239-.87424.6994 0 1.124.32472.42463.29974.87424 1.174l5.5452 10.816v-11.465q0-.42463.37468-.62446.39966-.2248.94918-.2248t.9242.2248q.39965.19983.39965.62446v16.536q0 .39965-.39965.64944-.37468.22481-.9242.22481-1.0491 0-1.5736-.97416l-5.9698-11.365v11.465q0 .39965-.39965.64944-.37468.22481-.9242.22481-.52455 0-.9242-.22481-.39966-.24978-.39966-.64944z" fill="#393536" stroke-width=".353"/></svg>