<svg xmlns="http://www.w3.org/2000/svg" role="img" viewBox="-9.81 -9.31 484.12 135.12"><title>TSeer logo</title><defs><style>.a{fill:#0048dc}</style></defs><rect width="90.3" height="22.22" class="a" rx="2.2" ry="2.2"/><rect width="29.4" height="21.82" x="30.5" y="31.7" class="a" rx="2.1" ry="2.1"/><rect width="29.4" height="21.82" x="30.5" y="62.9" class="a" rx="2.1" ry="2.1"/><rect width="29.4" height="21.82" x="30.5" y="94.1" class="a" rx="2.1" ry="2.1"/><path d="M155.3 47.4h-11.8c-7.8 0-14.5-5.9-14.2-13.2s5.3-12.3 14.2-12.3h40.4a2.9 2.9 0 0 0 3-2.9V3.9a2.9 2.9 0 0 0-3-2.9h-40.4c-20.1 0-34.6 13-36.5 30.1-2.3 20.1 14.8 37.2 36.5 37.2h11.8c7.8 0 13.5 5.9 13.2 13.2s-4.2 12.3-13.2 12.3h-41.1a2.9 2.9 0 0 0-3 2.8v15.2a2.9 2.9 0 0 0 3 2.9h41.1c20.1 0 33.6-13 35.5-30.1 2.3-20.1-13.8-37.2-35.5-37.2zm306.9-17.7h-10.7c-23.7 0-42.9 12.6-42.9 37.2V113a2.9 2.9 0 0 0 3.1 2.7h16.7a2.9 2.9 0 0 0 3.1-2.7V66.9c0-9.6 9-17.3 20-17.3h10.7a3 3 0 0 0 3.2-2.8V32.4a3 3 0 0 0-3.2-2.7zm-69.3 30.4c0-16.8-14.7-30.5-32.9-30.5h-18.8c-18.2 0-33 13.7-33 30.5v25.1c0 16.9 14.8 30.5 33 30.5h43.5a2.9 2.9 0 0 0 3.1-2.7V98.6a2.9 2.9 0 0 0-3.1-2.7h-43.5c-5.5 0-10-4.9-10-10.7v-3.3h58.6a3 3 0 0 0 3.2-2.7V66.6c0-.1 0-.1-.1-.2zM370 65.7h-38.8v-5.6c0-5.7 4.5-10.6 10-10.6H360c5.4 0 10 4.9 10 10.6zm-75.9-5.9c0-17.2-15.1-31.2-33.7-31.2h-19.3c-18.5 0-33.6 14-33.6 31.2v25.7c0 17.2 15.1 31.2 33.6 31.2h44.5a3 3 0 0 0 3.2-2.8V99.1a3 3 0 0 0-3.2-2.7h-44.5c-5.5 0-10.2-5-10.2-10.9v-3.4h60a3 3 0 0 0 3.2-2.7v-13zm-23.5 5.7h-39.7v-5.7c0-5.9 4.7-10.8 10.2-10.8h19.3c5.5 0 10.2 4.9 10.2 10.8z" class="a"/></svg>