<svg xmlns="http://www.w3.org/2000/svg" role="img" viewBox="-3.62 -4.87 252.98 69.48"><title>TSeer logo</title><style>svg {enable-background:new 0 0 245 60}</style><style>.st0{fill:#1649dc}</style><path d="M48.1 4.5H2.9c-.9 0-1.6.7-1.6 1.6v7c0 .9.7 1.6 1.6 1.6h17.9l.1 43.6c0 .9.7 1.6 1.6 1.6h7.4c.9 0 1.6-.7 1.6-1.6l-.1-43.6h16.7c.9 0 1.6-.7 1.6-1.6v-7c0-.9-.7-1.6-1.6-1.6z" class="st0"/><path d="M64.6 21.2c0-3.5 2.9-6.3 6.3-6.3h20.6c.9 0 1.6-.7 1.6-1.6V6.1c0-.9-.7-1.6-1.6-1.6H70.2c-9.2 0-16.6 7.4-16.6 16.6 0 8.8 7.1 15.8 15.8 15.8h11.9c3.5 0 6.3 2.9 6.3 6.3 0 3.5-2.9 6.3-6.3 6.3H59.1c-.9 0-1.6.7-1.6 1.6v7.1c0 .9.7 1.6 1.6 1.6h23.8c8.7 0 15.8-7.1 15.8-15.8 0-9.2-7.4-16.6-16.6-16.6H70.9c-3.5.1-6.3-2.8-6.3-6.2zM125.5 51c-3.2 0-8.1.1-9.6-1.7-2-2.4-1.6-3.9-1.6-8.3l.1-5.3c-.1-3.5.1-5 1.4-6.5 2.2-2.4 4.6-2 10.1-2s10.4-.1 10 7.4l-14.5.1c-1 0-1.8.8-1.8 1.8v4.1c0 1 .8 1.8 1.8 1.8h22.8c1 0 1.8-.8 1.8-1.8 0-6.8.5-14.6-3.5-18.4-4.6-4.4-10.7-3.9-17.4-3.9-6 0-13.5-.1-16.9 3.5-3.6 3.9-3.8 10.8-3.8 16.8 0 6.6-.3 14.2 3.5 18.1 3.4 3.7 11.7 3.2 17.7 3.2h17.8c1 0 1.8-.8 1.8-1.8v-5.3c0-1-.8-1.8-1.8-1.8-5 .1-15.4 0-17.9 0z" class="st0"/><path d="M205.7 23.5c-3.8 3.5-5.7 8.4-5.7 14.6v19.8c0 1.1.9 2 2 2h6c1.1 0 2-.9 2-2V38.1c0-3.4 2.5-6.4 4.3-7.6 1.8-1.2 4.4-1.8 6.3-2 1-.1 1.8-1 1.8-2v-6.2c0-1.1-.9-2-2-2-3.3 0-9.8.7-14.7 5.2z" class="st0"/><path d="M174 51c-3.2 0-8.1.1-9.6-1.7-2-2.4-1.6-3.9-1.6-8.3l.1-5.3c-.1-3.5.1-5 1.4-6.5 2.2-2.4 4.6-2 10.1-2s10.4-.1 10 7.4l-14.5.1c-1 0-1.8.8-1.8 1.8v4.1c0 1 .8 1.8 1.8 1.8h22.8c1 0 1.8-.8 1.8-1.8 0-6.8.5-14.6-3.5-18.4-4.6-4.4-10.7-3.9-17.4-3.9-6 0-13.5-.1-16.9 3.5-3.6 3.9-3.8 10.8-3.8 16.8 0 6.6-.3 14.2 3.5 18.1 3.4 3.7 11.7 3.2 17.7 3.2h17.8c1 0 1.8-.8 1.8-1.8v-5.3c0-1-.8-1.8-1.8-1.8-5 .1-15.4 0-17.9 0z" class="st0"/><path d="M233.5 0c-6.6 0-11.2 6.4-11.2 6.4s4.6 6.4 11.2 6.4 11.2-6.4 11.2-6.4S240.1 0 233.5 0zm0 11.6c-2.9 0-5.2-2.3-5.2-5.2s2.3-5.2 5.2-5.2c2.9 0 5.2 2.3 5.2 5.2s-2.3 5.2-5.2 5.2z" class="st0"/><circle cx="233.5" cy="6.4" r="2.4" class="st0"/></svg>