<svg xmlns="http://www.w3.org/2000/svg" role="img" viewBox="-7.28 -7.28 378.56 139.56"><title>TarsTup logo</title><g data-name="图层 2"><path fill="#1649dc" d="M0 98.6q38.4-9 78.2-14.2c4.8-.6 9.6-1.2 14.5-1.7V32.1l20.2-.1a1.43 1.43 0 0 0 1.4-1.4V18.9a1.37 1.37 0 0 0-1.4-1.4l-54.9.1a1.43 1.43 0 0 0-1.4 1.4v11.6A1.37 1.37 0 0 0 58 32h20.2v43.4A514.39 514.39 0 0 0 0 98.6zm304.2-18.9a21 21 0 0 0 3.4-11.6 21.68 21.68 0 0 0-21.7-21.7h-14.3a7.2 7.2 0 0 1 0-14.4h25.7a2.9 2.9 0 0 0 2.9-2.9v-8.7a2.9 2.9 0 0 0-2.9-2.9h-25.6a21.74 21.74 0 0 0-21.2 26.3c2.1 10.2 11.7 17.1 22.1 17.1h13.5a7.2 7.2 0 0 1 0 14.4h-34.7a1.37 1.37 0 0 0-1.4 1.4v3.9c16.2 1.3 32.3 3.2 48.2 5.5 22.4 3.3 44.4 7.5 66.2 12.5a506.08 506.08 0 0 0-60.2-18.9zm-64 .2l-5.7-12.4-4.1-8.9a21.63 21.63 0 0 0-9.5-41.1h-32.3a1.54 1.54 0 0 0-1.5 1.5v45.8h-4.9c-2.5 0-5 0-7.5.1l-18.3-46.4a1.57 1.57 0 0 0-1.4-.9h-14.7a1.22 1.22 0 0 0-1.3.9l-19.9 50.1-4.7 12c5.4-.4 10.7-.9 16-1.2l5-12.6 10.8-27.5 1.4-3.6.8 2.1.6 1.4L159.2 65l5.1 12.8c5.1-.1 10.3-.2 15.4-.2h7.3c4.8 0 9.6 0 14.5.2V31.9h19.4a7.17 7.17 0 0 1 7.2 7.2 7.33 7.33 0 0 1-6.4 7.2h-10.8a1.43 1.43 0 0 0-1.4 1.4 1.27 1.27 0 0 0 .1.6l8.2 17.6 6 12.9c5.5.3 11 .6 16.4 1.1zm65.7-65.5h8.7a2.9 2.9 0 0 0 2.9-2.9V2.9a2.9 2.9 0 0 0-2.9-2.9h-8.7a2.9 2.9 0 0 0-2.9 2.9v8.7a2.88 2.88 0 0 0 2.9 2.8zm-142.64 86.08h-7.76v-2.86h19.12v2.86h-7.78v19.58h-3.58zm22.21 17v-13.81h3.26v16.39h-7.15a21.87 21.87 0 0 1-2.5-.1 6.18 6.18 0 0 1-1.57-.42 4.15 4.15 0 0 1-2.26-2.07 10 10 0 0 1-.68-4.11v-9.69h3.26v9.57a6.15 6.15 0 0 0 .47 3c.52.86 1.7 1.28 3.55 1.28zm8.58-13.81h6.76a13.77 13.77 0 0 1 3.82.4 5.6 5.6 0 0 1 2.33 1.57 9 9 0 0 1 1.94 6.22 11.31 11.31 0 0 1-.66 3.89 7.16 7.16 0 0 1-1.82 2.87 4.84 4.84 0 0 1-2.14 1.16 18.22 18.22 0 0 1-3.83.28h-3.14v5.22h-3.26zm3.26 2.58v11.23h3.14q2.78 0 3.81-1.08 1.28-1.32 1.27-4.75a6 6 0 0 0-1.18-4.15 5.17 5.17 0 0 0-3.9-1.25z" data-name="图层 1"/></g></svg>