<svg xmlns="http://www.w3.org/2000/svg" role="img" viewBox="-7.28 -7.28 378.56 151.06"><title>TarsGateway logo</title><g data-name="图层 2"><path fill="#1649dc" d="M0 98.6q38.4-9 78.2-14.2c4.8-.6 9.6-1.2 14.5-1.7V32.1l20.2-.1a1.43 1.43 0 0 0 1.4-1.4V18.9a1.37 1.37 0 0 0-1.4-1.4l-54.9.1a1.43 1.43 0 0 0-1.4 1.4v11.6A1.37 1.37 0 0 0 58 32h20.2v43.4A514.39 514.39 0 0 0 0 98.6zm304.2-18.9a21 21 0 0 0 3.4-11.6 21.68 21.68 0 0 0-21.7-21.7h-14.3a7.2 7.2 0 0 1 0-14.4h25.7a2.9 2.9 0 0 0 2.9-2.9v-8.7a2.9 2.9 0 0 0-2.9-2.9h-25.6a21.74 21.74 0 0 0-21.2 26.3c2.1 10.2 11.7 17.1 22.1 17.1h13.5a7.2 7.2 0 0 1 0 14.4h-34.7a1.37 1.37 0 0 0-1.4 1.4v3.9c16.2 1.3 32.3 3.2 48.2 5.5 22.4 3.3 44.4 7.5 66.2 12.5a506.08 506.08 0 0 0-60.2-18.9zm-64 .2l-5.7-12.4-4.1-8.9a21.63 21.63 0 0 0-9.5-41.1h-32.3a1.54 1.54 0 0 0-1.5 1.5v45.8h-4.9c-2.5 0-5 0-7.5.1l-18.3-46.4a1.57 1.57 0 0 0-1.4-.9h-14.7a1.22 1.22 0 0 0-1.3.9l-19.9 50.1-4.7 12c5.4-.4 10.7-.9 16-1.2l5-12.6 10.8-27.5 1.4-3.6.8 2.1.6 1.4L159.2 65l5.1 12.8c5.1-.1 10.3-.2 15.4-.2h7.3c4.8 0 9.6 0 14.5.2V31.9h19.4a7.17 7.17 0 0 1 7.2 7.2 7.33 7.33 0 0 1-6.4 7.2h-10.8a1.43 1.43 0 0 0-1.4 1.4 1.27 1.27 0 0 0 .1.6l8.2 17.6 6 12.9c5.5.3 11 .6 16.4 1.1zm65.7-65.5h8.7a2.9 2.9 0 0 0 2.9-2.9V2.9a2.9 2.9 0 0 0-2.9-2.9h-8.7a2.9 2.9 0 0 0-2.9 2.9v8.7a2.88 2.88 0 0 0 2.9 2.8zm-185.26 94.19a8.88 8.88 0 0 0-2.94 1.11q-4.24 2.61-4.25 10.21c0 3.53.71 6.21 2.12 8a7.92 7.92 0 0 0 4 2.82 18.43 18.43 0 0 0 5.29.58h8.53V118.1h-3.69v10.29h-4.39a12.18 12.18 0 0 1-4.22-.54 5 5 0 0 1-2.32-2 7.76 7.76 0 0 1-1.06-2.57 18 18 0 0 1-.3-3.65q0-5.73 2.94-7.54a5.35 5.35 0 0 1 1.81-.72 21.89 21.89 0 0 1 3.15-.16h8.08v-2.94H125a22.74 22.74 0 0 0-4.36.32zm66.15 14.05v.88a.47.47 0 0 1-.14.34.43.43 0 0 1-.33.13h-10v-2.65h6.77v-.26a3.37 3.37 0 0 0-.71-2.53c-.84-.86-2.25-.86-3.76-.85h-.85c-1.73 0-2.7 0-3.55.94-.64.7-.7 1.42-.68 2.89v2.92a3.67 3.67 0 0 0 .74 2.91c.69.82 2.61.82 4.06.82h8.12v3.19h-8.66c-2.32 0-5.22 0-6.43-1.27-1.38-1.44-1.38-4.31-1.37-6.84v-.54c0-2.74.12-5.32 1.51-6.83 1.24-1.34 4-1.38 6.31-1.38h1.25c2.49 0 4.66 0 6.36 1.56 1.41 1.3 1.39 3.98 1.36 6.57zm-37.58-1.59c0-1.71-.22-2.79-.65-3.24s-1.49-.68-3.16-.68h-7.92v-2.65h8.65a13.24 13.24 0 0 1 3.45.34 3.8 3.8 0 0 1 1.91 1.21 4.1 4.1 0 0 1 .83 1.73 13.45 13.45 0 0 1 .23 2.92v10.65H144a19.78 19.78 0 0 1-3.22-.17 4.82 4.82 0 0 1-2.95-1.64 5 5 0 0 1-1-3.26 6.16 6.16 0 0 1 .56-2.65 4.17 4.17 0 0 1 1.56-1.8 8.65 8.65 0 0 1 4.26-.76zm0 2.66h-5.6a5.84 5.84 0 0 0-2.16.3 2.14 2.14 0 0 0-1.15 2.2 2.23 2.23 0 0 0 .75 1.91 4.46 4.46 0 0 0 2.56.55h5.6zm9.52-9.23v-6.22h3.34v6.22H167v2.65h-4.92V126a7.73 7.73 0 0 0 .11 1.54 1.14 1.14 0 0 0 .4.69 4.23 4.23 0 0 0 2.44.45h2v2.66h-3.24a11.19 11.19 0 0 1-2.46-.2 3 3 0 0 1-1.41-.8 3.29 3.29 0 0 1-.9-1.5 9.92 9.92 0 0 1-.25-2.56v-9.14h-3.21v-2.65zm40.82 14.19v-14.19h3.35v14.19h6.22v-14.19h3.35v16.85h-15.69a12.08 12.08 0 0 1-3.77-.41 4.56 4.56 0 0 1-2.46-2 7.4 7.4 0 0 1-.78-3.68v-10.76h3.34v9.66a23.32 23.32 0 0 0 .08 2.35 2.42 2.42 0 0 0 .36 1.05 2 2 0 0 0 1.11.88 6.73 6.73 0 0 0 2.1.25zm29.06-7.62c0-1.71-.21-2.79-.65-3.24s-1.48-.68-3.15-.68h-7.93v-2.65h8.66a13.24 13.24 0 0 1 3.45.34 3.8 3.8 0 0 1 1.91 1.18 4.1 4.1 0 0 1 .83 1.73 14.12 14.12 0 0 1 .23 2.92v10.65h-8.52a20 20 0 0 1-3.23-.17 4.87 4.87 0 0 1-3-1.64 5 5 0 0 1-1-3.26 6.16 6.16 0 0 1 .56-2.65 4.17 4.17 0 0 1 1.56-1.8 8.63 8.63 0 0 1 4.25-.76zm0 2.66H223a5.84 5.84 0 0 0-2.16.3 2.14 2.14 0 0 0-1.15 2.2 2.23 2.23 0 0 0 .75 1.91 4.44 4.44 0 0 0 2.56.55h5.59zm18.99 4.96v-14.19h3.4v14.08a37.56 37.56 0 0 1-.15 4 5 5 0 0 1-.55 1.93 3.54 3.54 0 0 1-2 1.73 15.48 15.48 0 0 1-4.4.44h-7.42V134h7.23a22 22 0 0 0 2.29 0 1.7 1.7 0 0 0 .92-.45 2.82 2.82 0 0 0 .69-2.18H243a13.21 13.21 0 0 1-2.44-.17 5.63 5.63 0 0 1-1.72-.69 4.13 4.13 0 0 1-1.94-2.16 15.3 15.3 0 0 1-.46-4.57v-9.26h3.35v10.19a9.73 9.73 0 0 0 .11 1.71 2.93 2.93 0 0 0 .38 1.08 2.18 2.18 0 0 0 1.11.94 6.06 6.06 0 0 0 2 .27z" data-name="图层 1"/></g></svg>