<svg xmlns="http://www.w3.org/2000/svg" role="img" viewBox="-7.28 -7.28 378.56 143.81"><title>TarsProtocol logo</title><g data-name="图层 2"><path fill="#1649dc" d="M0 98.6q38.4-9 78.2-14.2c4.8-.6 9.6-1.2 14.5-1.7V32.1l20.2-.1a1.43 1.43 0 0 0 1.4-1.4V18.9a1.37 1.37 0 0 0-1.4-1.4l-54.9.1a1.43 1.43 0 0 0-1.4 1.4v11.6A1.37 1.37 0 0 0 58 32h20.2v43.4A514.39 514.39 0 0 0 0 98.6zm304.2-18.9a21 21 0 0 0 3.4-11.6 21.68 21.68 0 0 0-21.7-21.7h-14.3a7.2 7.2 0 0 1 0-14.4h25.7a2.9 2.9 0 0 0 2.9-2.9v-8.7a2.9 2.9 0 0 0-2.9-2.9h-25.6a21.74 21.74 0 0 0-21.2 26.3c2.1 10.2 11.7 17.1 22.1 17.1h13.5a7.2 7.2 0 0 1 0 14.4h-34.7a1.37 1.37 0 0 0-1.4 1.4v3.9c16.2 1.3 32.3 3.2 48.2 5.5 22.4 3.3 44.4 7.5 66.2 12.5a506.08 506.08 0 0 0-60.2-18.9zm-64 .2l-5.7-12.4-4.1-8.9a21.63 21.63 0 0 0-9.5-41.1h-32.3a1.54 1.54 0 0 0-1.5 1.5v45.8h-4.9c-2.5 0-5 0-7.5.1l-18.3-46.4a1.57 1.57 0 0 0-1.4-.9h-14.7a1.22 1.22 0 0 0-1.3.9l-19.9 50.1-4.7 12c5.4-.4 10.7-.9 16-1.2l5-12.6 10.8-27.5 1.4-3.6.8 2.1.6 1.4L159.2 65l5.1 12.8c5.1-.1 10.3-.2 15.4-.2h7.3c4.8 0 9.6 0 14.5.2V31.9h19.4a7.17 7.17 0 0 1 7.2 7.2 7.33 7.33 0 0 1-6.4 7.2h-10.8a1.43 1.43 0 0 0-1.4 1.4 1.27 1.27 0 0 0 .1.6l8.2 17.6 6 12.9c5.5.3 11 .6 16.4 1.1zm65.7-65.5h8.7a2.9 2.9 0 0 0 2.9-2.9V2.9a2.9 2.9 0 0 0-2.9-2.9h-8.7a2.9 2.9 0 0 0-2.9 2.9v8.7a2.88 2.88 0 0 0 2.9 2.8zm-156.81 97.12v3c-1 0-3.3.26-4.62 1.47a4.88 4.88 0 0 0-1.43 3.86v9.27H140v-9.27a7.9 7.9 0 0 1 2.43-6.14 9.7 9.7 0 0 1 6.44-2.23zm-27.56 9.26v8.38h-3.69v-23.07H128a12.58 12.58 0 0 1 4 .47 6.07 6.07 0 0 1 3.34 2.79 8.12 8.12 0 0 1 .92 4 7.35 7.35 0 0 1-2.42 6 5.74 5.74 0 0 1-2.45 1.13 19.67 19.67 0 0 1-4.06.34zm0-2.94h6.07a5.06 5.06 0 0 0 3.58-1 4.8 4.8 0 0 0 1.15-3.55 4.53 4.53 0 0 0-1.17-3.31c-.61-.63-1.85-1-3.72-1h-5.91zm38.66-5.72a8.34 8.34 0 0 1 6.31 2.34c1.4 1.45 2.11 3.57 2.11 6.35a7.86 7.86 0 0 1-8.6 8.54q-4.39 0-6.66-2.44a8.21 8.21 0 0 1-1.95-5.91 9.35 9.35 0 0 1 2.18-6.46c1.42-1.54 3.65-2.39 6.61-2.42zm-.2 2.77a4.77 4.77 0 0 0-3.8 1.54 6.55 6.55 0 0 0-1.32 4.38 6.43 6.43 0 0 0 1.08 4.06 4.78 4.78 0 0 0 4 1.7q5.22 0 5.22-5.67a6.6 6.6 0 0 0-1.32-4.43 4.9 4.9 0 0 0-3.85-1.58zm13.87-2.58v-6.22h3.35v6.22h4.92V115h-4.92v8.86a7.93 7.93 0 0 0 .1 1.54 1.2 1.2 0 0 0 .41.69 4.19 4.19 0 0 0 2.43.46h2v2.65h-3.25a11.32 11.32 0 0 1-2.46-.2 3.12 3.12 0 0 1-1.41-.8 3.17 3.17 0 0 1-.89-1.5 9.81 9.81 0 0 1-.26-2.55V115h-3.21v-2.65zm19.32-.19a8.34 8.34 0 0 1 6.31 2.34q2.12 2.17 2.11 6.35a7.86 7.86 0 0 1-8.6 8.54q-4.4 0-6.66-2.44a8.21 8.21 0 0 1-2-5.88 9.35 9.35 0 0 1 2.18-6.46c1.48-1.57 3.7-2.42 6.66-2.45zm-.2 2.77a4.73 4.73 0 0 0-3.79 1.54 6.5 6.5 0 0 0-1.33 4.38 6.43 6.43 0 0 0 1.08 4.06 4.78 4.78 0 0 0 4 1.7q5.22 0 5.22-5.67a6.6 6.6 0 0 0-1.32-4.43 4.9 4.9 0 0 0-3.84-1.58zm25.64-2.58V115h-5.36a7.32 7.32 0 0 0-2.55.37 3.41 3.41 0 0 0-1.54 1.22 7.51 7.51 0 0 0-1 4.21q0 3.31 1.4 4.72a5.18 5.18 0 0 0 3.67 1h5.36v2.65h-5.36a14.26 14.26 0 0 1-4.11-.46 5.77 5.77 0 0 1-3.61-3.53 10.44 10.44 0 0 1-.81-4.12 9.24 9.24 0 0 1 2.21-6.51 6.31 6.31 0 0 1 2.56-1.72 11.44 11.44 0 0 1 3.76-.51zm11.86-.19a8.34 8.34 0 0 1 6.31 2.34q2.11 2.17 2.11 6.35a7.86 7.86 0 0 1-8.6 8.54q-4.4 0-6.66-2.44a8.21 8.21 0 0 1-1.95-5.88 9.35 9.35 0 0 1 2.18-6.46c1.45-1.57 3.65-2.42 6.61-2.45zm-.2 2.77a4.75 4.75 0 0 0-3.79 1.54 6.5 6.5 0 0 0-1.33 4.38 6.43 6.43 0 0 0 1.08 4.06 4.78 4.78 0 0 0 4 1.7c3.48 0 5.23-1.89 5.23-5.67a6.6 6.6 0 0 0-1.33-4.43 4.9 4.9 0 0 0-3.86-1.58zm16.28 14.27h-3.35v-23.07h3.35z" data-name="图层 1"/></g></svg>