<svg xmlns="http://www.w3.org/2000/svg" viewBox="0 0 278.5 52.8"><defs><style>.cls-1{fill:#0052d8;}</style></defs><title>资源 6</title><g id="图层_2" data-name="图层 2"><g id="图层_1-2" data-name="图层 1"><g id="_编组_" data-name="&lt;编组&gt;"><polygon id="_路径_" data-name="&lt;路径&gt;" class="cls-1" points="255.9 16.4 244 16.4 248.7 23.1 254.7 23.1 249.7 52 260.2 52 265.3 23.1 278.5 23.1 257.7 6.4 255.9 16.4"/><polygon id="_路径_2" data-name="&lt;路径&gt;" class="cls-1" points="49.4 0 1.4 0 0 7.6 18.7 7.6 10.9 52 21.4 52 29.3 7.6 48.1 7.6 49.4 0"/><path id="_复合路径_" data-name="&lt;复合路径&gt;" class="cls-1" d="M57.2,15.6c-13.4,0-22,8.5-23.7,18.3-1.9,10.9,4.8,18.9,18.4,18.9,6.1,0,11.7-1.1,16.3-3.7L69.6,41a27.23,27.23,0,0,1-15.1,5c-6.8,0-12.1-2.8-11.3-9.3H71.1a21.9,21.9,0,0,0,1-3.8C73.5,25.1,70.8,15.6,57.2,15.6Zm5.5,14.8H44.3c1.1-3.6,4.7-8.7,11.2-8.7C62.5,21.8,63.3,27.1,62.7,30.4Z"/><path id="_路径_3" data-name="&lt;路径&gt;" class="cls-1" d="M103.9,15.6c-6.6,0-11.5,2.7-13.9,5.5h-.2l-9.3-5.5c-.3,3.1-.8,7.3-1.5,11.4L74.7,52H85.3L89,31.1a9.05,9.05,0,0,1,1-2.9,10.8,10.8,0,0,1,9.1-5.3c5.8,0,7.3,3.9,6.5,9L102.1,52h10.6l3.7-21.1C118.1,19.6,111.1,15.6,103.9,15.6Z"/><path id="_路径_4" data-name="&lt;路径&gt;" class="cls-1" d="M230.6,15.6c-6.6,0-11.5,2.7-13.9,5.5h-.2l-9.3-5.5c-.3,3.1-.8,7.3-1.5,11.4l-4.3,25H212l3.6-20.9a9.05,9.05,0,0,1,1-2.9,10.8,10.8,0,0,1,9.1-5.3c5.8,0,7.3,3.9,6.5,9L228.7,52h10.6L243,30.9C244.8,19.6,237.9,15.6,230.6,15.6Z"/><path id="_复合路径_2" data-name="&lt;复合路径&gt;" class="cls-1" d="M184,15.6c-13.4,0-22,8.5-23.7,18.3-1.9,10.9,4.8,18.9,18.4,18.9,6.1,0,11.7-1.1,16.3-3.7l1.4-8.1a27.23,27.23,0,0,1-15.1,5c-6.8,0-12.1-2.8-11.3-9.3h27.9a21.9,21.9,0,0,0,1-3.8C200.3,25.1,197.5,15.6,184,15.6Zm5.4,14.8H171c1.1-3.6,4.7-8.7,11.2-8.7C189.3,21.8,190.1,27.1,189.4,30.4Z"/><path id="_路径_5" data-name="&lt;路径&gt;" class="cls-1" d="M120.5,33.8c-1.9,11,5.8,19,18.9,19a47.2,47.2,0,0,0,13.8-2.4l1.7-9.5c-3.7,3.9-8.7,4.8-12.2,4.8-7.2,0-12.6-4.2-11.4-11.5,1.1-6.5,7.3-11.5,15.3-11.5,3.3,0,7.7,1.1,10.5,4.8l1.6-9.7a29.56,29.56,0,0,0-11.3-2.1C132.9,15.7,122.4,23.1,120.5,33.8Z"/></g></g></g></svg>