<svg xmlns="http://www.w3.org/2000/svg" role="img" viewBox="-5.56 -5.56 289.38 63.88"><title>Tencent (member) logo</title><defs><style>.cls-1{fill:#0052d8}</style></defs><g id="图层_2" data-name="图层 2"><g id="图层_1-2" data-name="图层 1"><g id="_编组_" data-name="&lt;编组&gt;"><path id="_路径_" d="M255.9 16.4H244l4.7 6.7h6l-5 28.9h10.5l5.1-28.9h13.2L257.7 6.4l-1.8 10z" class="cls-1" data-name="&lt;路径&gt;"/><path id="_路径_2" d="M49.4 0h-48L0 7.6h18.7L10.9 52h10.5l7.9-44.4h18.8L49.4 0z" class="cls-1" data-name="&lt;路径&gt;"/><path id="_复合路径_" d="M57.2 15.6c-13.4 0-22 8.5-23.7 18.3-1.9 10.9 4.8 18.9 18.4 18.9 6.1 0 11.7-1.1 16.3-3.7l1.4-8.1a27.23 27.23 0 0 1-15.1 5c-6.8 0-12.1-2.8-11.3-9.3h27.9a21.9 21.9 0 0 0 1-3.8c1.4-7.8-1.3-17.3-14.9-17.3zm5.5 14.8H44.3c1.1-3.6 4.7-8.7 11.2-8.7 7 .1 7.8 5.4 7.2 8.7z" class="cls-1" data-name="&lt;复合路径&gt;"/><path id="_路径_3" d="M103.9 15.6c-6.6 0-11.5 2.7-13.9 5.5h-.2l-9.3-5.5c-.3 3.1-.8 7.3-1.5 11.4l-4.3 25h10.6L89 31.1a9.05 9.05 0 0 1 1-2.9 10.8 10.8 0 0 1 9.1-5.3c5.8 0 7.3 3.9 6.5 9L102.1 52h10.6l3.7-21.1c1.7-11.3-5.3-15.3-12.5-15.3z" class="cls-1" data-name="&lt;路径&gt;"/><path id="_路径_4" d="M230.6 15.6c-6.6 0-11.5 2.7-13.9 5.5h-.2l-9.3-5.5c-.3 3.1-.8 7.3-1.5 11.4l-4.3 25H212l3.6-20.9a9.05 9.05 0 0 1 1-2.9 10.8 10.8 0 0 1 9.1-5.3c5.8 0 7.3 3.9 6.5 9L228.7 52h10.6l3.7-21.1c1.8-11.3-5.1-15.3-12.4-15.3z" class="cls-1" data-name="&lt;路径&gt;"/><path id="_复合路径_2" d="M184 15.6c-13.4 0-22 8.5-23.7 18.3-1.9 10.9 4.8 18.9 18.4 18.9 6.1 0 11.7-1.1 16.3-3.7l1.4-8.1a27.23 27.23 0 0 1-15.1 5c-6.8 0-12.1-2.8-11.3-9.3h27.9a21.9 21.9 0 0 0 1-3.8c1.4-7.8-1.4-17.3-14.9-17.3zm5.4 14.8H171c1.1-3.6 4.7-8.7 11.2-8.7 7.1.1 7.9 5.4 7.2 8.7z" class="cls-1" data-name="&lt;复合路径&gt;"/><path id="_路径_5" d="M120.5 33.8c-1.9 11 5.8 19 18.9 19a47.2 47.2 0 0 0 13.8-2.4l1.7-9.5c-3.7 3.9-8.7 4.8-12.2 4.8-7.2 0-12.6-4.2-11.4-11.5 1.1-6.5 7.3-11.5 15.3-11.5 3.3 0 7.7 1.1 10.5 4.8l1.6-9.7a29.56 29.56 0 0 0-11.3-2.1c-14.5 0-25 7.4-26.9 18.1z" class="cls-1" data-name="&lt;路径&gt;"/></g></g></g></svg>