<svg xmlns="http://www.w3.org/2000/svg" role="img" viewBox="-6.66 -6.66 346.58 255.33"><title>Vector logo</title><g fill="none" fill-rule="evenodd"><path fill="#001B3D" d="M0 142.9957h12.84902l10.87748 26.95032 11.01345-26.95032h12.78104l-19.30753 44.27552H19.0356L0 142.9957zm94.23264 0v9.75788H80.22788v7.36819h13.25693v9.75787H80.22788v7.63371h14.00476v9.75787H68.4666V142.9957h25.76603zm56.22944 29.47276v13.60792c-4.69091 1.6595-7.27431 2.19054-10.19763 2.19054-7.88618 0-13.8008-3.05348-17.53994-6.638-4.41898-4.31471-6.8664-10.3553-6.8664-16.13037 0-6.3061 2.78735-12.28031 6.8664-16.3295 4.01107-3.9828 10.06167-6.90353 17.13203-6.90353 2.1755 0 5.71068.3319 10.60554 2.25692v13.74068c-3.80712-4.58022-8.29408-4.84574-10.26562-4.84574-3.39921 0-5.98261.9957-8.1581 2.92072-2.78736 2.52244-3.9431 5.9742-3.9431 9.09407 0 3.05349 1.2917 6.43887 3.67115 8.62941 1.97155 1.79227 5.09882 3.05349 8.43005 3.05349 1.7676 0 6.11858-.19914 10.26562-4.6466zm52.1504-19.71488h-9.65377v34.51764h-11.76127v-34.51764h-9.65377v-9.75788h31.0688v9.75788zm69.41838 12.41307c0 5.84145-2.31146 12.0148-7.13835 16.52864-4.62292 4.31471-11.14941 6.57163-17.87985 6.57163-6.73044 0-13.25693-2.25692-17.87986-6.57163-4.82688-4.51384-7.13834-10.68719-7.13834-16.52864 0-5.90783 2.31146-12.14756 7.13834-16.59502C233.75573 144.25693 240.28222 142 247.01266 142c6.73044 0 13.25693 2.25692 17.87985 6.57163 4.82689 4.44746 7.13835 10.6872 7.13835 16.59502zm-25.0182-12.0148c-3.26325 0-6.73044 1.12847-9.17788 3.51815-2.44743 2.3233-3.60316 5.57593-3.60316 8.6958 0 3.91642 1.90356 6.638 3.60317 8.23112 2.1755 2.05779 5.23478 3.51815 9.17787 3.51815 4.01107 0 7.00238-1.39398 9.10989-3.45177 2.1075-2.05778 3.67115-5.11126 3.67115-8.49665 0-3.45176-1.56364-6.50525-3.67115-8.49665-2.51542-2.3233-5.98262-3.51814-9.1099-3.51814zm48.6832-10.15615h18.35574c3.39921 0 7.7502.53104 11.08143 3.91643 2.5834 2.58882 3.8751 6.43887 3.8751 9.95701 0 3.78367-1.35968 7.10267-3.60316 9.22683-1.7676 1.6595-4.14704 2.6552-6.25455 3.05349l14.2087 18.12176h-14.6166l-11.2854-16.9933v16.9933h-11.76127V142.9957zm11.76127 8.89493v10.95272h2.24348c1.76759 0 4.283-.46466 5.71067-1.79226.8838-.86294 1.49566-2.3233 1.49566-3.71729 0-1.3276-.54388-2.78796-1.56364-3.71728-1.08775-1.06208-3.0593-1.72589-5.6427-1.72589h-2.24347z"/><path fill="#001B3D" fill-rule="nonzero" d="M81.51563 236H71.875v-22.54688h9.42188c4.28124 0 6.85937 2.15625 6.85937 5.625 0 2.375-1.75 4.46875-4.01563 4.82813v.28125c3.03126.28125 5.125 2.46875 5.125 5.40625 0 3.95313-2.9375 6.40625-7.75 6.40625zm-5.60938-19.34375v6.28125h3.89063c2.85937 0 4.375-1.10938 4.375-3.14063 0-1.98437-1.42188-3.14062-3.85938-3.14062h-4.40625zm0 16.14063h4.6875c2.96875 0 4.54688-1.21875 4.54688-3.51563 0-2.25-1.625-3.4375-4.70313-3.4375h-4.53125v6.95313zm19.20313 9.40625c-.23438 0-1.28126-.01563-1.53126-.0625v-3.17188c.21876.04688.79688.0625 1.0625.0625 1.64063 0 2.5625-.625 3.0625-2.20313l.20313-.75-6.10938-17.17187h4.25l4 13.34375h.26563l3.98438-13.34375h4.09374l-6.17187 17.64063c-1.45313 4.25-3.28125 5.65625-7.10938 5.65625zM130.29688 236h-4.03125v-19.0625h-6.9375v-3.48438H137.25v3.48438h-6.95313V236zm10.5 0v-17.09375h3.85937V236h-3.85938zm1.92187-19.92188c-1.26563 0-2.3125-1.03125-2.3125-2.32812 0-1.29688 1.04688-2.34375 2.3125-2.34375 1.28125 0 2.3125 1.04688 2.3125 2.34375 0 1.29688-1.03125 2.32813-2.3125 2.32813zM149.45313 236v-17.09375h3.73437v2.76563h.26563c.73437-1.95313 2.48437-3.10938 4.75-3.10938 2.35937 0 4 1.1875 4.71875 3.10938h.26562c.84375-1.875 2.8125-3.10938 5.1875-3.10938 3.42188 0 5.48438 2.14063 5.48438 5.6875V236H170v-10.76563c0-2.20312-1.04688-3.29687-3.125-3.29687-2.01563 0-3.34375 1.46875-3.34375 3.42188V236h-3.76563v-11.04688c0-1.875-1.1875-3.01562-3.09375-3.01562-1.92187 0-3.34375 1.57813-3.34375 3.67188V236h-3.875zm38.5.28125c-2.39063 0-4.375-1.10938-5.34375-2.98438h-.26563V236h-3.73438v-23.70313h3.875v9.32813h.26563c.89063-1.85938 2.85938-3 5.20313-3 4.32812 0 7.01562 3.35938 7.01562 8.82813 0 5.4375-2.70313 8.82812-7.01563 8.82812zm-1.21875-14.35938c-2.64063 0-4.3125 2.125-4.3125 5.53125s1.65625 5.53125 4.3125 5.53125 4.25-2.09375 4.25-5.53125-1.60938-5.53125-4.25-5.53125zm19.29687-.28125c-2.3125 0-3.9375 1.65625-4.10938 4.15625h8.04688c-.07813-2.53125-1.60938-4.15625-3.9375-4.15625zM210 231.29688h3.67188c-.70313 3.10938-3.5625 5.04688-7.59375 5.04688-5.03125 0-8.0625-3.32813-8.0625-8.82813s3.07812-8.95312 8.03125-8.95312c4.875 0 7.79687 3.23438 7.79687 8.625v1.25h-11.9375v.20313c.09375 2.84375 1.73438 4.625 4.28125 4.625 1.92188 0 3.25-.70313 3.8125-1.96875zM217.73438 236v-17.09375h3.73437v2.65625h.26563c.46875-1.6875 2.3125-2.9375 4.51562-2.9375.5625 0 1.25.0625 1.60938.17188v3.59375c-.29688-.10938-1.32813-.21875-1.98438-.21875-2.51563 0-4.26563 1.5625-4.26563 3.95312V236h-3.875zm13.70312.32813c-1.46875 0-2.5-1.0625-2.5-2.46875 0-1.42188 1.03125-2.46875 2.5-2.46875 1.48438 0 2.5 1.04687 2.5 2.46875 0 1.40625-1.01563 2.46875-2.5 2.46875zM239.125 236v-17.09375h3.85938V236H239.125zm1.92188-19.92188c-1.26563 0-2.3125-1.03125-2.3125-2.32812 0-1.29688 1.04687-2.34375 2.3125-2.34375 1.28125 0 2.3125 1.04688 2.3125 2.34375 0 1.29688-1.03125 2.32813-2.3125 2.32813zm14.10937 20.26563c-5.125 0-8.21875-3.34375-8.21875-8.89063 0-5.51562 3.14063-8.89062 8.21875-8.89062 5.09375 0 8.21875 3.35938 8.21875 8.89063 0 5.54687-3.10938 8.89062-8.21875 8.89062zm0-3.25c2.70313 0 4.23438-2.0625 4.23438-5.64063 0-3.5625-1.54688-5.64062-4.23438-5.64062-2.70313 0-4.25 2.07813-4.25 5.64063 0 3.57812 1.54688 5.64062 4.25 5.64062z"/><g fill="#5FEFFF"><path d="M236.176 0h30.022l-71.499 117.916-14.834-24.401z"/><path d="M137.123 117.295L208.246 0H172.77l-34.919 57.344L102.914 0H66z"/></g></g></svg>