<svg xmlns="http://www.w3.org/2000/svg" viewBox="0 0 294.8 64.8"><defs><style>.cls-1{fill:#0085e7;}.cls-2{fill:#00abf9;}.cls-3{fill:#00cfff;}</style></defs><title>资源 8</title><g id="图层_2" data-name="图层 2"><g id="图层_1-2" data-name="图层 1"><path class="cls-1" d="M65.2,32.2a32.64,32.64,0,0,1-15.9,28A30.51,30.51,0,0,0,59.4,37.5V36.2a3.75,3.75,0,0,0-.1-1V35c0-.3-.1-.6-.1-.9a.9.9,0,0,0-.1-.5c0-.3-.1-.5-.1-.8s-.1-.6-.1-.9a.76.76,0,0,0-.1-.4c0-.2-.1-.5-.1-.7s-.1-.3-.1-.4-.1-.5-.2-.7-.1-.3-.1-.4a3.09,3.09,0,0,1-.2-.8l-.3-.9h0l-.3-.9c0-.1-.1-.2-.1-.3a3.55,3.55,0,0,0-.4-.9c-.1-.2-.2-.5-.3-.7a.1.1,0,0,0-.1-.1c-.1-.2-.1-.3-.2-.5a.35.35,0,0,0-.1-.2,2.19,2.19,0,0,0-.3-.5c0-.1-.1-.1-.1-.2a2.51,2.51,0,0,0-.4-.7c-.2-.3-.3-.6-.5-.9s-.3-.5-.5-.8c-.1-.1-.2-.3-.3-.4-.4-.6-.8-1.1-1.1-1.6-.2-.2-.4-.5-.6-.7a4.35,4.35,0,0,1-.6-.7,9,9,0,0,0-.9-1l-.6-.6a15.38,15.38,0,0,0-1.3-1.2l-.4-.4-.1-.1c-.2-.2-.4-.3-.6-.5s-.5-.4-.7-.6a7.63,7.63,0,0,0-1.1-.8c-.2-.2-.5-.3-.7-.5h-.1a3.51,3.51,0,0,0-.8-.5h-.1a4.05,4.05,0,0,0-.9-.5c-.3-.2-.6-.3-.9-.5h0c-.3-.2-.6-.3-.9-.5h0l-.6-.3a18,18,0,0,0-2.1-.8l-.9-.3c-.2-.1-.4-.1-.5-.2s-.4-.1-.5-.2-.4-.1-.6-.2-.3-.1-.5-.1a1.27,1.27,0,0,0-.6-.1,1.27,1.27,0,0,0-.6-.1c-.4-.1-.7-.1-1.1-.2-.2,0-.3-.1-.5-.1s-.5-.1-.8-.1S32,7,31.8,7s-.6-.1-.8-.1H27.6a3.75,3.75,0,0,0-1.1.1c-.3,0-.6.1-.9.1a1.27,1.27,0,0,0-.6.1c-.2,0-.4.1-.7.1a.37.37,0,0,0-.3.1c-.2,0-.5.1-.7.1a.6.6,0,0,0-.4.1c-.2,0-.4.1-.6.1a4.33,4.33,0,0,0-.5.1c-.3.1-.6.1-.8.2l-1.1.3-.9.3a29.48,29.48,0,0,0-4.1,1.7l-.6.3c-.1.1-.2.1-.3.2l-.6.3c-.1.1-.2.1-.3.2s-.3.2-.4.3a2.19,2.19,0,0,0-.5.3c-.2.1-.3.2-.5.3s-.2.1-.2.2c-.2.1-.4.3-.6.4L9.4,14c-.2.2-.5.4-.7.6a25.72,25.72,0,0,0-3.3,3.3c-.1.2-.3.3-.4.5s-.2.2-.2.3c-.2.2-.3.4-.5.6s-.1.1-.1.2-.3.4-.4.6-.2.3-.3.4a5.58,5.58,0,0,0-.5.8c-.1.2-.3.4-.4.6a2.19,2.19,0,0,0-.3.5h0c-.2.3-.3.6-.5.9s-.3.5-.4.7a.1.1,0,0,1-.1.1,3.55,3.55,0,0,0-.4.9A32.61,32.61,0,0,1,32.6,0,32.08,32.08,0,0,1,65.2,32.2Z"/><path class="cls-2" d="M59.4,37.5A30.51,30.51,0,0,1,49.3,60.2,32.6,32.6,0,0,1,0,32.2a31.63,31.63,0,0,1,.9-7.6c.1-.3.3-.6.4-.9a.1.1,0,0,1,.1-.1,2.51,2.51,0,0,1,.4-.7c.2-.3.3-.6.5-.9A24.08,24.08,0,0,0,.5,31.3a24.93,24.93,0,0,0,49.3,5.2c-.1.2-.1.3-.2.5a19.53,19.53,0,0,0,.3-3.4,18.9,18.9,0,1,0-37.8,0,12.1,12.1,0,0,0,.1,1.9A20.57,20.57,0,0,1,30.1,7h.8a2,2,0,0,1,.8.1c.2,0,.5.1.7.1s.5.1.8.1.3.1.5.1c.4.1.7.1,1.1.2.2,0,.4.1.6.1s.4.1.6.1.3.1.5.1.4.1.6.2a.76.76,0,0,1,.5.2c.2.1.4.1.5.2l.9.3a18,18,0,0,1,2.1.8l.6.3h0a4.05,4.05,0,0,1,.9.5h0c.3.2.6.3.9.5a4.05,4.05,0,0,0,.9.5h.1a5.58,5.58,0,0,1,.8.5h.1a3,3,0,0,1,.7.5,10.47,10.47,0,0,1,1.1.8,4.35,4.35,0,0,1,.7.6c.2.2.4.3.6.5a.1.1,0,0,1,.1.1c.2.1.3.3.4.4A15.38,15.38,0,0,0,50.3,16l.6.6c.3.3.6.7.9,1a4.35,4.35,0,0,1,.6.7c.2.2.4.5.6.7a15.26,15.26,0,0,1,1.1,1.6c.1.1.2.3.3.4.2.3.3.5.5.8s.3.6.5.9a5.74,5.74,0,0,0,.4.7c0,.1.1.1.1.2a2.19,2.19,0,0,0,.3.5.35.35,0,0,0,.1.2c.1.1.1.3.2.5a.1.1,0,0,0,.1.1c.1.2.2.5.3.7a3.55,3.55,0,0,0,.4.9c0,.1.1.2.1.3l.3.9h0l.3.9a3.09,3.09,0,0,1,.2.8c0,.1.1.3.1.4s.1.5.2.7.1.3.1.4a1.7,1.7,0,0,1,.1.7c0,.1.1.2.1.4a2.77,2.77,0,0,1,.1.9c0,.3.1.5.1.8a.9.9,0,0,0,.1.5c0,.3.1.6.1.9v.2a3.75,3.75,0,0,0,.1,1v.2A3.08,3.08,0,0,1,59.4,37.5Z"/><path class="cls-3" d="M49.8,36.5A24.93,24.93,0,0,1,.5,31.3,24.08,24.08,0,0,1,2.3,22,30.59,30.59,0,0,1,28.7,6.8h1.4A20.57,20.57,0,0,0,12.2,35.3a18.9,18.9,0,0,0,37.4,1.5C49.7,36.8,49.7,36.7,49.8,36.5Z"/><path d="M132.3,38.5c-.1.1-.1.2-.1.4-.8,3.1-3,3.8-5.8,3.7-2-.1-4,0-5.9,0-3.4-.1-5.1-1.6-5.3-4.9-.1-1.4,0-2.8,0-4.5a3,3,0,0,1,.8.4h.1L119,35c4.6,0,9.2,0,13.8-.1,1.1,0,2.6-.3,3.2-1.5,2.4-4.9-1.6-11.2-7-11.4q-5.1-.15-10.2,0a7.25,7.25,0,0,0-7.5,7.5q-.15,4.5,0,9c.1,4.2,2.8,7.2,6.9,7.4a100.91,100.91,0,0,0,11,0,7.38,7.38,0,0,0,6.3-4.3,7.68,7.68,0,0,0,.8-3.1Zm-17.1-8.8c.3-2.8,1.9-4.4,4.8-4.5,2.4-.1,4.9-.1,7.3,0a4.81,4.81,0,0,1,4.3,2.6c1.4,2.7.6,3.9-2.4,3.9h-5.6c-2.2,0-4.5-.1-6.7,0C115.2,31.8,115,31,115.2,29.7Z"/><path d="M269.6,38.5c-.1.1-.1.2-.1.4-.8,3.1-3,3.8-5.8,3.7-2-.1-4,0-5.9,0-3.4-.1-5.1-1.6-5.3-4.9-.1-1.4,0-2.8,0-4.5a3,3,0,0,1,.8.4h.1l2.9,1.4c4.6,0,9.2,0,13.8-.1,1.1,0,2.6-.3,3.2-1.5,2.4-4.9-1.6-11.2-7-11.4q-5.1-.15-10.2,0a7.25,7.25,0,0,0-7.5,7.5q-.15,4.5,0,9c.1,4.2,2.8,7.2,6.9,7.4a100.91,100.91,0,0,0,11,0,7.38,7.38,0,0,0,6.3-4.3,7.68,7.68,0,0,0,.8-3.1Zm-17.1-8.8c.3-2.8,1.9-4.4,4.8-4.5,2.4-.1,4.9-.1,7.3,0a4.81,4.81,0,0,1,4.3,2.6c1.4,2.7.6,3.9-2.4,3.9h-5.6c-2.2,0-4.5-.1-6.7,0C252.5,31.8,252.3,31,252.5,29.7Z"/><polygon points="104.5 22.2 104.5 24.7 104 25.3 84.8 25.3 84.8 22.2 104.5 22.2"/><polygon points="105.2 42.8 105.2 45.91 84 45.91 84 43.8 84.8 42.8 105.2 42.8"/><polygon points="104.5 22.2 104.5 24.7 104 25.3 89.5 42.8 88.6 43.91 84 43.8 84.8 42.8 99.4 25.3 101.9 22.2 104.5 22.2"/><path d="M166.8,44v2.2h-4V44q.15-6.75,0-13.5c0-3.2-1.6-4.9-4.8-5-2.7-.1-7.8,0-10.6-.1V46.2h-4v-24h4v2.4l3.4-2.1a2.92,2.92,0,0,1,.9-.2h8c.8.1,1.5.3,2.3.4,3.1.6,4.8,3.3,4.8,6.5V44Z"/><rect x="175.5" y="10.8" width="4.1" height="35.4"/><path d="M294.8,22.1v3.2H284.7V46.1h-4V22H284l.7,2.1s3.2-1.9,3.3-2Z"/><polygon points="231 46.2 230.2 47.91 228 49.01 226.7 46.2 215.6 21.91 220 21.91 228.9 41.6 231 46.2"/><polygon points="242.7 21.91 231 46.2 230.2 47.91 226.7 55.3 222.3 55.3 226.7 46.2 228.9 41.6 238.3 21.91 242.7 21.91"/><path d="M200.9,21.7H188.8v3.7h12.1a5.23,5.23,0,0,1,5.2,5.2v.5H194.2a7.6,7.6,0,1,0,0,15.2h15.6V30.7A8.88,8.88,0,0,0,200.9,21.7Zm-6.7,20.7a3.9,3.9,0,0,1-3.9-3.9,3.84,3.84,0,0,1,3.9-3.9h11.9v7.8Z"/></g></g></svg>