<svg xmlns="http://www.w3.org/2000/svg" viewBox="0 0 171.6 53.47"><defs><style>.cls-1{fill:#1649dc;}.cls-2{fill:#00b34e;}.cls-3{fill:#cae7fc;}.cls-4{fill:#ffcb00;}.cls-5{fill:#666;}</style></defs><title>tarssvg</title><g id="图层_2" data-name="图层 2"><g id="图层_1-2" data-name="图层 1"><path class="cls-1" d="M88.22,6.78v3.87a.46.46,0,0,1-.5.46l-6.74,0V28.07c-.67.07-1.34.17-2,.23-.93.1-1.87.24-2.83.34C67.29,29.81,58.58,31.37,50,33.38a172.65,172.65,0,0,1,26.11-7.75V11.15H69.39a.48.48,0,0,1-.46-.47V6.81a.45.45,0,0,1,.46-.47l9.58,0,8.75,0A.5.5,0,0,1,88.22,6.78Z"/><path class="cls-1" d="M171.6,33.38Q161,30.88,150,29.27h-.1c-.13,0-.27,0-.4-.06l-2.77-.41c-4.11-.56-8.28-1-12.45-1.36a6.78,6.78,0,0,0-.87-.07v-1.3a.51.51,0,0,1,.47-.5h11.58a2.39,2.39,0,0,0,1.27-.37,2.42,2.42,0,0,0,0-4.14,2.39,2.39,0,0,0-1.27-.37H141a7.42,7.42,0,0,1-7.38-5.7,8.79,8.79,0,0,1-.13-.94,7.2,7.2,0,0,1,7.21-7.81h8.54a1,1,0,0,1,1,1v2.9a1,1,0,0,1-1,1h-8.58a2.41,2.41,0,0,0,0,4.81h4.84a7.68,7.68,0,0,1,1.27.1,8.93,8.93,0,0,1,1.44.4,7.21,7.21,0,0,1,4.53,6.71A7.07,7.07,0,0,1,151.57,27,183.21,183.21,0,0,1,171.6,33.38Z"/><path class="cls-1" d="M130.21,27.1h0c-1.8-.13-3.64-.23-5.48-.33v0l-2-4.28L120,16.59a.38.38,0,0,1,0-.2.5.5,0,0,1,.47-.5h0l3.53,0a2.43,2.43,0,0,0,1.81-1.17,2.22,2.22,0,0,0,.33-1.23,2.4,2.4,0,0,0-2.4-2.41h-6.48V26.5c-1.6,0-3.2-.07-4.84-.07H110c-1.7,0-3.43,0-5.14.07l-1.7-4.27-3.4-8.61h0l-.2-.47-.24-.6,0-.1-.07.2-.4,1-3.6,9.18L93.56,27c-1.8.1-3.57.23-5.34.4l1.57-4,1.63-4.14,5-12.65a.46.46,0,0,1,.43-.3h4.91a.5.5,0,0,1,.46.3l1,2.61,5.07,12.88c.84,0,1.67,0,2.51,0h1.63V6.81a.52.52,0,0,1,.4-.5H124.2A7.24,7.24,0,0,1,131,13.55a7.39,7.39,0,0,1-1.47,4.37,7.13,7.13,0,0,1-2.6,2.14l1.4,3Z"/><path class="cls-1" d="M152.14,5.27H155a1,1,0,0,0,1-1V1.4a1,1,0,0,0-1-1h-2.9a1,1,0,0,0-1,1V4.31A1,1,0,0,0,152.14,5.27Z"/><path class="cls-2" d="M23.7,35.88c.17.3,13.75,16,13.75,16l-5.54-16-2.3-6.51L21.5,32.94Z"/><path class="cls-3" d="M34.91,12.42V23.5a16.81,16.81,0,0,1-1,2.47,19.27,19.27,0,0,1-2.73,4,.66.66,0,0,0-.14.2,1.21,1.21,0,0,0-.1,1c.14.4.34,1,.6,1.67l1.37,3.9H23.57c-.3-.37-.57-.67-.77-.9a1.24,1.24,0,0,0-1.14-.4A17.93,17.93,0,0,1,4.11,29.41a14,14,0,0,1-1.6-2.31c-.11-.2-.24-.36-.34-.57a15.63,15.63,0,0,1-1.5-3.7h0A17.91,17.91,0,0,1,33.41,9,23.59,23.59,0,0,1,34.91,12.42Z"/><path class="cls-2" d="M24.1,30l-9.65-.27-10.38-.3a14.49,14.49,0,0,1-1.6-2.3c-.1-.2-.23-.37-.33-.57a15.7,15.7,0,0,1-1.5-3.71h0l8.27-7,10.45,9.72,2.57,2.37Z"/><path class="cls-2" d="M30.91,31.17c.13.4.33,1,.6,1.67H10.75l3.7-3.13,3.31-2.81,1.6-1.37,7-6,7.51,6.37a18.76,18.76,0,0,1-2.73,4,1.05,1.05,0,0,0-.14.2A1.18,1.18,0,0,0,30.91,31.17Z"/><circle class="cls-4" cx="25.3" cy="8.91" r="4.27"/><path class="cls-2" d="M32.88,36.75H23.53c-.3-.37-.56-.67-.76-.9a1.21,1.21,0,0,0-1.14-.4A17.94,17.94,0,0,1,4.07,29.37a14.49,14.49,0,0,1-1.6-2.3l12.45-.9,2.84.7,4.17,1,7,1.7.8.2,1.27.3a1.17,1.17,0,0,0-.1,1c.13.4.33,1,.6,1.67C31.88,33.91,32.34,35.28,32.88,36.75Z"/><path class="cls-1" d="M36.92,16.19a19.32,19.32,0,0,1-1.54,9.51,1.13,1.13,0,0,0,.2,1.24l8.31,9.67a.23.23,0,0,0,.4-.23L37.18,16.15C37.08,16,36.88,16.05,36.92,16.19Z"/><path class="cls-1" d="M6.64,33.74,20.63,50a.23.23,0,0,0,.4-.23l-4.24-12a1.25,1.25,0,0,0-1-.8,19.73,19.73,0,0,1-9-3.4C6.71,33.48,6.58,33.61,6.64,33.74Z"/><path class="cls-1" d="M17.86,1A17.06,17.06,0,0,1,32.58,9.48,15.89,15.89,0,0,1,34,12.72,16.48,16.48,0,0,1,34,23.2a18,18,0,0,1-.93,2.33,17.71,17.71,0,0,1-2.6,3.81,3.19,3.19,0,0,0-.27.33,2,2,0,0,0-.17,1.8l.07.17c.13.4.33.9.53,1.54s.4,1.1.64,1.77.5,1.36.73,2.13l4.81,13.65L24.3,36.15c-.2-.24-.37-.44-.53-.6l-.24-.27a2.13,2.13,0,0,0-1.63-.73,2.17,2.17,0,0,0-.44,0,15.8,15.8,0,0,1-3.57.37,16.92,16.92,0,0,1-13-6.11,20.48,20.48,0,0,1-1.53-2.17c-.1-.2-.2-.37-.3-.54a15.9,15.9,0,0,1-1.44-3.47v0A17,17,0,0,1,9.05,3.54,16.45,16.45,0,0,1,17.86,1m0-1A17.62,17.62,0,0,0,8.55,2.67,18,18,0,0,0,.67,22.86h0a20,20,0,0,0,1.5,3.71,4.28,4.28,0,0,0,.34.57c.5.8,1,1.56,1.6,2.3a17.92,17.92,0,0,0,17.55,6.07.66.66,0,0,1,.24,0,1.18,1.18,0,0,1,.9.4c.2.23.47.53.77.9C27.2,41.05,37.72,53.3,37.72,53.3a.41.41,0,0,0,.37.17.49.49,0,0,0,.46-.63s-3.33-9.45-5.64-16.06l-1.37-3.9c-.23-.7-.43-1.27-.6-1.67a1.21,1.21,0,0,1,.1-1c0-.07.1-.14.14-.2a17.31,17.31,0,0,0,2.73-4,15.2,15.2,0,0,0,1-2.47,17.64,17.64,0,0,0,0-11.08A15,15,0,0,0,33.38,9,17.93,17.93,0,0,0,17.86,0Z"/><path class="cls-5" d="M71.86,46.66V35.41h1.51v9.92h5.54v1.33Z"/><path class="cls-5" d="M86.58,45.66a5.67,5.67,0,0,1-1.47.93,4.34,4.34,0,0,1-1.53.27,3,3,0,0,1-2.07-.67,2.19,2.19,0,0,1-.73-1.66A2.55,2.55,0,0,1,81,43.42a2.48,2.48,0,0,1,.7-.8,4.44,4.44,0,0,1,1-.46A8.4,8.4,0,0,1,84,42a16.26,16.26,0,0,0,2.47-.47v-.37a1.51,1.51,0,0,0-.4-1.2,2.39,2.39,0,0,0-1.57-.47,2.34,2.34,0,0,0-1.43.34,2.29,2.29,0,0,0-.71,1.2L81,40.79a3.68,3.68,0,0,1,.6-1.4,2.6,2.6,0,0,1,1.24-.84,5.12,5.12,0,0,1,1.83-.3,5,5,0,0,1,1.7.23,2.45,2.45,0,0,1,1,.6,2.48,2.48,0,0,1,.44.94,10.84,10.84,0,0,1,.06,1.27v1.83a18.54,18.54,0,0,0,.1,2.44,3.4,3.4,0,0,0,.34,1H86.85A1.78,1.78,0,0,1,86.58,45.66Zm-.13-3.07a11.62,11.62,0,0,1-2.27.53,4.68,4.68,0,0,0-1.2.27,1.56,1.56,0,0,0-.54.43,1.11,1.11,0,0,0-.2.67,1.2,1.2,0,0,0,.44.94,1.9,1.9,0,0,0,1.23.36,3,3,0,0,0,1.44-.33,2.11,2.11,0,0,0,.9-1,3.57,3.57,0,0,0,.23-1.37v-.53Z"/><path class="cls-5" d="M90.79,46.66V38.52H92v1.17a2.91,2.91,0,0,1,2.61-1.34,3.68,3.68,0,0,1,1.37.27,2,2,0,0,1,.93.7,3.2,3.2,0,0,1,.43,1,6.46,6.46,0,0,1,.07,1.34v5H96.06V41.76a4,4,0,0,0-.16-1.27,1.36,1.36,0,0,0-.57-.67,1.79,1.79,0,0,0-1-.23,2.31,2.31,0,0,0-1.53.56,2.71,2.71,0,0,0-.64,2.14v4.44h-1.4Z"/><path class="cls-5" d="M105.58,46.66v-1a2.52,2.52,0,0,1-2.27,1.2,3.24,3.24,0,0,1-1.81-.54,3.44,3.44,0,0,1-1.26-1.5,4.94,4.94,0,0,1-.44-2.2,5.78,5.78,0,0,1,.4-2.2,3.17,3.17,0,0,1,1.24-1.54,3,3,0,0,1,1.8-.53,2.71,2.71,0,0,1,2.24,1.1v-4h1.36V46.63h-1.26Zm-4.34-4.07a3.59,3.59,0,0,0,.66,2.34,2,2,0,0,0,1.57.76A2,2,0,0,0,105,45a3.38,3.38,0,0,0,.63-2.27,3.93,3.93,0,0,0-.63-2.47,2,2,0,0,0-1.6-.77,1.94,1.94,0,0,0-1.54.77A3.61,3.61,0,0,0,101.24,42.59Z"/><path class="cls-5" d="M109.28,44.23l1.37-.21a2,2,0,0,0,.63,1.27,2.17,2.17,0,0,0,1.47.44,2.09,2.09,0,0,0,1.4-.4,1.22,1.22,0,0,0,.47-.9.83.83,0,0,0-.4-.74,6.62,6.62,0,0,0-1.4-.47,12.66,12.66,0,0,1-2.1-.66,2,2,0,0,1-1.21-1.87,2,2,0,0,1,.24-1,2.36,2.36,0,0,1,.67-.77,2.3,2.3,0,0,1,.86-.4,4.57,4.57,0,0,1,1.2-.17,4.87,4.87,0,0,1,1.67.27,2.18,2.18,0,0,1,1.54,2l-1.34.2a1.4,1.4,0,0,0-.53-1,2,2,0,0,0-1.24-.36,2.34,2.34,0,0,0-1.36.3.9.9,0,0,0-.4.73A.81.81,0,0,0,111,41a1.37,1.37,0,0,0,.54.36,12.25,12.25,0,0,0,1.23.37,17.31,17.31,0,0,1,2,.64,1.78,1.78,0,0,1,.9.73,1.94,1.94,0,0,1,.33,1.17,2.27,2.27,0,0,1-.4,1.3,2.49,2.49,0,0,1-1.17.93,3.86,3.86,0,0,1-1.7.34,3.91,3.91,0,0,1-2.43-.67A2.86,2.86,0,0,1,109.28,44.23Z"/><path class="cls-5" d="M123.77,43.69l1.36.17a3.5,3.5,0,0,1-1.13,2.2,3.31,3.31,0,0,1-2.24.8,3.58,3.58,0,0,1-2.7-1.1,4.47,4.47,0,0,1-1-3.14,5.59,5.59,0,0,1,.43-2.3,2.89,2.89,0,0,1,1.34-1.47,3.91,3.91,0,0,1,1.93-.5,3.39,3.39,0,0,1,2.17.67,2.84,2.84,0,0,1,1.07,1.9l-1.33.2a2.46,2.46,0,0,0-.67-1.23,1.77,1.77,0,0,0-1.17-.4,2.12,2.12,0,0,0-1.7.73,3.55,3.55,0,0,0-.67,2.37,3.5,3.5,0,0,0,.63,2.37,2.06,2.06,0,0,0,1.64.73,2,2,0,0,0,1.37-.5A2.24,2.24,0,0,0,123.77,43.69Z"/><path class="cls-5" d="M132.41,45.66a5.67,5.67,0,0,1-1.47.93,3.63,3.63,0,0,1-1.53.27,3,3,0,0,1-2.07-.67,2.2,2.2,0,0,1-.74-1.66,2.43,2.43,0,0,1,.27-1.11,2.37,2.37,0,0,1,.7-.8,4,4,0,0,1,1-.46,8.85,8.85,0,0,1,1.24-.2,16.52,16.52,0,0,0,2.47-.47v-.37a1.54,1.54,0,0,0-.4-1.2,2.39,2.39,0,0,0-1.57-.47,2.36,2.36,0,0,0-1.44.34,2.29,2.29,0,0,0-.7,1.2l-1.33-.2a3.68,3.68,0,0,1,.6-1.4,2.57,2.57,0,0,1,1.23-.84,5.22,5.22,0,0,1,1.84-.3,5,5,0,0,1,1.7.23,2.52,2.52,0,0,1,1,.6,2.48,2.48,0,0,1,.43.94,8.54,8.54,0,0,1,.07,1.27v1.83a16.84,16.84,0,0,0,.1,2.44,3.71,3.71,0,0,0,.33,1h-1.43A2,2,0,0,1,132.41,45.66Zm-.1-3.07a11.62,11.62,0,0,1-2.27.53,4.68,4.68,0,0,0-1.2.27,1.43,1.43,0,0,0-.53.43,1,1,0,0,0-.2.67,1.19,1.19,0,0,0,.43.94,1.79,1.79,0,0,0,1.23.36,3,3,0,0,0,1.44-.33,2.11,2.11,0,0,0,.9-1,3.57,3.57,0,0,0,.23-1.37v-.53Z"/><path class="cls-5" d="M136.62,49.8V38.52h1.27v1.07a3.15,3.15,0,0,1,1-.94,2.82,2.82,0,0,1,1.36-.3,3.16,3.16,0,0,1,1.84.53,3.34,3.34,0,0,1,1.2,1.51,5.57,5.57,0,0,1,.4,2.13,5.36,5.36,0,0,1-.43,2.24,3.44,3.44,0,0,1-1.3,1.53,3.24,3.24,0,0,1-1.81.54,2.52,2.52,0,0,1-1.23-.3,2.75,2.75,0,0,1-.9-.74v4h-1.4Zm1.27-7.18a3.57,3.57,0,0,0,.63,2.34,2,2,0,0,0,1.53.77,2,2,0,0,0,1.57-.77,3.71,3.71,0,0,0,.67-2.4,3.63,3.63,0,0,0-.63-2.34,2,2,0,0,0-1.54-.77,2,2,0,0,0-1.57.84A3.56,3.56,0,0,0,137.89,42.62Z"/><path class="cls-5" d="M151.74,44.06l1.43.17a3.54,3.54,0,0,1-1.23,1.93,4.24,4.24,0,0,1-5.18-.4,4.3,4.3,0,0,1-1-3.1,4.61,4.61,0,0,1,1.07-3.21,3.53,3.53,0,0,1,2.73-1.13,3.46,3.46,0,0,1,2.67,1.1,4.3,4.3,0,0,1,1,3.14v.36h-6.11A3.24,3.24,0,0,0,147.9,45a2.19,2.19,0,0,0,1.7.7,2.12,2.12,0,0,0,1.3-.4A2.71,2.71,0,0,0,151.74,44.06Zm-4.54-2.24h4.54a2.61,2.61,0,0,0-.54-1.53,2.06,2.06,0,0,0-1.7-.8,2.17,2.17,0,0,0-1.6.63A2.37,2.37,0,0,0,147.2,41.82Z"/></g></g></svg>