<?xml version="1.0" encoding="utf-8"?>
<!-- Generator: Adobe Illustrator 22.1.0, SVG Export Plug-In . SVG Version: 6.00 Build 0)  -->
<svg version="1.1" id="图层_1" xmlns="http://www.w3.org/2000/svg" xmlns:xlink="http://www.w3.org/1999/xlink" x="0px" y="0px"
	 viewBox="0 0 365 138" style="enable-background:new 0 0 365 138;" xml:space="preserve">
<style type="text/css">
	.st0{fill:#1649DC;}
</style>
<g>
	<g>
		<g>
			<path class="st0" d="M0.3,99c25.6-6,51.7-10.7,78.2-14.2c4.8-0.6,9.6-1.2,14.5-1.7V32.5l20.2-0.1c0.8,0,1.4-0.7,1.4-1.4V19.3
				c0-0.8-0.6-1.4-1.4-1.4L58.3,18c-0.8,0-1.4,0.7-1.4,1.4V31c0,0.8,0.6,1.4,1.4,1.4h20.2v43.4C51.6,81.5,25.5,89.3,0.3,99z"/>
		</g>
		<g>
			<path class="st0" d="M304.5,80.1c2.2-3.4,3.4-7.3,3.4-11.6c0-12-9.7-21.7-21.7-21.7h-14.3c-4,0-7.2-3.3-7.2-7.2
				c0-4,3.2-7.2,7.2-7.2h16.9c0,0,0.1,0,0.1,0h8.7c1.6,0,2.9-1.3,2.9-2.9v-8.7c0-1.6-1.3-2.9-2.9-2.9h-3.1c0,0,0,0,0,0h-22.5
				c-13.4,0-24.1,12.3-21.2,26.3c2.1,10.2,11.7,17.1,22.1,17.1h13.5c4,0,7.2,3.2,7.2,7.2c0,4-3.2,7.2-7.2,7.2h-34.7
				c-0.8,0-1.4,0.6-1.4,1.4V81c16.2,1.3,32.3,3.2,48.2,5.5c22.4,3.3,44.4,7.5,66.2,12.5C345,91.5,325,85.1,304.5,80.1z"/>
		</g>
		<g>
			<path class="st0" d="M240.5,80.3l-5.7-12.4l-4.1-8.9c7.2-3.5,12.2-10.8,12.2-19.4c0-12-9.7-21.7-21.7-21.7h-20.7v0
				c0,0-0.1,0-0.1,0h-11.5c-0.8,0-1.5,0.7-1.5,1.5v45.8c-1.6,0-3.2,0-4.9,0c-2.5,0-5,0-7.5,0.1l-18.3-46.4c-0.2-0.5-0.8-0.9-1.4-0.9
				h-14.7c-0.6,0-1.2,0.3-1.3,0.9L119.4,69l-4.7,12c5.4-0.4,10.7-0.9,16-1.2l5-12.6l10.8-27.5l1.4-3.6l0.8,2.1l0.6,1.4v0l10.2,25.8
				l5.1,12.8c5.1-0.1,10.3-0.2,15.4-0.2h2.4c1.6,0,3.3,0,4.9,0c4.8,0,9.6,0,14.5,0.2V32.3h19.4c4,0,7.2,3.2,7.2,7.2
				c0,3.7-2.8,6.7-6.4,7.2l-10.7,0h-0.1c-0.8,0-1.4,0.7-1.4,1.4c0,0.2,0,0.4,0.1,0.6l8.2,17.6l6,12.9
				C229.6,79.5,235.1,79.8,240.5,80.3z"/>
		</g>
		<g>
			<path class="st0" d="M306.2,14.8h8.7c1.6,0,2.9-1.3,2.9-2.9V3.3c0-1.6-1.3-2.9-2.9-2.9h-8.7c-1.6,0-2.9,1.3-2.9,2.9v8.7
				C303.3,13.5,304.6,14.8,306.2,14.8z"/>
		</g>
	</g>
	<g>
		<g>
			<path class="st0" d="M113.9,117.1h-11.5c-1.8,0-3.2,1.6-3.1,3.2l0,3.6l14.7,0l0,3.8l-14.7,0l0,10l-4.1,0.1v-16.4
				c0.2-2.8,0.8-8.1,8-8.1h10.8L113.9,117.1z"/>
		</g>
		<g>
			<path class="st0" d="M124.7,120.6c-3,0-5.2,0.8-6.6,2.4c-1.4,1.6-2.2,3.8-2.2,6.4c0,2.5,0.7,4.5,1.9,5.9c1.5,1.6,3.7,2.4,6.6,2.4
				c2.8,0,4.9-0.8,6.4-2.4c1.4-1.5,2.1-3.6,2.1-6.1c0-2.8-0.7-4.9-2.1-6.3C129.5,121.4,127.4,120.6,124.7,120.6z M124.4,135
				c-1.7,0-3-0.6-4-1.7c-0.7-0.9-1.1-2.2-1.1-4c0-1.9,0.4-3.3,1.3-4.4c0.9-1,2.1-1.5,3.8-1.5c1.7,0,2.9,0.5,3.8,1.6
				c0.9,1,1.3,2.5,1.3,4.4C129.6,133.1,127.9,135,124.4,135z"/>
		</g>
		<g>
			<path class="st0" d="M147.6,135.1h-3.7c-1.9,0-3.1-0.4-3.6-1.3c-0.3-0.6-0.5-1.6-0.5-3v-9.8h-3.3v9.9c0,1.8,0.2,3.2,0.7,4.2
				c0.5,1,1.2,1.7,2.3,2.1c0.5,0.2,1.1,0.4,1.6,0.4c0.6,0.1,1.4,0.1,2.5,0.1h7.3v-16.8h-3.3V135.1z"/>
		</g>
		<g>
			<path class="st0" d="M158.3,123.6h3.7c1.9,0,3.1,0.4,3.6,1.3c0.3,0.6,0.5,1.6,0.5,3v9.8h3.3v-9.9c0-1.8-0.2-3.2-0.7-4.2
				c-0.5-1-1.2-1.7-2.3-2.1c-0.5-0.2-1.1-0.4-1.6-0.4c-0.6-0.1-1.4-0.1-2.5-0.1H155v16.8h3.3V123.6z"/>
		</g>
		<g>
			<path class="st0" d="M185.1,120.9h-3.9c-2,0-3.6,0.3-4.8,0.9c-1.2,0.6-2.1,1.6-2.7,3c-0.7,1.5-1,3.1-1,4.8c0,1.4,0.2,2.7,0.7,3.9
				c0.4,1.2,1,2.1,1.8,2.7c0.6,0.5,1.4,0.9,2.2,1.1c0.9,0.2,2,0.3,3.5,0.3h7.5v-23h-3.3V120.9z M185.1,135.1H181
				c-1.7,0-2.9-0.4-3.6-1.3c-0.7-0.9-1.1-2.4-1.1-4.5c0-1.7,0.3-3.1,1-4c0.4-0.6,1-1.1,1.6-1.3c0.7-0.3,1.5-0.4,2.7-0.4h3.6V135.1z"
				/>
		</g>
		<g>
			<path class="st0" d="M207.1,122.5c-0.5-0.6-1.1-1-1.9-1.2c-0.8-0.2-1.9-0.3-3.4-0.3h-8.6v2.6h7.9c1.7,0,2.7,0.2,3.1,0.7
				c0.4,0.5,0.6,1.5,0.6,3.2h-6c-2,0-3.4,0.3-4.3,0.8c-0.7,0.4-1.2,1-1.5,1.8c-0.4,0.8-0.6,1.7-0.6,2.6c0,1.3,0.3,2.4,1,3.2
				c0.7,0.8,1.7,1.4,2.9,1.6c0.6,0.1,1.6,0.2,3.2,0.2h8.5v-10.6c0-1.3-0.1-2.3-0.2-2.9C207.8,123.6,207.5,123,207.1,122.5z
				 M204.8,135.1h-5.6c-1.2,0-2.1-0.2-2.6-0.6c-0.5-0.4-0.7-1-0.7-1.9c0-1.1,0.4-1.9,1.1-2.2c0.5-0.2,1.2-0.3,2.2-0.3h5.6V135.1z"/>
		</g>
		<g>
			<path class="st0" d="M218.5,114.7h-3.3v6.2H212v2.6h3.2v9.1c0,1.1,0.1,2,0.3,2.5c0.2,0.6,0.5,1.1,0.9,1.5
				c0.4,0.4,0.9,0.7,1.4,0.8c0.5,0.1,1.4,0.2,2.5,0.2h3.2v-2.6h-2c-1.3,0-2.1-0.2-2.4-0.5c-0.2-0.2-0.3-0.4-0.4-0.7
				c-0.1-0.3-0.1-0.8-0.1-1.5v-8.8h4.9v-2.6h-4.9V114.7z"/>
		</g>
		<g>
			<g>
				<rect x="228.5" y="114.7" class="st0" width="3.3" height="3.5"/>
			</g>
			<g>
				<rect x="228.5" y="120.9" class="st0" width="3.3" height="16.8"/>
			</g>
		</g>
		<g>
			<path class="st0" d="M243.6,120.6c-3,0-5.2,0.8-6.6,2.4c-1.4,1.6-2.2,3.8-2.2,6.4c0,2.5,0.7,4.5,1.9,5.9c1.5,1.6,3.7,2.4,6.6,2.4
				c2.8,0,4.9-0.8,6.4-2.4c1.4-1.5,2.1-3.6,2.1-6.1c0-2.8-0.7-4.9-2.1-6.3C248.4,121.4,246.3,120.6,243.6,120.6z M243.3,135
				c-1.7,0-3-0.6-4-1.7c-0.7-0.9-1.1-2.2-1.1-4c0-1.9,0.4-3.3,1.3-4.4c0.9-1,2.1-1.5,3.8-1.5c1.7,0,2.9,0.5,3.8,1.6
				c0.9,1,1.3,2.5,1.3,4.4C248.5,133.1,246.8,135,243.3,135z"/>
		</g>
		<g>
			<path class="st0" d="M258.4,123.6h3.7c1.9,0,3.1,0.4,3.6,1.3c0.3,0.6,0.5,1.6,0.5,3v9.8h3.3v-9.9c0-1.8-0.2-3.2-0.7-4.2
				c-0.5-1-1.2-1.7-2.3-2.1c-0.5-0.2-1.1-0.4-1.6-0.4c-0.6-0.1-1.4-0.1-2.5-0.1h-7.3v16.8h3.3V123.6z"/>
		</g>
	</g>
</g>
</svg>
